<?xml version="1.0" encoding="UTF-8"?>
<!DOCTYPE svg PUBLIC "-//W3C//DTD SVG 1.1//EN" "http://www.w3.org/Graphics/SVG/1.1/DTD/svg11.dtd">
<svg xmlns="http://www.w3.org/2000/svg" version="1.1" width="208px" height="267px" style="shape-rendering:geometricPrecision; text-rendering:geometricPrecision; image-rendering:optimizeQuality; fill-rule:evenodd; clip-rule:evenodd" xmlns:xlink="http://www.w3.org/1999/xlink">
<g><path style="opacity:1" fill="#fefefd" d="M -0.5,-0.5 C 68.8333,-0.5 138.167,-0.5 207.5,-0.5C 207.5,88.5 207.5,177.5 207.5,266.5C 138.167,266.5 68.8333,266.5 -0.5,266.5C -0.5,177.5 -0.5,88.5 -0.5,-0.5 Z"/></g>
<g><path style="opacity:1" fill="#e3e3e2" d="M 180.5,105.5 C 187.556,118.548 188.222,131.881 182.5,145.5C 179.951,151.044 176.618,156.044 172.5,160.5C 170.167,162.5 167.833,164.5 165.5,166.5C 154.535,155.035 143.369,143.702 132,132.5C 105.863,100.885 100.197,65.8852 115,27.5C 118.205,20.3091 122.205,13.6425 127,7.5C 119.683,24.3796 121.35,40.3796 132,55.5C 148.733,71.7312 164.9,88.3979 180.5,105.5 Z"/></g>
<g><path style="opacity:1" fill="#7ea21f" d="M 89.5,18.5 C 102.741,42.0091 105.741,66.6758 98.5,92.5C 97.2521,91.6661 96.5854,90.3328 96.5,88.5C 94,68.5 91.5,48.5 89,28.5C 88.1925,24.9733 88.3592,21.6399 89.5,18.5 Z"/></g>
<g><path style="opacity:1" fill="#8db520" d="M 89.5,18.5 C 88.3592,21.6399 88.1925,24.9733 89,28.5C 91.5,48.5 94,68.5 96.5,88.5C 96.5854,90.3328 97.2521,91.6661 98.5,92.5C 97.0405,100.565 94.0405,107.898 89.5,114.5C 87.0832,94.1651 84.5832,73.8318 82,53.5C 81.7216,52.5842 81.2216,51.9175 80.5,51.5C 88.5947,35.5993 88.428,19.9327 80,4.5C 83.4241,9.02237 86.5908,13.689 89.5,18.5 Z"/></g>
<g><path style="opacity:1" fill="#94c020" d="M 80.5,51.5 C 81.2216,51.9175 81.7216,52.5842 82,53.5C 84.5832,73.8318 87.0832,94.1651 89.5,114.5C 87.3166,119.527 84.4832,124.193 81,128.5C 68.5806,141.422 55.7473,153.756 42.5,165.5C 31.2707,156.918 24.604,145.585 22.5,131.5C 22.3785,123.107 24.0452,115.107 27.5,107.5C 45.1667,88.8333 62.8333,70.1667 80.5,51.5 Z"/></g>
<g><path style="opacity:1" fill="#fcc64a" d="M 180.5,105.5 C 198.41,127.894 205.077,153.227 200.5,181.5C 200.66,179.801 200.494,178.134 200,176.5C 190.973,167.759 185.139,157.426 182.5,145.5C 188.222,131.881 187.556,118.548 180.5,105.5 Z"/></g>
<g><path style="opacity:1" fill="#166cab" d="M 27.5,107.5 C 24.0452,115.107 22.3785,123.107 22.5,131.5C 10.6953,156.61 10.5286,181.944 22,207.5C 22.1862,204.964 22.6862,202.631 23.5,200.5C 23.3342,205.179 23.5008,209.845 24,214.5C 24.7048,217.476 25.8714,220.142 27.5,222.5C 27.8333,223.833 28.1667,225.167 28.5,226.5C 13.9616,208.554 6.96164,187.887 7.5,164.5C 7.44036,143.006 14.107,124.006 27.5,107.5 Z"/></g>
<g><path style="opacity:1" fill="#0574bd" d="M 22.5,131.5 C 24.604,145.585 31.2707,156.918 42.5,165.5C 42.5,166.167 42.5,166.833 42.5,167.5C 40.8333,168.5 39.5,169.833 38.5,171.5C 29.5542,179.056 24.5542,188.723 23.5,200.5C 22.6862,202.631 22.1862,204.964 22,207.5C 10.5286,181.944 10.6953,156.61 22.5,131.5 Z"/></g>
<g><path style="opacity:1" fill="#faba38" d="M 182.5,145.5 C 185.139,157.426 190.973,167.759 200,176.5C 200.494,178.134 200.66,179.801 200.5,181.5C 199.992,185.736 198.992,189.736 197.5,193.5C 185.551,185.282 177.218,174.282 172.5,160.5C 176.618,156.044 179.951,151.044 182.5,145.5 Z"/></g>
<g><path style="opacity:1" fill="#f8ae29" d="M 172.5,160.5 C 177.218,174.282 185.551,185.282 197.5,193.5C 196.241,200.003 193.907,206.003 190.5,211.5C 190.719,210.325 190.386,209.325 189.5,208.5C 178.141,201.975 169.308,192.975 163,181.5C 160.598,179.628 158.431,177.628 156.5,175.5C 159.167,172.167 162.167,169.167 165.5,166.5C 167.833,164.5 170.167,162.5 172.5,160.5 Z"/></g>
<g><path style="opacity:1" fill="#e43312" d="M 47.5,171.5 C 66.1667,189.833 84.8333,208.167 103.5,226.5C 103.5,227.167 103.5,227.833 103.5,228.5C 97.4581,235.707 90.1248,241.207 81.5,245C 75.3269,247.001 68.9936,247.834 62.5,247.5C 56.0232,247.316 50.0232,245.649 44.5,242.5C 42.0905,241.299 40.0905,239.633 38.5,237.5C 30.8612,214.006 33.8612,192.006 47.5,171.5 Z"/></g>
<g><path style="opacity:1" fill="#f6a319" d="M 156.5,175.5 C 158.431,177.628 160.598,179.628 163,181.5C 169.308,192.975 178.141,201.975 189.5,208.5C 190.386,209.325 190.719,210.325 190.5,211.5C 188.582,216.343 185.916,220.677 182.5,224.5C 173.345,217.86 164.845,210.193 157,201.5C 153.611,196.002 149.777,191.002 145.5,186.5C 148.833,182.5 152.5,178.833 156.5,175.5 Z"/></g>
<g><path style="opacity:1" fill="#bd310b" d="M 42.5,167.5 C 44.7488,168.08 46.4154,169.413 47.5,171.5C 33.8612,192.006 30.8612,214.006 38.5,237.5C 34.4278,234.431 31.0944,230.765 28.5,226.5C 28.1667,225.167 27.8333,223.833 27.5,222.5C 26.2984,204.322 29.965,187.322 38.5,171.5C 39.5,169.833 40.8333,168.5 42.5,167.5 Z"/></g>
<g><path style="opacity:1" fill="#f09308" d="M 145.5,186.5 C 149.777,191.002 153.611,196.002 157,201.5C 164.845,210.193 173.345,217.86 182.5,224.5C 177.139,231.861 170.806,238.194 163.5,243.5C 157.66,245.754 151.66,247.421 145.5,248.5C 135.209,248.761 125.876,245.928 117.5,240C 112.94,235.931 108.274,232.098 103.5,228.5C 103.5,227.833 103.5,227.167 103.5,226.5C 104.239,226.631 104.906,226.464 105.5,226C 118.701,212.631 132.035,199.465 145.5,186.5 Z"/></g>
<g><path style="opacity:1" fill="#8b2d06" d="M 38.5,171.5 C 29.965,187.322 26.2984,204.322 27.5,222.5C 25.8714,220.142 24.7048,217.476 24,214.5C 23.5008,209.845 23.3342,205.179 23.5,200.5C 24.5542,188.723 29.5542,179.056 38.5,171.5 Z"/></g>
<g><path style="opacity:1" fill="#6f2d13" d="M 103.5,228.5 C 108.274,232.098 112.94,235.931 117.5,240C 125.876,245.928 135.209,248.761 145.5,248.5C 117.678,262.08 90.0112,261.746 62.5,247.5C 68.9936,247.834 75.3269,247.001 81.5,245C 90.1248,241.207 97.4581,235.707 103.5,228.5 Z"/></g>
<g><path style="opacity:1" fill="#622910" d="M 44.5,242.5 C 50.0232,245.649 56.0232,247.316 62.5,247.5C 90.0112,261.746 117.678,262.08 145.5,248.5C 151.66,247.421 157.66,245.754 163.5,243.5C 145.686,257.326 125.353,263.993 102.5,263.5C 80.4448,263.596 61.1115,256.596 44.5,242.5 Z"/></g>
</svg>
