<?xml version="1.0" encoding="UTF-8"?>
<svg version="1.1" xmlns="http://www.w3.org/2000/svg" width="225" height="225">
<path d="M0 0 C74.25 0 148.5 0 225 0 C225 74.25 225 148.5 225 225 C150.75 225 76.5 225 0 225 C0 150.75 0 76.5 0 0 Z " fill="#68434C" transform="translate(0,0)"/>
<path d="M0 0 C74.25 0 148.5 0 225 0 C225 32.01 225 64.02 225 97 C150.75 97 76.5 97 0 97 C0 64.99 0 32.98 0 0 Z " fill="#63585B" transform="translate(0,128)"/>
<path d="M0 0 C74.25 0 148.5 0 225 0 C225 10.23 225 20.46 225 31 C150.75 31 76.5 31 0 31 C0 20.77 0 10.54 0 0 Z " fill="#5F4E52" transform="translate(0,194)"/>
<path d="M0 0 C74.25 0 148.5 0 225 0 C225 8.91 225 17.82 225 27 C150.75 27 76.5 27 0 27 C0 18.09 0 9.18 0 0 Z " fill="#795059" transform="translate(0,101)"/>
<path d="M0 0 C74.25 0 148.5 0 225 0 C225 7.92 225 15.84 225 24 C198.44972281 24.87796072 171.94917381 25.08826333 145.38629007 24.89946485 C140.24688182 24.86428595 135.10743377 24.83625596 129.96798706 24.80735779 C120.3042009 24.75198981 110.64046448 24.690508 100.97673118 24.62663645 C89.94585869 24.55404111 78.91494723 24.4885556 67.88402772 24.42356598 C45.25596755 24.29009678 22.62797088 24.14777619 0 24 C0 16.08 0 8.16 0 0 Z " fill="#493D3F" transform="translate(0,128)"/>
<path d="M0 0 C74.25 0 148.5 0 225 0 C225 4.29 225 8.58 225 13 C150.75 13 76.5 13 0 13 C0 8.71 0 4.42 0 0 Z " fill="#5C4449" transform="translate(0,58)"/>
<path d="M0 0 C74.25 0 148.5 0 225 0 C225 4.29 225 8.58 225 13 C150.75 13 76.5 13 0 13 C0 8.71 0 4.42 0 0 Z " fill="#696062" transform="translate(0,152)"/>
<path d="M0 0 C74.25 0 148.5 0 225 0 C225 4.29 225 8.58 225 13 C178.8 13 132.6 13 85 13 C85 12.67 85 12.34 85 12 C56.95 11.67 28.9 11.34 0 11 C0 7.37 0 3.74 0 0 Z " fill="#6A6062" transform="translate(0,194)"/>
<path d="M0 0 C74.25 0 148.5 0 225 0 C225 3.63 225 7.26 225 11 C150.75 11 76.5 11 0 11 C0 7.37 0 3.74 0 0 Z " fill="#58383F" transform="translate(0,71)"/>
<path d="M0 0 C74.25 0 148.5 0 225 0 C225 3.63 225 7.26 225 11 C212.46 11 199.92 11 187 11 C187 10.67 187 10.34 187 10 C125.29 9.67 63.58 9.34 0 9 C0 6.03 0 3.06 0 0 Z " fill="#945D69" transform="translate(0,0)"/>
<path d="M0 0 C74.25 0 148.5 0 225 0 C225 2.97 225 5.94 225 9 C150.00729028 10.32693645 74.98928668 10.74707056 0 9 C0 6.03 0 3.06 0 0 Z " fill="#A19295" transform="translate(0,165)"/>
<path d="M0 0 C74.25 0 148.5 0 225 0 C225 2.97 225 5.94 225 9 C150.75 9 76.5 9 0 9 C0 6.03 0 3.06 0 0 Z " fill="#543F43" transform="translate(0,30)"/>
<path d="M0 0 C74.25 0 148.5 0 225 0 C225 2.64 225 5.28 225 8 C150.75 8 76.5 8 0 8 C0 5.36 0 2.72 0 0 Z " fill="#875E67" transform="translate(0,82)"/>
<path d="M0 0 C74.25 0 148.5 0 225 0 C225 2.31 225 4.62 225 7 C188.42921709 7.8735953 151.87179455 8.16070784 115.29201007 8.12856841 C110.48600742 8.12478831 105.68002534 8.12617063 100.87402344 8.13037109 C67.23789866 8.15908239 33.62501867 7.93761244 0 7 C0 4.69 0 2.38 0 0 Z " fill="#6A424C" transform="translate(0,101)"/>
<path d="M0 0 C74.25 0 148.5 0 225 0 C225 2.31 225 4.62 225 7 C150.75 7 76.5 7 0 7 C0 4.69 0 2.38 0 0 Z " fill="#8F8889" transform="translate(0,218)"/>
<path d="M0 0 C74.25 0 148.5 0 225 0 C225 1.98 225 3.96 225 6 C186.79525856 6.96307049 148.6113779 7.15864377 110.39749146 7.12856841 C105.00701274 7.12477345 99.61655229 7.1261814 94.22607422 7.13037109 C27.94704109 7.18070833 27.94704109 7.18070833 0 6 C0 4.02 0 2.04 0 0 Z " fill="#987179" transform="translate(0,128)"/>
<path d="M0 0 C12.21 0 24.42 0 37 0 C37 0.33 37 0.66 37 1 C37.54969043 0.99907821 38.09938086 0.99815641 38.66572857 0.99720669 C56.50631073 0.96779833 74.34689767 0.94860411 92.1875 0.9375 C92.86540919 0.9370657 93.54331838 0.93663139 94.24177027 0.93618393 C128.809322 0.9146327 163.37360186 0.92797187 197.9375 1.5 C198.66072323 1.51195782 199.38394646 1.52391563 200.12908554 1.53623581 C208.41970872 1.6746856 216.7100228 1.82695743 225 2 C225 3.65 225 5.3 225 7 C150.75 7 76.5 7 0 7 C0 4.69 0 2.38 0 0 Z " fill="#58303A" transform="translate(0,115)"/>
<path d="M0 0 C74.25 0 148.5 0 225 0 C225 2.31 225 4.62 225 7 C202.89 7 180.78 7 158 7 C158 6.67 158 6.34 158 6 C116.09 5.67 74.18 5.34 31 5 C31 4.67 31 4.34 31 4 C20.77 3.67 10.54 3.34 0 3 C0 2.01 0 1.02 0 0 Z " fill="#917F82" transform="translate(0,134)"/>
<path d="M0 0 C74.25 0 148.5 0 225 0 C225 1.65 225 3.3 225 5 C150.75 5 76.5 5 0 5 C0 3.35 0 1.7 0 0 Z " fill="#96777E" transform="translate(0,58)"/>
<path d="M0 0 C74.25 0 148.5 0 225 0 C225 1.65 225 3.3 225 5 C150.75 5 76.5 5 0 5 C0 3.35 0 1.7 0 0 Z " fill="#5A3F45" transform="translate(0,25)"/>
<path d="M0 0 C68.97 0 137.94 0 209 0 C209 0.33 209 0.66 209 1 C214.28 1.33 219.56 1.66 225 2 C225 2.99 225 3.98 225 5 C213.02106786 5.84002776 201.1130148 6.14467321 189.10693359 6.12939453 C187.28329433 6.13075362 185.45965533 6.13253638 183.63601685 6.13470459 C178.74000849 6.13921532 173.8440215 6.13751675 168.94801283 6.1343255 C163.80238766 6.13177257 158.65676417 6.13414719 153.51113892 6.13571167 C144.88551509 6.13752322 136.25989986 6.13515206 127.63427734 6.13037109 C117.672386 6.12491313 107.71051507 6.12670631 97.74862421 6.1321975 C89.16819884 6.136737 80.58777961 6.13737559 72.00735343 6.13475883 C66.89387974 6.13320289 61.78041566 6.13298392 56.6669426 6.13629532 C51.86843025 6.13918679 47.06994428 6.13717487 42.27143478 6.13140106 C40.51344852 6.13008106 38.75546004 6.13045466 36.99747467 6.13266373 C34.59450857 6.13540468 32.19162654 6.13195838 29.78866577 6.12698364 C28.75107009 6.13032973 28.75107009 6.13032973 27.69251287 6.13374341 C23.35522783 6.11637904 19.2677632 5.69693507 15 5 C15 4.34 15 3.68 15 3 C13.87851562 3.12568359 13.87851562 3.12568359 12.734375 3.25390625 C11.74953125 3.35574219 10.7646875 3.45757812 9.75 3.5625 C8.77546875 3.66691406 7.8009375 3.77132813 6.796875 3.87890625 C4.2368648 3.98974468 2.41851841 3.77738092 0 3 C0 2.01 0 1.02 0 0 Z " fill="#532D36" transform="translate(0,9)"/>
<path d="M0 0 C31.35 0 62.7 0 95 0 C95 0.66 95 1.32 95 2 C96.1667627 1.99476318 97.33352539 1.98952637 98.53564453 1.98413086 C128.77905325 1.86244673 159.00975327 2.0927363 189.25 2.5 C190.13819679 2.51195782 191.02639359 2.52391563 191.94150543 2.53623581 C202.96108596 2.68511772 213.98057837 2.8397943 225 3 C225 4.32 225 5.64 225 7 C178.8 7 132.6 7 85 7 C85 6.67 85 6.34 85 6 C56.95 5.67 28.9 5.34 0 5 C0 3.35 0 1.7 0 0 Z " fill="#8D8385" transform="translate(0,200)"/>
<path d="M0 0 C42.9 0 85.8 0 130 0 C130 0.33 130 0.66 130 1 C177.025 1.495 177.025 1.495 225 2 C225 2.99 225 3.98 225 5 C150.75 5 76.5 5 0 5 C0 3.35 0 1.7 0 0 Z " fill="#5C5456" transform="translate(0,189)"/>
<path d="M0 0 C40.59 0 81.18 0 123 0 C123 0.33 123 0.66 123 1 C156.66 1.33 190.32 1.66 225 2 C225 2.99 225 3.98 225 5 C149.96999683 5.87464929 75.02771328 6.09078928 0 5 C0 3.35 0 1.7 0 0 Z " fill="#685D5F" transform="translate(0,205)"/>
<path d="M0 0 C74.25 0 148.5 0 225 0 C225 1.65 225 3.3 225 5 C192 5 159 5 125 5 C125 4.67 125 4.34 125 4 C83.75 3.67 42.5 3.34 0 3 C0 2.01 0 1.02 0 0 Z " fill="#9A8C8F" transform="translate(0,186)"/>
<path d="M0 0 C74.25 0 148.5 0 225 0 C225 1.65 225 3.3 225 5 C192.33 5 159.66 5 126 5 C126 4.67 126 4.34 126 4 C84.42 3.67 42.84 3.34 0 3 C0 2.01 0 1.02 0 0 Z " fill="#91646E" transform="translate(0,0)"/>
<path d="M0 0 C0 0.99 0 1.98 0 3 C-74.25 3 -148.5 3 -225 3 C-225 2.01 -225 1.02 -225 0 C-206.44249416 -0.15745051 -187.88493396 -0.30522761 -169.32727146 -0.4429636 C-160.7009704 -0.50718942 -152.07470842 -0.57406276 -143.44848633 -0.64819336 C-95.61644351 -1.05733393 -47.8262664 -0.87763721 0 0 Z " fill="#554D4E" transform="translate(225,183)"/>
<path d="M0 0 C74.25 0 148.5 0 225 0 C225 0.99 225 1.98 225 3 C150.00729028 4.32693645 74.98928668 4.74707056 0 3 C0 2.01 0 1.02 0 0 Z " fill="#524749" transform="translate(0,171)"/>
<path d="M0 0 C74.25 0 148.5 0 225 0 C225 0.99 225 1.98 225 3 C198.45091127 3.89493613 171.94818245 4.08825629 145.38629007 3.89946485 C140.24688182 3.86428595 135.10743377 3.83625596 129.96798706 3.80735779 C120.3042009 3.75198981 110.64046448 3.690508 100.97673118 3.62663645 C89.94585869 3.55404111 78.91494723 3.4885556 67.88402772 3.42356598 C45.25596788 3.29009679 22.62796897 3.14802828 0 3 C0 2.01 0 1.02 0 0 Z " fill="#524A4C" transform="translate(0,149)"/>
<path d="M0 0 C74.25 0 148.5 0 225 0 C225 0.99 225 1.98 225 3 C150.75 3 76.5 3 0 3 C0 2.01 0 1.02 0 0 Z " fill="#A49699" transform="translate(0,194)"/>
<path d="M0 0 C74.25 0 148.5 0 225 0 C225 0.99 225 1.98 225 3 C150.75 3 76.5 3 0 3 C0 2.01 0 1.02 0 0 Z " fill="#A0898D" transform="translate(0,162)"/>
<path d="M0 0 C74.25 0 148.5 0 225 0 C225 0.99 225 1.98 225 3 C150.75 3 76.5 3 0 3 C0 2.01 0 1.02 0 0 Z " fill="#9F868A" transform="translate(0,146)"/>
<path d="M0 0 C74.25 0 148.5 0 225 0 C225 0.99 225 1.98 225 3 C150.75 3 76.5 3 0 3 C0 2.01 0 1.02 0 0 Z " fill="#986E78" transform="translate(0,90)"/>
<path d="M0 0 C74.25 0 148.5 0 225 0 C225 0.99 225 1.98 225 3 C150.75 3 76.5 3 0 3 C0 2.01 0 1.02 0 0 Z " fill="#4C363C" transform="translate(0,87)"/>
<path d="M0 0 C74.25 0 148.5 0 225 0 C225 0.99 225 1.98 225 3 C150.75 3 76.5 3 0 3 C0 2.01 0 1.02 0 0 Z " fill="#4A3136" transform="translate(0,79)"/>
<path d="M0 0 C74.25 0 148.5 0 225 0 C225 0.99 225 1.98 225 3 C150.75 3 76.5 3 0 3 C0 2.01 0 1.02 0 0 Z " fill="#4C393E" transform="translate(0,55)"/>
<path d="M0 0 C74.25 0 148.5 0 225 0 C225 0.99 225 1.98 225 3 C150.75 3 76.5 3 0 3 C0 2.01 0 1.02 0 0 Z " fill="#99717A" transform="translate(0,30)"/>
<path d="M0 0 C74.25 0 148.5 0 225 0 C225 0.99 225 1.98 225 3 C150.75 3 76.5 3 0 3 C0 2.01 0 1.02 0 0 Z " fill="#94606C" transform="translate(0,76)"/>
<path d="M0 0 C74.25 0 148.5 0 225 0 C225 0.99 225 1.98 225 3 C150.75 3 76.5 3 0 3 C0 2.01 0 1.02 0 0 Z " fill="#935F6B" transform="translate(0,108)"/>
<path d="M0 0 C74.25 0 148.5 0 225 0 C225 0.99 225 1.98 225 3 C150.75 3 76.5 3 0 3 C0 2.01 0 1.02 0 0 Z " fill="#966771" transform="translate(0,52)"/>
<path d="M0 0 C74.25 0 148.5 0 225 0 C225 0.99 225 1.98 225 3 C150.75 3 76.5 3 0 3 C0 2.01 0 1.02 0 0 Z " fill="#A4979A" transform="translate(0,152)"/>
<path d="M0 0 C74.25 0 148.5 0 225 0 C225 0.99 225 1.98 225 3 C150.75 3 76.5 3 0 3 C0 2.01 0 1.02 0 0 Z " fill="#A19194" transform="translate(0,174)"/>
<path d="M0 0 C74.25 0 148.5 0 225 0 C225 0.99 225 1.98 225 3 C150.75 3 76.5 3 0 3 C0 2.01 0 1.02 0 0 Z " fill="#925B68" transform="translate(0,44)"/>
<path d="M0 0 C74.25 0 148.5 0 225 0 C225 0.99 225 1.98 225 3 C150.75 3 76.5 3 0 3 C0 2.01 0 1.02 0 0 Z " fill="#956570" transform="translate(0,68)"/>
<path d="M0 0 C74.25 0 148.5 0 225 0 C225 0.99 225 1.98 225 3 C150.75 3 76.5 3 0 3 C0 2.01 0 1.02 0 0 Z " fill="#966A75" transform="translate(0,98)"/>
<path d="M0 0 C28.45042784 -0.02335015 56.90085426 -0.0409896 85.35128975 -0.05181217 C98.56101934 -0.05697062 111.77074298 -0.06400476 124.98046875 -0.07543945 C136.49272982 -0.08540003 148.00498659 -0.09185671 159.51725185 -0.09408849 C165.61407751 -0.09539326 171.71089084 -0.09846437 177.80771255 -0.10573006 C183.5449589 -0.11251191 189.28218782 -0.11461253 195.01943779 -0.11310768 C197.12614346 -0.11338303 199.23284971 -0.11537532 201.33955193 -0.11920547 C204.21451807 -0.12417648 207.08941833 -0.12298564 209.96438599 -0.12025452 C210.79902661 -0.12316736 211.63366724 -0.1260802 212.49360001 -0.12908131 C216.77605202 -0.11807658 220.78182 0.14695987 225 1 C225 1.66 225 2.32 225 3 C150.75 3 76.5 3 0 3 C0 2.01 0 1.02 0 0 Z " fill="#946671" transform="translate(0,22)"/>
<path d="M0 0 C74.25 0 148.5 0 225 0 C225 0.99 225 1.98 225 3 C150.75 3 76.5 3 0 3 C0 2.01 0 1.02 0 0 Z " fill="#A09496" transform="translate(0,210)"/>
<path d="M0 0 C28.3027733 -0.0233553 56.60554516 -0.04099213 84.90832615 -0.05181217 C98.04964584 -0.05696952 111.19095954 -0.06400158 124.33227539 -0.07543945 C135.7855824 -0.08540338 147.23888508 -0.09185751 158.69219631 -0.09408849 C164.75719581 -0.09539269 170.8221829 -0.0984602 176.88717842 -0.10573006 C182.59570075 -0.11251719 188.30420557 -0.11461145 194.01273155 -0.11310768 C196.10772929 -0.11338279 198.20272761 -0.11537194 200.29772186 -0.11920547 C203.15920118 -0.12418474 206.02061447 -0.12298263 208.88209534 -0.12025452 C209.70993218 -0.12316736 210.53776901 -0.1260802 211.39069182 -0.12908131 C216.03137161 -0.11713302 220.42180038 0.23051546 225 1 C225 1.66 225 2.32 225 3 C150.75 3 76.5 3 0 3 C0 2.01 0 1.02 0 0 Z " fill="#936872" transform="translate(0,36)"/>
<path d="M0 0 C61.05 0 122.1 0 185 0 C185 0.66 185 1.32 185 2 C196.22 2 207.44 2 219 2 C219 2.33 219 2.66 219 3 C146.73 3 74.46 3 0 3 C0 2.01 0 1.02 0 0 Z " fill="#98626F" transform="translate(0,18)"/>
<path d="M0 0 C58.74 0 117.48 0 178 0 C178 0.33 178 0.66 178 1 C201.265 1.495 201.265 1.495 225 2 C225 2.33 225 2.66 225 3 C186.79525856 3.96307049 148.6113779 4.15864377 110.39749146 4.12856841 C105.00701274 4.12477345 99.61655229 4.1261814 94.22607422 4.13037109 C27.94704109 4.18070833 27.94704109 4.18070833 0 3 C0 2.01 0 1.02 0 0 Z " fill="#3E2A2E" transform="translate(0,131)"/>
<path d="M0 0 C74.25 0 148.5 0 225 0 C225 1.98 225 3.96 225 6 C199.94562674 6.0234848 174.89125515 6.04105502 149.83687305 6.05181217 C138.2005711 6.05694231 126.56427604 6.06392152 114.92797852 6.07543945 C104.77166081 6.08548757 94.6153481 6.09187721 84.45902556 6.09408849 C79.09420158 6.09537862 73.72939187 6.0983544 68.36457253 6.10573006 C45.55400345 6.13591782 22.79043426 6.06195535 0 5 C0 4.67 0 4.34 0 4 C91.575 3.505 91.575 3.505 185 3 C185 2.34 185 1.68 185 1 C183.83412464 1.00911329 183.83412464 1.00911329 182.64469624 1.01841068 C163.59082265 1.16692565 144.53690891 1.30859439 125.48293018 1.4429636 C116.2679707 1.50810698 107.05303751 1.5754324 97.83813477 1.64819336 C89.79135487 1.71172495 81.74455571 1.77085852 73.69770736 1.82505554 C69.45068578 1.8538045 65.20370231 1.88452045 60.95673561 1.92053413 C40.60494186 2.09152383 20.33610389 1.91821131 0 1 C0 0.67 0 0.34 0 0 Z " fill="#211C1D" transform="translate(0,17)"/>
<path d="M0 0 C56.76 0 113.52 0 172 0 C172 0.33 172 0.66 172 1 C189.49 1.33 206.98 1.66 225 2 C225 2.33 225 2.66 225 3 C150.75 3 76.5 3 0 3 C0 2.01 0 1.02 0 0 Z " fill="#3C2429" transform="translate(0,125)"/>
<path d="M0 0 C61.05 0 122.1 0 185 0 C185 0.66 185 1.32 185 2 C186.98 2 188.96 2 191 2 C191 2.33 191 2.66 191 3 C127.97 3 64.94 3 0 3 C0 2.01 0 1.02 0 0 Z " fill="#A08F92" transform="translate(0,142)"/>
<path d="M0 0 C74.25 0 148.5 0 225 0 C225 0.99 225 1.98 225 3 C150.75 3 76.5 3 0 3 C0 2.01 0 1.02 0 0 Z " fill="#7D5961" transform="translate(0,58)"/>
<path d="M0 0 C48.84 0 97.68 0 148 0 C148 0.33 148 0.66 148 1 C186.115 1.495 186.115 1.495 225 2 C225 2.33 225 2.66 225 3 C150.75 3 76.5 3 0 3 C0 2.01 0 1.02 0 0 Z " fill="#382529" transform="translate(0,3)"/>
<path d="M0 0 C74.25 0 148.5 0 225 0 C225 0.99 225 1.98 225 3 C191.34 3 157.68 3 123 3 C123 2.34 123 1.68 123 1 C82.41 1 41.82 1 0 1 C0 0.67 0 0.34 0 0 Z " fill="#382E30" transform="translate(0,165)"/>
<path d="M0 0 C42.57 0 85.14 0 129 0 C129 0.66 129 1.32 129 2 C135.93 2 142.86 2 150 2 C150 2.33 150 2.66 150 3 C100.5 3 51 3 0 3 C0 2.01 0 1.02 0 0 Z " fill="#A59295" transform="translate(0,180)"/>
<path d="M0 0 C0 0.33 0 0.66 0 1 C-75.03000317 1.87464929 -149.97228672 2.09078928 -225 1 C-225 0.67 -225 0.34 -225 0 C-149.96714437 -0.93217825 -75.03268777 -0.94390284 0 0 Z " fill="#3A272B" transform="translate(225,209)"/>
<path d="M0 0 C11.55 0 23.1 0 35 0 C35 0.33 35 0.66 35 1 C104.3 1.495 104.3 1.495 175 2 C175 2.33 175 2.66 175 3 C163.5014702 3.73516614 152.06709067 4.14379914 140.54443359 4.11352539 C138.99500022 4.1132422 137.44556672 4.11340382 135.89613342 4.1139679 C131.75475722 4.11425071 127.61341095 4.10843869 123.47204161 4.10139394 C119.11992266 4.09507328 114.76780276 4.0945498 110.41567993 4.09336853 C102.20331007 4.09028059 93.99095378 4.08210197 85.77858984 4.07201904 C76.41680465 4.06077838 67.05501876 4.05532756 57.69322848 4.05032361 C38.46214468 4.03991677 19.23107343 4.02236731 0 4 C0 2.68 0 1.36 0 0 Z " fill="#383133" transform="translate(0,137)"/>
<path d="M0 0 C15.84 0 31.68 0 48 0 C48 0.33 48 0.66 48 1 C90.24 1.33 132.48 1.66 176 2 C172.75170408 4.16553061 171.87632037 4.24957481 168.12736511 4.24723816 C167.12112091 4.25143265 166.11487671 4.25562714 165.07814026 4.25994873 C163.97365036 4.25432922 162.86916046 4.24870972 161.73120117 4.24291992 C159.98332306 4.24576744 159.98332306 4.24576744 158.20013428 4.24867249 C154.98858567 4.2517523 151.77720514 4.24582884 148.5656755 4.23571944 C145.15855704 4.22687499 141.75144217 4.2286982 138.34431458 4.2290802 C132.57628112 4.2281408 126.80829989 4.2194513 121.0402832 4.20581055 C115.21540285 4.19208022 109.39057061 4.18477906 103.56567383 4.18530273 C69.03311997 4.18815041 34.52180776 3.96657276 0 3 C0 2.01 0 1.02 0 0 Z " fill="#2B2425" transform="translate(0,105)"/>
<path d="M0 0 C40.59 0 81.18 0 123 0 C123.495 1.485 123.495 1.485 124 3 C113.88624866 3.02367102 103.77250439 3.04118286 93.65873051 3.05181217 C88.95729118 3.05692591 84.25587142 3.06379966 79.55444336 3.07543945 C53.02010875 3.13940266 26.52300635 2.78592653 0 2 C0 1.34 0 0.68 0 0 Z " fill="#7C5F63" transform="translate(0,166)"/>
<path d="M0 0 C9.24 0 18.48 0 28 0 C28 0.33 28 0.66 28 1 C125.515 1.495 125.515 1.495 225 2 C225 2.33 225 2.66 225 3 C207.23520896 4.22143549 189.47157845 4.14822339 171.67566562 4.1343255 C167.32365789 4.13174793 162.971652 4.13415512 158.61964417 4.13571167 C151.29289365 4.13752235 143.96615326 4.13516081 136.6394043 4.13037109 C129.21263977 4.12557051 121.78589535 4.12551872 114.35913086 4.13037109 C34.7092405 4.18123762 34.7092405 4.18123762 0 3 C0 2.01 0 1.02 0 0 Z " fill="#0A0405" transform="translate(0,49)"/>
<path d="M0 0 C31.35 0 62.7 0 95 0 C95 0.66 95 1.32 95 2 C83.07626876 2.83886711 71.22820396 3.13656365 59.27734375 3.09765625 C57.55286196 3.09578457 55.82837962 3.09436423 54.10389709 3.09336853 C49.62753761 3.08960228 45.15121206 3.0798245 40.67486572 3.06866455 C36.08207661 3.05832158 31.48928185 3.05384369 26.89648438 3.04882812 C17.93097491 3.03819514 8.96549031 3.02119229 0 3 C0 2.01 0 1.02 0 0 Z " fill="#9E9597" transform="translate(0,200)"/>
<path d="M0 0 C0 0.99 0 1.98 0 3 C-25.05437326 3.0234848 -50.10874485 3.04105502 -75.16312695 3.05181217 C-86.7994289 3.05694231 -98.43572396 3.06392152 -110.07202148 3.07543945 C-120.22833919 3.08548757 -130.3846519 3.09187721 -140.54097444 3.09408849 C-145.90579842 3.09537862 -151.27060813 3.0983544 -156.63542747 3.10573006 C-179.44599655 3.13591782 -202.20956574 3.06195535 -225 2 C-225 1.67 -225 1.34 -225 1 C-196.54957085 0.86944963 -168.09914098 0.73905572 -139.64871025 0.60884857 C-126.43898357 0.54838886 -113.22925714 0.48787776 -100.01953125 0.42724609 C-88.50727069 0.3744058 -76.99500969 0.3216615 -65.48274815 0.26903296 C-59.38592759 0.24115785 -53.28910726 0.21323434 -47.19228745 0.18519592 C-41.45504624 0.15881267 -35.71780446 0.13255767 -29.98056221 0.10640144 C-27.87385728 0.09677424 -25.76715256 0.0871 -23.66044807 0.07737541 C-20.78550395 0.06411162 -17.9105591 0.05101665 -15.03561401 0.03796387 C-13.78365307 0.03212744 -13.78365307 0.03212744 -12.50639999 0.02617311 C-8.33755545 0.0074308 -4.16890143 -0.00406185 0 0 Z " fill="#160D0E" transform="translate(225,20)"/>
<path d="M0 0 C15.84 0 31.68 0 48 0 C48 0.99 48 1.98 48 3 C32.16 3 16.32 3 0 3 C0 2.01 0 1.02 0 0 Z " fill="#9D7F84" transform="translate(0,118)"/>
<path d="M0 0 C4.95 0 9.9 0 15 0 C15 0.66 15 1.32 15 2 C17.31 2 19.62 2 22 2 C22 2.33 22 2.66 22 3 C14.74 3 7.48 3 0 3 C0 2.01 0 1.02 0 0 Z " fill="#A4868C" transform="translate(0,12)"/>
</svg>
