<?xml version="1.0" standalone="no"?>
<!DOCTYPE svg PUBLIC "-//W3C//DTD SVG 20010904//EN"
 "http://www.w3.org/TR/2001/REC-SVG-20010904/DTD/svg10.dtd">
<svg version="1.0" xmlns="http://www.w3.org/2000/svg"
 width="651.000000pt" height="651.000000pt" viewBox="0 0 651.000000 651.000000"
 preserveAspectRatio="xMidYMid meet">

<g transform="translate(0.000000,651.000000) scale(0.100000,-0.100000)"
fill="#000000" stroke="none">
<path d="M2960 6495 c-777 -81 -1436 -388 -1983 -924 -396 -388 -676 -851
-836 -1381 -315 -1042 -84 -2173 616 -3017 97 -117 304 -324 423 -423 473
-393 1054 -643 1688 -727 160 -21 579 -24 732 -5 817 100 1512 452 2053 1040
466 506 751 1134 839 1852 17 135 17 553 0 690 -96 784 -420 1447 -973 1985
-519 506 -1141 804 -1884 901 -163 21 -512 26 -675 9z m595 -126 c964 -83
1880 -661 2381 -1501 508 -855 589 -1859 222 -2783 -152 -383 -386 -734 -692
-1041 -252 -251 -500 -430 -814 -587 -348 -173 -661 -267 -1043 -313 -160 -19
-516 -22 -669 -5 -713 79 -1350 377 -1864 871 -446 429 -773 1031 -890 1639
-45 236 -51 303 -51 611 0 315 9 409 61 650 242 1132 1101 2046 2217 2359 367
103 733 135 1142 100z"/>
<path d="M3385 6108 c-5 -32 -55 -429 -55 -440 0 -3 18 -8 39 -10 l39 -3 11
85 c6 47 16 131 23 188 6 56 15 102 18 102 3 0 19 -87 35 -192 15 -106 29
-194 29 -194 1 -1 15 -5 31 -8 l31 -7 84 191 c46 104 85 188 87 187 2 -2 -8
-90 -22 -195 -14 -105 -25 -194 -25 -197 0 -12 80 -4 80 8 1 6 14 111 29 232
16 121 26 223 22 226 -3 4 -31 9 -62 13 l-56 6 -73 -171 c-40 -93 -74 -169
-75 -167 -2 2 -15 84 -29 182 -14 99 -27 180 -29 181 -1 1 -30 5 -64 9 l-62 7
-6 -33z"/>
<path d="M2948 6123 c-45 -5 -44 16 -23 -273 8 -113 15 -206 15 -208 0 -2 19
-2 42 0 l42 3 -2 60 c-2 33 -5 79 -8 103 -6 40 -5 42 21 42 47 0 61 -17 94
-109 l33 -89 41 5 c23 3 43 7 45 8 8 7 -82 202 -99 216 -20 15 -20 15 6 27 61
28 69 135 14 188 -28 26 -37 29 -107 30 -42 1 -94 0 -114 -3z m156 -85 c36
-51 2 -118 -59 -118 -28 0 -33 4 -39 31 -3 17 -6 49 -6 70 l0 39 44 0 c35 0
48 -5 60 -22z"/>
<path d="M2503 6035 c-28 -17 -49 -40 -63 -71 -51 -104 0 -300 92 -362 88 -58
211 -24 257 70 56 117 -10 330 -115 374 -53 22 -123 18 -171 -11z m125 -49
c57 -30 111 -187 92 -271 -26 -113 -143 -94 -189 31 -31 81 -37 153 -17 196
25 53 66 69 114 44z"/>
<path d="M4013 5809 c-76 -99 -144 -189 -151 -199 -13 -17 -10 -20 24 -35 37
-15 39 -15 56 7 10 13 26 35 35 51 10 15 20 27 23 26 3 0 38 -12 79 -27 l75
-27 -3 -61 -2 -60 41 -13 c23 -7 43 -11 45 -9 2 2 5 115 6 252 l3 250 -35 12
c-19 7 -39 13 -46 13 -6 1 -73 -80 -150 -180z m156 -13 c-5 -60 -11 -111 -13
-114 -4 -4 -106 26 -115 34 -2 2 27 46 65 98 37 53 69 94 70 93 1 -1 -2 -51
-7 -111z"/>
<path d="M2163 5928 c-13 -6 -23 -16 -23 -21 0 -6 23 -60 51 -121 29 -61 63
-136 76 -166 l25 -55 -29 26 c-15 14 -82 76 -149 137 -67 62 -126 112 -133
112 -6 0 -29 -9 -51 -20 l-39 -20 24 -52 c72 -162 167 -364 173 -370 8 -8 72
9 72 18 0 3 -27 64 -61 137 -80 172 -90 197 -84 197 3 0 60 -50 128 -112 67
-62 132 -121 144 -131 22 -19 24 -19 68 -3 25 10 45 22 45 27 0 21 -194 429
-204 428 -6 0 -21 -5 -33 -11z"/>
<path d="M4482 5807 c-13 -23 -63 -118 -112 -212 l-89 -170 110 -57 109 -56
15 28 c8 16 15 31 15 33 0 2 -32 18 -70 37 -39 19 -69 37 -68 40 2 3 45 86 96
184 52 97 92 179 90 181 -5 4 -67 35 -70 35 -2 0 -13 -19 -26 -43z"/>
<path d="M4896 5403 c-72 -85 -120 -150 -127 -174 -23 -75 13 -149 92 -189 73
-38 123 -24 201 57 60 62 198 225 197 232 0 3 -14 17 -31 30 l-30 24 -41 -49
c-147 -173 -204 -229 -236 -232 -41 -4 -81 29 -81 68 0 32 10 46 142 198 54
62 96 117 93 122 -3 5 -18 18 -34 29 l-28 20 -117 -136z"/>
<path d="M1420 5482 l-34 -29 89 -234 c48 -129 89 -235 91 -237 1 -2 17 9 34
25 l32 29 -22 52 c-26 60 -26 59 55 122 l54 42 45 -31 c24 -17 48 -31 53 -31
12 0 69 47 63 53 -15 13 -413 267 -419 267 -4 0 -22 -13 -41 -28z m150 -126
l89 -63 -49 -42 c-27 -23 -51 -38 -54 -33 -6 10 -86 194 -86 199 0 9 19 -2
100 -61z"/>
<path d="M3130 5454 c-578 -49 -1046 -260 -1430 -644 -341 -341 -557 -773
-626 -1255 -23 -161 -23 -439 0 -600 78 -540 351 -1038 756 -1377 324 -272
699 -441 1120 -505 157 -23 453 -23 610 0 489 75 907 284 1250 627 343 343
552 761 627 1250 23 157 23 453 0 610 -64 420 -233 796 -505 1120 -336 402
-843 681 -1367 754 -113 16 -356 27 -435 20z m397 -89 c233 -30 466 -101 672
-205 209 -104 351 -204 518 -364 345 -328 552 -714 638 -1186 27 -145 32 -474
10 -635 -62 -458 -262 -871 -583 -1199 -327 -335 -707 -536 -1177 -622 -136
-25 -468 -30 -622 -10 -235 31 -464 101 -672 206 -207 103 -345 200 -512 358
-205 195 -333 368 -454 617 -98 200 -150 358 -190 580 -22 122 -31 441 -16
575 63 555 331 1054 759 1410 321 269 723 438 1142 483 97 10 380 6 487 -8z"/>
<path d="M3130 5254 c-298 -21 -619 -119 -871 -264 -203 -117 -459 -343 -597
-527 -293 -389 -441 -885 -403 -1352 33 -392 161 -739 388 -1043 493 -663
1324 -956 2119 -748 664 174 1211 702 1405 1353 153 516 102 1044 -147 1516
-97 183 -221 348 -381 502 -306 297 -673 478 -1098 543 -105 16 -322 26 -415
20z m196 -149 c52 -34 59 -57 64 -232 l5 -163 315 -219 315 -220 5 77 c7 88
19 115 63 142 41 25 93 25 134 0 56 -34 63 -60 63 -242 l0 -164 93 -64 c145
-100 175 -127 188 -170 10 -33 9 -44 -10 -83 -34 -70 -99 -94 -163 -61 -18 9
-249 169 -515 355 -267 187 -486 339 -489 339 -3 0 -3 -44 -2 -97 l3 -97 575
-403 c621 -436 619 -435 605 -511 -4 -21 -21 -50 -40 -69 -28 -28 -40 -33 -81
-33 -40 0 -58 7 -106 41 l-58 40 0 -99 0 -99 125 -88 c69 -48 133 -97 141
-110 40 -61 19 -141 -47 -177 -45 -25 -95 -19 -151 19 -23 16 -49 33 -55 37
-10 6 -13 -15 -13 -91 l1 -98 102 -70 c134 -92 164 -119 177 -160 29 -87 -61
-180 -150 -155 -16 5 -254 166 -530 359 l-500 350 0 -97 0 -97 503 -352 c276
-193 512 -363 525 -376 31 -33 39 -94 18 -136 -21 -39 -71 -71 -112 -71 -39 0
-55 11 -536 348 -213 150 -390 272 -393 272 -3 0 -5 -150 -5 -332 0 -196 -4
-348 -10 -370 -13 -44 -58 -85 -105 -94 -42 -8 -100 19 -129 59 -20 27 -21 43
-24 383 -2 195 -5 354 -7 354 -2 0 -193 -133 -425 -295 -232 -163 -435 -302
-450 -310 -39 -20 -79 -19 -117 5 -62 38 -80 112 -40 170 14 21 204 161 527
387 l505 354 3 94 c1 52 0 95 -3 95 -4 0 -229 -155 -500 -346 -272 -190 -507
-349 -524 -354 -43 -12 -95 5 -125 41 -20 24 -26 42 -26 79 0 64 18 85 164
185 l115 80 1 98 c0 76 -3 97 -12 91 -7 -4 -31 -20 -54 -36 -22 -16 -56 -31
-76 -34 -46 -8 -104 19 -123 57 -19 36 -19 109 -1 135 8 11 71 60 140 108
l126 87 0 100 0 100 -57 -40 c-47 -34 -64 -41 -104 -41 -121 0 -165 141 -70
222 22 18 285 204 585 413 l545 380 1 98 c0 53 -2 97 -4 97 -3 0 -211 -145
-463 -322 -504 -354 -556 -388 -590 -388 -33 0 -77 24 -102 56 -25 32 -28 109
-6 142 9 12 72 61 140 109 l125 87 0 163 c0 183 7 209 63 243 41 25 93 25 134
0 45 -27 57 -54 63 -143 l5 -77 315 219 315 220 5 165 c5 146 7 168 26 193 44
60 122 77 180 38z"/>
<path d="M2798 3677 l-317 -222 0 -98 c-1 -54 3 -97 7 -95 5 2 149 101 320
222 l312 218 0 99 c0 54 -1 99 -2 98 -2 0 -146 -100 -320 -222z"/>
<path d="M3390 3801 l0 -98 308 -215 c169 -118 313 -218 320 -222 9 -5 12 15
12 91 l-1 98 -237 165 c-130 91 -274 191 -319 223 l-83 57 0 -99z"/>
<path d="M2797 3168 l-317 -222 0 -99 0 -98 98 68 c54 37 198 138 320 223
l222 155 0 98 c0 53 -1 97 -3 97 -1 0 -145 -100 -320 -222z"/>
<path d="M3390 3293 l1 -98 237 -165 c130 -91 274 -191 319 -223 l83 -57 0 98
0 99 -307 215 c-170 118 -314 218 -320 222 -10 6 -13 -15 -13 -91z"/>
<path d="M1130 5215 c-21 -22 -22 -27 -9 -39 8 -7 71 -61 142 -120 70 -59 127
-109 127 -111 0 -2 -33 7 -72 19 -40 13 -128 40 -194 61 l-122 38 -31 -34
c-17 -19 -30 -38 -30 -44 0 -9 265 -237 335 -289 26 -19 26 -19 52 7 23 23 25
29 12 40 -8 8 -72 62 -142 122 -71 59 -128 109 -128 110 0 1 87 -25 194 -58
l193 -60 31 34 c17 19 31 39 31 44 -1 11 -330 292 -352 301 -7 2 -24 -7 -37
-21z"/>
<path d="M5212 5045 c-100 -80 -183 -149 -186 -153 -2 -4 7 -20 20 -35 l24
-28 142 115 c79 63 144 113 145 112 3 -3 -81 -163 -152 -291 l-34 -61 34 -42
33 -42 186 150 c196 159 198 161 152 199 -13 11 -35 -2 -143 -90 -71 -56 -136
-110 -147 -118 -22 -19 -14 -3 101 212 l74 137 -20 29 c-43 59 -35 63 -229
-94z"/>
<path d="M821 4811 c-12 -16 -21 -33 -21 -38 0 -4 91 -65 201 -135 l200 -127
19 32 c11 17 20 35 20 38 0 4 -336 224 -387 253 -6 3 -20 -6 -32 -23z"/>
<path d="M5579 4707 c-63 -40 -154 -96 -202 -125 l-86 -52 20 -35 c12 -19 23
-35 26 -35 12 0 403 243 403 250 0 12 -34 70 -40 69 -3 0 -57 -33 -121 -72z"/>
<path d="M689 4594 c-5 -15 -12 -31 -15 -36 -3 -4 33 -27 80 -49 47 -23 86
-45 86 -50 0 -16 -54 -119 -62 -119 -5 0 -40 16 -78 35 -38 19 -76 35 -83 35
-7 0 -21 -16 -30 -35 -15 -32 -15 -35 1 -44 44 -24 404 -191 411 -191 4 0 15
16 24 35 l17 35 -93 46 c-50 26 -93 48 -95 49 -4 4 57 125 62 125 2 0 43 -18
91 -40 48 -22 90 -40 94 -40 4 0 15 16 24 35 l17 35 -58 29 c-118 59 -360 171
-371 171 -6 0 -16 -12 -22 -26z"/>
<path d="M5739 4542 c-36 -31 -120 -104 -186 -161 l-120 -105 14 -35 c8 -20
18 -39 21 -43 4 -4 118 8 254 25 l247 32 -18 41 -19 41 -173 -29 c-96 -15
-180 -27 -187 -26 -7 2 52 56 132 120 l145 118 -16 40 c-9 22 -19 40 -22 40
-3 0 -36 -26 -72 -58z"/>
<path d="M511 4167 c-20 -25 -41 -99 -41 -145 0 -124 122 -222 276 -222 120 0
199 76 219 212 7 46 6 47 -21 53 -16 4 -35 9 -43 11 -10 3 -12 -2 -8 -18 10
-36 -13 -104 -45 -135 -26 -25 -36 -28 -96 -28 -78 0 -152 31 -186 78 -29 39
-27 108 4 149 22 30 22 32 5 45 -24 17 -49 17 -64 0z"/>
<path d="M5767 4060 c-115 -32 -211 -61 -214 -64 -3 -3 9 -60 27 -126 l33
-121 31 7 c17 3 32 7 33 8 2 1 -6 35 -17 74 -11 39 -20 78 -20 85 0 12 118 49
131 41 4 -2 15 -35 25 -74 17 -68 19 -71 44 -65 14 4 28 10 32 14 4 4 -1 38
-12 76 -11 39 -20 71 -20 72 0 2 46 15 101 28 25 6 27 4 44 -62 25 -93 24 -92
61 -79 l31 11 -32 115 c-26 94 -35 115 -51 117 -10 0 -113 -25 -227 -57z"/>
<path d="M5850 3692 c-118 -13 -217 -26 -218 -28 -2 -1 -1 -21 3 -44 7 -40 8
-42 39 -36 17 3 64 8 104 12 l72 7 0 -26 c0 -38 -28 -63 -112 -98 l-78 -32 0
-43 c0 -26 5 -44 11 -44 28 0 198 90 209 110 12 22 12 22 30 -8 25 -40 75 -55
132 -39 78 23 95 78 74 240 -7 50 -10 57 -29 56 -12 -1 -119 -13 -237 -27z
m210 -112 c0 -55 -63 -95 -109 -71 -20 11 -50 86 -39 97 3 3 34 8 69 12 69 8
79 4 79 -38z"/>
<path d="M369 3508 c0 -18 -4 -86 -7 -151 l-7 -117 31 0 c36 0 44 13 44 67 l0
35 178 -6 c97 -4 189 -9 203 -12 24 -5 27 -2 32 38 3 23 5 44 3 45 -1 1 -90 7
-197 13 -107 6 -199 12 -205 14 -7 3 -9 23 -6 55 l5 51 -37 0 c-34 0 -36 -2
-37 -32z"/>
<path d="M5669 3263 c-17 -44 -15 -143 4 -180 22 -42 70 -66 128 -67 60 0 90
20 135 92 42 66 59 82 91 82 46 0 66 -73 38 -142 -6 -15 -1 -18 29 -18 33 0
36 3 47 42 31 115 -27 208 -130 208 -49 0 -88 -31 -137 -107 -41 -65 -70 -81
-110 -62 -39 20 -50 59 -31 117 9 26 15 47 14 48 -1 1 -17 5 -34 9 -30 6 -34
4 -44 -22z"/>
<path d="M645 3138 c-29 -16 -43 -36 -72 -98 -34 -73 -50 -90 -84 -90 -42 0
-63 38 -56 100 l6 50 -34 0 c-29 0 -34 -4 -40 -31 -16 -73 20 -174 70 -197 77
-35 150 -2 196 90 40 81 56 98 91 98 58 0 86 -71 58 -144 -9 -25 -8 -26 29
-26 45 0 51 10 51 78 0 72 -17 117 -56 151 -29 26 -43 31 -87 31 -29 0 -61 -6
-72 -12z"/>
<path d="M5636 2889 c-4 -23 -5 -43 -4 -44 5 -3 443 -66 459 -65 11 0 18 12
22 37 4 20 5 38 3 40 -2 2 -457 73 -470 73 -2 0 -6 -19 -10 -41z"/>
<path d="M650 2715 c-107 -69 -199 -130 -204 -137 -4 -8 -3 -31 3 -54 l11 -40
246 -18 c135 -9 248 -15 251 -13 2 3 1 21 -2 41 -7 33 -10 36 -40 36 -82 0
-92 7 -109 75 -8 34 -18 69 -21 77 -5 11 9 25 48 47 l54 31 -10 40 c-6 22 -16
40 -22 39 -5 0 -98 -56 -205 -124z m80 -79 c5 -13 12 -40 15 -60 l7 -36 -88 1
c-49 1 -100 4 -114 8 -22 6 -16 12 65 58 50 28 93 51 98 52 4 1 12 -10 17 -23z"/>
<path d="M5584 2633 c-4 -21 -6 -40 -6 -43 1 -3 89 -28 195 -56 140 -37 192
-54 191 -65 -1 -8 -5 -31 -9 -51 -7 -35 -5 -38 20 -48 15 -6 30 -8 33 -5 9 9
79 286 73 289 -3 2 -18 6 -33 10 -25 6 -28 3 -37 -31 -6 -21 -11 -44 -11 -50
0 -19 -7 -17 -214 37 -103 28 -190 50 -192 50 -2 0 -6 -17 -10 -37z"/>
<path d="M948 2395 l-27 -15 35 -76 c19 -41 34 -76 34 -78 0 -5 -131 -59 -134
-55 -1 2 -15 33 -30 69 -16 36 -30 66 -31 68 -6 7 -55 -23 -55 -33 0 -7 11
-38 25 -69 14 -31 25 -60 25 -64 0 -6 -42 -26 -101 -47 -11 -4 -23 13 -48 69
l-32 74 -30 -11 c-16 -6 -29 -15 -29 -19 0 -5 85 -208 95 -225 1 -2 101 41
222 94 l221 96 -25 56 c-13 31 -36 84 -51 119 -14 34 -28 62 -31 62 -3 -1 -18
-7 -33 -15z"/>
<path d="M5467 2293 c-8 -21 -12 -41 -9 -45 4 -3 43 -21 86 -39 77 -32 82 -37
185 -156 100 -118 106 -122 117 -101 28 56 27 61 -41 137 -36 40 -63 76 -60
82 4 5 49 9 100 9 l95 0 20 41 c12 23 19 43 17 45 -2 3 -74 1 -158 -4 l-154
-9 -80 34 c-44 19 -85 37 -91 39 -6 3 -18 -12 -27 -33z"/>
<path d="M1337 1763 c-15 -14 -6 -42 19 -58 30 -20 54 -14 54 14 0 36 -51 67
-73 44z"/>
<path d="M5113 1744 c-3 -8 -3 -35 0 -59 10 -68 -34 -91 -48 -25 -4 17 -11 30
-15 30 -13 0 -30 -35 -30 -60 0 -16 -4 -20 -19 -15 -16 5 -20 -1 -24 -37 -2
-24 -8 -52 -11 -64 -6 -15 5 -38 38 -88 35 -53 44 -74 40 -95 -7 -33 26 -105
55 -121 51 -27 68 1 26 40 -14 13 -25 27 -25 31 0 12 85 152 124 205 84 113
86 114 109 109 33 -9 61 16 53 48 -11 44 -43 44 -86 2 -42 -41 -60 -39 -60 6
0 37 -15 68 -44 91 -27 22 -75 23 -83 2z m87 -54 c13 -24 4 -44 -16 -36 -8 3
-14 -1 -14 -8 0 -8 7 -16 15 -20 8 -3 15 -17 15 -31 0 -14 5 -25 10 -25 6 0
10 -7 10 -15 0 -32 -29 -13 -54 35 -25 47 -34 99 -19 113 13 14 43 6 53 -13z
m-95 -177 c4 -22 3 -33 -4 -33 -16 0 -35 46 -27 66 9 23 22 8 31 -33z m55 18
c7 -13 7 -22 0 -26 -15 -9 -30 4 -30 26 0 25 16 25 30 0z m-91 -87 c12 -15 31
-51 31 -60 0 -5 -20 11 -44 35 -32 32 -42 48 -38 64 5 20 6 20 24 -4 10 -13
22 -29 27 -35z"/>
<path d="M1235 1726 c-23 -17 -14 -42 19 -50 35 -9 96 -46 96 -58 0 -6 -8 -7
-17 -3 -124 51 -181 56 -198 17 -9 -20 -15 -22 -44 -17 -39 7 -71 -15 -71 -51
0 -20 -4 -22 -34 -17 -70 11 -52 -34 33 -83 97 -56 106 -86 14 -48 -77 31
-103 31 -103 0 0 -23 19 -43 66 -72 18 -11 18 -13 -4 -37 -24 -25 -27 -57 -6
-64 6 -2 25 8 42 22 38 32 46 31 92 -5 41 -32 59 -37 78 -18 22 22 13 45 -29
73 -38 25 -40 28 -25 43 15 15 22 11 90 -57 57 -56 79 -72 97 -69 56 8 25 63
-72 130 -66 45 -68 77 -3 43 37 -19 104 -19 131 0 13 9 24 31 28 56 6 36 4 44
-20 69 -39 40 -13 48 34 11 21 -17 46 -31 55 -31 25 0 33 32 11 44 -10 6 -37
28 -59 49 -52 47 -166 137 -175 137 -4 0 -16 -6 -26 -14z m28 -117 c44 -12 49
-29 8 -29 -40 0 -84 18 -76 30 8 13 21 13 68 -1z m-159 -35 c26 -10 18 -24
-14 -24 -30 0 -41 14 -17 23 6 3 13 6 14 6 1 1 8 -2 17 -5z m108 -27 l37 -13
-42 -36 -42 -35 -42 20 -42 20 42 28 c50 33 43 32 89 16z m148 -37 c0 -4 -7
-13 -15 -20 -9 -7 -14 -22 -13 -34 2 -17 -3 -22 -30 -24 -67 -7 -71 6 -18 53
44 38 76 49 76 25z"/>
<path d="M1430 1643 c0 -15 55 -63 72 -63 30 0 35 31 9 52 -22 17 -81 26 -81
11z"/>
<path d="M5220 1423 c-40 -52 -50 -74 -48 -98 2 -22 8 -30 22 -30 22 0 33 17
41 68 7 43 21 48 36 13 9 -19 7 -36 -10 -81 -17 -44 -19 -60 -10 -71 18 -22
39 -17 49 12 6 14 17 32 25 40 8 9 15 22 15 30 0 21 17 17 34 -8 18 -25 21
-84 6 -93 -16 -10 -12 -52 6 -59 43 -16 73 45 59 121 -8 45 -32 93 -45 93 -19
0 -10 24 21 56 35 36 34 64 -4 64 -16 0 -33 -14 -55 -45 -36 -52 -58 -60 -47
-17 15 53 12 67 -17 70 -22 3 -34 -7 -78 -65z"/>
<path d="M1796 1194 c-12 -12 -13 -20 -6 -35 9 -15 22 -19 71 -19 87 0 123
-25 82 -56 -20 -15 -83 -19 -83 -5 0 5 8 12 18 16 16 7 15 8 -3 15 -39 17 -83
11 -114 -15 -34 -29 -81 -121 -81 -159 0 -52 40 -40 64 19 18 42 68 77 103 73
l28 -4 -27 -12 c-17 -7 -28 -19 -28 -31 0 -11 -4 -23 -10 -26 -5 -3 -10 -15
-10 -27 0 -13 -5 -18 -14 -15 -8 3 -32 -3 -53 -13 -21 -11 -71 -29 -110 -41
-89 -26 -107 -43 -75 -70 21 -16 26 -17 70 -3 62 20 112 28 112 20 0 -4 -13
-27 -30 -51 -17 -25 -27 -50 -24 -59 12 -32 39 -15 75 46 20 34 41 64 47 66 6
2 16 -14 21 -36 21 -75 126 -182 179 -182 37 0 35 65 -2 80 -27 10 -97 85
-122 128 -18 32 -18 34 -1 43 9 6 17 17 17 24 0 10 10 15 30 15 43 0 127 34
150 62 32 38 26 62 -25 89 -70 37 -51 50 55 38 50 -6 54 25 6 45 -28 12 -36
21 -36 40 0 21 -5 26 -25 26 -13 0 -28 -7 -33 -15 -7 -14 -18 -12 -83 15 -84
34 -111 37 -133 14z m185 -202 c14 -9 24 -23 21 -30 -4 -14 -91 -56 -99 -48
-3 2 3 15 11 28 9 14 13 27 10 31 -10 10 4 37 18 37 7 0 25 -8 39 -18z"/>
<path d="M4538 1172 c-25 -27 -40 -59 -53 -108 -24 -93 -41 -123 -87 -163 -44
-38 -71 -83 -62 -105 8 -22 50 -31 80 -17 13 6 24 7 24 1 0 -36 -26 -116 -51
-154 -31 -49 -36 -71 -19 -81 34 -21 104 89 134 211 39 152 40 154 99 206 45
39 57 56 57 79 0 24 -4 29 -25 29 -15 0 -31 -9 -41 -25 -9 -14 -20 -25 -25
-25 -17 0 -9 33 15 65 32 41 41 77 26 104 -16 30 -33 26 -72 -17z"/>
<path d="M4780 902 c-44 -21 -70 -26 -127 -26 -69 0 -73 -2 -73 -23 0 -42 33
-63 98 -63 69 1 112 15 176 59 35 25 46 38 44 54 -4 32 -51 31 -118 -1z"/>
<path d="M2599 908 c-47 -39 -113 -215 -112 -297 2 -92 29 -93 40 0 6 53 35
99 41 66 3 -13 8 -15 21 -7 32 16 32 -2 1 -37 -33 -37 -38 -61 -15 -70 17 -6
55 23 55 42 0 19 87 132 123 159 19 14 45 26 58 26 21 0 17 -5 -28 -46 -41
-35 -56 -56 -68 -96 -18 -61 -19 -90 -4 -105 19 -19 38 -3 49 38 12 44 35 54
28 12 -3 -16 -17 -73 -31 -128 -38 -148 -40 -165 -20 -172 22 -9 38 16 63 100
26 87 38 102 99 122 55 18 98 55 118 102 25 60 3 84 -72 80 -27 -2 -30 1 -27
26 2 16 -2 35 -9 43 -6 8 -8 14 -3 15 5 0 26 1 48 2 43 2 69 28 49 48 -15 15
-178 32 -209 22 -13 -4 -41 -30 -62 -57 -47 -62 -67 -75 -84 -57 -11 11 -11
14 0 18 56 21 93 113 58 142 -23 19 -88 25 -107 9z m61 -61 c0 -2 -9 -21 -19
-43 -11 -21 -17 -42 -14 -46 2 -5 -1 -8 -7 -8 -6 0 -22 -12 -35 -26 -25 -26
-25 -26 -25 -5 0 27 46 107 68 121 17 9 32 13 32 7z m194 -99 c-15 -28 -48
-58 -63 -58 -10 0 -3 12 19 35 33 34 58 47 44 23z m96 -130 c0 -20 -32 -48
-57 -48 -23 0 -29 14 -17 44 7 19 74 23 74 4z"/>
<path d="M3735 850 c-31 -31 -64 -54 -87 -60 -22 -7 -39 -18 -43 -30 -4 -11
-11 -18 -16 -14 -5 3 3 27 18 55 24 43 26 51 13 59 -23 15 -27 13 -53 -22 -32
-44 -60 -123 -52 -147 8 -27 35 -34 56 -15 12 11 27 14 48 9 28 -6 32 -3 55
42 28 54 70 103 90 103 7 0 19 -11 26 -25 11 -21 11 -27 -4 -43 -18 -21 -12
-52 10 -52 8 0 22 16 31 35 9 19 24 37 34 40 25 8 32 36 14 54 -13 13 -19 14
-36 3 -19 -12 -20 -11 -17 20 5 53 -27 49 -87 -12z"/>
<path d="M3614 662 c-27 -19 -144 -163 -144 -178 0 -15 4 -14 25 6 31 29 38
23 23 -17 -12 -32 -12 -33 27 -105 5 -10 15 -18 22 -18 7 0 13 -7 13 -15 0 -8
-7 -15 -15 -15 -14 0 -35 -29 -35 -49 0 -6 11 -18 25 -27 41 -27 52 -7 60 106
l7 98 74 76 c75 76 126 112 144 101 13 -8 13 -35 0 -35 -5 0 -10 5 -10 10 0
23 -31 7 -55 -27 -17 -26 -25 -51 -25 -82 0 -37 5 -49 35 -77 61 -57 122 -55
218 6 56 35 81 79 73 125 -12 61 -56 72 -56 14 0 -45 -15 -66 -73 -99 -67 -39
-114 -40 -128 -4 -13 35 -3 62 23 66 28 4 51 76 34 110 -24 48 -71 37 -162
-38 -52 -42 -73 -54 -91 -49 -27 6 -43 -18 -43 -69 0 -20 -4 -36 -10 -36 -5 0
-10 20 -10 44 0 45 29 96 55 96 8 0 27 11 42 25 l28 25 -24 20 c-25 22 -31 23
-47 12z"/>
</g>
</svg>
