<?xml version="1.0" encoding="UTF-8"?>
<svg version="1.1" xmlns="http://www.w3.org/2000/svg" width="232" height="313">
<path d="M0 0 C76.56 0 153.12 0 232 0 C232 103.29 232 206.58 232 313 C155.44 313 78.88 313 0 313 C0 209.71 0 106.42 0 0 Z " fill="#FAFCFB" transform="translate(0,0)"/>
<path d="M0 0 C0.99 0 1.98 0 3 0 C6.02606387 13.54041957 8.85304114 27.10190643 11.38745117 40.74365234 C11.58443604 41.79375488 11.7814209 42.84385742 11.984375 43.92578125 C12.15678711 44.85817627 12.32919922 45.79057129 12.50683594 46.7512207 C12.90823485 49.0208323 12.90823485 49.0208323 14 51 C14.99 50.34 15.98 49.68 17 49 C18.28446919 51.56893838 18.32977144 53.76576337 18.5625 56.625 C18.64628906 57.62789062 18.73007813 58.63078125 18.81640625 59.6640625 C18.87699219 60.43492188 18.93757813 61.20578125 19 62 C19.03738281 60.87980469 19.07476562 59.75960937 19.11328125 58.60546875 C19.17894257 57.1327791 19.24538986 55.66012434 19.3125 54.1875 C19.33505859 53.44951172 19.35761719 52.71152344 19.38085938 51.95117188 C19.65253509 46.49295986 19.65253509 46.49295986 21.41796875 43.98828125 C23 43 23 43 25 43 C25.495 48.445 25.495 48.445 26 54 C26.19335938 53.01257813 26.38671875 52.02515625 26.5859375 51.0078125 C26.84632812 49.72648437 27.10671875 48.44515625 27.375 47.125 C27.63023438 45.84882812 27.88546875 44.57265625 28.1484375 43.2578125 C29 40 29 40 31 38 C32.98 38.495 32.98 38.495 35 39 C34.01 44.94 33.02 50.88 32 57 C33.8041627 51.67880036 33.8041627 51.67880036 35.58886719 46.35107422 C37.17675347 41.7615353 38.87179388 37.79210598 42 34 C42.97308105 33.56502197 43.94616211 33.13004395 44.94873047 32.68188477 C48.60447704 30.6668073 49.35174295 29.23805588 50.9921875 25.45703125 C51.46914062 24.38388672 51.94609375 23.31074219 52.4375 22.20507812 C52.911875 21.08552734 53.38625 19.96597656 53.875 18.8125 C54.37257813 17.68134766 54.87015625 16.55019531 55.3828125 15.38476562 C56.60615565 12.59695478 57.81092131 9.80255627 59 7 C60.32 7 61.64 7 63 7 C61.31315163 12.47589972 58.96330446 17.46773457 56.47851562 22.609375 C55.00632666 25.6975336 53.62607714 28.62089874 53 32 C54.98 32 56.96 32 59 32 C57.64608709 35.56587764 56.06366881 38.86062191 54.21484375 42.1953125 C53.68439453 43.15824219 53.15394531 44.12117188 52.60742188 45.11328125 C51.78081055 46.60408203 51.78081055 46.60408203 50.9375 48.125 C49.84018543 50.10551898 48.7450316 52.08723712 47.65234375 54.0703125 C47.16757568 54.94445801 46.68280762 55.81860352 46.18334961 56.71923828 C44.89269627 59.061557 44.89269627 59.061557 44 62 C44.35449219 61.47535156 44.70898438 60.95070312 45.07421875 60.41015625 C49.15297828 54.47472168 53.44040662 48.72181045 57.8125 43 C58.38766357 42.245979 58.96282715 41.49195801 59.55541992 40.71508789 C63.74400927 35.25599073 63.74400927 35.25599073 66 33 C69.125 32.875 69.125 32.875 72 33 C70.44867532 37.9266311 67.5498469 41.33779383 64.3125 45.25 C63.23001176 46.57905501 62.14797912 47.90848122 61.06640625 49.23828125 C60.54191895 49.87975098 60.01743164 50.5212207 59.47705078 51.18212891 C56.58772683 54.73814645 53.79439475 58.36925471 51 62 C54.8696442 58.97996403 58.52646469 55.7719077 62.125 52.4375 C62.68469482 51.92026367 63.24438965 51.40302734 63.82104492 50.87011719 C69.3579934 45.72157568 74.70208104 40.39347261 80 35 C82.97 35.99 82.97 35.99 86 37 C86 37.66 86 38.32 86 39 C84.70703125 40.26953125 84.70703125 40.26953125 82.8125 41.8125 C78.83027031 45.18643173 75.16066264 48.78702708 71.5 52.5 C67.31252113 56.7423551 63.08803375 60.83087574 58.48828125 64.6328125 C56.74429528 66.1262797 56.74429528 66.1262797 55 69 C55.70640625 68.44054687 56.4128125 67.88109375 57.140625 67.3046875 C66.48739397 60.00105647 76.15791716 53.20782525 85.91625977 46.46704102 C87.34708449 45.45968006 88.74030671 44.39739671 90.09741211 43.29272461 C92 42 92 42 94.75 42.3125 C95.4925 42.539375 96.235 42.76625 97 43 C97 44.32 97 45.64 97 47 C94.74039347 48.84401132 92.57332405 50.38123632 90.125 51.9375 C88.66257008 52.90269044 87.20169341 53.87023747 85.7421875 54.83984375 C84.58541504 55.60337158 84.58541504 55.60337158 83.40527344 56.38232422 C79.28205654 59.1554094 75.2685156 62.07815452 71.25 65 C70.4883252 65.55163818 69.72665039 66.10327637 68.94189453 66.67163086 C65.60836415 69.0893192 62.2902795 71.52364133 59 74 C59.79470703 73.5875 60.58941406 73.175 61.40820312 72.75 C69.68943108 68.45354357 77.97574242 64.16705474 86.26843262 59.89276123 C87.8111632 59.09736045 89.35337206 58.30094796 90.89550781 57.50439453 C93.13525646 56.35022488 95.37884282 55.20413285 97.625 54.0625 C98.24955078 53.73958984 98.87410156 53.41667969 99.51757812 53.08398438 C102.24705672 51.70832716 103.88975699 51 107 51 C107.99 53.475 107.99 53.475 109 56 C93.66666667 63.66666667 78.33333333 71.33333333 63 79 C69.70929771 77.47830361 76.03793829 75.70343557 82.37890625 73.03515625 C86.40258954 71.44607119 90.53237877 70.25129059 94.67578125 69.015625 C98.9717954 67.70309424 103.20563788 66.22867592 107.44140625 64.734375 C110 64 110 64 114 64 C114.33 65.65 114.66 67.3 115 69 C101.49107762 74.72351711 87.53051274 79.38996228 73.4375 83.4375 C72.53926514 83.69644043 71.64103027 83.95538086 70.71557617 84.22216797 C64.38822683 86 64.38822683 86 61 86 C61 86.66 61 87.32 61 88 C61.65524658 87.82041748 62.31049316 87.64083496 62.9855957 87.45581055 C71.51595229 85.21303672 80.09792238 83.64713471 88.79174805 82.21020508 C91.19544666 81.81118082 93.59668287 81.39914276 95.99804688 80.98632812 C97.55455574 80.72577418 99.11119236 80.46598198 100.66796875 80.20703125 C101.37132858 80.08519974 102.07468842 79.96336823 102.79936218 79.83784485 C107.9146015 79.00868682 112.81799284 78.90175838 118 79 C118 80.65 118 82.3 118 84 C101.57120689 88.46331373 84.85538789 90.59208744 68 93 C84.83 93.33 101.66 93.66 119 94 C119 95.98 119 97.96 119 100 C97.55 100.33 76.1 100.66 54 101 C75.12 104.3 96.24 107.6 118 111 C118 111.66 118 112.32 118 113 C112.55432383 113.17287861 107.95417804 112.87393222 102.6875 111.56640625 C99.29336168 110.85107186 95.87996687 110.45748992 92.4375 110.0625 C87.01122664 109.42966705 81.67844047 108.61164518 76.3125 107.5625 C66.59701002 105.66395959 56.80649185 104.33451822 47 103 C46.98582031 102.09378906 46.97164063 101.18757813 46.95703125 100.25390625 C46.57481049 90.49178148 45.13132351 84.22521722 38.25 77.1875 C31.47076773 72.6245552 25.28311192 69.71211844 17 71 C8.23833092 72.89272107 3.21239078 76.7806994 -2 84 C-2.33 84.66 -2.66 85.32 -3 86 C-8.37340479 84.40457616 -13.19053143 82.04143411 -18.17578125 79.52734375 C-19.059207 79.08540176 -19.94263275 78.64345978 -20.85282898 78.18812561 C-22.72388132 77.25109173 -24.59396337 76.31211823 -26.46313477 75.37133789 C-29.2629045 73.9624571 -32.06571486 72.5597923 -34.86914062 71.15820312 C-45.99248747 65.5852649 -57.03402559 59.8764727 -68 54 C-68 53.34 -68 52.68 -68 52 C-64.04084768 52.72852344 -60.65983969 54.56027536 -57.11328125 56.37890625 C-55.67274761 57.10835182 -54.23215176 57.83767455 -52.79150391 58.56689453 C-52.01889221 58.9596759 -51.24628052 59.35245728 -50.45025635 59.75714111 C-46.09326288 61.96716622 -41.72355385 64.15184667 -37.35546875 66.33984375 C-35.50714456 67.26624234 -33.6588374 68.19267489 -31.81054688 69.11914062 C-30.88749756 69.58167236 -29.96444824 70.0442041 -29.01342773 70.52075195 C-27.10585489 71.47709279 -25.19863655 72.43414105 -23.29174805 73.3918457 C-20.50141866 74.7930429 -17.70982686 76.19169551 -14.91796875 77.58984375 C-13.63843575 78.23348122 -13.63843575 78.23348122 -12.33305359 78.89012146 C-11.54405167 79.28466019 -10.75504974 79.67919891 -9.94213867 80.08569336 C-9.2509343 80.43240585 -8.55972992 80.77911835 -7.84757996 81.13633728 C-5.84501368 82.11569986 -5.84501368 82.11569986 -3 83 C-3 82.34 -3 81.68 -3 81 C-4.01126953 80.67322266 -4.01126953 80.67322266 -5.04296875 80.33984375 C-8.91211241 78.58671789 -11.9724576 76.16117213 -15.3125 73.5625 C-20.74013685 69.41345914 -26.2214255 65.39812063 -31.875 61.5625 C-37.91159468 57.44694903 -43.91796471 53.29262562 -49.875 49.0625 C-50.65472168 48.51859619 -51.43444336 47.97469238 -52.23779297 47.41430664 C-52.96111816 46.89731201 -53.68444336 46.38031738 -54.4296875 45.84765625 C-55.07147949 45.39398682 -55.71327148 44.94031738 -56.37451172 44.47290039 C-58.20674703 42.81266073 -59.03678465 41.25910627 -60 39 C-57.15917996 40.35516991 -54.57861 41.87784562 -51.98046875 43.65234375 C-51.21331543 44.17578369 -50.44616211 44.69922363 -49.65576172 45.23852539 C-48.84123535 45.79918701 -48.02670898 46.35984863 -47.1875 46.9375 C-46.33945801 47.51943115 -45.49141602 48.1013623 -44.61767578 48.70092773 C-38.86805022 52.66493852 -33.20191832 56.72623227 -27.59155273 60.88427734 C-22.69177726 64.51182343 -17.73312717 68.05043592 -12.75 71.5625 C-12.02216309 72.07562744 -11.29432617 72.58875488 -10.54443359 73.11743164 C-7.71382504 75.10838468 -4.87973404 77.0801773 -2 79 C-3.10026413 75.6992076 -3.82709337 75.07519718 -6.4375 72.9375 C-12.51144275 67.78385161 -17.99221334 62.05335918 -23.578125 56.3828125 C-27.97412133 51.94636222 -32.4200291 47.67054659 -37.16015625 43.60400391 C-40.05528834 41.0799835 -42.78325588 38.40077889 -45.5 35.6875 C-46.03625 35.16349609 -46.5725 34.63949219 -47.125 34.09960938 C-48.45717501 32.77253198 -49.73407049 31.39041258 -51 30 C-51 29.34 -51 28.68 -51 28 C-47.17970633 29.5985626 -44.41556901 32.13915416 -41.4375 34.9375 C-40.88811768 35.44821045 -40.33873535 35.9589209 -39.77270508 36.48510742 C-33.63272386 42.24956487 -27.70957059 48.23639335 -21.80053711 54.23608398 C-17.04059175 59.04912355 -12.15878904 63.61797422 -7 68 C-5.66661373 69.14577173 -4.33327811 70.29160241 -3 71.4375 C-2.01 72.283125 -1.02 73.12875 0 74 C-2.24126807 70.07958255 -4.78900217 66.56147394 -7.5625 63 C-8.45970694 61.8438055 -9.3568403 60.68755389 -10.25390625 59.53125 C-10.71039551 58.94472656 -11.16688477 58.35820313 -11.63720703 57.75390625 C-13.76868618 55.01070557 -15.88388265 52.25505583 -18 49.5 C-18.8293484 48.42181447 -19.65877578 47.34368969 -20.48828125 46.265625 C-22.19467246 44.04738316 -23.90031057 41.8285648 -25.60546875 39.609375 C-26.03424316 39.05169434 -26.46301758 38.49401367 -26.90478516 37.91943359 C-27.75040017 36.81887869 -28.59514755 35.71765651 -29.43896484 34.61572266 C-31.3285754 32.15190017 -33.23579481 29.70726011 -35.18359375 27.2890625 C-35.82425781 26.49242188 -36.46492188 25.69578125 -37.125 24.875 C-37.68445313 24.19179688 -38.24390625 23.50859375 -38.8203125 22.8046875 C-40 21 -40 21 -40 18 C-36.02559486 19.52381901 -34.32347731 21.90179821 -31.875 25.3125 C-31.07640158 26.40949588 -30.27689138 27.50582846 -29.4765625 28.6015625 C-29.06696289 29.16649414 -28.65736328 29.73142578 -28.23535156 30.31347656 C-26.28655606 32.97400608 -24.26734888 35.57874592 -22.25 38.1875 C-17.63392801 44.16757889 -13.0456742 50.16865648 -8.46582031 56.17651367 C-7.68223145 57.2028894 -7.68223145 57.2028894 -6.8828125 58.25 C-6.38942383 58.89710937 -5.89603516 59.54421875 -5.38769531 60.2109375 C-4.16241267 61.79061223 -2.89290769 63.33577039 -1.6171875 64.875 C0 67 0 67 0 69 C0.66 69 1.32 69 2 69 C-0.23959932 62.3966453 -3.31174713 56.6414454 -6.8125 50.625 C-11.95059527 41.67484094 -16.93747707 32.65756265 -21.8125 23.5625 C-22.42907471 22.41281738 -23.04564941 21.26313477 -23.6809082 20.07861328 C-25.12254169 17.38676992 -26.56239847 14.69399824 -28 12 C-27.34 11.34 -26.68 10.68 -26 10 C-21.61073154 16.83519669 -17.6688492 23.88748698 -13.75 31 C-12.42147701 33.40544815 -11.09171574 35.81021034 -9.76171875 38.21484375 C-9.43739365 38.80168442 -9.11306854 39.38852509 -8.77891541 39.9931488 C-6.87975419 43.42537694 -4.96155997 46.84576365 -3.01953125 50.25390625 C-2.59639648 50.99705078 -2.17326172 51.74019531 -1.73730469 52.50585938 C-0.97452645 53.84119683 -0.20843715 55.17465036 0.56152344 56.50585938 C3 60.78095541 3 60.78095541 3 63 C3.66 63 4.32 63 5 63 C3.41044345 55.71130166 1.30365334 49.03231979 -1.6796875 42.19921875 C-3.13027268 38.68433928 -4.33561294 35.11652475 -5.5 31.5 C-7.3526714 25.75093592 -9.54272359 20.22284519 -11.9296875 14.67578125 C-13.33597182 11.16007045 -14.21727968 7.7001324 -15 4 C-13.09545898 4.27416992 -13.09545898 4.27416992 -11 5 C-9.81660966 7.79958072 -8.9050877 10.41070592 -8.0625 13.3125 C-7.54512558 14.97764116 -7.02428618 16.64170964 -6.5 18.3046875 C-6.24605469 19.11647461 -5.99210937 19.92826172 -5.73046875 20.76464844 C-4.81798677 23.5569897 -3.72961041 26.24239636 -2.5625 28.9375 C-0.27114741 34.25403706 1.79472296 39.63759856 3.8125 45.0625 C4.28417603 46.3143811 4.28417603 46.3143811 4.76538086 47.59155273 C5.05550049 48.37731689 5.34562012 49.16308105 5.64453125 49.97265625 C5.90596924 50.67656494 6.16740723 51.38047363 6.43676758 52.10571289 C7 54 7 54 7 57 C7.66 56.67 8.32 56.34 9 56 C7.8755066 45.19163407 6.31218749 34.62856348 4 24 C3.45184248 21.47755929 2.90492346 18.95489613 2.36279297 16.43115234 C2.0038136 14.7636661 1.63978884 13.0972557 1.27001953 11.43212891 C0.43163691 7.55430255 -0.23265932 3.9953222 0 0 Z " fill="#0B9D27" transform="translate(96,15)"/>
<path d="M0 0 C6.77227091 -0.30386821 13.23579457 0.84649985 19.90625 1.93359375 C21.14491821 2.13098648 22.38358643 2.32837921 23.65979004 2.53175354 C26.93906118 3.05523406 30.21752206 3.58330925 33.4956665 4.11376953 C36.81815062 4.65040145 40.14150594 5.18157552 43.46484375 5.71289062 C47.2088484 6.31153099 50.95272414 6.91085071 54.69592285 7.51451111 C60.1250052 8.38909608 65.55223204 9.24989489 71 10 C71.08636719 10.99 71.17273438 11.98 71.26171875 13 C72.05505678 20.81566554 73.20558469 26.56538998 78 33 C78 33.66 78 34.32 78 35 C78.66 35 79.32 35 80 35 C79.67 36.98 79.34 38.96 79 41 C79.66 40.01 80.32 39.02 81 38 C81.99 38 82.98 38 84 38 C82.8905928 41.48670834 81.73662334 44.77484237 80 48 C80.66 48 81.32 48 82 48 C82.185625 46.8553125 82.185625 46.8553125 82.375 45.6875 C83 43 83 43 85 40 C85.66 40 86.32 40 87 40 C86.48636193 43.76667915 85.73730949 46.64120164 84 50 C84 50.99 84 51.98 84 53 C84.66 53.33 85.32 53.66 86 54 C86.185625 52.14375 86.185625 52.14375 86.375 50.25 C86.75746305 47.1237803 87.30549523 44.71120763 89 42 C89.66 42 90.32 42 91 42 C90.38273804 47.67355671 89.72054048 53.33861055 89 59 C89.66 59.33 90.32 59.66 91 60 C90.97679688 59.443125 90.95359375 58.88625 90.9296875 58.3125 C90.79988976 52.82390985 91.46671566 48.2706649 93 43 C93.66 43 94.32 43 95 43 C94.67 49.27 94.34 55.54 94 62 C92.515 62.495 92.515 62.495 91 63 C90.87496094 63.92941406 90.74992187 64.85882813 90.62109375 65.81640625 C89.89672096 70.87937738 88.97640734 75.90591349 88.0625 80.9375 C87.80823242 82.36352539 87.80823242 82.36352539 87.54882812 83.81835938 C86.55926206 89.27790447 85.3961862 94.63050058 84 100 C83.63776843 101.58150775 83.28179837 103.16449153 82.9375 104.75 C82.33621205 107.51294297 81.69743119 110.2596509 81 113 C79.35 113 77.7 113 76 113 C75.7110708 106.24226705 76.79338257 100.21061885 78.25 93.625 C78.47453857 92.57731445 78.69907715 91.52962891 78.93041992 90.45019531 C79.99965668 85.48385703 81.1031688 80.52554171 82.22265625 75.5703125 C82.49964355 74.34127197 82.49964355 74.34127197 82.78222656 73.08740234 C83.12684379 71.56835753 83.47619267 70.05037567 83.83105469 68.53369141 C84.58934609 65.22542842 85 62.42073952 85 59 C84.76216797 59.87398437 84.76216797 59.87398437 84.51953125 60.765625 C83.1760179 65.48647853 81.63833604 69.99419804 79.6875 74.5 C77.47528649 79.65072603 75.66970037 84.86256753 73.9375 90.1875 C69.57635464 103.42904821 69.57635464 103.42904821 67 108 C64.25 109.0625 64.25 109.0625 62 109 C60.83713344 105.61188308 61.15000644 103.78964534 62.43115234 100.47851562 C62.93695328 99.1469342 62.93695328 99.1469342 63.45297241 97.78845215 C63.82685089 96.83732544 64.20072937 95.88619873 64.5859375 94.90625 C64.96231354 93.92257446 65.33868958 92.93889893 65.72647095 91.92541504 C66.93236075 88.77953961 68.15312598 85.63969751 69.375 82.5 C70.5867246 79.35922136 71.7953761 76.21728591 73.00210571 73.07458496 C73.75421258 71.11886284 74.50977463 69.16446524 75.26913452 67.21154785 C75.61263947 66.3238269 75.95614441 65.43610596 76.31005859 64.52148438 C76.61285736 63.74301147 76.91565613 62.96453857 77.22763062 62.16247559 C77.95582282 60.12368704 78.51579026 58.1085961 79 56 C78.39696045 57.13091064 78.39696045 57.13091064 77.78173828 58.28466797 C70.53746838 71.86173188 63.28146959 85.42648589 55.7578125 98.8515625 C54.80876051 100.55142006 53.87065669 102.25868661 53 104 C51.35 103.34 49.7 102.68 48 102 C48.59422495 98.18826436 49.70742024 95.30778317 51.5546875 91.9296875 C52.08231689 90.95902344 52.60994629 89.98835938 53.15356445 88.98828125 C54.00567505 87.44720703 54.00567505 87.44720703 54.875 85.875 C55.4527417 84.81925781 56.0304834 83.76351562 56.62573242 82.67578125 C61.92953589 73.02748861 67.41647815 63.48863031 73 54 C68.15440316 59.52277652 63.67732583 65.26358946 59.25 71.125 C57.83604459 72.98706049 56.42198215 74.84903972 55.0078125 76.7109375 C53.11012646 79.21402031 51.2133274 81.71775334 49.31933594 84.22363281 C47.92443041 86.06821775 46.52523644 87.90946108 45.125 89.75 C44.36445312 90.75546875 43.60390625 91.7609375 42.8203125 92.796875 C41 95 41 95 39 96 C38.01 95.34 37.02 94.68 36 94 C36.41009587 88.9357929 39.1574483 85.91557199 42.3125 82.1875 C43.40985372 80.85736424 44.50483228 79.52526609 45.59765625 78.19140625 C46.1611377 77.50449707 46.72461914 76.81758789 47.30517578 76.10986328 C50.05322649 72.68885288 52.64674947 69.15663867 55.25 65.625 C59.55440093 59.81234482 64.02772203 54.26476491 69 49 C64.87788458 52.1432086 61.30114832 55.61798087 57.6875 59.3125 C53.64735097 63.4023045 49.58157819 67.33765246 45.171875 71.03125 C43.28243194 72.74398256 41.52767169 74.5028057 39.765625 76.34375 C39.18683594 76.94380859 38.60804687 77.54386719 38.01171875 78.16210938 C36.85226374 79.37169603 35.70343974 80.59157857 34.56640625 81.82226562 C32.953125 83.5 32.953125 83.5 30 86 C27.81542969 85.65625 27.81542969 85.65625 26 85 C25.67 83.68 25.34 82.36 25 81 C25.60134766 80.4440918 25.60134766 80.4440918 26.21484375 79.87695312 C36.17504173 70.65078334 45.89954215 61.22623196 55.44458008 51.57128906 C56.95800909 50.04241933 58.47754564 48.51987732 60 47 C57.03988921 49.05995741 54.08208727 51.12320486 51.125 53.1875 C49.78115234 54.12468872 49.78115234 54.12468872 48.41015625 55.08081055 C43.8433732 58.27506975 39.29955546 61.49420532 34.8046875 64.7890625 C33.59014893 65.67815308 33.59014893 65.67815308 32.35107422 66.58520508 C30.80965507 67.71765996 29.27206378 68.85534771 27.73876953 69.9987793 C26.69245361 70.76702026 26.69245361 70.76702026 25.625 71.55078125 C25.01914062 72.00106689 24.41328125 72.45135254 23.7890625 72.9152832 C21.82039537 74.10889511 20.28938125 74.73237557 18 75 C17.34 74.34 16.68 73.68 16 73 C16.20786909 70.47008111 16.67001308 69.32137108 18.49609375 67.54296875 C19.13675781 67.09566406 19.77742188 66.64835937 20.4375 66.1875 C21.52067505 65.41889648 21.52067505 65.41889648 22.62573242 64.63476562 C23.80099487 63.82555664 23.80099487 63.82555664 25 63 C25.80219971 62.43474609 26.60439941 61.86949219 27.4309082 61.28710938 C29.10905747 60.10604963 30.79052356 58.92969013 32.47509766 57.7578125 C35.6631816 55.53829941 38.83231225 53.29260508 42.00195312 51.046875 C44.07536449 49.57936669 46.15225626 48.11694822 48.23046875 46.65625 C51.83325342 44.1220958 55.41852351 41.56416994 59 39 C57.8236499 39.61089478 57.8236499 39.61089478 56.62353516 40.23413086 C30.28268725 53.90599137 30.28268725 53.90599137 19.3125 59.4375 C18.58434082 59.8080249 17.85618164 60.1785498 17.10595703 60.56030273 C12.23610888 63 12.23610888 63 10 63 C9.34 61.02 8.68 59.04 8 57 C23.18 49.41 38.36 41.82 54 34 C43.76909097 37.43645712 43.76909097 37.43645712 33.54052734 40.87988281 C9.34457891 49 9.34457891 49 4 49 C3.67 47.02 3.34 45.04 3 43 C25.98866643 34.83602283 25.98866643 34.83602283 36.828125 31.875 C42.25719485 30.37732556 47.62321239 28.67377144 53 27 C50.23935825 27.423098 47.4787756 27.84657618 44.71826172 28.27050781 C42.35150413 28.63381869 39.98464082 28.99644154 37.61767578 29.35839844 C32.18218665 30.19190403 26.74901861 31.03288333 21.32421875 31.93359375 C20.05831909 32.14181763 20.05831909 32.14181763 18.7668457 32.35424805 C17.22412612 32.6095046 15.68221447 32.86971734 14.14135742 33.13598633 C9.36775901 33.92122263 4.83896138 34.10874071 0 34 C0 32.02 0 30.04 0 28 C4.67220768 27.17601713 9.34549381 26.35852241 14.01977539 25.54638672 C15.6014481 25.270716 17.18284155 24.99343693 18.76391602 24.71435547 C21.06971148 24.3076663 23.37653612 23.90727267 25.68359375 23.5078125 C26.36143417 23.3868924 27.0392746 23.26597229 27.73765564 23.14138794 C35.80556119 21.75752186 43.83086057 20.96107523 52 20 C34.51 19.67 17.02 19.34 -1 19 C-1 17.02 -1 15.04 -1 13 C20.45 12.67 41.9 12.34 64 12 C51.57094723 10.11209231 51.57094723 10.11209231 39.14086914 8.23095703 C37.56392789 7.99015074 35.98702131 7.74911721 34.41015625 7.5078125 C33.61411987 7.38849365 32.8180835 7.2691748 31.9979248 7.14624023 C27.30385534 6.42451719 22.68889404 5.53457277 18.06555176 4.44628906 C14.55387042 3.68754508 11.00409843 3.28280226 7.4375 2.875 C6.71498047 2.78863281 5.99246094 2.70226562 5.24804688 2.61328125 C3.49917567 2.40480654 1.74965389 2.20180057 0 2 C0 1.34 0 0.68 0 0 Z " fill="#0C9D27" transform="translate(19,96)"/>
<path d="M0 0 C5.0242758 4.40362997 8.74967274 9.88259116 9.29296875 16.6484375 C9.25816406 17.87820312 9.22335938 19.10796875 9.1875 20.375 C9.14689453 22.24285156 9.14689453 22.24285156 9.10546875 24.1484375 C9.07066406 25.08945313 9.03585938 26.03046875 9 27 C9.99 27.495 9.99 27.495 11 28 C10.01 28 9.02 28 8 28 C8 28.99 8 29.98 8 31 C8.99 31.33 9.98 31.66 11 32 C9.02 32.495 9.02 32.495 7 33 C7 33.99 7 34.98 7 36 C6.01 36 5.02 36 4 36 C4.33 36.99 4.66 37.98 5 39 C-10.2704918 48 -10.2704918 48 -18 48 C-18 50.64 -18 53.28 -18 56 C-18.33 56 -18.66 56 -19 56 C-19 53.03 -19 50.06 -19 47 C-22.465 47.495 -22.465 47.495 -26 48 C-26.99 51.63 -27.98 55.26 -29 59 C-29.99 58.67 -30.98 58.34 -32 58 C-31.27991594 53.39146203 -29.68704061 49.32762591 -28 45 C-30.64107354 47.46741391 -31.79641403 49.57440916 -33 53 C-33.66 53 -34.32 53 -35 53 C-34.29445932 49.33118845 -32.72264494 46.29549466 -31 43 C-31.99 43 -32.98 43 -34 43 C-34.66 44.32 -35.32 45.64 -36 47 C-36.33 46.34 -36.66 45.68 -37 45 C-36.0625 42.375 -36.0625 42.375 -35 40 C-35.66 40 -36.32 40 -37 40 C-43.69775307 32.42862696 -44.30872842 23.6062913 -45 14 C-44.01 14 -43.02 14 -42 14 C-41.91492188 13.11570312 -41.82984375 12.23140625 -41.7421875 11.3203125 C-40.43537149 5.47403035 -36.45563571 1.81538307 -32 -2 C-20.47358604 -8.47328692 -10.84040867 -7.0261908 0 0 Z " fill="#FBFDFC" transform="translate(134,91)"/>
<path d="M0 0 C30.8609407 0 30.8609407 0 36.9765625 5.91015625 C39.0041048 10.05036667 38.48044612 14.51583625 38 19 C36.23477309 23.60920361 33.32062491 25.71261034 29 28 C25.625 28.25 25.625 28.25 23 28 C23 28.66 23 29.32 23 30 C23.58007812 30.2371875 24.16015625 30.474375 24.7578125 30.71875 C31.99030081 34.85160046 37.30920057 44.73024355 41 52 C41 52.66 41 53.32 41 54 C37.31214707 55.12989537 34.65584786 55.32306875 31 54 C27.74871386 50.51425166 25.59410476 46.24311238 23.32421875 42.0859375 C19.1462106 34.55537949 16.72530688 32.27199008 8 29 C8 37.25 8 45.5 8 54 C5.36 54 2.72 54 0 54 C0 36.18 0 18.36 0 0 Z " fill="#060606" transform="translate(89,239)"/>
<path d="M0 0 C3.63 0 7.26 0 11 0 C11.50789062 0.89460937 12.01578125 1.78921875 12.5390625 2.7109375 C13.23431448 3.93232612 13.9296305 5.15367829 14.625 6.375 C15.12193359 7.25091797 15.12193359 7.25091797 15.62890625 8.14453125 C18.67176933 13.48389476 21.83531734 18.72552889 25 24 C28.96 16.08 32.92 8.16 37 0 C40.96 0 44.92 0 49 0 C49 17.82 49 35.64 49 54 C46.36 54 43.72 54 41 54 C40.67 39.81 40.34 25.62 40 11 C35.38 20.24 30.76 29.48 26 39 C22.14510297 37.71503432 21.95018098 36.5368116 20.15234375 32.9765625 C19.36827148 31.44515625 19.36827148 31.44515625 18.56835938 29.8828125 C18.03017578 28.80773437 17.49199219 27.73265625 16.9375 26.625 C15.86459244 24.51235443 14.79042851 22.40034631 13.71484375 20.2890625 C13.24167725 19.34756348 12.76851074 18.40606445 12.28100586 17.43603516 C10.97476408 14.84980732 10.97476408 14.84980732 9 12 C8.67 25.86 8.34 39.72 8 54 C5.36 54 2.72 54 0 54 C0 36.18 0 18.36 0 0 Z " fill="#080808" transform="translate(139,239)"/>
<path d="M0 0 C0.38220703 0.68400879 0.76441406 1.36801758 1.15820312 2.07275391 C2.29637808 4.10907353 3.43491863 6.14518883 4.57373047 8.18115234 C5.85988474 10.48058101 7.14536456 12.78038704 8.43017578 15.08056641 C11.16060363 19.96203017 13.89017846 24.84189781 16.7109375 29.671875 C17.27264648 30.63552979 17.27264648 30.63552979 17.84570312 31.61865234 C18.8057286 33.25679828 19.77365567 34.89030642 20.7421875 36.5234375 C22 39 22 39 22 42 C21.01 42 20.02 42 19 42 C19.4168103 42.92280762 19.4168103 42.92280762 19.84204102 43.86425781 C21.0941918 46.65429918 22.32847451 49.45189763 23.5625 52.25 C24.21895508 53.70212891 24.21895508 53.70212891 24.88867188 55.18359375 C25.50258789 56.58544922 25.50258789 56.58544922 26.12890625 58.015625 C26.51119385 58.87446289 26.89348145 59.73330078 27.28735352 60.61816406 C28.07735303 63.25853244 28.14823659 64.50071234 27 67 C26.01 67.33 25.02 67.66 24 68 C23.66266846 67.22285645 23.32533691 66.44571289 22.9777832 65.64501953 C21.71471893 62.75758329 20.43650347 59.87749628 19.14770508 57.00146484 C18.59370538 55.75678736 18.04577789 54.50938828 17.50415039 53.25927734 C16.72333249 51.46003244 15.91856763 49.67123993 15.11328125 47.8828125 C14.63673096 46.80402832 14.16018066 45.72524414 13.66918945 44.61376953 C11.73603871 41.58666526 10.40841099 40.93484957 7 40 C9.30712685 48.76217324 11.68736186 57.48511151 14.265625 66.171875 C15 69 15 69 15 72 C13.02 72 11.04 72 9 72 C8.81824219 71.23816406 8.63648438 70.47632813 8.44921875 69.69140625 C7.08334299 64.0808089 5.59211879 58.60884691 3.68359375 53.16015625 C2.9596723 50.87256446 2.4689029 48.60226496 2 46.25 C1.251006 42.67979524 0.22124987 39.96166649 -2 37 C-2.66 36.67 -3.32 36.34 -4 36 C-3.87882812 37.03930664 -3.75765625 38.07861328 -3.6328125 39.14941406 C-3.18324633 43.01064022 -2.73668132 46.87220859 -2.29101562 50.73388672 C-2.09782255 52.40422885 -1.90381903 54.07447746 -1.70898438 55.74462891 C-1.42884899 58.14721857 -1.15164335 60.55013106 -0.875 62.953125 C-0.78750488 63.69806213 -0.70000977 64.44299927 -0.60986328 65.21051025 C-0.23270379 68.50923292 0 71.67344876 0 75 C-1.98 75 -3.96 75 -6 75 C-6.12117188 73.74445313 -6.24234375 72.48890625 -6.3671875 71.1953125 C-7.29236149 60.87237876 -7.29236149 60.87237876 -9.125 50.6875 C-10.52288621 44.53898487 -10.16254876 38.26715782 -10 32 C-8.35 32.66 -6.7 33.32 -5 34 C-5.28875 32.948125 -5.5775 31.89625 -5.875 30.8125 C-8.14638604 21.71084674 -9.19947028 12.33249124 -10 3 C-8.70990357 2.49596232 -7.41786211 1.99690074 -6.125 1.5 C-5.04605469 1.08234375 -5.04605469 1.08234375 -3.9453125 0.65625 C-2 0 -2 0 0 0 Z " fill="#ECF7EE" transform="translate(131,135)"/>
<path d="M0 0 C10.89 0 21.78 0 33 0 C33 1.65 33 3.3 33 5 C24.75 5 16.5 5 8 5 C8 10.94 8 16.88 8 23 C14.93 23 21.86 23 29 23 C29 24.98 29 26.96 29 29 C22.07 29 15.14 29 8 29 C8 35.27 8 41.54 8 48 C16.58 48 25.16 48 34 48 C34 49.98 34 51.96 34 54 C22.78 54 11.56 54 0 54 C0 36.18 0 18.36 0 0 Z " fill="#070707" transform="translate(45,239)"/>
<path d="M0 0 C0.38220703 0.68400879 0.76441406 1.36801758 1.15820312 2.07275391 C2.29637808 4.10907353 3.43491863 6.14518883 4.57373047 8.18115234 C5.85988474 10.48058101 7.14536456 12.78038704 8.43017578 15.08056641 C11.16060363 19.96203017 13.89017846 24.84189781 16.7109375 29.671875 C17.27264648 30.63552979 17.27264648 30.63552979 17.84570312 31.61865234 C18.8057286 33.25679828 19.77365567 34.89030642 20.7421875 36.5234375 C22 39 22 39 22 42 C21.01 42 20.02 42 19 42 C19.4168103 42.92280762 19.4168103 42.92280762 19.84204102 43.86425781 C21.0941918 46.65429918 22.32847451 49.45189763 23.5625 52.25 C24.21895508 53.70212891 24.21895508 53.70212891 24.88867188 55.18359375 C25.29794922 56.11816406 25.70722656 57.05273438 26.12890625 58.015625 C26.51119385 58.87446289 26.89348145 59.73330078 27.28735352 60.61816406 C28.07735303 63.25853244 28.14823659 64.50071234 27 67 C25.515 67.495 25.515 67.495 24 68 C23.65219482 67.22285645 23.30438965 66.44571289 22.94604492 65.64501953 C21.65021851 62.7606563 20.34668789 59.87994073 19.0378418 57.00146484 C18.47320678 55.75547438 17.91165481 54.50808197 17.35327148 53.25927734 C16.54965136 51.46345423 15.73396017 49.67304823 14.91796875 47.8828125 C14.43094482 46.80402832 13.9439209 45.72524414 13.44213867 44.61376953 C12.12367347 41.74983226 12.12367347 41.74983226 9 40 C8.26171875 38.21484375 8.26171875 38.21484375 7.6875 35.9375 C4.38408992 23.98641955 -0.05303131 12.36051659 -5 1 C-2 0 -2 0 0 0 Z " fill="#EFF8F1" transform="translate(131,135)"/>
<path d="M0 0 C0.66 0 1.32 0 2 0 C1.67 6.27 1.34 12.54 1 19 C0.01 19.33 -0.98 19.66 -2 20 C-2.12503906 20.92941406 -2.25007813 21.85882813 -2.37890625 22.81640625 C-3.10327904 27.87937738 -4.02359266 32.90591349 -4.9375 37.9375 C-5.10701172 38.88818359 -5.27652344 39.83886719 -5.45117188 40.81835938 C-6.44073794 46.27790447 -7.6038138 51.63050058 -9 57 C-9.36223157 58.58150775 -9.71820163 60.16449153 -10.0625 61.75 C-10.66378795 64.51294297 -11.30256881 67.2596509 -12 70 C-13.65 70 -15.3 70 -17 70 C-17.28893323 63.24217272 -16.20629417 57.21073858 -14.75 50.625 C-14.52546143 49.57513916 -14.30092285 48.52527832 -14.06958008 47.44360352 C-13.00956507 42.51222933 -11.9123519 37.59041326 -10.77734375 32.67578125 C-10.59268555 31.86995605 -10.40802734 31.06413086 -10.21777344 30.23388672 C-9.87586898 28.75324524 -9.52679058 27.27423315 -9.16894531 25.79736328 C-8.15878866 21.45326966 -7.8436211 17.45390264 -8 13 C-7.01 13 -6.02 13 -5 13 C-4.67 13.99 -4.34 14.98 -4 16 C-3.34 16.33 -2.68 16.66 -2 17 C-2.02320312 16.443125 -2.04640625 15.88625 -2.0703125 15.3125 C-2.20011024 9.82390985 -1.53328434 5.2706649 0 0 Z " fill="#16A130" transform="translate(112,139)"/>
<path d="M0 0 C2.701875 -0.103125 5.40375 -0.20625 8.1875 -0.3125 C9.02949951 -0.35802002 9.87149902 -0.40354004 10.73901367 -0.45043945 C14.9370164 -0.5277829 16.55414451 -0.34060815 20.01171875 2.30078125 C22 5 22 5 22.625 8.5 C21.84922564 12.84433642 20.38221335 14.26201776 17 17 C13.93618406 18.53190797 10.73034134 18.10243613 7.375 18.0625 C4.94125 18.041875 2.5075 18.02125 0 18 C0 12.06 0 6.12 0 0 Z " fill="#F6F6F6" transform="translate(97,245)"/>
<path d="M0 0 C0.99 0.33 1.98 0.66 3 1 C3.89135742 3.72802734 3.89135742 3.72802734 4.60546875 7.3359375 C4.86650391 8.62757813 5.12753906 9.91921875 5.39648438 11.25 C5.66018854 12.62499381 5.92386005 13.99999388 6.1875 15.375 C6.46172844 16.74242108 6.73710519 18.10961242 7.01367188 19.4765625 C9 29.47292058 9 29.47292058 9 33 C8.01 33 7.02 33 6 33 C6.12117188 34.03930664 6.24234375 35.07861328 6.3671875 36.14941406 C6.81675367 40.01064022 7.26331868 43.87220859 7.70898438 47.73388672 C7.90217745 49.40422885 8.09618097 51.07447746 8.29101562 52.74462891 C8.57115101 55.14721857 8.84835665 57.55013106 9.125 59.953125 C9.21249512 60.69806213 9.29999023 61.44299927 9.39013672 62.21051025 C9.76729621 65.50923292 10 68.67344876 10 72 C8.02 72 6.04 72 4 72 C3.87882812 70.74445313 3.75765625 69.48890625 3.6328125 68.1953125 C2.70763851 57.87237876 2.70763851 57.87237876 0.875 47.6875 C-0.52288621 41.53898487 -0.16254876 35.26715782 0 29 C2.475 29.99 2.475 29.99 5 31 C4.71125 29.948125 4.4225 28.89625 4.125 27.8125 C1.85361396 18.71084674 0.80052972 9.33249124 0 0 Z " fill="#4EB863" transform="translate(121,138)"/>
<path d="M0 0 C0.66 0 1.32 0 2 0 C2.83930594 9.02253886 3.12224626 17.9401941 3 27 C2.01 26.67 1.02 26.34 0 26 C-0.33 41.18 -0.66 56.36 -1 72 C-2.98 72 -4.96 72 -7 72 C-7.33939251 54.91724357 -6.29097415 38.02128814 -5 21 C-3.35 21.99 -1.7 22.98 0 24 C0 16.08 0 8.16 0 0 Z " fill="#01981C" transform="translate(117,139)"/>
<path d="M0 0 C2.84082004 1.35516991 5.42139 2.87784562 8.01953125 4.65234375 C8.78668457 5.17578369 9.55383789 5.69922363 10.34423828 6.23852539 C11.15876465 6.79918701 11.97329102 7.35984863 12.8125 7.9375 C13.66054199 8.51943115 14.50858398 9.1013623 15.38232422 9.70092773 C21.13194978 13.66493852 26.79808168 17.72623227 32.40844727 21.88427734 C37.30822274 25.51182343 42.26687283 29.05043592 47.25 32.5625 C47.97783691 33.07562744 48.70567383 33.58875488 49.45556641 34.11743164 C52.28617496 36.10838468 55.12026596 38.0801773 58 40 C58.495 39.01 58.495 39.01 59 38 C59.6875 39.6875 59.6875 39.6875 60 42 C58.5625 44.75 58.5625 44.75 57 47 C51.62659521 45.40457616 46.80946857 43.04143411 41.82421875 40.52734375 C40.940793 40.08540176 40.05736725 39.64345978 39.14717102 39.18812561 C37.27611868 38.25109173 35.40603663 37.31211823 33.53686523 36.37133789 C30.7370955 34.9624571 27.93428514 33.5597923 25.13085938 32.15820312 C14.00751253 26.5852649 2.96597441 20.8764727 -8 15 C-8 14.34 -8 13.68 -8 13 C-4.04084768 13.72852344 -0.65983969 15.56027536 2.88671875 17.37890625 C4.32725239 18.10835182 5.76784824 18.83767455 7.20849609 19.56689453 C7.98110779 19.9596759 8.75371948 20.35245728 9.54974365 20.75714111 C13.90673712 22.96716622 18.27644615 25.15184667 22.64453125 27.33984375 C24.49285544 28.26624234 26.3411626 29.19267489 28.18945312 30.11914062 C29.5740271 30.81293823 29.5740271 30.81293823 30.98657227 31.52075195 C32.89414511 32.47709279 34.80136345 33.43414105 36.70825195 34.3918457 C39.49858134 35.7930429 42.29017314 37.19169551 45.08203125 38.58984375 C45.93505325 39.01893539 46.78807526 39.44802704 47.66694641 39.89012146 C48.45594833 40.28466019 49.24495026 40.67919891 50.05786133 41.08569336 C50.7490657 41.43240585 51.44027008 41.77911835 52.15242004 42.13633728 C54.15498632 43.11569986 54.15498632 43.11569986 57 44 C57 43.34 57 42.68 57 42 C55.98873047 41.67322266 55.98873047 41.67322266 54.95703125 41.33984375 C51.08788759 39.58671789 48.0275424 37.16117213 44.6875 34.5625 C39.25986315 30.41345914 33.7785745 26.39812063 28.125 22.5625 C22.08840532 18.44694903 16.08203529 14.29262562 10.125 10.0625 C9.34527832 9.51859619 8.56555664 8.97469238 7.76220703 8.41430664 C6.67721924 7.6388147 6.67721924 7.6388147 5.5703125 6.84765625 C4.92852051 6.39398682 4.28672852 5.94031738 3.62548828 5.47290039 C1.79325297 3.81266073 0.96321535 2.25910627 0 0 Z " fill="#23A437" transform="translate(36,54)"/>
<path d="M0 0 C1.32 0.33 2.64 0.66 4 1 C0.84985504 6.79090478 -2.44493883 12.44805341 -6 18 C-3.69 18 -1.38 18 1 18 C1 18.66 1 19.32 1 20 C1.66 20 2.32 20 3 20 C3 19.34 3 18.68 3 18 C3.66 18 4.32 18 5 18 C5.3403125 17.195625 5.3403125 17.195625 5.6875 16.375 C7.43382056 13.21499137 9.6402849 10.7323017 12 8 C12.99 8.33 13.98 8.66 15 9 C14.41071786 12.31744018 13.34301581 14.04663336 11.0625 16.5 C9.43711772 18.25717003 8.14260299 19.69173122 7.13500977 21.86987305 C5.8341535 24.31125203 4.32804319 25.91480531 2.3671875 27.86328125 C1.64273438 28.58580078 0.91828125 29.30832031 0.171875 30.05273438 C-0.58609375 30.79845703 -1.3440625 31.54417969 -2.125 32.3125 C-2.85976562 33.04662109 -3.59453125 33.78074219 -4.3515625 34.53710938 C-15.71340312 45.80893541 -15.71340312 45.80893541 -22 50 C-20.66302472 47.14098455 -19.14673025 44.72865371 -17.20703125 42.2421875 C-16.66199951 41.53827881 -16.11696777 40.83437012 -15.55541992 40.10913086 C-14.98025635 39.37186768 -14.40509277 38.63460449 -13.8125 37.875 C-9.03219586 31.69287811 -4.37636392 25.47701861 0 19 C-1.0725 19.185625 -2.145 19.37125 -3.25 19.5625 C-6.40391546 19.9304568 -8.09818492 20.04465343 -11 19 C-9.41467191 14.44435939 -7.00996919 10.68524231 -4.375 6.6875 C-3.95476562 6.04232422 -3.53453125 5.39714844 -3.1015625 4.73242188 C-2.07161759 3.15239276 -1.03634372 1.57583953 0 0 Z " fill="#E5F4E8" transform="translate(168,29)"/>
<path d="M0 0 C1.32 0 2.64 0 4 0 C2.34551913 5.36879041 0.02733078 10.31573814 -2.43359375 15.34570312 C-3.85670424 18.3171334 -5.00027964 21.00109982 -5.81640625 24.2109375 C-7.60314662 29.93086542 -10.54847321 34.95567772 -13.4375 40.1875 C-14.31631836 41.80688477 -14.31631836 41.80688477 -15.21289062 43.45898438 C-19.95418468 52.12893299 -19.95418468 52.12893299 -23 56 C-22.31984825 51.65366445 -20.80721468 47.78619308 -19.125 43.75 C-16.86348329 38.22327492 -14.79941084 32.69813431 -13 27 C-13.66 26.67 -14.32 26.34 -15 26 C-14.39768555 25.78230957 -13.79537109 25.56461914 -13.17480469 25.34033203 C-10.2406764 23.5320289 -9.58909368 21.68961666 -8.203125 18.5546875 C-7.71972656 17.47832031 -7.23632812 16.40195312 -6.73828125 15.29296875 C-6.24714844 14.16503906 -5.75601563 13.03710938 -5.25 11.875 C-4.74339844 10.73933594 -4.23679688 9.60367187 -3.71484375 8.43359375 C-2.46497672 5.62728852 -1.22730968 2.81622608 0 0 Z " fill="#E4F4E8" transform="translate(155,22)"/>
<path d="M0 0 C2.8125 0.375 2.8125 0.375 6 2 C6.85546875 3.97924805 6.85546875 3.97924805 7.5 6.44921875 C7.74532471 7.34866211 7.99064941 8.24810547 8.2434082 9.17480469 C8.61792114 10.57327637 8.61792114 10.57327637 9 12 C9.52788924 13.75090536 10.0629483 15.49966649 10.60546875 17.24609375 C11.1328125 18.9765625 11.66015625 20.70703125 12.1875 22.4375 C12.46013672 23.32115234 12.73277344 24.20480469 13.01367188 25.11523438 C13.27083984 25.96279297 13.52800781 26.81035156 13.79296875 27.68359375 C14.0252417 28.44212646 14.25751465 29.20065918 14.49682617 29.98217773 C15 32 15 32 15 35 C13.02 35 11.04 35 9 35 C8.81824219 34.23816406 8.63648438 33.47632813 8.44921875 32.69140625 C7.26750691 27.8372976 6.07835909 23.03415575 4.4375 18.3125 C2.92217688 13.94107049 1.91154252 9.53141812 1 5 C0.690625 3.4840625 0.690625 3.4840625 0.375 1.9375 C0.25125 1.298125 0.1275 0.65875 0 0 Z " fill="#129F2C" transform="translate(131,172)"/>
<path d="M0 0 C0.99 0 1.98 0 3 0 C13.69732456 47.86622782 13.69732456 47.86622782 14 63 C9.76907273 56.65360909 8.44948754 49.98174594 7.4375 42.5625 C6.54798236 36.29521285 5.43008329 30.1662021 4 24 C3.27871884 20.75275201 2.57516088 17.50185832 1.875 14.25 C1.69324219 13.42628906 1.51148437 12.60257813 1.32421875 11.75390625 C0.47195402 7.77453483 -0.24982988 4.09721009 0 0 Z " fill="#26A63C" transform="translate(96,15)"/>
<path d="M0 0 C2.93600584 2.72957099 4.91376515 5.28976774 6.77734375 8.83203125 C7.28499268 9.78513184 7.7926416 10.73823242 8.31567383 11.72021484 C8.85087646 12.74066895 9.3860791 13.76112305 9.9375 14.8125 C15.13892814 24.594693 20.49845453 34.26697588 26.03686523 43.86254883 C26.55708252 44.77157959 27.0772998 45.68061035 27.61328125 46.6171875 C28.30611206 47.81770752 28.30611206 47.81770752 29.01293945 49.04248047 C30 51 30 51 30 53 C30.66 53 31.32 53 32 53 C32.33 51.68 32.66 50.36 33 49 C33.99 49.99 34.98 50.98 36 52 C35.67 52.99 35.34 53.98 35 55 C34.01 54.505 34.01 54.505 33 54 C32.01 54.495 32.01 54.495 31 55 C31 55.99 31 56.98 31 58 C30.34 58 29.68 58 29 58 C28.59652344 57.15824219 28.19304687 56.31648438 27.77734375 55.44921875 C23.0038707 45.64197533 17.77307608 36.11179974 12.44256592 26.59954834 C7.72319479 18.17278713 3.14485754 9.72516704 -1 1 C-0.67 0.67 -0.34 0.34 0 0 Z " fill="#20A436" transform="translate(69,25)"/>
<path d="M0 0 C1.90454102 0.27416992 1.90454102 0.27416992 4 1 C5.18339034 3.79958072 6.0949123 6.41070592 6.9375 9.3125 C7.45487442 10.97764116 7.97571382 12.64170964 8.5 14.3046875 C8.75394531 15.11647461 9.00789063 15.92826172 9.26953125 16.76464844 C10.18201323 19.5569897 11.27038959 22.24239636 12.4375 24.9375 C14.73960427 30.27146056 16.79700687 35.6778446 18.8125 41.125 C19.12695068 41.96796631 19.44140137 42.81093262 19.76538086 43.67944336 C20.05550049 44.46843018 20.34562012 45.25741699 20.64453125 46.0703125 C20.90596924 46.77945801 21.16740723 47.48860352 21.43676758 48.21923828 C22 50 22 50 22 52 C20.515 52.495 20.515 52.495 19 53 C18.69707031 52.12859375 18.39414063 51.2571875 18.08203125 50.359375 C16.02903236 44.52254122 13.94412516 38.74994046 11.5 33.0625 C9.06061066 27.3349056 7.1240538 21.48897736 5.203125 15.57421875 C3.86268109 11.59205582 2.33811131 7.72273697 0.69921875 3.85546875 C0 2 0 2 0 0 Z " fill="#32AB47" transform="translate(81,19)"/>
<path d="M0 0 C0.66 0 1.32 0 2 0 C1.67 6.27 1.34 12.54 1 19 C0.01 19.33 -0.98 19.66 -2 20 C-2.144375 21.010625 -2.28875 22.02125 -2.4375 23.0625 C-2.95833333 26.70833333 -3.47916667 30.35416667 -4 34 C-5.32 34 -6.64 34 -8 34 C-8.33 34.66 -8.66 35.32 -9 36 C-9.66 36 -10.32 36 -11 36 C-10.50144992 32.09469105 -9.86320194 28.32754775 -8.9375 24.5 C-8.02350555 20.55289806 -7.8280429 17.04099175 -8 13 C-7.01 13 -6.02 13 -5 13 C-4.67 13.99 -4.34 14.98 -4 16 C-3.34 16.33 -2.68 16.66 -2 17 C-2.02320312 16.443125 -2.04640625 15.88625 -2.0703125 15.3125 C-2.20011024 9.82390985 -1.53328434 5.2706649 0 0 Z " fill="#20A438" transform="translate(112,139)"/>
<path d="M0 0 C3.82029367 1.5985626 6.58443099 4.13915416 9.5625 6.9375 C10.11188232 7.44821045 10.66126465 7.9589209 11.22729492 8.48510742 C17.36727614 14.24956487 23.29042941 20.23639335 29.19946289 26.23608398 C33.41661042 30.50027115 37.6942289 34.58872592 42.2800293 38.45605469 C44.8345622 40.74915136 46.8905496 43.29726667 49 46 C48.01 46.33 47.02 46.66 46 47 C45.25427734 46.24904053 44.50855469 45.49808105 43.74023438 44.72436523 C40.93980261 41.9056626 38.13592255 39.09041081 35.33105469 36.27612305 C34.12374935 35.06382752 32.91734766 33.8506313 31.71191406 32.63647461 C22.95239745 23.80716613 22.95239745 23.80716613 13.71679688 15.4831543 C10.85409513 13.01004379 8.17563466 10.35972186 5.5 7.6875 C4.96375 7.16349609 4.4275 6.63949219 3.875 6.09960938 C2.54282499 4.77253198 1.26592951 3.39041258 0 2 C0 1.34 0 0.68 0 0 Z " fill="#109C26" transform="translate(45,43)"/>
<path d="M0 0 C3.97440514 1.52381901 5.67652269 3.90179821 8.125 7.3125 C8.92359842 8.40949588 9.72310862 9.50582846 10.5234375 10.6015625 C10.93303711 11.16649414 11.34263672 11.73142578 11.76464844 12.31347656 C13.71344394 14.97400608 15.73265112 17.57874592 17.75 20.1875 C18.58093771 21.26546428 19.41165942 22.34359509 20.2421875 23.421875 C20.67885742 23.98841797 21.11552734 24.55496094 21.56542969 25.13867188 C22.03883789 25.75291016 22.51224609 26.36714844 23 27 C23.54301758 27.70447266 24.08603516 28.40894531 24.64550781 29.13476562 C26.39066361 31.40081953 28.13304122 33.66898791 29.875 35.9375 C30.4225293 36.64737061 30.97005859 37.35724121 31.53417969 38.08862305 C34.51239659 41.97123678 37.33910843 45.89297171 40 50 C39.34 50.66 38.68 51.32 38 52 C31.36206274 43.58269172 24.7684927 35.13435704 18.24707031 26.62646484 C16.53236577 24.39009803 14.81542028 22.15546059 13.09741211 19.92163086 C12.25089106 18.82033319 11.40532635 17.71829967 10.56079102 16.61547852 C8.67130453 14.15170299 6.76413421 11.70717198 4.81640625 9.2890625 C3.85541016 8.09410156 3.85541016 8.09410156 2.875 6.875 C2.31554688 6.19179688 1.75609375 5.50859375 1.1796875 4.8046875 C0 3 0 3 0 0 Z " fill="#20A335" transform="translate(56,33)"/>
<path d="M0 0 C7.05473595 0.60674843 13.46210592 3.01937841 20.125 5.3125 C28.01421322 8.00281035 35.90989064 10.61924931 43.88427734 13.04663086 C48.69123088 14.51749385 53.4735591 16.05827192 58.25 17.625 C59.18457031 17.9240625 60.11914062 18.223125 61.08203125 18.53125 C61.96761719 18.82257813 62.85320312 19.11390625 63.765625 19.4140625 C64.55743164 19.6713916 65.34923828 19.9287207 66.16503906 20.19384766 C68 21 68 21 69 23 C62.27374375 22.43749801 56.41812219 20.65496634 50.0625 18.4375 C47.93408324 17.71080433 45.80515951 16.98559215 43.67578125 16.26171875 C42.58088379 15.88837402 41.48598633 15.5150293 40.35791016 15.13037109 C33.84029505 12.9363506 27.2815647 10.87052957 20.72680664 8.79077148 C13.79708078 6.58787971 6.89279771 4.31585831 0 2 C0 1.34 0 0.68 0 0 Z " fill="#2EA942" transform="translate(22,81)"/>
<path d="M0 0 C10.46410574 4.01574538 20.34620076 9.67844567 30.2265625 14.93969727 C34.95220779 17.44170375 39.7111267 19.85569605 44.515625 22.203125 C46.16135498 23.01003784 46.16135498 23.01003784 47.84033203 23.83325195 C50.00378351 24.88989233 52.17135921 25.93813629 54.34326172 26.97729492 C55.32568848 27.45787354 56.30811523 27.93845215 57.3203125 28.43359375 C58.19961426 28.85697021 59.07891602 29.28034668 59.98486328 29.71655273 C62 31 62 31 63 34 C58.39710333 32.61493383 54.31398901 30.69271727 50.125 28.375 C42.97660122 24.49461688 35.73952918 20.83103476 28.45214844 17.22021484 C25.5499187 15.77603481 22.65377685 14.31998358 19.7578125 12.86328125 C18.67298584 12.31833008 17.58815918 11.77337891 16.47045898 11.21191406 C14.30783314 10.1253743 12.14586912 9.03751613 9.98461914 7.94824219 C8.99324951 7.45098633 8.00187988 6.95373047 6.98046875 6.44140625 C6.09254639 5.99482666 5.20462402 5.54824707 4.28979492 5.08813477 C1.92481885 3.90740177 1.92481885 3.90740177 -1 3 C-0.67 2.01 -0.34 1.02 0 0 Z " fill="#25A539" transform="translate(141,123)"/>
<path d="M0 0 C6.53470734 0.61578817 12.38306979 2.67018173 18.5625 4.8125 C28.24819749 8.11490702 28.24819749 8.11490702 38.0625 11 C48.21065609 13.78031674 58.0898014 17.48058597 68 21 C68 21.66 68 22.32 68 23 C60.7235216 21.74560505 53.9075597 19.7885428 46.9375 17.375 C44.8312025 16.65876276 42.7244144 15.94396698 40.6171875 15.23046875 C38.99441895 14.68011963 38.99441895 14.68011963 37.33886719 14.11865234 C30.73709248 11.90679715 24.09808797 9.81080172 17.46264648 7.70263672 C11.62595351 5.84649226 5.80564628 3.95122548 0 2 C0 1.34 0 0.68 0 0 Z " fill="#35AC49" transform="translate(142,120)"/>
<path d="M0 0 C0.33 0 0.66 0 1 0 C1.33 2.31 1.66 4.62 2 7 C36.155 12.445 36.155 12.445 71 18 C71 18.66 71 19.32 71 20 C65.55432383 20.17287861 60.95417804 19.87393222 55.6875 18.56640625 C52.29336168 17.85107186 48.87996687 17.45748992 45.4375 17.0625 C40.01122664 16.42966705 34.67844047 15.61164518 29.3125 14.5625 C19.59634421 12.66382948 9.80642525 11.33983136 0 10 C0 6.7 0 3.4 0 0 Z " fill="#23A539" transform="translate(143,108)"/>
<path d="M0 0 C2 0 2 0 4.29760742 2.17041016 C5.18939697 3.1041748 6.08118652 4.03793945 7 5 C7.84216064 5.84739746 8.68432129 6.69479492 9.55200195 7.56787109 C10.88171021 8.90712646 10.88171021 8.90712646 12.23828125 10.2734375 C13.7465923 11.78913247 15.2553905 13.30434063 16.7644043 14.81933594 C17.7920057 15.8519611 18.81870714 16.88548268 19.84448242 17.91992188 C25.18706905 23.30625099 30.53053907 28.63958876 36.3190918 33.55395508 C39.04719369 35.90087556 41.5481031 38.36421083 44 41 C44 41.66 44 42.32 44 43 C43.01 43 42.02 43 41 43 C41 42.34 41 41.68 41 41 C40.45053711 40.77723389 39.90107422 40.55446777 39.33496094 40.32495117 C36.29554627 38.60026449 34.05550615 36.28348674 31.640625 33.80078125 C31.1325531 33.28750778 30.6244812 32.77423431 30.10101318 32.2454071 C28.47916351 30.60580301 26.8641434 28.95968847 25.25 27.3125 C23.13367265 25.15931958 21.01402868 23.00948361 18.890625 20.86328125 C18.37943115 20.34618088 17.8682373 19.82908051 17.34155273 19.29631042 C13.91510211 15.85451614 10.3910529 12.59185445 6.66113281 9.48291016 C3.78923052 6.91913377 1.43106561 3.97805537 -1 1 C-0.67 0.67 -0.34 0.34 0 0 Z " fill="#139D28" transform="translate(136,130)"/>
<path d="M0 0 C4.87809911 1.60712567 8.63588238 4.39607147 12.75 7.375 C14.27466738 8.46494476 15.79940905 9.55478561 17.32421875 10.64453125 C18.10071777 11.20221191 18.8772168 11.75989258 19.67724609 12.33447266 C23.2936064 14.9275786 26.92749801 17.49562482 30.5625 20.0625 C31.25303467 20.55202148 31.94356934 21.04154297 32.6550293 21.54589844 C36.28582698 24.11339411 39.93699897 26.6441543 43.625 29.12890625 C44.36935303 29.63220459 45.11370605 30.13550293 45.88061523 30.65405273 C47.30838636 31.61660404 48.74006219 32.5733948 50.17602539 33.52368164 C51.81900381 34.63229025 53.41515467 35.80976623 55 37 C55 37.66 55 38.32 55 39 C50.6206332 38.09293898 47.47600936 35.79263873 43.875 33.25 C43.17560303 32.76265381 42.47620605 32.27530762 41.75561523 31.77319336 C35.73198653 27.55845415 29.76809364 23.25964511 23.82421875 18.93334961 C19.93778181 16.10665833 16.03267173 13.31456705 12.08203125 10.578125 C11.2923999 10.02954834 10.50276855 9.48097168 9.68920898 8.91577148 C8.17306547 7.86539545 6.65316271 6.82042024 5.12915039 5.78149414 C3.38416846 4.57028611 1.68642096 3.29149959 0 2 C0 1.34 0 0.68 0 0 Z " fill="#21A335" transform="translate(138,127)"/>
<path d="M0 0 C1.98 0 3.96 0 6 0 C7.49175507 3.03564742 8.96607988 6.07945062 10.4375 9.125 C11.06881836 10.40890625 11.06881836 10.40890625 11.71289062 11.71875 C13.84323068 16.14985731 15.55212045 20.03260858 16 25 C14.02 25.99 14.02 25.99 12 27 C10.28860255 23.31662664 8.57966923 19.63212155 6.87304688 15.9465332 C6.29169852 14.69198476 5.7096687 13.43775187 5.12695312 12.18383789 C4.29119128 10.38510216 3.4580539 8.58514772 2.625 6.78515625 C2.12226563 5.70113525 1.61953125 4.61711426 1.1015625 3.50024414 C0 1 0 1 0 0 Z " fill="#13A02D" transform="translate(143,176)"/>
<path d="M0 0 C4.75 -0.125 4.75 -0.125 7 1 C7 8.92 7 16.84 7 25 C5.68 24.34 4.36 23.68 3 23 C2.67 28.28 2.34 33.56 2 39 C1.67 39 1.34 39 1 39 C0.97316013 36.02077407 0.95323963 33.04178705 0.9375 30.0625 C0.92912109 29.21236328 0.92074219 28.36222656 0.91210938 27.48632812 C0.90888672 26.67744141 0.90566406 25.86855469 0.90234375 25.03515625 C0.89710693 24.2862915 0.89187012 23.53742676 0.88647461 22.76586914 C1 21 1 21 2 20 C2.22571184 18.58879098 2.39388349 17.16823957 2.53515625 15.74609375 C2.62216797 14.89208984 2.70917969 14.03808594 2.79882812 13.15820312 C2.88583984 12.26037109 2.97285156 11.36253906 3.0625 10.4375 C3.19881836 9.08495117 3.19881836 9.08495117 3.33789062 7.70507812 C3.56253923 5.47041566 3.78305769 3.23542161 4 1 C3.34 1 2.68 1 2 1 C1.34 6.61 0.68 12.22 0 18 C-0.99 17.67 -1.98 17.34 -3 17 C-2.36934845 11.2190275 -1.34844868 5.6556294 0 0 Z " fill="#BAE3C3" transform="translate(110,138)"/>
<path d="M0 0 C1.32 0 2.64 0 4 0 C2.6538112 13.7152883 0.93506162 27.35568276 -1 41 C-2.485 41.495 -2.485 41.495 -4 42 C-4.31989793 33.21280365 -3.1075756 24.6317826 -2 15.9375 C-1.80678927 14.38873447 -1.61407674 12.8399067 -1.421875 11.29101562 C-0.95366004 7.5266013 -0.47870203 3.7630945 0 0 Z " fill="#3BB051" transform="translate(126,14)"/>
<path d="M0 0 C9.25630189 3.76037264 16.11639288 17.08379255 21.98046875 24.9609375 C26.25242114 30.69271486 30.62470677 36.34696627 35 42 C34.01 42.33 33.02 42.66 32 43 C26.20935202 36.181784 20.62952544 29.2890299 15.3046875 22.09765625 C12.36845274 18.15115767 9.36762608 14.25672771 6.36132812 10.36352539 C5.23943129 8.91013824 4.11963935 7.45512696 3 6 C2.40960938 5.2575 1.81921875 4.515 1.2109375 3.75 C0 2 0 2 0 0 Z " fill="#21A336" transform="translate(132,133)"/>
<path d="M0 0 C6.77227091 -0.30386821 13.23579457 0.84649985 19.90625 1.93359375 C21.14491821 2.13098648 22.38358643 2.32837921 23.65979004 2.53175354 C26.93906118 3.05523406 30.21752206 3.58330925 33.4956665 4.11376953 C36.81815062 4.65040145 40.14150594 5.18157552 43.46484375 5.71289062 C47.2088484 6.31153099 50.95272414 6.91085071 54.69592285 7.51451111 C60.1250052 8.38909608 65.55223204 9.24989489 71 10 C67.14282337 12.57145109 64.51049852 11.96725168 60.125 11.4375 C59.30636475 11.34525146 58.48772949 11.25300293 57.64428711 11.15795898 C47.40620569 9.92392541 37.26710923 8.04370324 27.1171875 6.2421875 C18.10407943 4.64907155 9.0597038 3.29725677 0 2 C0 1.34 0 0.68 0 0 Z " fill="#35AD4B" transform="translate(19,96)"/>
<path d="M0 0 C2.125 0.375 2.125 0.375 4 1 C3.67515625 2.62808594 3.67515625 2.62808594 3.34375 4.2890625 C3.06220674 5.7343179 2.78097314 7.17963365 2.5 8.625 C2.35691406 9.33785156 2.21382812 10.05070312 2.06640625 10.78515625 C1.26950574 14.92144935 0.83965944 18.76433679 1 23 C0.34 23.33 -0.32 23.66 -1 24 C-1.66 22.68 -2.32 21.36 -3 20 C-3.33 20.99 -3.66 21.98 -4 23 C-4.66 23 -5.32 23 -6 23 C-6.33 23.66 -6.66 24.32 -7 25 C-7.33 18.4 -7.66 11.8 -8 5 C-7.34 5 -6.68 5 -6 5 C-5.67 8.63 -5.34 12.26 -5 16 C-4.80664062 15.01257813 -4.61328125 14.02515625 -4.4140625 13.0078125 C-4.15367188 11.72648437 -3.89328125 10.44515625 -3.625 9.125 C-3.36976562 7.84882812 -3.11453125 6.57265625 -2.8515625 5.2578125 C-2 2 -2 2 0 0 Z " fill="#18A231" transform="translate(127,53)"/>
<path d="M0 0 C0.99 0 1.98 0 3 0 C3.86875579 5.96405357 4.1339853 11.72809598 4.09765625 17.75 C4.0962413 18.64871826 4.09482635 19.54743652 4.09336853 20.47338867 C4.08781583 23.31562775 4.07527237 26.15778513 4.0625 29 C4.05747888 30.93880094 4.05291705 32.87760312 4.04882812 34.81640625 C4.03786194 39.54430183 4.02063044 44.27213711 4 49 C3.01 49.495 3.01 49.495 2 50 C1.71188085 44.48665612 1.42717958 38.97314969 1.14550781 33.45947266 C1.04941926 31.58768058 0.95243169 29.71593442 0.85449219 27.84423828 C0.71307045 25.13846515 0.57498994 22.43253794 0.4375 19.7265625 C0.39375244 18.90322418 0.35000488 18.07988586 0.30493164 17.2315979 C0.01726098 11.48361099 -0.04795992 5.75471422 0 0 Z " fill="#18A12F" transform="translate(111,13)"/>
<path d="M0 0 C1.65 0 3.3 0 5 0 C5 0.66 5 1.32 5 2 C6.32 2 7.64 2 9 2 C7.71004101 4.73077505 6.28988038 7.10304312 4.4609375 9.50390625 C3.96625977 10.15746094 3.47158203 10.81101562 2.96191406 11.484375 C2.43823242 12.17015625 1.91455078 12.8559375 1.375 13.5625 C0.29363195 14.99040181 -0.78709438 16.41878982 -1.8671875 17.84765625 C-2.39795898 18.54906738 -2.92873047 19.25047852 -3.47558594 19.97314453 C-6.70913836 24.27246423 -9.85577851 28.63508075 -13 33 C-13.33 32.34 -13.66 31.68 -14 31 C-12.76277922 28.5073193 -11.46966792 26.14489424 -10.0625 23.75 C-9.65588135 23.04359375 -9.2492627 22.3371875 -8.83032227 21.609375 C-7.98287099 20.13811682 -7.13214368 18.66874128 -6.27832031 17.20117188 C-4.67109588 14.43365173 -3.08695209 11.65332866 -1.50366211 8.87207031 C-0.00757483 6.2450959 1.49614179 3.62253202 3 1 C2.01 0.67 1.02 0.34 0 0 Z " fill="#EDF8EF" transform="translate(152,46)"/>
<path d="M0 0 C0.33 0 0.66 0 1 0 C2.97298648 9.66639286 4.50940538 19.12043934 5 29 C3.02 29 1.04 29 -1 29 C-1.79681084 20.97497656 -2.12867289 13.06350113 -2 5 C-1.67 5 -1.34 5 -1 5 C-0.67 3.35 -0.34 1.7 0 0 Z " fill="#0E9D28" transform="translate(126,181)"/>
<path d="M0 0 C0.33 0 0.66 0 1 0 C1.03738281 0.83144531 1.07476562 1.66289062 1.11328125 2.51953125 C1.17902344 3.60621094 1.24476562 4.69289062 1.3125 5.8125 C1.37050781 6.89144531 1.42851563 7.97039062 1.48828125 9.08203125 C1.69747558 12.00314347 1.69747558 12.00314347 3.51367188 13.40429688 C5.46757254 15.50197998 5.34989764 16.62175049 5.29296875 19.44921875 C5.28330078 20.29677734 5.27363281 21.14433594 5.26367188 22.01757812 C5.23853516 22.89865234 5.21339844 23.77972656 5.1875 24.6875 C5.17396484 25.58017578 5.16042969 26.47285156 5.14648438 27.39257812 C5.11114079 29.59566166 5.06180493 31.79752582 5 34 C3.02 34 1.04 34 -1 34 C-1.10492107 22.6184852 -1.17759935 11.33439373 0 0 Z " fill="#23A63C" transform="translate(111,177)"/>
<path d="M0 0 C0.66 0 1.32 0 2 0 C2.38220703 0.68400879 2.76441406 1.36801758 3.15820312 2.07275391 C4.29637808 4.10907353 5.43491863 6.14518883 6.57373047 8.18115234 C7.85988474 10.48058101 9.14536456 12.78038704 10.43017578 15.08056641 C13.16060363 19.96203017 15.89017846 24.84189781 18.7109375 29.671875 C19.27264648 30.63552979 19.27264648 30.63552979 19.84570312 31.61865234 C20.8057286 33.25679828 21.77365567 34.89030642 22.7421875 36.5234375 C24 39 24 39 24 42 C19.86418285 40.62139428 19.43597714 38.67428421 17.3828125 34.875 C17.04377899 34.25407471 16.70474548 33.63314941 16.35543823 32.9934082 C15.2697213 31.000292 14.19718727 29.00042125 13.125 27 C12.41102902 25.68312019 11.69619429 24.36670828 10.98046875 23.05078125 C9.60203395 20.5150918 8.2309592 17.97562311 6.86425781 15.43359375 C4.90761445 11.8298441 2.88509456 8.26996715 0.80810547 4.734375 C0 3 0 3 0 0 Z " fill="#1DA233" transform="translate(129,135)"/>
<path d="M0 0 C0.33 0 0.66 0 1 0 C4.04904314 13.48098948 4.04904314 13.48098948 4.625 19.25 C4.75618028 22.80902334 4.75618028 22.80902334 6 25 C6.039992 26.99960012 6.04346799 29.00047242 6 31 C4.68 30.67 3.36 30.34 2 30 C1.505 32.475 1.505 32.475 1 35 C0.67 35 0.34 35 0 35 C-1.43143617 8.15676475 -1.43143617 8.15676475 -1 1 C-0.67 0.67 -0.34 0.34 0 0 Z " fill="#DEF2E2" transform="translate(120,138)"/>
<path d="M0 0 C0.99 0 1.98 0 3 0 C2.68800475 11.799093 -1.69803476 23.13187728 -6 34 C-6.99 34 -7.98 34 -9 34 C-8.27126441 28.51199121 -6.69514563 23.39488253 -5.0625 18.125 C-3.21039075 12.11353104 -1.46905063 6.11749586 0 0 Z " fill="#22A539" transform="translate(141,17)"/>
<path d="M0 0 C0.99 0.33 1.98 0.66 3 1 C4.2109375 3.43334961 4.2109375 3.43334961 5.375 6.65234375 C5.80296875 7.82216797 6.2309375 8.99199219 6.671875 10.19726562 C7.11015625 11.43154297 7.5484375 12.66582031 8 13.9375 C8.43828125 15.13697266 8.8765625 16.33644531 9.328125 17.57226562 C11.77322332 24.32206265 14.04003106 31.09330053 16 38 C15.01 38 14.02 38 13 38 C12.0825999 35.56277375 11.1659093 33.12528659 10.25 30.6875 C9.97631592 29.95926025 9.70263184 29.23102051 9.4206543 28.48071289 C7.53255939 23.44671787 5.69490073 18.39640747 3.87890625 13.3359375 C3.07608918 11.20222814 2.19135905 9.13786833 1.25 7.0625 C0 4 0 4 0 0 Z " fill="#27A73C" transform="translate(125,137)"/>
<path d="M0 0 C2.23828125 -0.33203125 2.23828125 -0.33203125 5 0 C7.16796875 2.30078125 7.16796875 2.30078125 9.1875 5.3125 C9.86167969 6.29863281 10.53585938 7.28476563 11.23046875 8.30078125 C11.81441406 9.19152344 12.39835938 10.08226562 13 11 C13.99 12.485 13.99 12.485 15 14 C14.8125 16.125 14.8125 16.125 14 18 C13.01 18.33 12.02 18.66 11 19 C9.15929441 16.21312902 7.32871822 13.41974873 5.5 10.625 C4.97535156 9.8309375 4.45070312 9.036875 3.91015625 8.21875 C3.41386719 7.45820313 2.91757813 6.69765625 2.40625 5.9140625 C1.94541016 5.2123291 1.48457031 4.5105957 1.00976562 3.78759766 C0 2 0 2 0 0 Z " fill="#109E2A" transform="translate(157,177)"/>
<path d="M0 0 C1.32 0 2.64 0 4 0 C2.37044332 5.2621101 0.23649648 10.22598618 -2 15.25 C-2.35578125 16.0646875 -2.7115625 16.879375 -3.078125 17.71875 C-3.42359375 18.49734375 -3.7690625 19.2759375 -4.125 20.078125 C-4.59292969 21.13628418 -4.59292969 21.13628418 -5.0703125 22.21582031 C-6 24 -6 24 -8 26 C-8.99 26 -9.98 26 -11 26 C-9.28137532 20.31531835 -6.8358325 15.01576119 -4.375 9.625 C-3.95476562 8.69816406 -3.53453125 7.77132813 -3.1015625 6.81640625 C-2.07035118 4.54305401 -1.03643137 2.27097594 0 0 Z " fill="#19A130" transform="translate(155,22)"/>
<path d="M0 0 C0.66 0 1.32 0 2 0 C2.83930594 9.02253886 3.12224626 17.9401941 3 27 C2.01 26.67 1.02 26.34 0 26 C0 29.63 0 33.26 0 37 C-2.58926331 34.41073669 -2.37398043 32.97294721 -2.625 29.375 C-2.69976562 28.37210938 -2.77453125 27.36921875 -2.8515625 26.3359375 C-2.90054688 25.56507813 -2.94953125 24.79421875 -3 24 C-2.01 24 -1.02 24 0 24 C0 16.08 0 8.16 0 0 Z " fill="#06981B" transform="translate(117,139)"/>
<path d="M0 0 C0.99 0.33 1.98 0.66 3 1 C3.84291786 5.03972867 4.67262865 9.08206109 5.5 13.125 C5.73847656 14.26710937 5.97695312 15.40921875 6.22265625 16.5859375 C6.56103516 18.24882812 6.56103516 18.24882812 6.90625 19.9453125 C7.22045898 21.46922607 7.22045898 21.46922607 7.54101562 23.02392578 C8.00988982 26.06412599 8.0800787 28.92898194 8 32 C7.34 32 6.68 32 6 32 C2.13669815 21.63932684 0.94077063 10.967405 0 0 Z " fill="#28A73E" transform="translate(121,138)"/>
<path d="M0 0 C3.40944605 1.13648202 3.60693771 1.53988286 5.26171875 4.52734375 C5.85629883 5.59178711 5.85629883 5.59178711 6.46289062 6.67773438 C7.06907227 7.79631836 7.06907227 7.79631836 7.6875 8.9375 C8.10322266 9.67935547 8.51894531 10.42121094 8.94726562 11.18554688 C12 16.71455511 12 16.71455511 12 19 C12.66 19 13.32 19 14 19 C14.33 17.68 14.66 16.36 15 15 C15.99 15.99 16.98 16.98 18 18 C17.67 18.99 17.34 19.98 17 21 C16.34 20.67 15.68 20.34 15 20 C14.34 20.33 13.68 20.66 13 21 C13 21.99 13 22.98 13 24 C12.34 24 11.68 24 11 24 C10.18595703 22.35451172 10.18595703 22.35451172 9.35546875 20.67578125 C8.6329203 19.22130061 7.91025804 17.7668765 7.1875 16.3125 C6.83107422 15.59126953 6.47464844 14.87003906 6.10742188 14.12695312 C4.57880065 11.05568662 3.05222323 8.08395087 1.23828125 5.16796875 C0 3 0 3 0 0 Z " fill="#18A02E" transform="translate(87,59)"/>
<path d="M0 0 C-0.99 0.33 -1.98 0.66 -3 1 C16.305 1.495 16.305 1.495 36 2 C36 2.33 36 2.66 36 3 C17.85 3 -0.3 3 -19 3 C-15.55133194 1.27566597 -13.20861394 0.49003524 -9.5 -0.1875 C-8.5615625 -0.36667969 -7.623125 -0.54585938 -6.65625 -0.73046875 C-4.08888646 -0.99098064 -2.42584742 -0.80670869 0 0 Z " fill="#CCEAD2" transform="translate(179,106)"/>
<path d="M0 0 C0.33 0 0.66 0 1 0 C1.82950418 12.77361199 2.08707645 25.23939491 1 38 C0.34 37.67 -0.32 37.34 -1 37 C-1.37890625 34.56640625 -1.37890625 34.56640625 -1.5625 31.5625 C-1.73109366 27.63464783 -1.73109366 27.63464783 -3 24 C-3.08372659 22.47851674 -3.10730027 20.95344222 -3.09765625 19.4296875 C-3.09443359 18.53378906 -3.09121094 17.63789062 -3.08789062 16.71484375 C-3.07951172 15.77769531 -3.07113281 14.84054688 -3.0625 13.875 C-3.05798828 12.93011719 -3.05347656 11.98523437 -3.04882812 11.01171875 C-3.03702357 8.67441613 -3.02055759 6.33723939 -3 4 C-2.67 4 -2.34 4 -2 4 C-1.67 9.94 -1.34 15.88 -1 22 C-0.67 14.74 -0.34 7.48 0 0 Z " fill="#9ED8AA" transform="translate(115,40)"/>
<path d="M0 0 C1.12890625 1.73046875 1.12890625 1.73046875 2 4 C1.27734375 6.05078125 1.27734375 6.05078125 -0.0625 8.3125 C-3.65693476 14.89900545 -5.76538509 21.86825028 -8 29 C-8.33 29 -8.66 29 -9 29 C-8.53281942 22.53323729 -7.78077712 16.31497056 -6.3046875 9.99609375 C-5.79326176 7.93259583 -5.79326176 7.93259583 -7 6 C-6.030625 5.7525 -5.06125 5.505 -4.0625 5.25 C-2.5465625 4.63125 -2.5465625 4.63125 -1 4 C-0.03122943 1.96756452 -0.03122943 1.96756452 0 0 Z " fill="#CCEAD2" transform="translate(136,46)"/>
<path d="M0 0 C1.32 0.33 2.64 0.66 4 1 C0.81243454 7.09304549 -2.72709561 12.61114807 -7 18 C-8.32 17.67 -9.64 17.34 -11 17 C-5.555 8.585 -5.555 8.585 0 0 Z " fill="#1BA233" transform="translate(168,29)"/>
<path d="M0 0 C4 0 4 0 5.921875 1.609375 C6.52515625 2.31578125 7.1284375 3.0221875 7.75 3.75 C8.67039063 4.79414063 8.67039063 4.79414063 9.609375 5.859375 C11 8 11 8 11 12 C7 12 7 12 4.859375 10.03125 C4.16328125 9.1959375 3.4671875 8.360625 2.75 7.5 C2.04359375 6.6646875 1.3371875 5.829375 0.609375 4.96875 C-0.18726563 3.99421875 -0.18726563 3.99421875 -1 3 C-0.67 2.01 -0.34 1.02 0 0 Z " fill="#17A130" transform="translate(172,174)"/>
<path d="M0 0 C6.75927965 0.62854532 12.90530897 2.77109489 19.3125 4.9375 C20.40884766 5.29779297 21.50519531 5.65808594 22.63476562 6.02929688 C23.67955078 6.37927734 24.72433594 6.72925781 25.80078125 7.08984375 C26.75122314 7.40816162 27.70166504 7.72647949 28.6809082 8.05444336 C31 9 31 9 33 11 C25.62153334 10.43033897 19.0002847 8.25890025 12 5.9375 C10.84371094 5.56044922 9.68742188 5.18339844 8.49609375 4.79492188 C5.6618867 3.86970552 2.83002218 2.93792289 0 2 C0 1.34 0 0.68 0 0 Z " fill="#2EA943" transform="translate(142,120)"/>
<path d="M0 0 C4.27201855 1.70041033 7.26281092 4.77945366 10.5625 7.875 C11.13935547 8.40480469 11.71621094 8.93460938 12.31054688 9.48046875 C15.1801441 12.14816813 17.78703816 14.73962206 20 18 C19.34 18.66 18.68 19.32 18 20 C14.99196428 17.04974274 11.9949821 14.08850331 9 11.125 C8.14148437 10.28324219 7.28296875 9.44148438 6.3984375 8.57421875 C5.58632813 7.76855469 4.77421875 6.96289062 3.9375 6.1328125 C2.80634766 5.01737061 2.80634766 5.01737061 1.65234375 3.87939453 C0 2 0 2 0 0 Z " fill="#30AA43" transform="translate(45,43)"/>
<path d="M0 0 C1.974667 2.96200051 2.71955354 5.09771632 3.625 8.5 C3.88539063 9.4590625 4.14578125 10.418125 4.4140625 11.40625 C5 14 5 14 5 17 C3.02 17 1.04 17 -1 17 C-2.32528788 10.90367577 -1.46619907 6.02232181 0 0 Z " fill="#18A12F" transform="translate(141,190)"/>
<path d="M0 0 C0.33 0 0.66 0 1 0 C1.50610903 3.22823979 2.00379907 6.45772365 2.5 9.6875 C2.64308594 10.59951172 2.78617187 11.51152344 2.93359375 12.45117188 C3.06894531 13.33740234 3.20429687 14.22363281 3.34375 15.13671875 C3.53227539 16.35427856 3.53227539 16.35427856 3.72460938 17.59643555 C4.00977723 20.08533405 4.04674739 22.49706689 4 25 C-0.18121429 18.72817857 -2.26992726 11.55796315 -2 4 C-1.01171875 1.703125 -1.01171875 1.703125 0 0 Z " fill="#38AE4D" transform="translate(106,53)"/>
<path d="M0 0 C0.33 0 0.66 0 1 0 C1.18451025 13.6332574 1.18451025 13.6332574 0 20 C-0.99 20.33 -1.98 20.66 -3 21 C-3.22551601 14.1217616 -2.63948157 7.70153052 -1 1 C-0.67 0.67 -0.34 0.34 0 0 Z " fill="#05981D" transform="translate(125,35)"/>
<path d="M0 0 C0.99 0 1.98 0 3 0 C3.53181175 2.24743045 4.05007126 4.49807102 4.5625 6.75 C4.85253906 8.00296875 5.14257812 9.2559375 5.44140625 10.546875 C5.93444283 13.59473748 6.07666879 15.17641828 5 18 C4.34 18 3.68 18 3 18 C2.49309416 15.93918639 1.99475381 13.87626474 1.5 11.8125 C1.2215625 10.66394531 0.943125 9.51539063 0.65625 8.33203125 C0.08504615 5.43181171 -0.13283779 2.93903615 0 0 Z " fill="#20A336" transform="translate(96,15)"/>
<path d="M0 0 C0.33 0 0.66 0 1 0 C1 14.52 1 29.04 1 44 C0.67 44 0.34 44 0 44 C-0.33 31.46 -0.66 18.92 -1 6 C-1.99 6.495 -1.99 6.495 -3 7 C-1.125 1.125 -1.125 1.125 0 0 Z " fill="#E7E7E7" transform="translate(179,249)"/>
<path d="M0 0 C0.99 0.33 1.98 0.66 3 1 C2.12265191 5.7209683 -0.41407973 8.88591134 -4 12 C-6.875 12.4375 -6.875 12.4375 -9 12 C-9 11.34 -9 10.68 -9 10 C-8.34 10 -7.68 10 -7 10 C-6.773125 9.46375 -6.54625 8.9275 -6.3125 8.375 C-4.56617944 5.21499137 -2.3597151 2.7323017 0 0 Z " fill="#17A02F" transform="translate(180,37)"/>
<path d="M0 0 C2.47265625 1.26171875 2.47265625 1.26171875 5 3 C5.6021974 8.24772017 4.97659592 12.0585102 3 17 C0.84940691 13.46813168 0.6202272 10.33712007 0.375 6.25 C0.30023438 5.07953125 0.22546875 3.9090625 0.1484375 2.703125 C0.09945312 1.81109375 0.05046875 0.9190625 0 0 Z " fill="#04991E" transform="translate(121,167)"/>
<path d="M0 0 C1.98 0.66 3.96 1.32 6 2 C7.07421875 7.95703125 7.07421875 7.95703125 7 10 C5.51953125 11.76171875 5.51953125 11.76171875 4 13 C3.32694982 11.39850114 2.66177773 9.79368971 2 8.1875 C1.62875 7.29417969 1.2575 6.40085938 0.875 5.48046875 C0 3 0 3 0 0 Z " fill="#0C9C26" transform="translate(131,172)"/>
<path d="M0 0 C3.32226755 2.94537165 4.8268491 5.43461124 6.25 9.625 C6.58515625 10.58664063 6.9203125 11.54828125 7.265625 12.5390625 C8 15 8 15 8 17 C7.01 17.33 6.02 17.66 5 18 C4.15875684 15.75267898 3.32685168 13.50261215 2.5 11.25 C2.26152344 10.61578125 2.02304688 9.9815625 1.77734375 9.328125 C0.55198242 5.96713393 0 3.63128413 0 0 Z " fill="#1BA131" transform="translate(95,54)"/>
<path d="M0 0 C1 2 1 2 0.47094727 3.87939453 C0.02319946 4.99483643 0.02319946 4.99483643 -0.43359375 6.1328125 C-0.75263672 6.93847656 -1.07167969 7.74414062 -1.40039062 8.57421875 C-1.74263672 9.41597656 -2.08488281 10.25773438 -2.4375 11.125 C-2.77587891 11.97449219 -3.11425781 12.82398438 -3.46289062 13.69921875 C-4.30176957 15.80232371 -5.14771125 17.90230155 -6 20 C-6.99 20 -7.98 20 -9 20 C-9.33 19.34 -9.66 18.68 -10 18 C-9.19555664 16.12060547 -9.19555664 16.12060547 -7.91015625 13.8671875 C-7.45576172 13.06152344 -7.00136719 12.25585938 -6.53320312 11.42578125 C-6.04787109 10.58402344 -5.56253906 9.74226562 -5.0625 8.875 C-4.58103516 8.02550781 -4.09957031 7.17601562 -3.60351562 6.30078125 C-2.40942817 4.19634989 -1.20803163 2.09644809 0 0 Z " fill="#CFEBD5" transform="translate(99,149)"/>
<path d="M0 0 C4.554787 3.80014774 8.95279259 7.65665546 13 12 C13 12.66 13 13.32 13 14 C12.01 14 11.02 14 10 14 C10 13.34 10 12.68 10 12 C9.195625 11.690625 9.195625 11.690625 8.375 11.375 C5.09732817 9.47740052 2.21864715 7.09131503 0 4 C0 2.68 0 1.36 0 0 Z " fill="#2FAA43" transform="translate(167,159)"/>
<path d="M0 0 C2 0 2 0 4.25 2.0625 C7.31390251 5.24530022 10.16219029 8.61608258 13 12 C12.34 12.66 11.68 13.32 11 14 C7.04 10.04 3.08 6.08 -1 2 C-0.67 1.34 -0.34 0.68 0 0 Z " fill="#2EA941" transform="translate(136,130)"/>
<path d="M0 0 C1.32 0 2.64 0 4 0 C3.32418477 6.08233706 2.26361972 12.01314152 1 18 C0.67 18 0.34 18 0 18 C-0.19430855 15.3753399 -0.38073238 12.75053235 -0.5625 10.125 C-0.61857422 9.37863281 -0.67464844 8.63226563 -0.73242188 7.86328125 C-1.11328125 2.2265625 -1.11328125 2.2265625 0 0 Z " fill="#CAEAD0" transform="translate(121,55)"/>
<path d="M0 0 C0.33 0 0.66 0 1 0 C1 4.62 1 9.24 1 14 C0.01 13.67 -0.98 13.34 -2 13 C-2 16.63 -2 20.26 -2 24 C-4.58926331 21.41073669 -4.37398043 19.97294721 -4.625 16.375 C-4.69976562 15.37210938 -4.77453125 14.36921875 -4.8515625 13.3359375 C-4.90054688 12.56507813 -4.94953125 11.79421875 -5 11 C-3.68 10.67 -2.36 10.34 -1 10 C-0.67 6.7 -0.34 3.4 0 0 Z " fill="#29A941" transform="translate(119,152)"/>
<path d="M0 0 C4.52615993 3.67832017 8.39424999 7.41086363 12 12 C11.01 12.33 10.02 12.66 9 13 C7.48807379 11.59606852 5.99078112 10.17636465 4.5 8.75 C3.6646875 7.96109375 2.829375 7.1721875 1.96875 6.359375 C0 4 0 4 0 0 Z " fill="#2EA942" transform="translate(82,77)"/>
<path d="M0 0 C1.8125 2.0625 1.8125 2.0625 3 4 C2.34 4.66 1.68 5.32 1 6 C-2.34448359 5.66555164 -4.52337009 4.21127671 -7 2 C-7 1.34 -7 0.68 -7 0 C-4.24438552 -1.37780724 -2.90228766 -0.92023755 0 0 Z " fill="#18A130" transform="translate(191,170)"/>
<path d="M0 0 C-0.33 0.99 -0.66 1.98 -1 3 C-6.61 3.99 -12.22 4.98 -18 6 C-18 5.34 -18 4.68 -18 4 C-15.37764986 3.13683464 -12.75266548 2.28419221 -10.125 1.4375 C-9.37863281 1.19064453 -8.63226563 0.94378906 -7.86328125 0.68945312 C-2.2265625 -1.11328125 -2.2265625 -1.11328125 0 0 Z " fill="#B3E0BC" transform="translate(175,97)"/>
<path d="M0 0 C0.99 0 1.98 0 3 0 C2.88557539 1.60495567 2.75805306 3.20898119 2.625 4.8125 C2.55539063 5.70582031 2.48578125 6.59914063 2.4140625 7.51953125 C2 10 2 10 0 13 C-0.33 12.34 -0.66 11.68 -1 11 C-1.99 11.495 -1.99 11.495 -3 12 C-2.01 8.04 -1.02 4.08 0 0 Z " fill="#2AA840" transform="translate(141,17)"/>
<path d="M0 0 C3.54243452 1.36591169 6.92627929 2.90931484 10.3125 4.625 C11.63701172 5.29402344 11.63701172 5.29402344 12.98828125 5.9765625 C13.65214844 6.31429687 14.31601563 6.65203125 15 7 C14.67 7.66 14.34 8.32 14 9 C8.80355921 7.40109514 3.93387858 5.25861997 -1 3 C-0.67 2.01 -0.34 1.02 0 0 Z " fill="#32AB46" transform="translate(141,123)"/>
<path d="M0 0 C2.46301423 2.46301423 2.76766521 4.27360036 3.625 7.625 C3.88539062 8.62789062 4.14578125 9.63078125 4.4140625 10.6640625 C4.60742188 11.43492188 4.80078125 12.20578125 5 13 C4.01 13.66 3.02 14.32 2 15 C1.27302439 13.25766175 0.56901756 11.50572655 -0.125 9.75 C-0.51945312 8.77546875 -0.91390625 7.8009375 -1.3203125 6.796875 C-2 4 -2 4 -1.1171875 1.640625 C-0.74851562 1.09921875 -0.37984375 0.5578125 0 0 Z " fill="#39AE4E" transform="translate(92,42)"/>
<path d="M0 0 C0.99 0 1.98 0 3 0 C2.91291962 2.10494301 2.80474307 4.20902142 2.6875 6.3125 C2.62949219 7.48425781 2.57148438 8.65601563 2.51171875 9.86328125 C2 13 2 13 -1 16 C-0.67 10.72 -0.34 5.44 0 0 Z " fill="#1BA131" transform="translate(127,14)"/>
<path d="M0 0 C6.40140935 0.46555704 11.26769829 2.14711836 17 5 C13.02623171 6.56393356 10.18622097 5.36145292 6.25 4.0625 C4.49429688 3.49208984 4.49429688 3.49208984 2.703125 2.91015625 C1.81109375 2.60980469 0.9190625 2.30945313 0 2 C0 1.34 0 0.68 0 0 Z " fill="#2CA840" transform="translate(74,98)"/>
<path d="M0 0 C5.23419357 -0.16335585 9.86306192 0.39447963 14.9375 1.5 C15.62134766 1.64308594 16.30519531 1.78617187 17.00976562 1.93359375 C18.67449514 2.28283771 20.33744875 2.64052946 22 3 C22 3.33 22 3.66 22 4 C19.45805839 3.85811015 16.91652007 3.71160845 14.375 3.5625 C13.30572266 3.50352539 13.30572266 3.50352539 12.21484375 3.44335938 C8.08196318 3.19690319 4.07730976 2.76529947 0 2 C0 1.34 0 0.68 0 0 Z " fill="#21A437" transform="translate(19,96)"/>
<path d="M0 0 C0.33 0.66 0.66 1.32 1 2 C-0.2578125 4.78515625 -0.2578125 4.78515625 -2.125 8.0625 C-3.02605469 9.68865234 -3.02605469 9.68865234 -3.9453125 11.34765625 C-6 14 -6 14 -8.7421875 14.87109375 C-9.48726563 14.91363281 -10.23234375 14.95617187 -11 15 C-10.62488281 14.50371094 -10.24976562 14.00742188 -9.86328125 13.49609375 C-6.50836081 9.04258476 -3.22288764 4.54995902 0 0 Z " fill="#CEEBD4" transform="translate(92,148)"/>
<path d="M0 0 C0.66 0.33 1.32 0.66 2 1 C0.65429346 5.03711961 -1.86666514 5.89392969 -5.4375 7.75 C-6.03626953 8.07871094 -6.63503906 8.40742187 -7.25195312 8.74609375 C-8.79942162 9.5674824 -10.39767365 10.29155922 -12 11 C-12.66 10.67 -13.32 10.34 -14 10 C-9.38 6.7 -4.76 3.4 0 0 Z " fill="#D2EDD7" transform="translate(167,79)"/>
<path d="M0 0 C0.99 0.33 1.98 0.66 3 1 C3.33 2.65 3.66 4.3 4 6 C3.01 5.67 2.02 5.34 1 5 C0.01 5.495 0.01 5.495 -1 6 C-1 6.99 -1 7.98 -1 9 C-1.66 9 -2.32 9 -3 9 C-5.125 4.375 -5.125 4.375 -4 1 C-3.34 1.33 -2.68 1.66 -2 2 C-2 2.66 -2 3.32 -2 4 C-1.34 4 -0.68 4 0 4 C0 2.68 0 1.36 0 0 Z " fill="#25A63B" transform="translate(101,74)"/>
<path d="M0 0 C0.33 0.99 0.66 1.98 1 3 C-0.29296875 5.12109375 -0.29296875 5.12109375 -2.1875 7.4375 C-2.79980469 8.19933594 -3.41210938 8.96117188 -4.04296875 9.74609375 C-5.94246612 11.93373842 -7.92455141 13.97977399 -10 16 C-7.90139885 10.08576039 -5.30277956 3.53518637 0 0 Z " fill="#C9E9D0" transform="translate(148,63)"/>
<path d="M0 0 C2.8503026 3.20945602 3.43451699 5.49988548 3.6875 9.75 C3.75324219 10.73484375 3.81898438 11.7196875 3.88671875 12.734375 C3.92410156 13.48203125 3.96148437 14.2296875 4 15 C3.34 15 2.68 15 2 15 C0.2520497 9.75614911 -0.19392201 5.52677733 0 0 Z " fill="#169F2B" transform="translate(125,155)"/>
<path d="M0 0 C0.33 0 0.66 0 1 0 C0.67 5.28 0.34 10.56 0 16 C-0.99 15.67 -1.98 15.34 -3 15 C-2.44854729 9.76119922 -1.57077907 5.02649303 0 0 Z " fill="#EBF7ED" transform="translate(110,140)"/>
<path d="M0 0 C0.66 0 1.32 0 2 0 C1.88541307 1.43836751 1.75790884 2.87570966 1.625 4.3125 C1.55539063 5.11300781 1.48578125 5.91351563 1.4140625 6.73828125 C1 9 1 9 -1 12 C-1.66 11.67 -2.32 11.34 -3 11 C-2.69217504 9.35328588 -2.37860766 7.70764424 -2.0625 6.0625 C-1.88847656 5.14597656 -1.71445313 4.22945312 -1.53515625 3.28515625 C-1 1 -1 1 0 0 Z " fill="#1CA232" transform="translate(108,138)"/>
<path d="M0 0 C0.33 0 0.66 0 1 0 C1.33 2.31 1.66 4.62 2 7 C7.94 7.99 7.94 7.99 14 9 C10.4513865 11.36574234 9.4235475 11.10865265 5.3125 10.625 C3.82169922 10.45871094 3.82169922 10.45871094 2.30078125 10.2890625 C1.54152344 10.19367188 0.78226563 10.09828125 0 10 C0 6.7 0 3.4 0 0 Z " fill="#41B256" transform="translate(143,108)"/>
<path d="M0 0 C1.32 0.66 2.64 1.32 4 2 C3.01 2.495 3.01 2.495 2 3 C1.08719862 5.57437581 1.08719862 5.57437581 0.375 8.5625 C0.11460938 9.57441406 -0.14578125 10.58632812 -0.4140625 11.62890625 C-0.60742188 12.41136719 -0.80078125 13.19382813 -1 14 C-1.99 13.67 -2.98 13.34 -4 13 C-3.27991594 8.39146203 -1.68704061 4.32762591 0 0 Z " fill="#B8E2C0" transform="translate(106,136)"/>
<path d="M0 0 C0.66 0.33 1.32 0.66 2 1 C0.5741914 4.45195767 -1.09746334 6.1014256 -4.125 8.25 C-4.84945312 8.77078125 -5.57390625 9.2915625 -6.3203125 9.828125 C-6.87460938 10.21484375 -7.42890625 10.6015625 -8 11 C-8.66 10.67 -9.32 10.34 -10 10 C-6.7 6.7 -3.4 3.4 0 0 Z " fill="#C9E9D0" transform="translate(159,74)"/>
<path d="M0 0 C0.99 0 1.98 0 3 0 C2.67 2.31 2.34 4.62 2 7 C0.35 7 -1.3 7 -3 7 C-3 5.68 -3 4.36 -3 3 C-2.34 3 -1.68 3 -1 3 C-0.67 2.01 -0.34 1.02 0 0 Z " fill="#0A9C26" transform="translate(98,202)"/>
<path d="M0 0 C0.33 0 0.66 0 1 0 C0.47462276 5.0302076 -0.10594786 10.01885239 -1 15 C-1.99 15 -2.98 15 -4 15 C-4 11.5317263 -3.12682499 9.08733513 -2 5.8125 C-1.62875 4.72582031 -1.2575 3.63914063 -0.875 2.51953125 C-0.58625 1.68808594 -0.2975 0.85664063 0 0 Z " fill="#D3EDD8" transform="translate(104,153)"/>
<path d="M0 0 C2.631724 2.45627573 4.81527263 4.55352037 6 8 C5.71101782 9.34364362 5.38228783 10.67986936 5 12 C4.18357746 10.73168307 3.37200895 9.46024069 2.5625 8.1875 C2.11003906 7.47980469 1.65757813 6.77210937 1.19140625 6.04296875 C0 4 0 4 -1 1 C-0.67 0.67 -0.34 0.34 0 0 Z " fill="#19A02F" transform="translate(69,25)"/>
<path d="M0 0 C1.90318884 2.85478326 2.4619099 4.41941308 3.125 7.6875 C3.29257813 8.49574219 3.46015625 9.30398437 3.6328125 10.13671875 C3.75398437 10.75160156 3.87515625 11.36648437 4 12 C3.01 12 2.02 12 1 12 C0.01 12.33 -0.98 12.66 -2 13 C-1.34 8.71 -0.68 4.42 0 0 Z " fill="#30AC48" transform="translate(141,190)"/>
<path d="M0 0 C0.66 0.33 1.32 0.66 2 1 C2.1953125 7.0546875 2.1953125 7.0546875 2 9 C1.34 9.66 0.68 10.32 0 11 C-1.49821059 7.62902617 -2 5.79557881 -2 2 C-1.34 2 -0.68 2 0 2 C0 1.34 0 0.68 0 0 Z " fill="#03991E" transform="translate(139,189)"/>
<path d="M0 0 C3 1 3 1 4.1875 3.1875 C5.07334979 6.25390311 5.14770318 8.82438155 5 12 C1.70343678 10.35171839 1.24171391 7.33005093 0 4 C0 2.68 0 1.36 0 0 Z " fill="#1CA231" transform="translate(125,137)"/>
<path d="M0 0 C6.35987804 -0.20190089 11.85221129 0.3722167 18 2 C18 2.33 18 2.66 18 3 C11.59646678 3.2361959 6.15370839 2.823321 0 1 C0 0.67 0 0.34 0 0 Z " fill="#1FA436" transform="translate(55,102)"/>
<path d="M0 0 C0.99 0.33 1.98 0.66 3 1 C1.84826645 3.46800047 0.95216435 5.04783565 -1 7 C-3.125 6.625 -3.125 6.625 -5 6 C-5 5.34 -5 4.68 -5 4 C-2.6875 1.8125 -2.6875 1.8125 0 0 Z " fill="#149F2C" transform="translate(190,48)"/>
<path d="M0 0 C-5.30094216 1.80304155 -10.60308488 3.50723624 -16 5 C-15.67 4.01 -15.34 3.02 -15 2 C-12.3828125 1.015625 -12.3828125 1.015625 -9.125 0.25 C-8.05507812 -0.01296875 -6.98515625 -0.2759375 -5.8828125 -0.546875 C-3 -1 -3 -1 0 0 Z " fill="#CCEAD2" transform="translate(73,123)"/>
<path d="M0 0 C0.21278058 4.46839215 -0.40861915 7.82262526 -2 12 C-4.31282587 8.53076119 -4.42478586 7.07794425 -4 3 C-1.7 0 -1.7 0 0 0 Z " fill="#089B22" transform="translate(113,64)"/>
<path d="M0 0 C0.66 0.33 1.32 0.66 2 1 C2 1.99 2 2.98 2 4 C0.39935157 4.53154742 -1.20568874 5.04988353 -2.8125 5.5625 C-3.70582031 5.85253906 -4.59914062 6.14257812 -5.51953125 6.44140625 C-8 7 -8 7 -11 6 C-9.21385682 4.96953278 -7.42089982 3.95086764 -5.625 2.9375 C-4.62726563 2.36902344 -3.62953125 1.80054687 -2.6015625 1.21484375 C-1.74304688 0.81394531 -0.88453125 0.41304688 0 0 Z " fill="#C3E7CA" transform="translate(169,88)"/>
<path d="M0 0 C0.66 0.33 1.32 0.66 2 1 C1.39644592 4.85025879 0.23227397 7.86101159 -1.5625 11.3125 C-2.01753906 12.19550781 -2.47257813 13.07851562 -2.94140625 13.98828125 C-3.29074219 14.65214844 -3.64007813 15.31601563 -4 16 C-5.35304209 11.94087374 -4.15216503 10.22850409 -2.5625 6.3125 C-2.08941406 5.13300781 -1.61632812 3.95351562 -1.12890625 2.73828125 C-0.75636719 1.83464844 -0.38382813 0.93101563 0 0 Z " fill="#BCE4C4" transform="translate(137,62)"/>
<path d="M0 0 C0.66 0.33 1.32 0.66 2 1 C-1.96 3.64 -5.92 6.28 -10 9 C-10.66 8.01 -11.32 7.02 -12 6 C-10.04669132 4.96958487 -8.08718472 3.9509107 -6.125 2.9375 C-5.03445312 2.36902344 -3.94390625 1.80054688 -2.8203125 1.21484375 C-1.42425781 0.61349609 -1.42425781 0.61349609 0 0 Z " fill="#B4E1BD" transform="translate(78,134)"/>
<path d="M0 0 C4.571279 0.54855348 8.67435795 1.41744803 13 3 C13 3.66 13 4.32 13 5 C11.39536551 4.68991116 9.79130769 4.37683713 8.1875 4.0625 C7.29417969 3.88847656 6.40085938 3.71445313 5.48046875 3.53515625 C3 3 3 3 0 2 C0 1.34 0 0.68 0 0 Z " fill="#29A73E" transform="translate(197,138)"/>
<path d="M0 0 C10.55808656 3.07517084 10.55808656 3.07517084 15 5 C11.66279166 6.12764117 9.68716506 5.87990246 6.375 4.75 C5.59898437 4.49734375 4.82296875 4.2446875 4.0234375 3.984375 C2 3 2 3 0 0 Z " fill="#21A436" transform="translate(160,125)"/>
<path d="M0 0 C0.33 0 0.66 0 1 0 C1 3.3 1 6.6 1 10 C1.33 10 1.66 10 2 10 C2 11.65 2 13.3 2 15 C1.01 15.33 0.02 15.66 -1 16 C-1.11138159 10.54230189 -0.91657981 5.38490641 0 0 Z " fill="#30AB46" transform="translate(123,40)"/>
<path d="M0 0 C2.24606427 1.77444972 2.95081002 2.58352485 3.29296875 5.48046875 C3.25816406 6.37378906 3.22335938 7.26710938 3.1875 8.1875 C3.16042969 9.08855469 3.13335937 9.98960938 3.10546875 10.91796875 C3.07066406 11.60503906 3.03585938 12.29210938 3 13 C0.73437327 10.73437327 0.05537251 9.15839295 -0.09765625 5.95703125 C-0.06510417 3.97135417 -0.03255208 1.98567708 0 0 Z " fill="#129D28" transform="translate(100,31)"/>
<path d="M0 0 C0.66 0 1.32 0 2 0 C2.36923077 7.50769231 2.36923077 7.50769231 0.5 10 C0.005 10.33 -0.49 10.66 -1 11 C-1.125 3.375 -1.125 3.375 0 0 Z " fill="#0D9C24" transform="translate(112,139)"/>
<path d="M0 0 C0.66 0 1.32 0 2 0 C2 3.96 2 7.92 2 12 C-1.31037029 7.58617295 -1.39887707 6.28512118 -1 1 C-0.67 0.67 -0.34 0.34 0 0 Z " fill="#02981B" transform="translate(118,59)"/>
<path d="M0 0 C0.99 0.33 1.98 0.66 3 1 C2.25 5.75 2.25 5.75 0 8 C-0.99 8 -1.98 8 -3 8 C-1.125 2.25 -1.125 2.25 0 0 Z " fill="#24A63B" transform="translate(151,31)"/>
<path d="M0 0 C3.01217112 0.64449607 5.51655836 1.65022182 8.25 3.0625 C8.95640625 3.42472656 9.6628125 3.78695312 10.390625 4.16015625 C10.92171875 4.43730469 11.4528125 4.71445313 12 5 C11.34 5.66 10.68 6.32 10 7 C6.7 5.35 3.4 3.7 0 2 C0 1.34 0 0.68 0 0 Z " fill="#1DA232" transform="translate(28,67)"/>
<path d="M0 0 C0.99 0.33 1.98 0.66 3 1 C2.34 3.31 1.68 5.62 1 8 C0.01 8 -0.98 8 -2 8 C-1.125 2.25 -1.125 2.25 0 0 Z " fill="#26A63B" transform="translate(134,43)"/>
<path d="M0 0 C0.99 0 1.98 0 3 0 C4.32 2.97 5.64 5.94 7 9 C6.34 9 5.68 9 5 9 C4.67 9.66 4.34 10.32 4 11 C2.68 7.37 1.36 3.74 0 0 Z " fill="#D3EDD9" transform="translate(126,136)"/>
<path d="M0 0 C-3.64418341 2.42945561 -4.92923364 2.0828781 -9.1875 1.625 C-10.27417969 1.51414062 -11.36085937 1.40328125 -12.48046875 1.2890625 C-13.31191406 1.19367188 -14.14335937 1.09828125 -15 1 C-15 0.67 -15 0.34 -15 0 C-9.96266834 -1.5111995 -5.11828973 -0.64599773 0 0 Z " fill="#49B55D" transform="translate(195,123)"/>
<path d="M0 0 C4.05606165 0.46800711 7.46588679 0.87953208 11 3 C10.67 3.66 10.34 4.32 10 5 C6.08788267 3.84414715 3.1254959 2.64465038 0 0 Z " fill="#2AA83F" transform="translate(83,96)"/>
<path d="M0 0 C2.32472205 2.85306797 3.7508258 5.54074837 5 9 C3.125 8.875 3.125 8.875 1 8 C-0.3125 5.0625 -0.3125 5.0625 -1 2 C-0.67 1.34 -0.34 0.68 0 0 Z " fill="#24A63A" transform="translate(93,67)"/>
<path d="M0 0 C0.33 0 0.66 0 1 0 C1.33 4.62 1.66 9.24 2 14 C0.19874664 11.29811996 -1.00243753 9.06942297 -2 6 C-1.33333333 4 -0.66666667 2 0 0 Z " fill="#86CE94" transform="translate(108,64)"/>
<path d="M0 0 C3.36591866 1.44253657 5.51047079 3.33264727 8 6 C7.67 6.99 7.34 7.98 7 9 C5.82737096 7.88121617 4.66204862 6.75476949 3.5 5.625 C2.8503125 4.99851562 2.200625 4.37203125 1.53125 3.7265625 C0 2 0 2 0 0 Z " fill="#139E29" transform="translate(45,43)"/>
<path d="M0 0 C0.66 0.33 1.32 0.66 2 1 C0.02 1.99 0.02 1.99 -2 3 C-1.34 2.01 -0.68 1.02 0 0 Z M-4 3 C-3.34 3.33 -2.68 3.66 -2 4 C-3.32 5.65 -4.64 7.3 -6 9 C-6.99 8.67 -7.98 8.34 -9 8 C-7.35 6.35 -5.7 4.7 -4 3 Z " fill="#1BA233" transform="translate(53,169)"/>
<path d="M0 0 C6.625 0.75 6.625 0.75 10 3 C6.18510326 4.46726798 3.70988378 3.43336419 0 2 C0 1.34 0 0.68 0 0 Z " fill="#37AD4A" transform="translate(22,81)"/>
<path d="M0 0 C0.99 0.33 1.98 0.66 3 1 C2.67 2.32 2.34 3.64 2 5 C-1.75 6.125 -1.75 6.125 -4 5 C-2.68 3.35 -1.36 1.7 0 0 Z " fill="#20A437" transform="translate(180,37)"/>
<path d="M0 0 C2 1.625 2 1.625 4 4 C4.25 7.25 4.25 7.25 4 10 C1.2027092 7.93243723 0.97307727 6.85559629 0.3125 3.3125 C0.209375 2.219375 0.10625 1.12625 0 0 Z " fill="#129D27" transform="translate(88,35)"/>
<path d="M0 0 C0.33 0 0.66 0 1 0 C0.125 7.75 0.125 7.75 -1 10 C-1.66 10 -2.32 10 -3 10 C-2.25 2.25 -2.25 2.25 0 0 Z " fill="#05981D" transform="translate(140,27)"/>
<path d="M0 0 C2.78637633 4.1795645 1.79562512 6.14668677 1 11 C0.01 11.33 -0.98 11.66 -2 12 C-2.33 10.68 -2.66 9.36 -3 8 C-2.34 8 -1.68 8 -1 8 C-0.17361624 5.10765685 0 3.11257569 0 0 Z " fill="#2AAA44" transform="translate(137,176)"/>
<path d="M0 0 C0 3.77910478 -0.99703962 4.46106101 -3.5 7.1875 C-4.1496875 7.90292969 -4.799375 8.61835938 -5.46875 9.35546875 C-5.9740625 9.89816406 -6.479375 10.44085938 -7 11 C-7.66 10.34 -8.32 9.68 -9 9 C-6.03 6.03 -3.06 3.06 0 0 Z " fill="#BDE4C5" transform="translate(88,143)"/>
<path d="M0 0 C1.73662334 3.22515763 2.8905928 6.51329166 4 10 C3.34 10 2.68 10 2 10 C1.67 10.66 1.34 11.32 1 12 C0.63896464 10.18885568 0.28634496 8.37603177 -0.0625 6.5625 C-0.25972656 5.55316406 -0.45695312 4.54382813 -0.66015625 3.50390625 C-0.77230469 2.67761719 -0.88445312 1.85132813 -1 1 C-0.67 0.67 -0.34 0.34 0 0 Z " fill="#D9F0DE" transform="translate(124,137)"/>
<path d="M0 0 C3.1875 0.875 3.1875 0.875 6 2 C5.67 3.32 5.34 4.64 5 6 C4.01 5.67 3.02 5.34 2 5 C2.33 4.67 2.66 4.34 3 4 C1.02 3.34 -0.96 2.68 -3 2 C-2.01 1.34 -1.02 0.68 0 0 Z " fill="#C0E6C8" transform="translate(87,99)"/>
<path d="M0 0 C0.33 0 0.66 0 1 0 C0.25 7.625 0.25 7.625 -2 11 C-2.05399736 9.54207116 -2.09279177 8.08357288 -2.125 6.625 C-2.15980469 5.40683594 -2.15980469 5.40683594 -2.1953125 4.1640625 C-2 2 -2 2 0 0 Z " fill="#E4F4E7" transform="translate(124,55)"/>
<path d="M0 0 C-1.23884319 0.72767003 -2.49168341 1.43154815 -3.75 2.125 C-4.79414062 2.71667969 -4.79414062 2.71667969 -5.859375 3.3203125 C-8 4 -8 4 -10.265625 3.1171875 C-10.83796875 2.74851563 -11.4103125 2.37984375 -12 2 C-10.56656 1.46809459 -9.12804633 0.94984742 -7.6875 0.4375 C-6.48673828 0.00244141 -6.48673828 0.00244141 -5.26171875 -0.44140625 C-3 -1 -3 -1 0 0 Z " fill="#B8E2C0" transform="translate(75,130)"/>
<path d="M0 0 C1.65 1.65 3.3 3.3 5 5 C4.01 6.485 4.01 6.485 3 8 C1.68 6.02 0.36 4.04 -1 2 C-0.67 1.34 -0.34 0.68 0 0 Z " fill="#26A63C" transform="translate(153,158)"/>
<path d="M0 0 C2.5 2.3125 2.5 2.3125 5 5 C5 5.99 5 6.98 5 8 C2.5 5.6875 2.5 5.6875 0 3 C0 2.01 0 1.02 0 0 Z " fill="#139E29" transform="translate(85,70)"/>
<path d="M0 0 C2.35953094 2.35953094 2.49141413 3.77895617 3 7 C2.01 7.33 1.02 7.66 0 8 C-0.38063221 5.6739143 -0.71269945 3.33944736 -1 1 C-0.67 0.67 -0.34 0.34 0 0 Z " fill="#29A73D" transform="translate(100,64)"/>
<path d="M0 0 C0.33 0 0.66 0 1 0 C1.33 2.97 1.66 5.94 2 9 C1.01 9 0.02 9 -1 9 C-1.625 6.1875 -1.625 6.1875 -2 3 C-1.34 2.01 -0.68 1.02 0 0 Z " fill="#3DB052" transform="translate(100,24)"/>
<path d="M0 0 C0 0.66 0 1.32 0 2 C-1.98 2.66 -3.96 3.32 -6 4 C-6 3.34 -6 2.68 -6 2 C-6.66 1.67 -7.32 1.34 -8 1 C-5.10765685 0.17361624 -3.11257569 0 0 0 Z " fill="#DFF2E3" transform="translate(65,133)"/>
<path d="M0 0 C1.98 0.495 1.98 0.495 4 1 C3.34 2.32 2.68 3.64 2 5 C1.01 5 0.02 5 -1 5 C-0.67 3.35 -0.34 1.7 0 0 Z " fill="#18A02F" transform="translate(168,29)"/>
<path d="M0 0 C0.99 1.32 1.98 2.64 3 4 C2.34 5.32 1.68 6.64 1 8 C-0.42944945 5.64561267 -1.08661261 4.51967567 -0.625 1.75 C-0.41875 1.1725 -0.2125 0.595 0 0 Z " fill="#27A63C" transform="translate(141,154)"/>
<path d="M0 0 C0.99 0.33 1.98 0.66 3 1 C3.33 2.65 3.66 4.3 4 6 C1.03 5.505 1.03 5.505 -2 5 C-1.34 4.67 -0.68 4.34 0 4 C0 2.68 0 1.36 0 0 Z " fill="#5EBE71" transform="translate(101,74)"/>
</svg>
