<?xml version="1.0" standalone="no"?>
<!DOCTYPE svg PUBLIC "-//W3C//DTD SVG 20010904//EN"
 "http://www.w3.org/TR/2001/REC-SVG-20010904/DTD/svg10.dtd">
<svg version="1.0" xmlns="http://www.w3.org/2000/svg"
 width="357.000000pt" height="385.000000pt" viewBox="0 0 357.000000 385.000000"
 preserveAspectRatio="xMidYMid meet">

<g transform="translate(0.000000,385.000000) scale(0.100000,-0.100000)"
fill="#000000" stroke="none">
<path d="M1735 3103 c4 -126 11 -235 16 -243 10 -19 11 66 2 298 -3 98 -10
172 -16 172 -6 0 -7 -85 -2 -227z"/>
<path d="M1880 3317 c0 -13 -36 -314 -44 -376 -5 -29 -3 -32 8 -20 8 8 22 88
35 199 24 213 24 210 11 210 -5 0 -10 -6 -10 -13z"/>
<path d="M1579 3316 c-9 -10 97 -520 109 -524 6 -2 14 -20 17 -40 4 -20 8 -48
11 -60 8 -40 -15 -14 -26 29 -9 34 -14 39 -26 28 -8 -6 -17 -10 -20 -7 -3 3
-49 126 -103 273 -54 147 -101 263 -104 258 -4 -6 20 -82 52 -169 32 -88 77
-208 99 -269 23 -60 45 -109 51 -108 7 2 31 -46 31 -63 0 -14 -20 0 -25 17 -6
16 -9 18 -22 8 -18 -16 0 -43 -175 273 -78 141 -145 255 -149 253 -10 -7 293
-554 305 -552 6 1 11 -7 13 -18 3 -16 2 -17 -6 -5 -9 12 -11 12 -17 -3 -3 -9
-10 -15 -14 -12 -5 3 -95 118 -200 255 -106 138 -197 250 -202 250 -7 0 -7 -4
0 -12 5 -7 96 -125 201 -263 167 -218 210 -285 185 -285 -4 0 -116 106 -249
235 -133 129 -245 232 -247 229 -3 -3 106 -113 242 -245 163 -158 247 -246
243 -255 -3 -9 -10 -11 -17 -6 -58 46 -543 385 -555 389 -30 11 2 -13 282
-212 152 -108 277 -202 277 -208 0 -6 14 5 31 26 65 79 182 116 281 88 102
-29 184 -127 195 -236 l6 -54 353 -1 354 0 0 30 0 31 -282 -1 c-156 0 -289 -1
-297 0 -42 1 20 13 250 49 335 53 319 50 319 64 -1 40 -21 38 -549 -49 -49 -8
-52 9 -4 20 16 4 139 43 275 87 239 77 247 80 239 102 -5 12 -13 21 -18 20 -4
0 -129 -40 -276 -88 -148 -48 -271 -84 -274 -81 -3 3 16 15 43 26 27 12 145
71 262 132 206 106 213 111 196 129 -16 18 -25 14 -271 -112 -140 -72 -256
-129 -259 -126 -3 2 95 75 217 162 212 150 220 157 200 172 -20 14 -33 6 -227
-132 -206 -147 -269 -185 -204 -124 19 18 100 95 179 172 107 104 140 142 130
148 -8 5 -19 9 -25 9 -6 0 -86 -73 -178 -161 -92 -89 -169 -160 -171 -157 -3
2 54 80 125 173 72 93 130 170 130 172 0 2 -12 3 -28 3 -24 0 -44 -22 -152
-165 -69 -91 -126 -161 -128 -157 -1 5 36 77 83 162 47 84 85 154 85 156 0 2
-11 4 -24 4 -21 0 -35 -18 -97 -132 -124 -229 -132 -233 -55 -27 30 79 53 145
52 147 -2 1 -14 -2 -27 -7 -20 -7 -33 -34 -73 -147 -28 -76 -51 -133 -54 -126
-2 6 6 59 18 117 24 120 23 138 -7 108 -15 -15 -26 -49 -38 -119 -25 -142 -37
-150 -31 -22 5 103 4 107 -14 96 -25 -16 -30 -37 -30 -133 -1 -94 -14 -84 -25
18 -7 67 -7 68 -26 51 -10 -9 -21 -15 -23 -13 -2 2 -24 112 -50 244 -47 242
-57 281 -67 271z"/>
<path d="M2020 3258 c-7 -24 -27 -97 -46 -163 -38 -133 -40 -146 -20 -125 11
13 97 299 96 323 0 4 -4 7 -10 7 -5 0 -14 -19 -20 -42z"/>
<path d="M2130 3158 c-70 -154 -72 -158 -57 -158 11 0 118 220 117 243 0 26
-23 -6 -60 -85z"/>
<path d="M2247 3095 c-31 -46 -57 -87 -57 -90 0 -3 6 -5 13 -5 18 1 121 160
110 171 -6 6 -32 -24 -66 -76z"/>
<path d="M2373 3040 c-47 -52 -50 -60 -29 -60 17 0 98 94 89 104 -11 11 -17 6
-60 -44z"/>
<path d="M2490 2962 c-25 -21 -30 -30 -19 -34 20 -8 77 38 63 52 -7 7 -21 1
-44 -18z"/>
<path d="M2596 2862 c-3 -6 -1 -14 5 -17 15 -10 25 3 12 16 -7 7 -13 7 -17 1z"/>
<path d="M900 2792 c1 -9 628 -328 634 -322 2 3 -140 78 -315 167 -175 90
-319 160 -319 155z"/>
<path d="M845 2653 c12 -13 666 -225 673 -219 2 3 -144 52 -324 111 -180 59
-334 109 -343 112 -11 4 -13 3 -6 -4z"/>
<path d="M801 2506 c4 -5 89 -19 473 -80 120 -20 221 -38 224 -41 3 -3 -155
-5 -351 -5 l-357 0 0 -30 0 -30 288 -1 c180 -1 276 -4 257 -10 -16 -4 -133
-24 -260 -44 -280 -44 -275 -42 -275 -58 1 -38 11 -38 271 3 140 22 262 43
272 46 9 3 17 1 17 -5 0 -6 -17 -15 -37 -21 -21 -5 -139 -43 -263 -84 -195
-63 -225 -76 -222 -92 2 -10 7 -22 10 -25 4 -4 122 31 262 77 140 46 260 82
265 80 6 -2 -101 -59 -237 -127 -137 -68 -248 -128 -248 -134 0 -5 5 -17 10
-25 8 -13 50 6 257 110 286 144 268 135 260 123 -4 -6 -108 -82 -231 -169
-124 -87 -225 -161 -225 -164 0 -3 6 -13 13 -23 13 -17 31 -6 246 147 128 92
235 166 239 166 3 -1 -88 -92 -202 -203 -202 -196 -208 -203 -190 -220 19 -16
27 -10 227 184 114 111 209 200 211 197 3 -2 -74 -107 -171 -233 -155 -201
-174 -229 -161 -243 8 -8 20 -11 26 -8 6 4 88 108 183 232 94 123 173 222 175
220 3 -2 -59 -118 -136 -258 -125 -225 -138 -254 -123 -265 8 -7 18 -13 21
-13 3 0 66 110 139 244 129 235 172 308 157 261 -3 -11 -50 -138 -102 -283
-79 -217 -94 -265 -82 -273 22 -13 26 -11 37 19 125 341 185 497 196 506 16
13 50 125 41 134 -10 10 -24 -19 -36 -75 -7 -29 -16 -53 -20 -53 -19 0 -19 43
1 87 11 26 17 50 12 55 -5 5 -17 -9 -27 -32 -10 -22 -22 -40 -26 -40 -19 0
-16 19 6 53 16 23 21 38 14 42 -10 7 -38 -21 -39 -37 0 -5 -4 -8 -10 -8 -15 0
-12 21 6 41 9 10 13 23 9 29 -5 8 -11 5 -20 -7 -7 -10 -17 -15 -21 -10 -4 4
-2 13 4 19 16 16 15 28 -2 28 -8 0 -15 8 -15 18 1 9 -6 35 -15 57 -8 22 -15
64 -16 93 0 28 -3 52 -7 52 -5 0 -161 25 -348 55 -348 56 -361 58 -354 51z"/>
<path d="M2051 2305 c8 -7 691 -116 697 -110 5 5 1 5 -348 60 -157 25 -301 47
-320 51 -19 3 -32 3 -29 -1z"/>
<path d="M2045 2263 c6 -6 98 -39 205 -73 107 -35 255 -82 329 -106 74 -24
130 -39 125 -35 -5 5 -150 55 -322 111 -173 55 -321 104 -330 107 -12 4 -14 3
-7 -4z"/>
<path d="M2020 2225 c0 -7 621 -317 626 -313 3 4 -609 318 -619 318 -4 0 -7
-2 -7 -5z"/>
<path d="M2001 2191 c5 -15 521 -382 528 -376 5 6 30 -13 -199 150 -107 76
-226 161 -264 188 -37 27 -67 44 -65 38z"/>
<path d="M2175 1955 c116 -112 215 -204 220 -204 6 0 -84 92 -200 204 -115
113 -214 204 -220 204 -5 0 85 -92 200 -204z"/>
<path d="M1940 2133 c0 -13 308 -417 322 -422 16 -6 7 7 -150 214 -161 211
-172 224 -172 208z"/>
<path d="M1944 2028 c136 -250 172 -312 183 -315 6 -2 -27 65 -74 149 -46 84
-96 174 -109 201 -13 26 -29 47 -35 47 -6 0 10 -37 35 -82z"/>
<path d="M1867 2093 c-4 -7 119 -350 129 -362 2 -2 6 -2 9 1 4 4 -121 357
-130 366 -2 2 -5 0 -8 -5z"/>
<path d="M1723 1995 c-12 -95 -18 -109 -38 -82 -13 18 -13 18 -19 0 -3 -10
-28 -130 -55 -268 -49 -248 -50 -264 -16 -265 6 0 33 115 60 255 30 154 54
255 61 255 7 0 14 19 18 43 16 119 18 147 9 147 -6 0 -15 -38 -20 -85z"/>
<path d="M1782 1959 c3 -79 10 -124 18 -132 10 -10 11 -7 6 13 -3 14 -6 73 -6
133 0 73 -4 107 -11 107 -9 0 -10 -34 -7 -121z"/>
<path d="M1824 2063 c3 -10 17 -80 32 -155 15 -76 31 -138 35 -138 11 0 14
-15 -21 155 -16 81 -30 150 -30 152 0 1 -5 3 -11 3 -6 0 -8 -8 -5 -17z"/>
<path d="M2597 1855 c-13 -9 -15 -15 -7 -20 7 -4 19 -1 27 8 19 19 3 29 -20
12z"/>
<path d="M1724 1618 c-9 -232 -8 -243 9 -246 10 -2 20 -2 22 0 1 2 7 104 12
228 9 195 8 227 -5 243 -8 9 -18 17 -22 17 -4 0 -12 -109 -16 -242z"/>
<path d="M1820 1798 c0 -2 11 -93 25 -203 14 -110 25 -206 25 -212 0 -7 10
-13 21 -13 25 0 25 -16 -8 258 -15 127 -20 144 -40 157 -13 9 -23 14 -23 13z"/>
<path d="M2471 1771 c-11 -7 -8 -14 15 -35 34 -30 43 -32 50 -11 4 9 -4 23
-17 35 -28 22 -29 23 -48 11z"/>
<path d="M1930 1732 c0 -4 20 -78 45 -165 25 -87 45 -160 45 -163 0 -8 29 -4
34 5 9 14 -75 305 -92 319 -18 14 -32 16 -32 4z"/>
<path d="M2326 1712 c-3 -5 17 -31 44 -57 37 -37 53 -46 61 -38 9 9 2 23 -26
57 -35 43 -67 58 -79 38z"/>
<path d="M2050 1703 c0 -11 114 -253 119 -253 3 0 12 4 19 8 10 7 0 36 -40
125 -42 91 -57 116 -75 120 -13 2 -23 3 -23 0z"/>
<path d="M2192 1678 c8 -13 34 -53 57 -90 45 -71 47 -73 69 -59 22 14 -85 170
-117 171 -22 0 -22 -1 -9 -22z"/>
<path d="M1060 810 l0 -270 170 0 170 0 0 30 0 30 -130 0 -130 0 0 95 0 95
105 0 105 0 0 30 0 30 -105 0 -105 0 0 85 0 84 128 3 127 3 3 28 3 27 -170 0
-171 0 0 -270z"/>
<path d="M1500 810 l0 -270 40 0 40 0 0 125 0 125 25 0 c36 0 101 -69 158
-167 l48 -83 49 0 c28 0 50 2 50 5 0 19 -102 167 -152 221 l-29 31 40 7 c102
16 149 132 90 217 -32 46 -84 59 -229 59 l-130 0 0 -270z m253 198 c32 -16 46
-39 47 -71 0 -66 -49 -97 -155 -97 l-65 0 0 90 0 90 76 0 c41 0 85 -5 97 -12z"/>
<path d="M1992 813 l3 -268 42 -3 43 -3 2 221 3 220 81 -151 81 -151 79 152
79 152 3 -221 2 -221 40 0 40 0 0 270 0 270 -58 0 -57 0 -64 -127 c-48 -97
-66 -124 -73 -113 -5 8 -36 66 -69 128 l-60 112 -60 0 -59 0 2 -267z"/>
</g>
</svg>
