<?xml version="1.0" standalone="no"?>
<!DOCTYPE svg PUBLIC "-//W3C//DTD SVG 20010904//EN"
 "http://www.w3.org/TR/2001/REC-SVG-20010904/DTD/svg10.dtd">
<svg version="1.0" xmlns="http://www.w3.org/2000/svg"
 width="900.000000pt" height="500.000000pt" viewBox="0 0 900.000000 500.000000"
 preserveAspectRatio="xMidYMid meet">

<g transform="translate(0.000000,500.000000) scale(0.100000,-0.100000)"
fill="#000000" stroke="none">
<path d="M2764 4863 c-4 -16 -7 -43 -5 -61 2 -21 -4 -41 -15 -53 -9 -10 -12
-19 -6 -19 17 0 27 -68 12 -85 -7 -8 -9 -26 -5 -44 3 -17 1 -39 -5 -51 -9 -17
-9 -29 0 -51 10 -23 10 -32 0 -44 -8 -9 -9 -25 -5 -42 7 -24 11 -65 18 -173 1
-14 6 -28 11 -32 6 -4 5 -12 -3 -21 -17 -21 -8 -117 12 -129 14 -7 16 -147 17
-1220 0 -667 2 -1213 4 -1215 1 -1 372 -3 824 -3 l821 -1 7 -21 c6 -19 7 -19
16 -5 5 10 20 17 34 17 35 0 66 -18 57 -33 -5 -9 -3 -9 8 -1 8 7 22 8 34 3 11
-4 32 -8 48 -8 15 -1 27 -7 27 -13 0 -7 5 -5 11 5 10 17 49 23 63 10 12 -12
37 -12 34 0 -2 7 2 13 7 14 6 2 10 -8 10 -22 0 -30 19 -34 23 -5 4 26 16 25
35 -3 8 -12 18 -19 22 -15 4 4 2 14 -5 23 -15 18 -17 17 40 38 52 19 80 22 80
7 0 -5 -10 -10 -21 -10 -17 0 -19 -3 -10 -14 8 -9 25 -12 55 -9 25 3 59 0 76
-6 39 -13 56 -5 35 15 -23 23 -18 34 16 34 28 0 31 -3 27 -25 -6 -27 8 -24 30
6 11 17 46 18 469 19 252 0 461 4 465 8 4 4 8 268 8 586 0 381 4 585 11 598 7
13 7 23 -1 32 -7 10 -10 217 -10 700 l0 686 -1643 0 -1644 0 -12 68 c-6 37
-14 94 -17 127 -7 77 -9 88 -16 100 -4 6 -7 64 -7 130 -1 66 -3 129 -5 140 -3
11 -5 37 -5 58 -1 43 -15 49 -27 10z m306 -778 l0 -135 -90 0 c-103 0 -106 2
-109 87 -1 29 -7 74 -14 100 -21 83 -21 83 104 83 l109 0 0 -135z m280 0 l0
-136 -132 3 -133 3 -1 125 c0 69 1 128 3 133 2 4 62 7 134 7 l129 0 0 -135z
m270 0 l0 -135 -125 0 -125 0 0 135 0 135 125 0 125 0 0 -135z m280 0 l0 -135
-135 0 -135 0 0 135 0 135 135 0 135 0 0 -135z m280 0 l0 -136 -132 3 -133 3
-3 133 -3 132 136 0 135 0 0 -135z m280 0 l0 -135 -130 0 -130 0 0 135 0 135
130 0 130 0 0 -135z m280 0 l0 -135 -130 0 -130 0 0 135 0 135 130 0 130 0 0
-135z m285 0 l0 -130 -132 -3 -133 -3 0 136 0 136 133 -3 132 -3 0 -130z m267
118 c3 -16 3 -194 -1 -238 -1 -12 -22 -15 -126 -15 l-125 0 0 135 0 135 124 0
c110 0 124 -2 128 -17z m283 -118 l0 -130 -132 -3 -133 -3 0 136 0 136 133 -3
132 -3 0 -130z m280 0 l0 -130 -132 -3 -133 -3 0 136 0 136 133 -3 132 -3 0
-130z m265 0 l0 -135 -125 0 -125 0 0 135 0 135 125 0 125 0 0 -135z m-3050
-272 l0 -128 -80 80 c-44 44 -80 85 -80 93 0 7 -7 26 -15 41 -8 16 -11 31 -8
35 4 3 46 6 95 6 l88 0 0 -127z m280 -13 l0 -140 -130 0 c-79 0 -130 4 -131
10 -4 27 -5 256 -2 263 2 4 62 7 134 7 l129 0 0 -140z m270 0 l0 -140 -125 0
-125 0 0 140 0 140 125 0 125 0 0 -140z m280 0 l0 -140 -135 0 -135 0 0 133
c0 74 3 137 7 140 3 4 64 7 135 7 l128 0 0 -140z m280 0 l0 -140 -135 0 -135
0 0 133 c0 74 3 137 7 140 3 4 64 7 135 7 l128 0 0 -140z m280 0 l0 -140 -130
0 -130 0 0 140 0 140 130 0 130 0 0 -140z m280 0 l0 -140 -130 0 -130 0 0 140
0 140 130 0 130 0 0 -140z m285 0 l0 -135 -133 -3 -132 -3 0 141 0 141 133 -3
132 -3 0 -135z m266 125 c4 -44 5 -242 1 -252 -3 -10 -38 -13 -128 -13 l-124
0 0 140 0 140 125 0 c104 0 125 -3 126 -15z m285 -115 c0 -69 -2 -131 -4 -137
-3 -10 -39 -13 -133 -13 l-129 0 0 140 0 141 133 -3 132 -3 1 -125z m282 -12
l3 -138 -136 0 -135 0 0 140 0 141 133 -3 132 -3 3 -137z m262 2 l0 -140 -125
0 -125 0 0 140 0 140 125 0 125 0 0 -140z m-3295 -18 c3 -16 2 -39 -3 -53 -7
-18 -5 -30 9 -50 l18 -26 -24 5 c-24 4 -25 8 -25 78 0 74 13 98 25 46z m160
-52 l69 -70 -51 0 c-47 0 -53 3 -66 30 -14 28 -33 110 -25 110 2 0 35 -31 73
-70z m-155 -100 c-12 -8 -11 -11 8 -16 19 -6 22 -11 17 -35 -5 -21 -2 -31 9
-35 19 -7 21 -50 4 -57 -10 -4 -10 -7 0 -18 15 -16 16 -46 1 -51 -8 -3 -6 -10
5 -20 27 -27 19 -38 -29 -38 l-45 0 0 140 c0 139 0 140 23 140 18 0 19 -2 7
-10z m240 -130 c0 -132 -1 -140 -19 -140 -14 0 -25 14 -39 53 -28 74 -28 75
-51 185 l-8 42 58 0 59 0 0 -140z m280 25 c0 -63 -4 -115 -8 -115 -5 0 -21 15
-37 33 -15 17 -64 69 -109 115 l-81 82 118 0 117 0 0 -115z m270 -25 l0 -141
-122 3 -123 3 -3 138 -3 137 126 0 125 0 0 -140z m280 0 l0 -141 -132 3 -133
3 -3 138 -3 137 136 0 135 0 0 -140z m280 0 l0 -141 -132 3 -133 3 -3 138 -3
137 136 0 135 0 0 -140z m280 0 l0 -140 -130 0 -130 0 0 140 0 140 130 0 130
0 0 -140z m280 0 l0 -140 -130 0 -130 0 0 140 0 140 130 0 130 0 0 -140z m285
3 l-1 -138 -132 -3 -132 -3 0 141 0 140 133 0 133 0 -1 -137z m267 120 c2 -10
4 -57 3 -106 -2 -66 -6 -91 -18 -100 -8 -6 -17 -21 -19 -32 -3 -18 -12 -20
-111 -23 l-107 -3 0 141 0 140 124 0 c109 0 124 -2 128 -17z m284 -23 c0 -35
-11 -60 -27 -60 -5 0 -9 8 -9 17 0 14 -3 14 -15 -4 -12 -18 -22 -21 -45 -16
-20 4 -30 2 -30 -7 0 -8 -9 -11 -27 -7 -20 4 -34 -3 -61 -29 -19 -19 -39 -34
-44 -34 -4 0 -8 41 -8 90 l0 91 133 -3 132 -3 1 -35z m284 -55 c0 -86 -8 -113
-25 -85 -3 6 -16 10 -28 10 -12 0 -28 9 -35 20 -7 11 -20 20 -29 20 -9 0 -47
10 -84 23 l-69 22 0 43 0 42 135 0 135 0 0 -95z m260 -45 l0 -140 -89 0 c-86
0 -90 1 -125 32 l-36 32 0 108 0 108 125 0 125 0 0 -140z m-2792 -131 c2 -5
-47 -9 -117 -9 -73 0 -121 4 -122 10 -3 25 -5 236 -2 242 3 7 236 -227 241
-243z m2152 111 c0 -19 -11 -26 -23 -14 -8 8 3 34 14 34 5 0 9 -9 9 -20z
m-2564 -57 c-10 -10 -19 5 -10 18 6 11 8 11 12 0 2 -7 1 -15 -2 -18z m2634
-22 c0 -6 -4 -13 -10 -16 -5 -3 -10 1 -10 9 0 9 5 16 10 16 6 0 10 -4 10 -9z
m354 -17 c25 -9 19 -24 -9 -24 -16 0 -25 6 -25 15 0 16 9 19 34 9z m-2995 -56
c-1 -13 6 -40 17 -61 18 -38 18 -39 -1 -50 -19 -11 -19 -11 3 -16 13 -4 23 -9
23 -13 -1 -5 8 -24 19 -43 39 -69 33 -75 -75 -75 l-95 0 0 140 0 140 56 0 c52
0 55 -2 53 -22z m161 -23 c0 -50 -16 -61 -26 -17 -3 15 -8 35 -11 45 -3 12 1
17 16 17 18 0 21 -6 21 -45z m280 -94 l0 -140 -116 -3 c-64 -2 -120 -1 -124 2
-4 3 -11 19 -14 37 -9 39 -16 225 -9 236 2 4 62 7 134 7 l129 0 0 -139z m270
27 l0 -113 -105 105 c-58 58 -105 108 -105 112 0 5 47 8 105 8 l105 0 0 -112z
m280 -28 l0 -140 -112 0 c-101 0 -114 2 -135 22 -22 20 -23 29 -23 140 l0 118
135 0 135 0 0 -140z m280 0 l0 -140 -135 0 -135 0 0 140 0 140 135 0 135 0 0
-140z m280 0 l0 -140 -129 0 c-94 0 -130 3 -133 13 -4 10 -3 208 1 252 1 13
23 15 131 15 l130 0 0 -140z m280 0 l0 -140 -130 0 -130 0 0 140 0 140 130 0
130 0 0 -140z m285 0 l0 -135 -132 -3 -133 -3 0 141 0 141 132 -3 133 -3 0
-135z m215 134 c0 -4 -7 -12 -15 -18 -19 -14 -32 -76 -16 -76 18 0 13 -22 -11
-47 -19 -20 -20 -25 -8 -33 12 -7 12 -12 2 -22 -22 -22 -15 -48 14 -48 16 0
24 -5 22 -12 -3 -9 -34 -14 -96 -16 l-92 -3 0 141 0 140 100 0 c55 0 100 -3
100 -6z m446 -58 c20 -21 45 -36 58 -36 13 0 29 -7 36 -15 7 -8 19 -15 26 -15
8 0 14 -6 14 -13 0 -7 9 -18 20 -25 15 -9 20 -23 20 -57 0 -67 -21 -69 -78 -9
-26 27 -80 84 -121 126 -48 50 -71 82 -68 92 5 13 10 13 32 2 14 -7 41 -30 61
-50z m209 54 c-3 -5 -10 -10 -16 -10 -5 0 -9 5 -9 10 0 6 7 10 16 10 8 0 12
-4 9 -10z m225 -122 c0 -103 -3 -129 -12 -120 -7 7 -20 12 -31 12 -14 0 -17 5
-12 20 4 14 -1 27 -19 44 -27 24 -35 56 -15 56 8 0 8 5 -1 15 -9 11 -10 18 -1
29 8 10 8 16 -1 23 -23 18 -57 24 -76 14 -21 -11 -36 -3 -40 20 -2 15 11 17
103 18 l105 2 0 -133z m-2500 -143 c0 -3 -56 -5 -125 -5 l-125 0 0 133 1 132
124 -128 c69 -70 125 -129 125 -132z m1842 150 c-53 -55 -99 -101 -104 -103
-31 -13 -11 85 25 122 64 64 97 84 135 83 l39 -2 -95 -100z m312 76 c17 -19
17 -20 -2 -30 -24 -13 -48 -6 -56 16 -14 35 29 46 58 14z m-199 -107 c1 -73
-2 -84 -16 -84 -10 0 -26 11 -37 25 -18 23 -23 24 -46 14 -14 -7 -29 -9 -32
-6 -8 7 118 146 126 140 3 -3 5 -43 5 -89z m106 -20 c46 -47 86 -89 87 -95 2
-5 -35 -9 -87 -9 l-91 0 0 95 c0 52 2 95 4 95 2 0 41 -39 87 -86z m-2681 56
c0 -8 -25 -20 -41 -20 -5 0 -9 6 -9 14 0 8 10 14 25 14 14 0 25 -4 25 -8z
m2906 -42 c4 -6 -1 -17 -11 -24 -17 -12 -17 -15 -3 -31 8 -10 18 -28 21 -40 4
-19 1 -23 -19 -23 -23 0 -24 3 -24 65 0 50 3 65 14 65 8 0 18 -5 22 -12z
m-2883 -24 c-7 -18 -33 -18 -33 -1 0 19 10 27 25 20 8 -2 11 -11 8 -19z m2382
-84 c3 -5 -1 -10 -9 -10 -9 0 -16 5 -16 10 0 6 4 10 9 10 6 0 13 -4 16 -10z
m-2379 -47 c-3 -4 2 -15 11 -25 13 -14 14 -24 7 -36 -13 -22 -6 -52 12 -52 8
0 14 -9 14 -20 0 -11 -5 -20 -12 -20 -9 0 -9 -3 0 -12 7 -7 12 -31 12 -55 l0
-43 -135 0 -135 0 0 140 0 139 98 3 c90 3 142 -5 128 -19z m874 -91 l-1 -107
-99 103 c-55 57 -100 106 -100 110 0 4 45 6 100 4 l100 -3 0 -107z m1601 105
c-1 -12 -15 -9 -19 4 -3 6 1 10 8 8 6 -3 11 -8 11 -12z m327 -30 l33 -32 -3
-105 -3 -105 -132 -3 -133 -3 0 62 c0 47 3 60 13 56 8 -3 20 -1 28 4 11 6 11
11 1 21 -6 6 -12 27 -12 45 0 25 -4 31 -15 27 -21 -9 -19 22 3 36 12 8 13 13
5 16 -33 14 -4 20 85 16 93 -4 98 -5 130 -35z m289 9 c-4 -9 -11 -16 -18 -16
-6 0 -8 7 -5 16 3 9 6 21 6 27 0 8 3 8 11 0 7 -7 9 -19 6 -27z m-2767 -116 l0
-140 -44 0 c-38 0 -45 3 -50 23 -3 13 -19 41 -36 62 -16 21 -30 43 -30 50 0 7
-7 18 -15 25 -8 7 -15 22 -15 34 0 12 -4 26 -9 32 -5 5 -12 19 -16 32 -6 22
-6 22 104 22 l111 0 0 -140z m270 0 l0 -140 -125 0 -125 0 0 140 0 140 125 0
125 0 0 -140z m152 13 c71 -70 128 -134 128 -141 0 -10 -29 -12 -132 -10
l-133 3 -3 138 c-1 75 1 137 5 137 4 0 65 -57 135 -127z m408 -13 l0 -140
-107 0 c-102 0 -108 1 -135 27 -27 26 -28 29 -28 140 l0 113 135 0 135 0 0
-140z m280 0 l0 -140 -129 0 c-94 0 -130 3 -133 13 -4 10 -3 208 1 252 1 13
23 15 131 15 l130 0 0 -140z m280 0 l0 -140 -130 0 -130 0 0 140 0 140 130 0
130 0 0 -140z m285 3 l0 -138 -133 -3 -132 -3 0 141 0 140 133 0 133 0 -1
-137z m182 111 c6 -14 9 -32 6 -40 -3 -8 1 -14 8 -14 21 -1 59 -36 59 -54 0
-9 3 -16 8 -16 4 0 5 -29 4 -65 l-4 -65 -124 0 -124 0 0 140 0 140 78 0 c73 0
78 -2 89 -26z m753 4 c14 -22 21 -74 12 -91 -6 -12 -102 83 -102 100 0 8 14
13 38 13 28 0 41 -6 52 -22z m-692 -5 c-4 -22 -22 -20 -26 1 -2 10 3 16 13 16
10 0 15 -7 13 -17z m152 -8 c0 -8 -4 -15 -10 -15 -5 0 -10 7 -10 15 0 8 5 15
10 15 6 0 10 -7 10 -15z m30 -1 c0 -8 -4 -12 -10 -9 -5 3 -10 10 -10 16 0 5 5
9 10 9 6 0 10 -7 10 -16z m-160 -14 c0 -5 -4 -10 -10 -10 -5 0 -10 5 -10 10 0
6 5 10 10 10 6 0 10 -4 10 -10z m224 -12 c-8 -29 -10 -31 -23 -23 -8 4 -8 12
-1 26 15 27 33 24 24 -3z m526 -7 c0 -6 -5 -13 -10 -16 -15 -9 -43 3 -35 15 8
13 45 13 45 1z m-50 -172 l0 -39 -60 0 -60 0 0 103 1 102 59 -64 c52 -55 60
-69 60 -102z m-420 131 c0 -21 -15 -27 -25 -10 -7 12 2 30 16 30 5 0 9 -9 9
-20z m-190 -37 c11 -10 20 -28 20 -41 0 -14 4 -21 11 -17 6 4 13 -3 16 -15 l6
-21 23 22 c13 12 24 19 24 14 0 -5 10 1 23 13 13 12 26 19 30 15 4 -3 16 2 26
11 19 18 20 17 17 -45 l-2 -64 -132 -3 -132 -3 0 67 c0 55 3 65 15 60 9 -3 15
0 15 9 0 20 15 19 40 -2z m-2284 -20 c-10 -10 -19 5 -10 18 6 11 8 11 12 0 2
-7 1 -15 -2 -18z m58 -28 c3 -9 0 -15 -9 -15 -16 0 -27 14 -18 24 10 10 21 7
27 -9z m-51 -71 c-4 -10 -9 -12 -15 -6 -12 12 -1 35 12 27 5 -3 6 -13 3 -21z
m87 -24 c0 -5 -8 -10 -17 -10 -15 0 -16 2 -3 10 19 12 20 12 20 0z m-120 -135
l0 -135 -135 0 -135 0 0 135 0 135 135 0 135 0 0 -135z m57 105 c-4 -16 -3
-29 1 -29 25 4 34 -2 23 -15 -10 -11 -8 -16 8 -21 11 -3 20 -9 18 -13 -3 -11
26 -46 48 -58 11 -7 19 -19 17 -27 -1 -9 11 -26 28 -38 16 -13 30 -27 30 -31
0 -5 -48 -7 -107 -6 l-108 3 -1 125 c0 69 1 128 3 133 2 4 13 7 25 7 17 0 20
-4 15 -30z m223 -15 c0 -25 -3 -45 -7 -45 -21 1 -56 40 -58 64 -1 23 3 26 32
26 32 0 33 -1 33 -45z m270 -90 l0 -135 -78 0 -79 0 -46 60 c-46 59 -47 61
-47 135 l0 75 125 0 125 0 0 -135z m280 0 l0 -135 -135 0 -135 0 0 135 0 135
135 0 135 0 0 -135z m153 9 c67 -70 124 -131 125 -136 2 -5 -53 -7 -130 -6
l-133 3 -3 133 c-2 92 1 132 9 132 6 0 66 -57 132 -126z m127 26 c0 -55 -2
-100 -5 -100 -3 0 -16 11 -28 23 -12 13 -56 58 -97 100 l-74 77 102 0 102 0 0
-100z m280 -35 l0 -135 -114 0 c-151 0 -152 1 -148 158 l3 112 130 0 129 0 0
-135z m280 0 l0 -135 -130 0 -130 0 0 135 0 135 130 0 130 0 0 -135z m285 0
l0 -130 -132 -3 -133 -3 0 136 0 136 133 -3 132 -3 0 -130z m267 118 c3 -16 3
-194 -1 -238 -1 -12 -22 -15 -126 -15 l-125 0 0 135 0 135 124 0 c110 0 124
-2 128 -17z m283 -118 l0 -130 -132 -3 -133 -3 0 136 0 136 133 -3 132 -3 0
-130z m285 23 c0 -101 -2 -114 -22 -135 -20 -21 -29 -23 -135 -23 l-113 0 0
135 0 135 135 0 135 0 0 -112z m130 97 c0 -8 -4 -15 -9 -15 -5 0 -4 -14 2 -30
11 -29 9 -33 -51 -93 l-62 -62 0 108 0 107 60 0 c47 0 60 -3 60 -15z m40 -15
c0 -5 -4 -10 -10 -10 -5 0 -10 5 -10 10 0 6 5 10 10 10 6 0 10 -4 10 -10z
m-2819 -63 c-1 -12 -15 -9 -19 4 -3 6 1 10 8 8 6 -3 11 -8 11 -12z m2839 -42
c0 -8 -4 -15 -10 -15 -5 0 -10 7 -10 15 0 8 5 15 10 15 6 0 10 -7 10 -15z m70
0 c0 -8 -4 -15 -10 -15 -5 0 -10 7 -10 15 0 8 5 15 10 15 6 0 10 -7 10 -15z
m-135 -42 c-4 -21 -8 -43 -9 -49 -4 -27 -30 -44 -67 -44 -22 0 -39 3 -39 7 0
8 111 123 118 123 2 0 1 -17 -3 -37z m93 -39 c12 -21 4 -54 -13 -54 -14 0 -29
45 -20 60 9 15 23 12 33 -6z m52 -38 c0 -3 -4 -8 -10 -11 -5 -3 -10 -1 -10 4
0 6 5 11 10 11 6 0 10 -2 10 -4z m-3060 -161 l0 -135 -135 0 -135 0 0 128 c0
71 3 132 7 135 3 4 64 7 135 7 l128 0 0 -135z m216 127 c-6 -10 26 -48 44 -54
7 -2 14 -43 17 -106 l6 -103 -134 3 -134 3 -1 120 c0 66 2 126 4 133 3 8 33
12 104 12 54 0 97 -4 94 -8z m334 -82 c0 -88 -1 -90 -20 -78 -11 7 -20 21 -20
30 0 10 -5 18 -11 18 -15 0 -70 60 -64 70 3 4 -2 13 -10 20 -28 23 -15 30 55
30 l70 0 0 -90z m280 -45 l0 -135 -100 0 c-64 0 -100 4 -100 11 0 5 -4 8 -9 5
-5 -3 -20 4 -35 15 -25 20 -26 24 -26 123 0 56 3 106 7 109 3 4 64 7 135 7
l128 0 0 -135z m280 0 l0 -136 -132 3 -133 3 -3 119 c-1 66 0 126 2 133 4 10
38 13 136 13 l130 0 0 -135z m280 -131 c0 -2 -58 -4 -129 -4 -94 0 -130 3
-133 13 -4 11 -3 184 1 240 1 18 25 -2 131 -112 72 -73 130 -135 130 -137z m0
159 l0 -108 -100 100 c-55 55 -100 103 -100 107 0 5 45 8 100 8 l100 0 0 -107z
m280 -28 l0 -135 -112 0 c-150 0 -148 -2 -148 152 l0 118 130 0 130 0 0 -135z
m285 0 l0 -130 -132 -3 -133 -3 0 136 0 136 133 -3 132 -3 0 -130z m267 118
c3 -16 3 -194 -1 -238 -1 -12 -22 -15 -126 -15 l-125 0 0 135 0 135 124 0
c110 0 124 -2 128 -17z m284 -98 c1 -157 4 -155 -146 -155 l-120 0 0 135 0
136 132 -3 133 -3 1 -110z m146 28 c-44 -49 -92 -99 -106 -112 l-26 -24 0 111
0 112 106 0 106 0 -80 -87z m245 78 c18 -5 35 -6 37 -2 3 4 24 8 46 9 29 1 40
-2 37 -11 -4 -11 -12 -13 -64 -16 -13 -1 -23 -7 -23 -16 0 -17 -9 -19 -29 -6
-19 12 -51 -23 -51 -56 0 -12 -4 -23 -10 -23 -5 0 -10 -8 -10 -19 0 -10 -7
-24 -15 -31 -13 -11 -15 -1 -15 84 l0 96 33 0 c17 0 47 -4 64 -9z m153 -126
l0 -135 -55 0 c-49 0 -55 2 -55 21 0 11 4 29 10 39 8 14 5 19 -12 23 -18 5
-19 8 -8 22 9 11 16 13 24 5 5 -5 13 -10 16 -10 12 0 50 88 44 103 -3 8 -1 18
5 22 6 3 11 15 11 26 0 10 5 19 10 19 6 0 10 -52 10 -135z m-2705 105 c0 -8
-8 -16 -17 -18 -13 -2 -18 3 -18 18 0 15 5 20 18 18 9 -2 17 -10 17 -18z
m2445 -100 c0 -108 -2 -120 -19 -130 -22 -11 -241 -14 -241 -3 0 12 234 250
248 252 9 1 12 -29 12 -119z m-2433 19 c-3 -12 -3 -18 0 -15 9 8 34 -15 27
-25 -3 -5 -15 -9 -27 -9 -17 0 -19 -2 -8 -9 8 -5 20 -7 28 -4 20 8 53 -31 47
-54 -4 -13 2 -23 18 -30 19 -10 9 -12 -59 -12 l-83 -1 0 72 c0 52 4 76 17 90
23 25 47 24 40 -3z m63 7 c0 -16 -18 -31 -27 -22 -8 8 5 36 17 36 5 0 10 -6
10 -14z m58 -108 c-6 -18 -28 -21 -28 -4 0 9 7 16 16 16 9 0 14 -5 12 -12z
m2329 -10 c-3 -8 -6 -5 -6 6 -1 11 2 17 5 13 3 -3 4 -12 1 -19z m-2812 -203
l0 -140 -130 0 -130 0 -3 129 c-1 72 0 136 2 143 4 11 34 13 133 11 l128 -3 0
-140z m283 3 l-3 -143 -130 0 -130 0 -1 130 c0 72 2 136 4 143 3 9 39 12 133
12 l130 0 -3 -142z m163 128 c-9 -11 -6 -15 14 -20 14 -4 23 -11 20 -16 -9
-15 6 -12 25 5 24 21 50 9 50 -24 0 -18 -3 -22 -9 -13 -9 16 -45 13 -43 -3 1
-5 13 -11 27 -13 l26 -3 -3 -92 -3 -92 -120 0 -120 0 -3 143 -3 142 77 0 c64
0 75 -2 65 -14z m387 -64 l3 -74 -31 18 c-16 10 -30 23 -30 30 0 6 -26 26 -57
45 -85 51 -82 60 24 57 l88 -3 3 -73z m280 -64 l-3 -143 -38 1 c-20 1 -47 9
-60 18 -12 9 -53 38 -92 64 l-70 47 -3 64 c-2 35 -1 70 2 77 4 11 35 14 136
14 l131 0 -3 -142z m280 0 l-3 -143 -127 0 c-119 0 -127 1 -130 20 -3 18 -3
191 1 245 1 19 8 20 131 20 l131 0 -3 -142z m284 32 c2 -61 0 -110 -3 -110 -7
0 -191 190 -203 208 -5 9 20 12 98 12 l105 0 3 -110z m280 98 c2 -7 4 -71 4
-143 l-1 -130 -109 0 c-155 -1 -156 0 -156 154 0 65 3 121 7 124 3 4 61 7 129
7 89 0 123 -3 126 -12z m268 -116 c0 -163 3 -159 -140 -158 l-105 1 -3 129
c-1 72 0 136 2 143 4 10 36 13 126 13 l120 0 0 -128z m230 120 c0 -4 -47 -57
-105 -117 l-104 -110 -1 118 0 117 105 0 c58 0 105 -3 105 -8z m290 -1 c0 -5
-6 -14 -14 -21 -8 -6 -16 -24 -18 -38 -2 -19 -10 -28 -25 -30 -15 -2 -23 -10
-23 -22 0 -13 -8 -20 -27 -22 -23 -2 -30 -10 -37 -39 -8 -33 -12 -37 -43 -37
l-33 0 0 109 0 109 110 0 c61 0 110 -4 110 -9z m308 -133 l-3 -143 -120 0
-120 0 -3 48 c-2 27 2 54 8 62 6 7 7 20 4 29 -5 12 6 29 35 56 22 21 41 45 41
52 0 28 24 38 92 38 l69 0 -3 -142z m-1378 -133 c0 -7 -42 -10 -122 -9 -68 1
-126 2 -130 3 -5 0 -8 63 -8 138 l0 138 130 -130 c72 -71 130 -134 130 -140z
m836 152 c2 -113 -2 -140 -19 -134 -7 2 -25 -3 -42 -11 -28 -15 -205 -26 -205
-13 0 8 255 267 260 263 2 -2 5 -49 6 -105z m-1836 59 c0 -3 -4 -8 -10 -11 -5
-3 -10 -1 -10 4 0 6 5 11 10 11 6 0 10 -2 10 -4z m-81 -15 c16 -10 6 -31 -15
-31 -8 0 -14 9 -14 20 0 22 7 25 29 11z m2168 -38 c4 -12 -34 -29 -44 -19 -3
3 -3 12 1 21 7 18 37 17 43 -2z m-2151 -38 c14 -14 24 -31 21 -38 -2 -6 6 -16
17 -22 12 -6 25 -20 31 -33 5 -12 18 -22 27 -22 10 0 18 -4 18 -10 0 -8 -88
-8 -152 -1 -12 2 -10 151 2 151 6 0 22 -11 36 -25z m44 -5 c0 -5 -4 -10 -10
-10 -5 0 -10 5 -10 10 0 6 5 10 10 10 6 0 10 -4 10 -10z m2115 0 c7 -12 -12
-40 -27 -40 -16 0 -21 32 -7 41 18 12 26 11 34 -1z m-2015 -29 c0 -4 12 -6 26
-3 24 4 25 3 15 -17 -11 -21 -13 -21 -36 -4 -26 19 -32 33 -15 33 6 0 10 -4
10 -9z m2040 -56 c0 -19 -3 -35 -7 -36 -5 0 -20 -3 -35 -5 -16 -3 -28 0 -28 6
0 5 3 10 8 10 4 0 15 14 24 30 23 40 38 38 38 -5z m-195 5 c3 -5 15 -10 26
-10 12 0 19 -5 17 -12 -3 -8 -22 -13 -49 -13 -38 0 -44 3 -47 23 -3 18 1 22
22 22 14 0 28 -4 31 -10z m-2595 -195 l0 -136 -132 3 -133 3 -3 133 -3 132
136 0 135 0 0 -135z m280 0 l0 -136 -132 3 -133 3 -1 125 c0 69 1 128 3 133 2
4 62 7 134 7 l129 0 0 -135z m268 3 l-3 -133 -122 -3 -123 -3 0 136 0 135 125
0 126 0 -3 -132z m247 110 l35 -23 -2 -110 -3 -110 -130 0 -130 0 -3 133 -3
132 101 0 c87 0 105 -3 135 -22z m125 18 c0 -16 -14 -36 -25 -36 -17 0 -28 17
-20 30 6 10 45 15 45 6z m190 -21 c0 -14 -4 -25 -10 -25 -5 0 -10 5 -10 10 0
6 -9 10 -20 10 -20 0 -26 11 -13 23 3 4 17 7 30 7 18 0 23 -5 23 -25z m280
-30 c0 -30 -3 -55 -7 -55 -5 0 -33 6 -63 13 -31 8 -61 12 -68 9 -7 -2 -29 10
-48 28 -23 20 -44 30 -55 27 -14 -4 -19 0 -19 14 0 18 9 19 130 19 l130 0 0
-55z m280 -25 c0 -79 0 -80 -25 -80 -14 0 -42 7 -62 15 -19 8 -59 15 -88 15
-81 0 -85 3 -85 71 l0 59 130 0 130 0 0 -80z m101 8 c38 -40 67 -73 66 -74 -1
-1 -35 -5 -74 -9 l-73 -7 0 81 c0 45 3 81 7 81 4 0 37 -32 74 -72z m185 -5 l1
-73 -36 1 c-31 1 -45 11 -106 76 l-69 74 104 -3 105 -3 1 -72z m184 40 c-63
-73 -113 -113 -142 -113 l-28 0 0 75 0 75 101 0 101 0 -32 -37z m226 30 c-3
-4 -17 -8 -29 -10 -12 -2 -27 -10 -33 -18 -5 -7 -22 -17 -37 -20 -25 -7 -27
-5 -27 24 l0 31 67 0 c36 0 63 -3 59 -7z m422 -125 l-3 -133 -130 0 -130 0 -3
73 c-2 62 0 73 15 78 10 3 32 13 48 22 17 9 32 15 35 14 3 -1 6 3 6 8 1 6 2
15 3 20 0 6 11 10 24 10 12 0 29 9 37 20 11 15 26 20 57 20 l44 0 -3 -132z
m262 -3 l0 -136 -122 3 -123 3 -3 133 -3 132 126 0 125 0 0 -135z m-2077 110
c4 -8 1 -17 -5 -21 -7 -5 -5 -12 7 -20 14 -11 22 -11 32 -2 11 9 17 8 24 -3
14 -23 11 -29 -16 -29 -17 0 -25 -5 -25 -18 0 -10 -5 -23 -11 -29 -8 -8 0 -14
28 -23 59 -19 103 -52 103 -78 0 -23 0 -23 -132 -20 l-133 3 -3 108 c-2 85 0
108 10 104 7 -2 12 -15 10 -29 -3 -28 11 -42 50 -52 22 -5 25 -3 21 14 -4 15
0 20 15 20 12 0 24 4 27 10 6 10 -33 23 -54 18 -8 -2 -16 3 -18 10 -3 6 2 12
11 12 9 0 21 9 28 20 15 24 24 25 31 5z m1249 -20 c-2 -19 -9 -35 -16 -35 -6
0 -22 -9 -36 -20 -14 -11 -34 -20 -44 -20 -15 0 -8 12 30 54 27 30 54 54 59
55 7 1 9 -13 7 -34z m318 -31 c0 -8 -4 -14 -10 -14 -5 0 -10 9 -10 21 0 11 5
17 10 14 6 -3 10 -13 10 -21z m37 11 c8 -22 -6 -33 -17 -15 -13 20 -12 30 0
30 6 0 13 -7 17 -15z m-67 -5 c0 -5 -4 -10 -10 -10 -5 0 -10 5 -10 10 0 6 5
10 10 10 6 0 10 -4 10 -10z m-1320 -50 c0 -5 -4 -10 -10 -10 -5 0 -10 5 -10
10 0 6 5 10 10 10 6 0 10 -4 10 -10z m1075 -7 c-17 -42 -16 -50 4 -56 29 -7
26 -24 -4 -24 -23 0 -25 3 -25 48 0 38 4 49 16 49 11 0 14 -5 9 -17z m105 7
c0 -5 -4 -10 -10 -10 -5 0 -10 5 -10 10 0 6 5 10 10 10 6 0 10 -4 10 -10z
m130 0 c0 -5 -2 -10 -4 -10 -3 0 -8 5 -11 10 -3 6 -1 10 4 10 6 0 11 -4 11
-10z m-1470 -30 c0 -5 -7 -10 -15 -10 -8 0 -15 5 -15 10 0 6 7 10 15 10 8 0
15 -4 15 -10z m155 -15 c0 -22 -22 -30 -44 -16 -12 8 -13 12 -1 26 17 21 45
15 45 -10z m1320 -27 c-2 -29 -3 -59 -4 -65 -1 -10 -34 -13 -131 -13 -125 0
-130 1 -130 21 0 18 5 20 43 18 23 -1 59 5 81 14 21 10 42 17 47 17 4 0 18 11
31 24 13 13 32 26 43 29 11 3 20 5 21 6 1 0 0 -23 -1 -51z m-390 -38 c0 -29
-4 -36 -22 -38 -14 -2 -23 2 -24 10 -1 7 -2 20 -3 28 -2 22 15 41 33 38 11 -2
16 -14 16 -38z m-961 21 c7 -11 25 -9 45 3 8 5 16 4 21 -4 4 -7 12 -10 18 -6
14 8 35 -21 28 -39 -4 -11 -22 -15 -71 -15 l-65 0 0 35 c0 33 12 46 24 26z
m234 -33 c-2 -15 -11 -24 -25 -26 -27 -4 -29 5 -6 30 22 24 35 23 31 -4z m295
-71 c-3 -5 -10 -4 -15 1 -6 6 -7 16 -3 22 6 9 9 9 16 -1 4 -7 5 -17 2 -22z
m-83 13 c0 -5 -4 -10 -10 -10 -5 0 -10 5 -10 10 0 6 5 10 10 10 6 0 10 -4 10
-10z"/>
<path d="M5360 2830 c0 -5 5 -10 11 -10 5 0 7 5 4 10 -3 6 -8 10 -11 10 -2 0
-4 -4 -4 -10z"/>
<path d="M2720 1189 c0 -30 15 -39 65 -39 60 0 62 -7 70 -245 8 -227 -2 -655
-16 -691 -4 -12 -24 -31 -43 -44 -20 -12 -36 -28 -36 -36 0 -12 58 -14 398
-12 l397 3 10 128 10 127 -26 0 c-24 0 -28 -5 -45 -77 -17 -70 -22 -78 -49
-85 -37 -11 -319 -20 -357 -12 l-28 6 0 220 0 219 146 -3 c168 -3 174 -7 174
-90 0 -47 1 -48 30 -48 l30 0 0 170 0 170 -28 0 c-27 0 -29 -2 -31 -47 -1 -26
-8 -54 -15 -62 -16 -16 -234 -29 -281 -17 l-28 7 5 190 c4 150 8 193 19 200
30 19 337 5 358 -17 10 -10 19 -51 20 -96 1 -23 6 -28 25 -28 21 0 24 5 30 63
3 34 9 86 12 115 l6 52 -38 1 c-22 1 -207 2 -411 3 l-373 1 0 -26z"/>
<path d="M3888 1212 l-248 -2 0 -24 c0 -24 28 -36 86 -36 14 0 30 -10 39 -24
14 -21 16 -78 13 -471 -3 -508 3 -475 -90 -475 -47 0 -48 -1 -48 -30 l0 -30
250 0 250 0 0 29 c0 27 -2 29 -55 33 -31 3 -61 10 -68 17 -9 9 -13 126 -15
466 l-3 454 22 12 c31 16 166 7 207 -15 45 -23 90 -89 98 -143 14 -94 -37
-212 -106 -248 -17 -9 -54 -18 -83 -21 -81 -9 -81 -8 -24 -83 29 -39 111 -167
182 -286 l130 -215 147 0 148 0 0 25 c0 20 -6 27 -30 32 -19 3 -45 22 -67 47
-35 41 -298 430 -308 458 -4 10 8 21 36 34 144 65 220 196 190 330 -10 44 -22
66 -55 99 -69 68 -107 73 -598 67z"/>
<path d="M4770 1188 c0 -24 5 -28 38 -33 75 -12 83 -16 94 -43 16 -38 15 -822
-1 -878 -12 -45 -27 -54 -93 -54 -35 0 -38 -2 -38 -30 l0 -30 185 0 185 0 0
30 c0 29 -2 30 -44 30 -28 0 -52 7 -67 19 l-24 19 -3 393 c-2 217 -1 391 2
388 10 -9 173 -342 302 -614 114 -243 135 -280 154 -280 19 0 36 29 122 215
54 118 152 321 216 450 l117 235 3 -110 c1 -60 1 -240 0 -398 -3 -329 0 -317
-90 -317 -47 0 -48 -1 -48 -30 l0 -30 245 0 245 0 0 30 c0 29 -2 30 -45 30
-73 0 -82 15 -90 166 -12 199 3 754 21 781 10 16 28 24 64 29 46 6 50 9 50 33
l0 26 -180 0 -179 0 -17 -45 c-44 -114 -349 -740 -362 -740 -7 1 -126 245
-292 598 l-85 183 -193 2 -192 2 0 -27z"/>
</g>
</svg>
