<?xml version="1.0" encoding="UTF-8"?>
<svg version="1.1" xmlns="http://www.w3.org/2000/svg" width="173" height="240">
<path d="M0 0 C3.91072918 2.3527597 7.92335641 4.51444557 11.92529297 6.70727539 C15.4072761 8.62055387 18.87658783 10.55561476 22.34179688 12.49902344 C27.17330409 15.20714704 32.01156792 17.90259169 36.85742188 20.58496094 C38.06209337 21.25219677 39.2667646 21.9194331 40.47143555 22.58666992 C42.7315429 23.83834207 44.99220093 25.08900158 47.25317383 26.33911133 C53.57993278 29.84788494 59.84444296 33.44227311 66.06079102 37.14355469 C68.54882033 38.63384465 68.54882033 38.63384465 71.53710938 39.52636719 C71.53710938 40.51636719 71.53710938 41.50636719 71.53710938 42.52636719 C70.99932861 42.73205322 70.46154785 42.93773926 69.9074707 43.1496582 C59.06819479 47.32092335 48.51539977 51.52427433 38.53710938 57.52636719 C37.87195313 57.8628125 37.20679688 58.19925781 36.52148438 58.54589844 C33.43574946 60.42580005 32.55600463 62.45148926 31.69726562 65.85449219 C31.33260288 67.83352674 30.96855016 69.81288567 30.63916016 71.7980957 C28.94273499 81.75637913 23.37045204 90.14123286 15.28710938 96.21777344 C4.07481723 103.38717178 -8.19256206 106.88537508 -21.33789062 104.46386719 C-33.8295649 101.46314978 -44.74391175 95.69947844 -51.77539062 84.71386719 C-55.34303064 78.31538238 -57.47621759 72.11544197 -57.52539062 64.77636719 C-57.78744478 61.74402623 -58.12329092 60.82950887 -60.42773438 58.77246094 C-63.0461106 57.16270421 -65.67176685 55.81247324 -68.46289062 54.52636719 C-69.34203125 54.11257812 -70.22117187 53.69878906 -71.12695312 53.27246094 C-73.22164975 52.31821025 -75.34017056 51.41654012 -77.46289062 50.52636719 C-77.46289062 56.13636719 -77.46289062 61.74636719 -77.46289062 67.52636719 C-76.80289063 67.52636719 -76.14289063 67.52636719 -75.46289062 67.52636719 C-74.5457458 76.27321135 -74.5457458 76.27321135 -76.76367188 79.30371094 C-80.67756454 82.52636719 -80.67756454 82.52636719 -82.46289062 82.52636719 C-82.48974474 80.21392927 -82.50921904 77.90140449 -82.52539062 75.58886719 C-82.53699219 74.30109375 -82.54859375 73.01332031 -82.56054688 71.68652344 C-82.46289062 68.52636719 -82.46289062 68.52636719 -81.46289062 67.52636719 C-81.30668507 66.11308772 -81.21232889 64.69282129 -81.14648438 63.27246094 C-81.10458984 62.41845703 -81.06269531 61.56445312 -81.01953125 60.68457031 C-80.98021484 59.78673828 -80.94089844 58.88890625 -80.90039062 57.96386719 C-80.85720703 57.06216797 -80.81402344 56.16046875 -80.76953125 55.23144531 C-80.6631092 52.99658234 -80.56109075 50.76160411 -80.46289062 48.52636719 C-81.12836914 48.32672363 -81.79384766 48.12708008 -82.47949219 47.92138672 C-88.47395833 46.12304688 -94.46842448 44.32470703 -100.46289062 42.52636719 C-100.46289062 41.86636719 -100.46289062 41.20636719 -100.46289062 40.52636719 C-85.24577312 32.09369929 -70.00845974 23.70609504 -54.67578125 15.48486328 C-48.81480457 12.33988274 -42.97025732 9.16909726 -37.15356445 5.94287109 C-35.47456887 5.01590065 -33.79094658 4.09724949 -32.10229492 3.18798828 C-28.66249099 1.33444828 -25.32280874 -0.51412467 -22.12695312 -2.76660156 C-13.39172267 -8.4456723 -8.02298613 -4.91433549 0 0 Z M-15.28686523 -0.72363281 C-15.97272705 -0.31113281 -16.65858887 0.10136719 -17.36523438 0.52636719 C-18.15905518 0.99389404 -18.95287598 1.4614209 -19.77075195 1.94311523 C-20.63853271 2.46558838 -21.50631348 2.98806152 -22.40039062 3.52636719 C-31.08690064 8.6302576 -39.87867303 13.49027137 -48.77539062 18.21386719 C-57.06095161 22.6198191 -65.31433247 27.06600991 -73.46240234 31.72265625 C-77.80248677 34.19274032 -82.21403312 36.44551369 -86.74023438 38.55371094 C-88.63995991 39.41469553 -88.63995991 39.41469553 -89.46289062 41.52636719 C-87.84833984 42.14511719 -87.84833984 42.14511719 -86.20117188 42.77636719 C-64.83311673 51.15614108 -64.83311673 51.15614108 -57.46289062 58.52636719 C-57.48351562 57.83414063 -57.50414063 57.14191406 -57.52539062 56.42871094 C-57.28819355 45.17667451 -52.25240967 35.23046773 -44.71289062 26.96386719 C-34.30988098 17.527145 -21.845165 14.84404105 -8.31445312 15.14746094 C3.65936844 15.79917694 13.20159301 21.73795363 21.22460938 30.27636719 C26.18687936 36.19030539 29.39724065 43.13409339 31.53710938 50.52636719 C30.87710938 50.52636719 30.21710938 50.52636719 29.53710938 50.52636719 C29.20710938 49.53636719 28.87710938 48.54636719 28.53710938 47.52636719 C25.47160345 48.51595715 25.47160345 48.51595715 22.53710938 50.52636719 C21.55837399 54.12021773 21.55837399 54.12021773 21.53710938 57.52636719 C23.78873409 56.48097 25.68300098 55.41480302 27.66210938 53.90136719 C29.53710938 52.52636719 29.53710938 52.52636719 31.53710938 52.52636719 C32.03210938 55.49636719 32.03210938 55.49636719 32.53710938 58.52636719 C33.44460937 58.01074219 34.35210937 57.49511719 35.28710938 56.96386719 C35.93164062 56.5990625 36.57617188 56.23425781 37.24023438 55.85839844 C38.89030863 54.90146762 40.52405558 53.9161744 42.14648438 52.91308594 C49.97909089 48.1394298 57.97580845 44.71931139 66.53710938 41.52636719 C63.46456591 39.090152 60.28778709 37.21796869 56.83007812 35.37402344 C55.69779785 34.76856689 54.56551758 34.16311035 53.39892578 33.53930664 C52.17421548 32.88904369 50.94944181 32.23890007 49.72460938 31.58886719 C48.45807055 30.91351763 47.19163291 30.23797828 45.92529297 29.56225586 C37.27462548 24.95250702 28.58940483 20.41069627 19.88647461 15.90039062 C12.01076359 11.80632899 4.21794306 7.5675109 -3.54833984 3.26977539 C-4.41217285 2.7937085 -5.27600586 2.3176416 -6.16601562 1.82714844 C-7.30538574 1.19546753 -7.30538574 1.19546753 -8.46777344 0.55102539 C-11.76631969 -1.2832452 -11.76631969 -1.2832452 -15.28686523 -0.72363281 Z M-22.46289062 19.52636719 C-23.45289062 21.01136719 -23.45289062 21.01136719 -24.46289062 22.52636719 C-23.14289063 21.86636719 -21.82289062 21.20636719 -20.46289062 20.52636719 C-21.12289062 20.19636719 -21.78289062 19.86636719 -22.46289062 19.52636719 Z M-18.46289062 19.52636719 C-17.46289062 21.52636719 -17.46289062 21.52636719 -17.46289062 21.52636719 Z M-5.46289062 19.52636719 C-5.13289063 20.51636719 -4.80289063 21.50636719 -4.46289062 22.52636719 C-3.80289063 22.52636719 -3.14289063 22.52636719 -2.46289062 22.52636719 C-2.79289062 21.53636719 -3.12289062 20.54636719 -3.46289062 19.52636719 C-4.12289062 19.52636719 -4.78289062 19.52636719 -5.46289062 19.52636719 Z M-13.46289062 20.52636719 C-12.46289062 23.52636719 -12.46289062 23.52636719 -12.46289062 23.52636719 Z M-8.46289062 20.52636719 C-8.13289063 21.51636719 -7.80289063 22.50636719 -7.46289062 23.52636719 C-7.46289062 22.53636719 -7.46289062 21.54636719 -7.46289062 20.52636719 C-7.79289062 20.52636719 -8.12289062 20.52636719 -8.46289062 20.52636719 Z M-19.46289062 21.52636719 C-19.79289062 22.18636719 -20.12289062 22.84636719 -20.46289062 23.52636719 C-19.80289063 23.52636719 -19.14289063 23.52636719 -18.46289062 23.52636719 C-18.79289062 22.86636719 -19.12289062 22.20636719 -19.46289062 21.52636719 Z M-39.46289062 26.52636719 C-37.48289063 27.51636719 -37.48289063 27.51636719 -35.46289062 28.52636719 C-33.81289062 26.54636719 -32.16289063 24.56636719 -30.46289062 22.52636719 C-34.46194032 22.52636719 -36.26489485 24.25223686 -39.46289062 26.52636719 Z M4.53710938 22.52636719 C6.02210937 23.51636719 6.02210937 23.51636719 7.53710938 24.52636719 C7.53710938 23.86636719 7.53710938 23.20636719 7.53710938 22.52636719 C6.54710938 22.52636719 5.55710937 22.52636719 4.53710938 22.52636719 Z M8.53710938 23.52636719 C8.53710938 24.51636719 8.53710938 25.50636719 8.53710938 26.52636719 C9.52710937 26.85636719 10.51710938 27.18636719 11.53710938 27.52636719 C12.19710937 26.86636719 12.85710937 26.20636719 13.53710938 25.52636719 C11.06210938 24.53636719 11.06210938 24.53636719 8.53710938 23.52636719 Z M-30.71289062 26.40136719 C-32.67479304 28.32487069 -32.67479304 28.32487069 -32.46289062 30.52636719 C-30.05411805 30.41295184 -30.05411805 30.41295184 -27.46289062 29.52636719 C-25.61854714 27.06521172 -25.61854714 27.06521172 -24.46289062 24.52636719 C-28.43888371 24.09957759 -28.43888371 24.09957759 -30.71289062 26.40136719 Z M0.53710938 24.52636719 C-0.12289062 25.18636719 -0.78289062 25.84636719 -1.46289062 26.52636719 C-0.14289063 27.84636719 1.17710938 29.16636719 2.53710938 30.52636719 C3.85710937 29.86636719 5.17710938 29.20636719 6.53710938 28.52636719 C5.24745761 27.15073864 3.91021645 25.81870326 2.53710938 24.52636719 C1.87710938 24.52636719 1.21710938 24.52636719 0.53710938 24.52636719 Z M-22.46289062 26.52636719 C-23.12289062 28.17636719 -23.78289062 29.82636719 -24.46289062 31.52636719 C-23.47289063 31.85636719 -22.48289062 32.18636719 -21.46289062 32.52636719 C-20.80289063 30.54636719 -20.14289063 28.56636719 -19.46289062 26.52636719 C-20.45289062 26.52636719 -21.44289063 26.52636719 -22.46289062 26.52636719 Z M-5.46289062 26.52636719 C-5.46289062 28.17636719 -5.46289062 29.82636719 -5.46289062 31.52636719 C-4.47289063 31.19636719 -3.48289062 30.86636719 -2.46289062 30.52636719 C-2.79289062 29.20636719 -3.12289062 27.88636719 -3.46289062 26.52636719 C-4.12289062 26.52636719 -4.78289062 26.52636719 -5.46289062 26.52636719 Z M-15.46289062 27.52636719 C-15.79289062 29.17636719 -16.12289062 30.82636719 -16.46289062 32.52636719 C-14.15289062 32.52636719 -11.84289062 32.52636719 -9.46289062 32.52636719 C-9.79289062 30.87636719 -10.12289062 29.22636719 -10.46289062 27.52636719 C-12.11289063 27.52636719 -13.76289062 27.52636719 -15.46289062 27.52636719 Z M-44.06835938 30.05761719 C-44.59042969 30.70730469 -45.1125 31.35699219 -45.65039062 32.02636719 C-46.18019531 32.67605469 -46.71 33.32574219 -47.25585938 33.99511719 C-47.65417969 34.50042969 -48.0525 35.00574219 -48.46289062 35.52636719 C-45.98789062 36.51636719 -45.98789062 36.51636719 -43.46289062 37.52636719 C-42.61726563 36.59824219 -41.77164063 35.67011719 -40.90039062 34.71386719 C-40.42472656 34.19179687 -39.9490625 33.66972656 -39.45898438 33.13183594 C-39.13027344 32.60203125 -38.8015625 32.07222656 -38.46289062 31.52636719 C-38.79289062 30.53636719 -39.12289062 29.54636719 -39.46289062 28.52636719 C-42.4708423 28.18127591 -42.4708423 28.18127591 -44.06835938 30.05761719 Z M14.53710938 28.52636719 C13.87710938 29.18636719 13.21710938 29.84636719 12.53710938 30.52636719 C14.18710938 32.50636719 15.83710937 34.48636719 17.53710938 36.52636719 C19.18710938 36.19636719 20.83710937 35.86636719 22.53710938 35.52636719 C21.58593803 34.35385409 20.62593929 33.18849704 19.66210938 32.02636719 C19.1284375 31.37667969 18.59476562 30.72699219 18.04492188 30.05761719 C17.54734375 29.55230469 17.04976563 29.04699219 16.53710938 28.52636719 C15.87710938 28.52636719 15.21710938 28.52636719 14.53710938 28.52636719 Z M-35.46289062 32.52636719 C-36.78289063 34.83636719 -38.10289063 37.14636719 -39.46289062 39.52636719 C-37.48289063 40.18636719 -35.50289063 40.84636719 -33.46289062 41.52636719 C-31.83781866 38.69325099 -31.83781866 38.69325099 -30.46289062 35.52636719 C-30.79289062 34.53636719 -31.12289062 33.54636719 -31.46289062 32.52636719 C-32.78289062 32.52636719 -34.10289063 32.52636719 -35.46289062 32.52636719 Z M4.53710938 33.52636719 C5.19710937 35.83636719 5.85710937 38.14636719 6.53710938 40.52636719 C8.84710938 39.86636719 11.15710938 39.20636719 13.53710938 38.52636719 C11.55710937 35.06136719 11.55710937 35.06136719 9.53710938 31.52636719 C7.6966455 31.52636719 6.14081344 32.69864896 4.53710938 33.52636719 Z M-26.46289062 34.52636719 C-28.66427723 38.33064211 -28.66427723 38.33064211 -29.46289062 42.52636719 C-26.49289063 43.02136719 -26.49289063 43.02136719 -23.46289062 43.52636719 C-23.13289063 40.88636719 -22.80289063 38.24636719 -22.46289062 35.52636719 C-23.78289062 35.19636719 -25.10289063 34.86636719 -26.46289062 34.52636719 Z M-3.46289062 35.52636719 C-3.13289063 37.83636719 -2.80289063 40.14636719 -2.46289062 42.52636719 C-0.48289062 42.19636719 1.49710937 41.86636719 3.53710938 41.52636719 C2.87710938 39.54636719 2.21710938 37.56636719 1.53710938 35.52636719 C-0.11289063 35.52636719 -1.76289062 35.52636719 -3.46289062 35.52636719 Z M-17.46289062 36.52636719 C-18.12289062 38.83636719 -18.78289062 41.14636719 -19.46289062 43.52636719 C-15.17289062 43.52636719 -10.88289063 43.52636719 -6.46289062 43.52636719 C-7.12289062 41.21636719 -7.78289062 38.90636719 -8.46289062 36.52636719 C-11.43289062 36.52636719 -14.40289062 36.52636719 -17.46289062 36.52636719 Z M-50.46289062 37.52636719 C-52.08796259 40.35948338 -52.08796259 40.35948338 -53.46289062 43.52636719 C-52.74020827 46.82488109 -52.74020827 46.82488109 -49.40039062 48.21386719 C-47.94632813 48.86355469 -47.94632813 48.86355469 -46.46289062 49.52636719 C-45.80289063 46.22636719 -45.14289062 42.92636719 -44.46289062 39.52636719 C-47.27799056 37.24901709 -47.27799056 37.24901709 -50.46289062 37.52636719 Z M21.53710938 37.52636719 C20.54710938 39.01136719 20.54710938 39.01136719 19.53710938 40.52636719 C20.34359625 44.1830725 20.34359625 44.1830725 21.53710938 47.52636719 C23.51710938 46.86636719 25.49710937 46.20636719 27.53710938 45.52636719 C26.23555931 41.44672438 26.23555931 41.44672438 24.53710938 37.52636719 C23.54710938 37.52636719 22.55710937 37.52636719 21.53710938 37.52636719 Z M-40.46289062 41.52636719 C-41.45289063 44.49636719 -42.44289062 47.46636719 -43.46289062 50.52636719 C-39.76103302 52.74997399 -39.76103302 52.74997399 -36.46289062 52.52636719 C-35.80289063 49.55636719 -35.14289063 46.58636719 -34.46289062 43.52636719 C-36.44289063 42.86636719 -38.42289063 42.20636719 -40.46289062 41.52636719 Z M14.53710938 41.52636719 C12.88710937 42.18636719 11.23710938 42.84636719 9.53710938 43.52636719 C9.86710937 46.16636719 10.19710937 48.80636719 10.53710938 51.52636719 C12.84710938 50.86636719 15.15710938 50.20636719 17.53710938 49.52636719 C17.09006951 45.04753023 17.09006951 45.04753023 14.53710938 41.52636719 Z M-30.46289062 45.52636719 C-31.93336399 49.43699943 -31.93336399 49.43699943 -32.46289062 53.52636719 C-30.15289062 53.85636719 -27.84289062 54.18636719 -25.46289062 54.52636719 C-25.13289063 51.88636719 -24.80289063 49.24636719 -24.46289062 46.52636719 C-27.43289062 46.03136719 -27.43289062 46.03136719 -30.46289062 45.52636719 Z M3.53710938 45.52636719 C1.88710937 46.18636719 0.23710938 46.84636719 -1.46289062 47.52636719 C-1.46289062 49.50636719 -1.46289062 51.48636719 -1.46289062 53.52636719 C0.51710938 53.52636719 2.49710937 53.52636719 4.53710938 53.52636719 C5.22493298 51.17269006 5.22493298 51.17269006 5.53710938 48.52636719 C4.87710938 47.53636719 4.21710938 46.54636719 3.53710938 45.52636719 Z M-54.46289062 47.52636719 C-55.12289062 48.84636719 -55.78289063 50.16636719 -56.46289062 51.52636719 C-54.9860153 52.6959331 -53.5063277 53.86194865 -52.02539062 55.02636719 C-51.20167969 55.67605469 -50.37796875 56.32574219 -49.52929688 56.99511719 C-47.75763534 58.62559599 -47.75763534 58.62559599 -46.46289062 58.52636719 C-46.40637972 55.15784204 -46.40637972 55.15784204 -47.46289062 51.52636719 C-49.68604402 49.67195798 -51.791194 48.74077474 -54.46289062 47.52636719 Z M-20.46289062 47.52636719 C-20.46289062 49.50636719 -20.46289062 51.48636719 -20.46289062 53.52636719 C-20.13289063 53.52636719 -19.80289063 53.52636719 -19.46289062 53.52636719 C-19.46289062 51.87636719 -19.46289062 50.22636719 -19.46289062 48.52636719 C-19.13289063 50.17636719 -18.80289063 51.82636719 -18.46289062 53.52636719 C-11.53289062 54.02136719 -11.53289062 54.02136719 -4.46289062 54.52636719 C-5.12289062 52.21636719 -5.78289062 49.90636719 -6.46289062 47.52636719 C-11.08289063 47.52636719 -15.70289062 47.52636719 -20.46289062 47.52636719 Z M10.53710938 55.52636719 C10.20710938 59.15636719 9.87710938 62.78636719 9.53710938 66.52636719 C13.82188729 64.21917908 17.26002074 62.19670645 20.53710938 58.52636719 C19.87710938 56.54636719 19.21710938 54.56636719 18.53710938 52.52636719 C15.92771081 52.52636719 12.89691047 54.4966358 10.53710938 55.52636719 Z M-43.46289062 53.52636719 C-43.58664063 54.14511719 -43.71039063 54.76386719 -43.83789062 55.40136719 C-44.46289062 57.52636719 -44.46289062 57.52636719 -46.46289062 59.52636719 C-42.00789063 62.49636719 -42.00789063 62.49636719 -37.46289062 65.52636719 C-36.80289063 65.19636719 -36.14289063 64.86636719 -35.46289062 64.52636719 C-35.79289062 61.55636719 -36.12289062 58.58636719 -36.46289062 55.52636719 C-38.77289063 54.86636719 -41.08289062 54.20636719 -43.46289062 53.52636719 Z M-21.46289062 54.52636719 C-21.46289062 54.85636719 -21.46289062 55.18636719 -21.46289062 55.52636719 C-17.17289062 55.52636719 -12.88289063 55.52636719 -8.46289062 55.52636719 C-8.46289062 55.19636719 -8.46289062 54.86636719 -8.46289062 54.52636719 C-12.75289062 54.52636719 -17.04289062 54.52636719 -21.46289062 54.52636719 Z M-32.46289062 57.52636719 C-33.47829175 61.62860304 -33.47829175 61.62860304 -32.46289062 65.52636719 C-33.78289062 65.85636719 -35.10289063 66.18636719 -36.46289062 66.52636719 C-35.4496875 67.14382812 -34.43648438 67.76128906 -33.39257812 68.39746094 C-23.69210469 74.4721876 -16.44651945 79.89021476 -13.46289062 91.52636719 C-11.54013565 88.64223473 -10.11829487 85.78794771 -8.65820312 82.65917969 C-5.65890258 77.30748656 -1.95669278 74.2506625 3.28710938 71.21386719 C3.88910156 70.85486328 4.49109375 70.49585938 5.11132812 70.12597656 C6.58151741 69.25086389 8.05862528 68.38739188 9.53710938 67.52636719 C8.87710938 67.19636719 8.21710938 66.86636719 7.53710938 66.52636719 C7.53710938 64.21636719 7.53710938 61.90636719 7.53710938 59.52636719 C4.56710938 59.19636719 1.59710938 58.86636719 -1.46289062 58.52636719 C-1.46289062 62.15636719 -1.46289062 65.78636719 -1.46289062 69.52636719 C-2.12289062 69.52636719 -2.78289062 69.52636719 -3.46289062 69.52636719 C-3.45128906 68.88828125 -3.4396875 68.25019531 -3.42773438 67.59277344 C-3.41871094 66.76648438 -3.4096875 65.94019531 -3.40039062 65.08886719 C-3.38878906 64.26515625 -3.3771875 63.44144531 -3.36523438 62.59277344 C-3.23021715 60.53472781 -3.23021715 60.53472781 -4.46289062 59.52636719 C-7.32166972 59.2893548 -10.1617236 59.10417537 -13.02539062 58.96386719 C-13.83169922 58.92068359 -14.63800781 58.8775 -15.46875 58.83300781 C-17.46657867 58.72661457 -19.46471132 58.62595831 -21.46289062 58.52636719 C-21.65780514 59.98372805 -21.8435842 61.44231312 -22.02539062 62.90136719 C-22.12980469 63.71347656 -22.23421875 64.52558594 -22.34179688 65.36230469 C-22.6452639 67.57535905 -22.6452639 67.57535905 -21.46289062 69.52636719 C-22.45289062 69.52636719 -23.44289063 69.52636719 -24.46289062 69.52636719 C-24.79289062 65.89636719 -25.12289062 62.26636719 -25.46289062 58.52636719 C-27.77289063 58.19636719 -30.08289063 57.86636719 -32.46289062 57.52636719 Z M-45.46289062 73.52636719 C-44.46289062 75.52636719 -44.46289062 75.52636719 -44.46289062 75.52636719 Z M17.53710938 75.52636719 C17.53710938 78.52636719 17.53710938 78.52636719 17.53710938 78.52636719 Z M-43.46289062 76.52636719 C-42.46289062 78.52636719 -42.46289062 78.52636719 -42.46289062 78.52636719 Z M-41.46289062 79.52636719 C-41.13289063 80.51636719 -40.80289063 81.50636719 -40.46289062 82.52636719 C-40.46289062 81.53636719 -40.46289062 80.54636719 -40.46289062 79.52636719 C-40.79289062 79.52636719 -41.12289062 79.52636719 -41.46289062 79.52636719 Z M14.53710938 79.52636719 C14.53710938 82.52636719 14.53710938 82.52636719 14.53710938 82.52636719 Z M12.53710938 82.52636719 C11.64507812 83.41839844 10.75304687 84.31042969 9.83398438 85.22949219 C5.06835938 89.99511719 0.30273438 94.76074219 -4.46289062 99.52636719 C3.05128607 96.94212653 8.95589825 90.90022615 13.53710938 84.52636719 C13.20710938 83.86636719 12.87710938 83.20636719 12.53710938 82.52636719 Z M-38.46289062 83.52636719 C-35.13690977 90.66239185 -29.94332652 95.2492795 -23.46289062 99.52636719 C-22.80289063 99.19636719 -22.14289063 98.86636719 -21.46289062 98.52636719 C-23.35688777 96.77434431 -25.25300801 95.02471741 -27.15039062 93.27636719 C-27.68083984 92.78523438 -28.21128906 92.29410156 -28.7578125 91.78808594 C-31.89722091 88.89905979 -35.09466124 86.15096152 -38.46289062 83.52636719 Z " fill="#76BA0B" transform="translate(100.462890625,76.4736328125)"/>
<path d="M0 0 C9.6623428 5.7050693 16.94510767 14.5806897 21 25 C21.8125 28.625 21.8125 28.625 22 31 C21.34 31 20.68 31 20 31 C19.34 30.34 18.68 29.68 18 29 C15.97034802 29.4251892 15.97034802 29.4251892 14 31 C13.01505446 33.65177645 12.54087618 36.20547307 12 39 C11.34 39 10.68 39 10 39 C9.67 37.35 9.34 35.7 9 34 C7.8553125 34.495 7.8553125 34.495 6.6875 35 C4 36 4 36 1 36 C1.020625 37.0725 1.04125 38.145 1.0625 39.25 C1.0142016 42.14790424 0.86844115 44.28612141 0 47 C-1.32 46.67 -2.64 46.34 -4 46 C-4.495 43.03 -4.495 43.03 -5 40 C-7.97 39.505 -7.97 39.505 -11 39 C-11 42.63 -11 46.26 -11 50 C-11.99 50.33 -12.98 50.66 -14 51 C-14 47.7 -14 44.4 -14 41 C-19.28 40.67 -24.56 40.34 -30 40 C-31.14352916 42.28705831 -31.10334439 43.59264762 -31.0625 46.125 C-31.041875 47.40375 -31.02125 48.6825 -31 50 C-31.99 50 -32.98 50 -34 50 C-34.33 46.37 -34.66 42.74 -35 39 C-38.465 38.505 -38.465 38.505 -42 38 C-42 40.64 -42 43.28 -42 46 C-43.32 45.67 -44.64 45.34 -46 45 C-46.04125 43.741875 -46.0825 42.48375 -46.125 41.1875 C-46.30764489 38.99010474 -46.30764489 38.99010474 -47 37 C-49.91841857 34.91367303 -49.91841857 34.91367303 -53 34 C-53.495 36.475 -53.495 36.475 -54 39 C-54.66 39 -55.32 39 -56 39 C-56.20625 37.9275 -56.4125 36.855 -56.625 35.75 C-58.26886753 31.26672491 -59.98074722 30.35912663 -64 28 C-64 27.34 -64 26.68 -64 26 C-59.25 27.875 -59.25 27.875 -57 29 C-56.34 26.36 -55.68 23.72 -55 21 C-55.66 20.54625 -56.32 20.0925 -57 19.625 C-57.66 19.08875 -58.32 18.5525 -59 18 C-59 17.34 -59 16.68 -59 16 C-57.02 16.33 -55.04 16.66 -53 17 C-50.02324541 13.90672105 -50.02324541 13.90672105 -49 10 C-49.66 9.67 -50.32 9.34 -51 9 C-51 8.34 -51 7.68 -51 7 C-50.0925 7.2475 -49.185 7.495 -48.25 7.75 C-44.91162152 8.38259327 -44.91162152 8.38259327 -42.625 6.0625 C-42.08875 5.381875 -41.5525 4.70125 -41 4 C-43.31 4.33 -45.62 4.66 -48 5 C-48 4.01 -48 3.02 -48 2 C-46.46101439 1.20313394 -44.91866216 0.41276859 -43.375 -0.375 C-42.51648438 -0.81585938 -41.65796875 -1.25671875 -40.7734375 -1.7109375 C-27.88059946 -7.70338335 -12.43118067 -6.73207205 0 0 Z M-32 0 C-32.99 1.485 -32.99 1.485 -34 3 C-32.68 2.34 -31.36 1.68 -30 1 C-30.66 0.67 -31.32 0.34 -32 0 Z M-28 0 C-27 2 -27 2 -27 2 Z M-15 0 C-14.67 0.99 -14.34 1.98 -14 3 C-13.34 3 -12.68 3 -12 3 C-12.33 2.01 -12.66 1.02 -13 0 C-13.66 0 -14.32 0 -15 0 Z M-23 1 C-22 4 -22 4 -22 4 Z M-18 1 C-17.67 1.99 -17.34 2.98 -17 4 C-17 3.01 -17 2.02 -17 1 C-17.33 1 -17.66 1 -18 1 Z M-29 2 C-29.33 2.66 -29.66 3.32 -30 4 C-29.34 4 -28.68 4 -28 4 C-28.33 3.34 -28.66 2.68 -29 2 Z M-5 3 C-3.515 3.99 -3.515 3.99 -2 5 C-2 4.34 -2 3.68 -2 3 C-2.99 3 -3.98 3 -5 3 Z M-1 4 C-1 4.99 -1 5.98 -1 7 C-0.01 7.33 0.98 7.66 2 8 C2.66 7.34 3.32 6.68 4 6 C1.525 5.01 1.525 5.01 -1 4 Z M-40.25 6.875 C-42.21190242 8.7985035 -42.21190242 8.7985035 -42 11 C-39.59122743 10.88658466 -39.59122743 10.88658466 -37 10 C-35.15565651 7.53884453 -35.15565651 7.53884453 -34 5 C-37.97599309 4.5732104 -37.97599309 4.5732104 -40.25 6.875 Z M-9 5 C-9.66 5.66 -10.32 6.32 -11 7 C-9.68 8.32 -8.36 9.64 -7 11 C-5.68 10.34 -4.36 9.68 -3 9 C-4.28965176 7.62437146 -5.62689293 6.29233607 -7 5 C-7.66 5 -8.32 5 -9 5 Z M-32 7 C-32.66 8.65 -33.32 10.3 -34 12 C-33.01 12.33 -32.02 12.66 -31 13 C-30.34 11.02 -29.68 9.04 -29 7 C-29.99 7 -30.98 7 -32 7 Z M-15 7 C-15 8.65 -15 10.3 -15 12 C-14.01 11.67 -13.02 11.34 -12 11 C-12.33 9.68 -12.66 8.36 -13 7 C-13.66 7 -14.32 7 -15 7 Z M-25 8 C-25.33 9.65 -25.66 11.3 -26 13 C-23.69 13 -21.38 13 -19 13 C-19.33 11.35 -19.66 9.7 -20 8 C-21.65 8 -23.3 8 -25 8 Z M5 9 C4.34 9.66 3.68 10.32 3 11 C4.65 12.98 6.3 14.96 8 17 C9.65 16.67 11.3 16.34 13 16 C12.04882866 14.8274869 11.08882991 13.66212985 10.125 12.5 C9.59132813 11.8503125 9.05765625 11.200625 8.5078125 10.53125 C8.01023437 10.0259375 7.51265625 9.520625 7 9 C6.34 9 5.68 9 5 9 Z M-45 13 C-46.32 15.31 -47.64 17.62 -49 20 C-47.02 20.66 -45.04 21.32 -43 22 C-41.37492804 19.1668838 -41.37492804 19.1668838 -40 16 C-40.33 15.01 -40.66 14.02 -41 13 C-42.32 13 -43.64 13 -45 13 Z M-5 14 C-4.34 16.31 -3.68 18.62 -3 21 C-0.69 20.34 1.62 19.68 4 19 C2.02 15.535 2.02 15.535 0 12 C-1.84046388 12 -3.39629594 13.17228177 -5 14 Z M-36 15 C-38.2013866 18.80427492 -38.2013866 18.80427492 -39 23 C-36.03 23.495 -36.03 23.495 -33 24 C-32.67 21.36 -32.34 18.72 -32 16 C-33.32 15.67 -34.64 15.34 -36 15 Z M-13 16 C-12.67 18.31 -12.34 20.62 -12 23 C-10.02 22.67 -8.04 22.34 -6 22 C-6.66 20.02 -7.32 18.04 -8 16 C-9.65 16 -11.3 16 -13 16 Z M-27 17 C-27.66 19.31 -28.32 21.62 -29 24 C-24.71 24 -20.42 24 -16 24 C-16.66 21.69 -17.32 19.38 -18 17 C-20.97 17 -23.94 17 -27 17 Z M12 18 C11.01 19.485 11.01 19.485 10 21 C10.80648688 24.65670531 10.80648688 24.65670531 12 28 C13.98 27.34 15.96 26.68 18 26 C16.69844994 21.92035719 16.69844994 21.92035719 15 18 C14.01 18 13.02 18 12 18 Z M-50 22 C-50.99 24.97 -51.98 27.94 -53 31 C-49.2981424 33.2236068 -49.2981424 33.2236068 -46 33 C-45.34 30.03 -44.68 27.06 -44 24 C-45.98 23.34 -47.96 22.68 -50 22 Z M5 22 C3.35 22.66 1.7 23.32 0 24 C0.33 26.64 0.66 29.28 1 32 C3.31 31.34 5.62 30.68 8 30 C7.55296014 25.52116304 7.55296014 25.52116304 5 22 Z M-40 26 C-41.47047336 29.91063224 -41.47047336 29.91063224 -42 34 C-39.69 34.33 -37.38 34.66 -35 35 C-34.67 32.36 -34.34 29.72 -34 27 C-36.97 26.505 -36.97 26.505 -40 26 Z M-6 26 C-7.65 26.66 -9.3 27.32 -11 28 C-11 29.98 -11 31.96 -11 34 C-9.02 34 -7.04 34 -5 34 C-4.3121764 31.64632287 -4.3121764 31.64632287 -4 29 C-4.66 28.01 -5.32 27.02 -6 26 Z M-30 28 C-30 29.98 -30 31.96 -30 34 C-29.67 34 -29.34 34 -29 34 C-29 32.35 -29 30.7 -29 29 C-28.67 30.65 -28.34 32.3 -28 34 C-21.07 34.495 -21.07 34.495 -14 35 C-14.66 32.69 -15.32 30.38 -16 28 C-20.62 28 -25.24 28 -30 28 Z M-31 35 C-31 35.33 -31 35.66 -31 36 C-26.71 36 -22.42 36 -18 36 C-18 35.67 -18 35.34 -18 35 C-22.29 35 -26.58 35 -31 35 Z " fill="#9AC705" transform="translate(110,96)"/>
<path d="M0 0 C3.91072918 2.3527597 7.92335641 4.51444557 11.92529297 6.70727539 C15.4072761 8.62055387 18.87658783 10.55561476 22.34179688 12.49902344 C27.17330409 15.20714704 32.01156792 17.90259169 36.85742188 20.58496094 C38.06209337 21.25219677 39.2667646 21.9194331 40.47143555 22.58666992 C42.7315429 23.83834207 44.99220093 25.08900158 47.25317383 26.33911133 C53.57993278 29.84788494 59.84444296 33.44227311 66.06079102 37.14355469 C68.54882033 38.63384465 68.54882033 38.63384465 71.53710938 39.52636719 C71.53710938 40.51636719 71.53710938 41.50636719 71.53710938 42.52636719 C70.99932861 42.73205322 70.46154785 42.93773926 69.9074707 43.1496582 C56.35510968 48.36499654 43.15512388 53.61021652 31.53710938 62.52636719 C31.89723353 59.89688926 32.31206803 58.74069228 34.25976562 56.88574219 C41.34536637 52.01217373 48.80373724 48.18998984 56.54589844 44.49023438 C59.22253654 43.19457876 61.87904174 41.85962314 64.53710938 40.52636719 C63.6223584 40.04393555 62.70760742 39.56150391 61.76513672 39.06445312 C31.59440821 23.14733779 31.59440821 23.14733779 21.3425293 17.52246094 C19.60877415 16.57304285 17.8706762 15.63150909 16.12817383 14.69824219 C11.66422632 12.29993269 7.33658125 9.79038007 3.06054688 7.06933594 C-6.00130329 1.08753613 -6.00130329 1.08753613 -16.33789062 0.20214844 C-19.65360595 1.72815151 -22.49457968 3.85389296 -25.39257812 6.05273438 C-29.32046782 8.84857661 -33.64480016 10.96449434 -37.90039062 13.21386719 C-39.78731507 14.24105017 -41.67270444 15.27105748 -43.55664062 16.30371094 C-58.48410507 24.4543663 -73.43805603 32.55646294 -88.46289062 40.52636719 C-87.4703125 40.92726562 -86.47773437 41.32816406 -85.45507812 41.74121094 C-78.17253458 44.75825182 -71.19868817 47.99670167 -64.52539062 52.21386719 C-63.92903809 52.58181396 -63.33268555 52.94976074 -62.71826172 53.32885742 C-60.25078905 54.9427081 -58.66726851 55.99861806 -57.58398438 58.79589844 C-57.52404297 59.65248047 -57.52404297 59.65248047 -57.46289062 60.52636719 C-58.15253906 60.13964844 -58.8421875 59.75292969 -59.55273438 59.35449219 C-65.42068658 56.10256806 -71.29143315 53.15682447 -77.46289062 50.52636719 C-77.46289062 56.13636719 -77.46289062 61.74636719 -77.46289062 67.52636719 C-76.80289063 67.52636719 -76.14289063 67.52636719 -75.46289062 67.52636719 C-74.5457458 76.27321135 -74.5457458 76.27321135 -76.76367188 79.30371094 C-80.67756454 82.52636719 -80.67756454 82.52636719 -82.46289062 82.52636719 C-82.48974474 80.21392927 -82.50921904 77.90140449 -82.52539062 75.58886719 C-82.53699219 74.30109375 -82.54859375 73.01332031 -82.56054688 71.68652344 C-82.46289062 68.52636719 -82.46289062 68.52636719 -81.46289062 67.52636719 C-81.30668507 66.11308772 -81.21232889 64.69282129 -81.14648438 63.27246094 C-81.10458984 62.41845703 -81.06269531 61.56445312 -81.01953125 60.68457031 C-80.98021484 59.78673828 -80.94089844 58.88890625 -80.90039062 57.96386719 C-80.85720703 57.06216797 -80.81402344 56.16046875 -80.76953125 55.23144531 C-80.6631092 52.99658234 -80.56109075 50.76160411 -80.46289062 48.52636719 C-81.12836914 48.32672363 -81.79384766 48.12708008 -82.47949219 47.92138672 C-88.47395833 46.12304688 -94.46842448 44.32470703 -100.46289062 42.52636719 C-100.46289062 41.86636719 -100.46289062 41.20636719 -100.46289062 40.52636719 C-85.24577312 32.09369929 -70.00845974 23.70609504 -54.67578125 15.48486328 C-48.81480457 12.33988274 -42.97025732 9.16909726 -37.15356445 5.94287109 C-35.47456887 5.01590065 -33.79094658 4.09724949 -32.10229492 3.18798828 C-28.66249099 1.33444828 -25.32280874 -0.51412467 -22.12695312 -2.76660156 C-13.39172267 -8.4456723 -8.02298613 -4.91433549 0 0 Z " fill="#2D8731" transform="translate(100.462890625,76.4736328125)"/>
<path d="M0 0 C0.99 0.33 1.98 0.66 3 1 C3.33 1.99 3.66 2.98 4 4 C3.195625 4.61875 2.39125 5.2375 1.5625 5.875 C-1.03874519 7.74164041 -1.03874519 7.74164041 -2 10 C-0.02 9.34 1.96 8.68 4 8 C4.33 8.99 4.66 9.98 5 11 C7.01508358 11.73323796 7.01508358 11.73323796 9 12 C9.33 11.34 9.66 10.68 10 10 C9.67 11.65 9.34 13.3 9 15 C7.35 15 5.7 15 4 15 C3.01 17.31 2.02 19.62 1 22 C1.969375 22.12375 2.93875 22.2475 3.9375 22.375 C5.4534375 22.684375 5.4534375 22.684375 7 23 C7.33 23.66 7.66 24.32 8 25 C8.99 25 9.98 25 11 25 C11 25.99 11 26.98 11 28 C12.32 28.33 13.64 28.66 15 29 C14.01 29 13.02 29 12 29 C12 30.32 12 31.64 12 33 C12.99580078 32.91298828 12.99580078 32.91298828 14.01171875 32.82421875 C21.13805352 32.46009946 21.13805352 32.46009946 23.77734375 34.11328125 C25.125 35.5 25.125 35.5 27 38 C26 39 26 39 22.40234375 39.09765625 C20.91403133 39.0909822 19.42573568 39.07902183 17.9375 39.0625 C16.79958008 39.05573242 16.79958008 39.05573242 15.63867188 39.04882812 C13.75908129 39.0370068 11.87953101 39.01907078 10 39 C8.85647084 41.28705831 8.89665561 42.59264762 8.9375 45.125 C8.958125 46.40375 8.97875 47.6825 9 49 C8.01 49 7.02 49 6 49 C5.67 45.37 5.34 41.74 5 38 C1.535 37.505 1.535 37.505 -2 37 C-2 39.64 -2 42.28 -2 45 C-3.32 44.67 -4.64 44.34 -6 44 C-6.04125 42.741875 -6.0825 41.48375 -6.125 40.1875 C-6.30764489 37.99010474 -6.30764489 37.99010474 -7 36 C-9.91841857 33.91367303 -9.91841857 33.91367303 -13 33 C-13.495 35.475 -13.495 35.475 -14 38 C-14.66 38 -15.32 38 -16 38 C-16.20625 36.9275 -16.4125 35.855 -16.625 34.75 C-18.26886753 30.26672491 -19.98074722 29.35912663 -24 27 C-24 26.34 -24 25.68 -24 25 C-19.25 26.875 -19.25 26.875 -17 28 C-16.34 25.36 -15.68 22.72 -15 20 C-15.66 19.54625 -16.32 19.0925 -17 18.625 C-17.66 18.08875 -18.32 17.5525 -19 17 C-19 16.34 -19 15.68 -19 15 C-16.03 15.495 -16.03 15.495 -13 16 C-10.02324541 12.90672105 -10.02324541 12.90672105 -9 9 C-9.66 8.67 -10.32 8.34 -11 8 C-11 7.34 -11 6.68 -11 6 C-8.03 6.495 -8.03 6.495 -5 7 C-2.22999175 3.67913229 -2.22999175 3.67913229 0 0 Z M-5 12 C-6.32 14.31 -7.64 16.62 -9 19 C-7.02 19.66 -5.04 20.32 -3 21 C-1.37492804 18.1668838 -1.37492804 18.1668838 0 15 C-0.33 14.01 -0.66 13.02 -1 12 C-2.32 12 -3.64 12 -5 12 Z M-10 21 C-10.99 23.97 -11.98 26.94 -13 30 C-9.2981424 32.2236068 -9.2981424 32.2236068 -6 32 C-5.34 29.03 -4.68 26.06 -4 23 C-5.98 22.34 -7.96 21.68 -10 21 Z M0 25 C-1.47047336 28.91063224 -1.47047336 28.91063224 -2 33 C0.31 33.33 2.62 33.66 5 34 C5.33 31.36 5.66 28.72 6 26 C3.03 25.505 3.03 25.505 0 25 Z M9 34 C9 34.33 9 34.66 9 35 C13.29 35 17.58 35 22 35 C22 34.67 22 34.34 22 34 C17.71 34 13.42 34 9 34 Z M4 6 C4.66 6.66 5.32 7.32 6 8 C5.34 8 4.68 8 4 8 C4 7.34 4 6.68 4 6 Z " fill="#9ACD00" transform="translate(70,97)"/>
<path d="M0 0 C13.01491078 2.66536299 13.01491078 2.66536299 15.9375 6.625 C17.83494897 9.36068439 17.83494897 9.36068439 21.25 9.3125 C22.1575 9.209375 23.065 9.10625 24 9 C23.34 10.32 22.68 11.64 22 13 C23.59593616 15.62157423 23.59593616 15.62157423 26 18 C29.16848027 18.41809201 29.16848027 18.41809201 32 18 C32 18.66 32 19.32 32 20 C31.484375 20.391875 30.96875 20.78375 30.4375 21.1875 C28.5841746 23.09907033 28.5841746 23.09907033 29.3125 26.6875 C29.6528125 28.3271875 29.6528125 28.3271875 30 30 C30.598125 29.67 31.19625 29.34 31.8125 29 C34 28 34 28 37 28 C36.505 29.485 36.505 29.485 36 31 C35.0409375 31.3403125 35.0409375 31.3403125 34.0625 31.6875 C31.48365921 33.3285805 31.45867714 34.22401228 30.75 37.125 C30.5025 38.40375 30.255 39.6825 30 41 C29.34 41 28.68 41 28 41 C27.505 38.525 27.505 38.525 27 36 C25.8553125 36.495 25.8553125 36.495 24.6875 37 C22 38 22 38 19 38 C19.020625 39.0725 19.04125 40.145 19.0625 41.25 C19.0142016 44.14790424 18.86844115 46.28612141 18 49 C16.68 48.67 15.36 48.34 14 48 C13.67 46.02 13.34 44.04 13 42 C11.02 41.67 9.04 41.34 7 41 C7 39.35 7 37.7 7 36 C9.97 35.505 9.97 35.505 13 35 C12.67 33.02 12.34 31.04 12 29 C10.35 29.33 8.7 29.66 7 30 C6.67 28.68 6.34 27.36 6 26 C7.65 25.01 9.3 24.02 11 23 C10.67 21.35 10.34 19.7 10 18 C7.69 17.67 5.38 17.34 3 17 C3 16.01 3 15.02 3 14 C3.66 13.67 4.32 13.34 5 13 C5 11.68 5 10.36 5 9 C4.34 9 3.68 9 3 9 C2.67 9.66 2.34 10.32 2 11 C-0.15648591 7.22614966 0 4.30968729 0 0 Z M3 2 C3.33 2.99 3.66 3.98 4 5 C4.66 5 5.32 5 6 5 C5.67 4.01 5.34 3.02 5 2 C4.34 2 3.68 2 3 2 Z M9 7 C8.34 7.66 7.68 8.32 7 9 C8.32 10.32 9.64 11.64 11 13 C12.32 12.34 13.64 11.68 15 11 C13.71034824 9.62437146 12.37310707 8.29233607 11 7 C10.34 7 9.68 7 9 7 Z M13 16 C13.66 18.31 14.32 20.62 15 23 C17.31 22.34 19.62 21.68 22 21 C20.02 17.535 20.02 17.535 18 14 C16.15953612 14 14.60370406 15.17228177 13 16 Z M23 24 C21.35 24.66 19.7 25.32 18 26 C18.33 28.64 18.66 31.28 19 34 C21.31 33.34 23.62 32.68 26 32 C25.55296014 27.52116304 25.55296014 27.52116304 23 24 Z " fill="#99CD00" transform="translate(92,94)"/>
<path d="M0 0 C0.66 0.33 1.32 0.66 2 1 C2 1.99 2 2.98 2 4 C3.32 4.33 4.64 4.66 6 5 C5.01 5 4.02 5 3 5 C3 6.32 3 7.64 3 9 C3.66386719 8.94199219 4.32773438 8.88398438 5.01171875 8.82421875 C12.13805352 8.46009946 12.13805352 8.46009946 14.77734375 10.11328125 C16.125 11.5 16.125 11.5 18 14 C17 15 17 15 13.40234375 15.09765625 C11.91403133 15.0909822 10.42573568 15.07902183 8.9375 15.0625 C7.79958008 15.05573242 7.79958008 15.05573242 6.63867188 15.04882812 C4.75908129 15.0370068 2.87953101 15.01907078 1 15 C-0.14352916 17.28705831 -0.10334439 18.59264762 -0.0625 21.125 C-0.041875 22.40375 -0.02125 23.6825 0 25 C-0.99 25 -1.98 25 -3 25 C-3.33 21.37 -3.66 17.74 -4 14 C-5.32 13.67 -6.64 13.34 -8 13 C-8 12.01 -8 11.02 -8 10 C-6.68 10 -5.36 10 -4 10 C-3.896875 8.72125 -3.79375 7.4425 -3.6875 6.125 C-3.51171875 3.9453125 -3.51171875 3.9453125 -3 2 C-2.01 1.34 -1.02 0.68 0 0 Z M0 10 C0 10.33 0 10.66 0 11 C4.29 11 8.58 11 13 11 C13 10.67 13 10.34 13 10 C8.71 10 4.42 10 0 10 Z " fill="#94CB04" transform="translate(79,121)"/>
<path d="M0 0 C0.99 0 1.98 0 3 0 C3 6.27 3 12.54 3 19 C3.66 19 4.32 19 5 19 C5.91714482 27.74684416 5.91714482 27.74684416 3.69921875 30.77734375 C-0.21467391 34 -0.21467391 34 -2 34 C-2.02685412 31.68756208 -2.04632841 29.3750373 -2.0625 27.0625 C-2.07410156 25.77472656 -2.08570312 24.48695313 -2.09765625 23.16015625 C-2 20 -2 20 -1 19 C-0.84379445 17.58672053 -0.74943827 16.1664541 -0.68359375 14.74609375 C-0.64169922 13.89208984 -0.59980469 13.03808594 -0.55664062 12.15820312 C-0.51732422 11.26037109 -0.47800781 10.36253906 -0.4375 9.4375 C-0.39431641 8.53580078 -0.35113281 7.63410156 -0.30664062 6.70507812 C-0.20021858 4.47021515 -0.09820012 2.23523692 0 0 Z " fill="#009239" transform="translate(20,125)"/>
<path d="M0 0 C0.99 0.33 1.98 0.66 3 1 C2.67 1.99 2.34 2.98 2 4 C1.01 4 0.02 4 -1 4 C-1.27070312 4.59296875 -1.54140625 5.1859375 -1.8203125 5.796875 C-2.98224105 7.96683429 -4.19984462 9.46201032 -5.875 11.25 C-10.22303414 16.19191198 -12.70289986 21.87439964 -15 28 C-15.66 28 -16.32 28 -17 28 C-15.61269953 16.43338231 -8.520681 7.47733231 0 0 Z " fill="#33A629" transform="translate(60,99)"/>
<path d="M0 0 C8.17976117 3.57976419 12.81989495 12.01647267 16 20 C16.8125 23.625 16.8125 23.625 17 26 C16.34 26 15.68 26 15 26 C14.49210938 24.91460937 13.98421875 23.82921875 13.4609375 22.7109375 C12.76628435 21.26530798 12.07093451 19.8200131 11.375 18.375 C11.04371094 17.66214844 10.71242188 16.94929688 10.37109375 16.21484375 C7.90786557 11.14895938 5.06589476 7.87949271 1 4 C1 3.34 1 2.68 1 2 C0.34 1.67 -0.32 1.34 -1 1 C-0.67 0.67 -0.34 0.34 0 0 Z " fill="#0EA339" transform="translate(115,101)"/>
<path d="M0 0 C7.5162931 1.82310088 13.54796871 4.75813262 20 9 C19.67 9.66 19.34 10.32 19 11 C16.69 10.67 14.38 10.34 12 10 C12 9.34 12 8.68 12 8 C5.11175931 5.59009896 5.11175931 5.59009896 -2 4 C-1.34 2.68 -0.68 1.36 0 0 Z " fill="#85BE0D" transform="translate(96,91)"/>
<path d="M0 0 C0.66 0.33 1.32 0.66 2 1 C-0.57842472 3.92637823 -3.55799645 5.59511296 -6.9375 7.5 C-10.46850048 9.49521217 -13.81573249 11.48327773 -17 14 C-16.66237149 11.10149112 -16.15990481 10.14002964 -13.92578125 8.18359375 C-4.18060201 1.6722408 -4.18060201 1.6722408 0 0 Z " fill="#5AA530" transform="translate(149,125)"/>
<path d="M0 0 C-1 3 -1 3 -4.25 4.625 C-7.22180677 5.71466248 -9.88632112 6.52823047 -13 7 C-13 6.01 -13 5.02 -13 4 C-11.40233897 3.13372601 -9.79660056 2.28233535 -8.1875 1.4375 C-7.29417969 0.96183594 -6.40085937 0.48617187 -5.48046875 -0.00390625 C-3 -1 -3 -1 0 0 Z " fill="#65B81B" transform="translate(75,94)"/>
<path d="M0 0 C0.66 0.33 1.32 0.66 2 1 C0.40109514 6.19644079 -1.74138003 11.06612142 -4 16 C-4.66 16 -5.32 16 -6 16 C-5.52412884 9.97229862 -2.80277043 5.23321711 0 0 Z " fill="#0FA033" transform="translate(49,111)"/>
<path d="M0 0 C3.11728368 1.36508501 5.08663738 2.86919698 7.3125 5.4375 C7.84488281 6.03433594 8.37726563 6.63117188 8.92578125 7.24609375 C9.45751953 8.11427734 9.45751953 8.11427734 10 9 C9.67 9.99 9.34 10.98 9 12 C7.66070495 10.71451591 6.32871357 9.42141845 5 8.125 C4.2575 7.40570313 3.515 6.68640625 2.75 5.9453125 C1 4 1 4 1 2 C0.34 1.67 -0.32 1.34 -1 1 C-0.67 0.67 -0.34 0.34 0 0 Z " fill="#30AA2D" transform="translate(115,101)"/>
<path d="M0 0 C4.43090471 1.20842856 6.98112756 2.51668565 10 6 C6.94736336 6.98120464 5.05263664 6.98120464 2 6 C2 5.34 2 4.68 2 4 C1.34 4 0.68 4 0 4 C0 2.68 0 1.36 0 0 Z " fill="#5BB720" transform="translate(106,95)"/>
<path d="M0 0 C0.99 0.33 1.98 0.66 3 1 C3 4.63 3 8.26 3 12 C2.01 12 1.02 12 0 12 C-0.19401633 10.18818595 -0.38004375 8.37551468 -0.5625 6.5625 C-0.66691406 5.55316406 -0.77132812 4.54382813 -0.87890625 3.50390625 C-0.91886719 2.67761719 -0.95882812 1.85132813 -1 1 C-0.67 0.67 -0.34 0.34 0 0 Z " fill="#88BD11" transform="translate(76,134)"/>
<path d="M0 0 C0.66 0 1.32 0 2 0 C2 3.63 2 7.26 2 11 C1.01 11.33 0.02 11.66 -1 12 C-1.02687279 10.18757948 -1.04633715 8.37504767 -1.0625 6.5625 C-1.07410156 5.55316406 -1.08570312 4.54382813 -1.09765625 3.50390625 C-1 1 -1 1 0 0 Z " fill="#84BB0C" transform="translate(97,135)"/>
<path d="M0 0 C-2.39509338 2.89932357 -4.31245243 3.50168276 -8 4 C-7.6875 2.0625 -7.6875 2.0625 -7 0 C-3.86650268 -1.04449911 -3.01031744 -0.93423645 0 0 Z " fill="#85C30C" transform="translate(82,92)"/>
<path d="M0 0 C5.28 0 10.56 0 16 0 C16 1.65 16 3.3 16 5 C15.67 3.68 15.34 2.36 15 1 C10.05 1.33 5.1 1.66 0 2 C0 1.34 0 0.68 0 0 Z " fill="#79A900" transform="translate(80,137)"/>
<path d="M0 0 C0.99 0 1.98 0 3 0 C3.33 1.65 3.66 3.3 4 5 C2.35 5 0.7 5 -1 5 C-0.67 3.35 -0.34 1.7 0 0 Z " fill="#9DCD00" transform="translate(86,99)"/>
<path d="M0 0 C1.98 0.99 1.98 0.99 4 2 C3.01 2 2.02 2 1 2 C1 6.29 1 10.58 1 15 C0.67 15 0.34 15 0 15 C0 10.05 0 5.1 0 0 Z " fill="#009642" transform="translate(24,128)"/>
<path d="M0 0 C0.33 0 0.66 0 1 0 C1 5.94 1 11.88 1 18 C0.67 18 0.34 18 0 18 C0 12.06 0 6.12 0 0 Z " fill="#00EE04" transform="translate(18,126)"/>
<path d="M0 0 C1.32 0.33 2.64 0.66 4 1 C3.67 2.32 3.34 3.64 3 5 C0.525 4.01 0.525 4.01 -2 3 C-1.34 2.01 -0.68 1.02 0 0 Z " fill="#73BA14" transform="translate(102,93)"/>
<path d="M0 0 C0.33 0 0.66 0 1 0 C1 4.29 1 8.58 1 13 C0.67 13 0.34 13 0 13 C0 8.71 0 4.42 0 0 Z " fill="#00CD00" transform="translate(16,145)"/>
<path d="M0 0 C0.33 0.66 0.66 1.32 1 2 C3.31 2 5.62 2 8 2 C8.33 1.34 8.66 0.68 9 0 C9 0.99 9 1.98 9 3 C6.03 3 3.06 3 0 3 C0 2.01 0 1.02 0 0 Z " fill="#94E000" transform="translate(83,116)"/>
<path d="M0 0 C0.33 0 0.66 0 1 0 C1 3.63 1 7.26 1 11 C0.67 11 0.34 11 0 11 C0 7.37 0 3.74 0 0 Z " fill="#008345" transform="translate(26,144)"/>
<path d="M0 0 C0.33 0 0.66 0 1 0 C1 3.3 1 6.6 1 10 C0.67 10 0.34 10 0 10 C0 6.7 0 3.4 0 0 Z " fill="#6E9000" transform="translate(41,138)"/>
<path d="M0 0 C0.99 0.33 1.98 0.66 3 1 C2.34 1 1.68 1 1 1 C1.33 2.98 1.66 4.96 2 7 C1.34 7 0.68 7 0 7 C0 4.69 0 2.38 0 0 Z " fill="#98B200" transform="translate(112,133)"/>
<path d="M0 0 C2.31 0 4.62 0 7 0 C6.67 0.66 6.34 1.32 6 2 C4.02 2 2.04 2 0 2 C0 1.34 0 0.68 0 0 Z " fill="#7FD400" transform="translate(84,114)"/>
<path d="M0 0 C0.99 0 1.98 0 3 0 C3 0.99 3 1.98 3 3 C1.68 2.67 0.36 2.34 -1 2 C-0.67 1.34 -0.34 0.68 0 0 Z " fill="#B8CC00" transform="translate(86,105)"/>
<path d="M0 0 C0.66 0.33 1.32 0.66 2 1 C1.01 2.485 1.01 2.485 0 4 C-0.66 4 -1.32 4 -2 4 C-1.34 2.68 -0.68 1.36 0 0 Z " fill="#D9EF00" transform="translate(72,102)"/>
<path d="M0 0 C1.0625 1.875 1.0625 1.875 2 4 C1.67 4.66 1.34 5.32 1 6 C0.34 5.34 -0.32 4.68 -1 4 C-0.625 1.875 -0.625 1.875 0 0 Z " fill="#B6E700" transform="translate(62,135)"/>
<path d="M0 0 C0.99 0.33 1.98 0.66 3 1 C2.67 1.99 2.34 2.98 2 4 C1.01 3.34 0.02 2.68 -1 2 C-0.67 1.34 -0.34 0.68 0 0 Z " fill="#7FC700" transform="translate(73,115)"/>
<path d="M0 0 C2.64 0 5.28 0 8 0 C8 0.33 8 0.66 8 1 C5.36 1 2.72 1 0 1 C0 0.67 0 0.34 0 0 Z " fill="#7FDF00" transform="translate(89,89)"/>
<path d="M0 0 C2.64 0 5.28 0 8 0 C8 0.33 8 0.66 8 1 C5.36 1 2.72 1 0 1 C0 0.67 0 0.34 0 0 Z " fill="#7FDF00" transform="translate(78,89)"/>
<path d="M0 0 C1.32 0.33 2.64 0.66 4 1 C3.01 1 2.02 1 1 1 C0.67 1.99 0.34 2.98 0 4 C0 2.68 0 1.36 0 0 Z " fill="#678B00" transform="translate(101,136)"/>
<path d="M0 0 C0.99 0 1.98 0 3 0 C3 1.65 3 3.3 3 5 C2.87625 4.360625 2.7525 3.72125 2.625 3.0625 C2.315625 2.0415625 2.315625 2.0415625 2 1 C1.34 0.67 0.68 0.34 0 0 Z " fill="#A3D100" transform="translate(71,136)"/>
<path d="M0 0 C0.99 0.495 0.99 0.495 2 1 C1.67 2.65 1.34 4.3 1 6 C0.67 6 0.34 6 0 6 C0 4.02 0 2.04 0 0 Z " fill="#7CF500" transform="translate(69,135)"/>
<path d="M0 0 C0.99 0.495 0.99 0.495 2 1 C1.67 2.65 1.34 4.3 1 6 C0.67 6 0.34 6 0 6 C0 4.02 0 2.04 0 0 Z " fill="#BFD100" transform="translate(70,123)"/>
<path d="M0 0 C0.33 0 0.66 0 1 0 C1 1.98 1 3.96 1 6 C0.67 6 0.34 6 0 6 C0 4.02 0 2.04 0 0 Z " fill="#94C200" transform="translate(133,140)"/>
<path d="M0 0 C0.33 0.66 0.66 1.32 1 2 C1.66 2.33 2.32 2.66 3 3 C2.01 3.33 1.02 3.66 0 4 C0 2.68 0 1.36 0 0 Z " fill="#38C600" transform="translate(134,129)"/>
<path d="M0 0 C0.33 0 0.66 0 1 0 C1 1.65 1 3.3 1 5 C0.34 4.67 -0.32 4.34 -1 4 C-0.67 2.68 -0.34 1.36 0 0 Z " fill="#8DE600" transform="translate(62,123)"/>
<path d="M0 0 C0.66 1.32 1.32 2.64 2 4 C1.01 3.67 0.02 3.34 -1 3 C-0.67 2.01 -0.34 1.02 0 0 Z " fill="#6E7600" transform="translate(115,121)"/>
<path d="M0 0 C0.99 0 1.98 0 3 0 C2.67 0.66 2.34 1.32 2 2 C1.01 1.67 0.02 1.34 -1 1 C-0.67 0.67 -0.34 0.34 0 0 Z " fill="#869100" transform="translate(101,124)"/>
<path d="M0 0 C0.33 0.66 0.66 1.32 1 2 C1.66 2.33 2.32 2.66 3 3 C2.01 3.33 1.02 3.66 0 4 C0 2.68 0 1.36 0 0 Z " fill="#71DB00" transform="translate(123,119)"/>
<path d="M0 0 C0.99 0.33 1.98 0.66 3 1 C2.67 1.66 2.34 2.32 2 3 C1.01 2.34 0.02 1.68 -1 1 C-0.67 0.67 -0.34 0.34 0 0 Z " fill="#B8C200" transform="translate(63,114)"/>
<path d="M0 0 C0.99 0 1.98 0 3 0 C2 2 2 2 0 3 C0 2.01 0 1.02 0 0 Z " fill="#A2FF00" transform="translate(98,113)"/>
<path d="M0 0 C0.99 0.33 1.98 0.66 3 1 C2.67 1.66 2.34 2.32 2 3 C1.34 3 0.68 3 0 3 C0 2.01 0 1.02 0 0 Z " fill="#719B00" transform="translate(74,112)"/>
<path d="M0 0 C1.32 0 2.64 0 4 0 C3.67 0.66 3.34 1.32 3 2 C2.01 2 1.02 2 0 2 C0 1.34 0 0.68 0 0 Z " fill="#B0BF00" transform="translate(65,110)"/>
<path d="M0 0 C1.65 0 3.3 0 5 0 C5 0.33 5 0.66 5 1 C3.35 1 1.7 1 0 1 C0 0.67 0 0.34 0 0 Z " fill="#6EDD00" transform="translate(91,182)"/>
<path d="M0 0 C1.65 0 3.3 0 5 0 C5 0.33 5 0.66 5 1 C3.35 1 1.7 1 0 1 C0 0.67 0 0.34 0 0 Z " fill="#6EDD00" transform="translate(79,182)"/>
<path d="M0 0 C0.33 0 0.66 0 1 0 C1 1.65 1 3.3 1 5 C0.67 5 0.34 5 0 5 C0 3.35 0 1.7 0 0 Z " fill="#76A100" transform="translate(132,146)"/>
<path d="M0 0 C0 0.99 0 1.98 0 3 C-0.66 2.34 -1.32 1.68 -2 1 C-1.34 0.67 -0.68 0.34 0 0 Z " fill="#659D00" transform="translate(52,130)"/>
<path d="M0 0 C0.99 1.485 0.99 1.485 2 3 C1.01 3.495 1.01 3.495 0 4 C0 2.68 0 1.36 0 0 Z " fill="#B2D000" transform="translate(124,128)"/>
<path d="M0 0 C0.33 1.32 0.66 2.64 1 4 C0.34 3.67 -0.32 3.34 -1 3 C-0.67 2.01 -0.34 1.02 0 0 Z " fill="#98C300" transform="translate(93,126)"/>
<path d="M0 0 C0.33 0.99 0.66 1.98 1 3 C0.01 2.67 -0.98 2.34 -2 2 C-1.34 2 -0.68 2 0 2 C0 1.34 0 0.68 0 0 Z " fill="#90E100" transform="translate(73,127)"/>
<path d="M0 0 C0.66 1.32 1.32 2.64 2 4 C1.34 4 0.68 4 0 4 C0 2.68 0 1.36 0 0 Z " fill="#A9D000" transform="translate(59,123)"/>
<path d="M0 0 C0.33 1.32 0.66 2.64 1 4 C0.34 3.67 -0.32 3.34 -1 3 C-0.67 2.01 -0.34 1.02 0 0 Z " fill="#B7DB00" transform="translate(52,120)"/>
<path d="M0 0 C0.99 0.33 1.98 0.66 3 1 C2.34 1 1.68 1 1 1 C0.67 1.66 0.34 2.32 0 3 C0 2.01 0 1.02 0 0 Z " fill="#5D9000" transform="translate(111,121)"/>
<path d="M0 0 C0.33 0.66 0.66 1.32 1 2 C0.01 2.33 -0.98 2.66 -2 3 C-2 2.34 -2 1.68 -2 1 C-1.34 0.67 -0.68 0.34 0 0 Z " fill="#9EDB00" transform="translate(101,115)"/>
<path d="M0 0 C0.33 0.99 0.66 1.98 1 3 C0.01 3.495 0.01 3.495 -1 4 C-0.67 2.68 -0.34 1.36 0 0 Z " fill="#8CD700" transform="translate(78,104)"/>
<path d="M0 0 C4 1 4 1 4 1 Z " fill="#5FCF00" transform="translate(96,181)"/>
<path d="M0 0 C4 1 4 1 4 1 Z " fill="#5FCF00" transform="translate(75,181)"/>
<path d="M0 0 C4 1 4 1 4 1 Z " fill="#74AA00" transform="translate(100,180)"/>
<path d="M0 0 C4 1 4 1 4 1 Z " fill="#74AA00" transform="translate(71,180)"/>
<path d="M0 0 C0.66 0.33 1.32 0.66 2 1 C1.01 1 0.02 1 -1 1 C-0.67 0.67 -0.34 0.34 0 0 Z " fill="#354A00" transform="translate(116,172)"/>
<path d="M0 0 C1.485 0.99 1.485 0.99 3 2 C2.01 2 1.02 2 0 2 C0 1.34 0 0.68 0 0 Z " fill="#BFDF00" transform="translate(58,131)"/>
<path d="M0 0 C0.66 0 1.32 0 2 0 C1.67 0.99 1.34 1.98 1 3 C0.67 2.01 0.34 1.02 0 0 Z " fill="#B4DF00" transform="translate(117,131)"/>
<path d="M0 0 C0.99 0 1.98 0 3 0 C2.67 0.66 2.34 1.32 2 2 C1.34 1.34 0.68 0.68 0 0 Z " fill="#9FF400" transform="translate(72,124)"/>
<path d="M0 0 C0.99 0.495 0.99 0.495 2 1 C1.34 1.66 0.68 2.32 0 3 C0 2.01 0 1.02 0 0 Z " fill="#D4FF00" transform="translate(60,120)"/>
<path d="M0 0 C0.66 0 1.32 0 2 0 C1.67 0.99 1.34 1.98 1 3 C0.67 2.01 0.34 1.02 0 0 Z " fill="#90F200" transform="translate(121,116)"/>
<path d="M0 0 C1 4 1 4 1 4 Z " fill="#6A6A00" transform="translate(53,116)"/>
<path d="M0 0 C0.66 0 1.32 0 2 0 C2 0.66 2 1.32 2 2 C1.34 2 0.68 2 0 2 C0 1.34 0 0.68 0 0 Z " fill="#1FDF00" transform="translate(161,116)"/>
<path d="M0 0 C0.99 0.33 1.98 0.66 3 1 C2.01 1 1.02 1 0 1 C0 0.67 0 0.34 0 0 Z " fill="#003F00" transform="translate(14,116)"/>
<path d="M0 0 C0.99 0.33 1.98 0.66 3 1 C2.01 1.33 1.02 1.66 0 2 C0 1.34 0 0.68 0 0 Z " fill="#89DF00" transform="translate(108,114)"/>
<path d="M0 0 C0.33 0.66 0.66 1.32 1 2 C0.01 1.67 -0.98 1.34 -2 1 C-1.34 0.67 -0.68 0.34 0 0 Z " fill="#94C900" transform="translate(120,110)"/>
<path d="M0 0 C0.99 0 1.98 0 3 0 C2.67 0.66 2.34 1.32 2 2 C1.34 1.34 0.68 0.68 0 0 Z " fill="#B4C900" transform="translate(58,106)"/>
<path d="M0 0 C0.66 0.66 1.32 1.32 2 2 C1.01 1.67 0.02 1.34 -1 1 C-0.67 0.67 -0.34 0.34 0 0 Z " fill="#B0E200" transform="translate(103,103)"/>
<path d="M0 0 C4 1 4 1 4 1 Z " fill="#005F00" transform="translate(86,77)"/>
<path d="" fill="#68A700" transform="translate(0,0)"/>
<path d="" fill="#7F7F00" transform="translate(0,0)"/>
<path d="" fill="#1C8D00" transform="translate(0,0)"/>
<path d="" fill="#7F7F00" transform="translate(0,0)"/>
<path d="" fill="#54FF00" transform="translate(0,0)"/>
<path d="" fill="#7FD400" transform="translate(0,0)"/>
<path d="" fill="#71B800" transform="translate(0,0)"/>
<path d="" fill="#55AA00" transform="translate(0,0)"/>
<path d="M0 0 C3 1 3 1 3 1 Z " fill="#D4FF00" transform="translate(100,128)"/>
<path d="M0 0 C0.66 0 1.32 0 2 0 C1.67 0.66 1.34 1.32 1 2 C0.67 1.34 0.34 0.68 0 0 Z " fill="#E2E200" transform="translate(50,128)"/>
<path d="" fill="#637800" transform="translate(0,0)"/>
<path d="M0 0 C0.66 0.66 1.32 1.32 2 2 C1.34 2 0.68 2 0 2 C0 1.34 0 0.68 0 0 Z " fill="#B8CD00" transform="translate(112,124)"/>
<path d="M0 0 C3 1 3 1 3 1 Z " fill="#2A2A00" transform="translate(159,124)"/>
<path d="" fill="#007F00" transform="translate(0,0)"/>
<path d="M0 0 C3 1 3 1 3 1 Z " fill="#007F00" transform="translate(6,122)"/>
<path d="M0 0 C3 1 3 1 3 1 Z " fill="#55AA00" transform="translate(167,121)"/>
<path d="M0 0 C0.66 0 1.32 0 2 0 C1.67 0.66 1.34 1.32 1 2 C0.67 1.34 0.34 0.68 0 0 Z " fill="#A9D400" transform="translate(62,121)"/>
<path d="M0 0 C0.66 0.66 1.32 1.32 2 2 C1.34 2 0.68 2 0 2 C0 1.34 0 0.68 0 0 Z " fill="#71C61C" transform="translate(48,120)"/>
<path d="M0 0 C3 1 3 1 3 1 Z " fill="#00AA00" transform="translate(154,120)"/>
<path d="M0 0 C3 1 3 1 3 1 Z " fill="#005500" transform="translate(21,120)"/>
<path d="M0 0 C3 1 3 1 3 1 Z " fill="#63B800" transform="translate(107,110)"/>
<path d="M0 0 C0.99 0.495 0.99 0.495 2 1 C1.01 1.495 1.01 1.495 0 2 C0 1.34 0 0.68 0 0 Z " fill="#54D400" transform="translate(115,106)"/>
<path d="M0 0 C0.99 0.495 0.99 0.495 2 1 C1.01 1.495 1.01 1.495 0 2 C0 1.34 0 0.68 0 0 Z " fill="#7FB100" transform="translate(101,102)"/>
<path d="M0 0 C0.99 0.495 0.99 0.495 2 1 C1.01 1.495 1.01 1.495 0 2 C0 1.34 0 0.68 0 0 Z " fill="#B8B800" transform="translate(63,102)"/>
<path d="M0 0 C3 1 3 1 3 1 Z " fill="#005500" transform="translate(106,93)"/>
<path d="M0 0 C3 1 3 1 3 1 Z " fill="#005500" transform="translate(39,93)"/>
<path d="M0 0 C3 1 3 1 3 1 Z " fill="#545400" transform="translate(69,92)"/>
<path d="M0 0 C3 1 3 1 3 1 Z " fill="#54A900" transform="translate(98,90)"/>
<path d="M0 0 C3 1 3 1 3 1 Z " fill="#7FFF00" transform="translate(75,90)"/>
<path d="M0 0 C3 1 3 1 3 1 Z " fill="#005500" transform="translate(124,89)"/>
<path d="M0 0 C2 1 2 1 2 1 Z " fill="#00FF00" transform="translate(89,183)"/>
<path d="M0 0 C2 1 2 1 2 1 Z " fill="#00FF00" transform="translate(84,183)"/>
<path d="M0 0 C2 1 2 1 2 1 Z " fill="#007F00" transform="translate(87,182)"/>
<path d="M0 0 C2 1 2 1 2 1 Z " fill="#7F7F00" transform="translate(104,179)"/>
<path d="M0 0 C2 1 2 1 2 1 Z " fill="#7F7F00" transform="translate(69,179)"/>
<path d="M0 0 C2 1 2 1 2 1 Z " fill="#3FFF00" transform="translate(106,178)"/>
<path d="M0 0 C2 1 2 1 2 1 Z " fill="#BFFF00" transform="translate(67,178)"/>
<path d="M0 0 C2 1 2 1 2 1 Z " fill="#7FFF00" transform="translate(108,177)"/>
<path d="M0 0 C2 1 2 1 2 1 Z " fill="#6AD400" transform="translate(65,177)"/>
<path d="M0 0 C2 1 2 1 2 1 Z " fill="#AAD400" transform="translate(110,176)"/>
<path d="M0 0 C2 1 2 1 2 1 Z " fill="#BFFF00" transform="translate(63,176)"/>
<path d="M0 0 C2 1 2 1 2 1 Z " fill="#BFBF00" transform="translate(112,175)"/>
<path d="M0 0 C2 1 2 1 2 1 Z " fill="#BFBF00" transform="translate(61,175)"/>
<path d="M0 0 C2 1 2 1 2 1 Z " fill="#7FFF00" transform="translate(57,172)"/>
<path d="" fill="#3FBF00" transform="translate(0,0)"/>
<path d="" fill="#3FFF00" transform="translate(0,0)"/>
<path d="" fill="#FFFF00" transform="translate(0,0)"/>
<path d="" fill="#BFBF00" transform="translate(0,0)"/>
<path d="" fill="#2AD400" transform="translate(0,0)"/>
<path d="" fill="#BFFF00" transform="translate(0,0)"/>
<path d="" fill="#AAD400" transform="translate(0,0)"/>
<path d="" fill="#BFFF00" transform="translate(0,0)"/>
<path d="" fill="#3FBF00" transform="translate(0,0)"/>
<path d="" fill="#7FFF00" transform="translate(0,0)"/>
<path d="" fill="#2A5500" transform="translate(0,0)"/>
<path d="" fill="#3FBF00" transform="translate(0,0)"/>
<path d="M0 0 C2 1 2 1 2 1 Z " fill="#003F00" transform="translate(23,156)"/>
<path d="" fill="#7FBF00" transform="translate(0,0)"/>
<path d="" fill="#55AA00" transform="translate(0,0)"/>
<path d="M0 0 C2 1 2 1 2 1 Z " fill="#3FBF00" transform="translate(98,148)"/>
<path d="M0 0 C2 1 2 1 2 1 Z " fill="#3FBF00" transform="translate(75,148)"/>
<path d="M0 0 C2 1 2 1 2 1 Z " fill="#BFBF00" transform="translate(100,147)"/>
<path d="M0 0 C2 1 2 1 2 1 Z " fill="#3FBF00" transform="translate(73,147)"/>
<path d="M0 0 C2 1 2 1 2 1 Z " fill="#7F7F00" transform="translate(103,145)"/>
<path d="" fill="#007F00" transform="translate(0,0)"/>
<path d="M0 0 C2 1 2 1 2 1 Z " fill="#BFFF00" transform="translate(70,145)"/>
<path d="M0 0 C2 1 2 1 2 1 Z " fill="#2AD400" transform="translate(106,143)"/>
<path d="M0 0 C2 1 2 1 2 1 Z " fill="#2AD400" transform="translate(67,143)"/>
<path d="" fill="#BFBF00" transform="translate(0,0)"/>
<path d="M0 0 C2 1 2 1 2 1 Z " fill="#007F00" transform="translate(135,137)"/>
<path d="M0 0 C2 1 2 1 2 1 Z " fill="#3FFF00" transform="translate(116,136)"/>
<path d="M0 0 C2 1 2 1 2 1 Z " fill="#3FFF00" transform="translate(57,136)"/>
<path d="M0 0 C2 1 2 1 2 1 Z " fill="#3FBF00" transform="translate(118,135)"/>
<path d="M0 0 C2 1 2 1 2 1 Z " fill="#00BF00" transform="translate(37,135)"/>
<path d="M0 0 C2 1 2 1 2 1 Z " fill="#00FF00" transform="translate(139,134)"/>
<path d="" fill="#3FFF00" transform="translate(0,0)"/>
<path d="M0 0 C2 1 2 1 2 1 Z " fill="#3F3F00" transform="translate(141,133)"/>
<path d="M0 0 C2 1 2 1 2 1 Z " fill="#00FF00" transform="translate(34,133)"/>
<path d="M0 0 C2 1 2 1 2 1 Z " fill="#3F3F00" transform="translate(143,132)"/>
<path d="M0 0 C2 1 2 1 2 1 Z " fill="#BFFF00" transform="translate(115,132)"/>
<path d="M0 0 C2 1 2 1 2 1 Z " fill="#003F00" transform="translate(30,131)"/>
<path d="M0 0 C2 1 2 1 2 1 Z " fill="#3FBF00" transform="translate(146,130)"/>
<path d="M0 0 C2 1 2 1 2 1 Z " fill="#007F00" transform="translate(39,130)"/>
<path d="M0 0 C2 1 2 1 2 1 Z " fill="#007F00" transform="translate(28,130)"/>
<path d="M0 0 C2 1 2 1 2 1 Z " fill="#00FF00" transform="translate(148,129)"/>
<path d="M0 0 C2 1 2 1 2 1 Z " fill="#3FBF00" transform="translate(127,128)"/>
<path d="M0 0 C2 1 2 1 2 1 Z " fill="#7FFF00" transform="translate(46,128)"/>
<path d="M0 0 C2 1 2 1 2 1 Z " fill="#007F00" transform="translate(36,128)"/>
<path d="M0 0 C2 1 2 1 2 1 Z " fill="#3FBF00" transform="translate(154,126)"/>
<path d="M0 0 C2 1 2 1 2 1 Z " fill="#7FFF00" transform="translate(143,126)"/>
<path d="M0 0 C2 1 2 1 2 1 Z " fill="#D4D400" transform="translate(126,126)"/>
<path d="M0 0 C2 1 2 1 2 1 Z " fill="#FFFF00" transform="translate(47,126)"/>
<path d="M0 0 C2 1 2 1 2 1 Z " fill="#007F00" transform="translate(33,126)"/>
<path d="M0 0 C2 1 2 1 2 1 Z " fill="#00FF00" transform="translate(157,125)"/>
<path d="M0 0 C2 1 2 1 2 1 Z " fill="#7F7F00" transform="translate(91,125)"/>
<path d="" fill="#000000" transform="translate(0,0)"/>
<path d="M0 0 C2 1 2 1 2 1 Z " fill="#007F00" transform="translate(15,125)"/>
<path d="M0 0 C2 1 2 1 2 1 Z " fill="#007F00" transform="translate(146,124)"/>
<path d="M0 0 C2 1 2 1 2 1 Z " fill="#007F00" transform="translate(30,124)"/>
<path d="M0 0 C2 1 2 1 2 1 Z " fill="#00BF00" transform="translate(12,124)"/>
<path d="M0 0 C2 1 2 1 2 1 Z " fill="#3FFF00" transform="translate(162,123)"/>
<path d="M0 0 C2 1 2 1 2 1 Z " fill="#007F00" transform="translate(10,123)"/>
<path d="M0 0 C2 1 2 1 2 1 Z " fill="#3FFF00" transform="translate(164,122)"/>
<path d="" fill="#00FF00" transform="translate(0,0)"/>
<path d="M0 0 C2 1 2 1 2 1 Z " fill="#003F00" transform="translate(26,122)"/>
<path d="M0 0 C2 1 2 1 2 1 Z " fill="#3FBF00" transform="translate(152,121)"/>
<path d="M0 0 C2 1 2 1 2 1 Z " fill="#003F00" transform="translate(24,121)"/>
<path d="M0 0 C2 1 2 1 2 1 Z " fill="#00FF00" transform="translate(3,121)"/>
<path d="M0 0 C2 1 2 1 2 1 Z " fill="#3FBF00" transform="translate(170,120)"/>
<path d="" fill="#00BF00" transform="translate(0,0)"/>
<path d="M0 0 C2 1 2 1 2 1 Z " fill="#3FBF00" transform="translate(157,119)"/>
<path d="" fill="#00FF00" transform="translate(0,0)"/>
<path d="" fill="#00FF00" transform="translate(0,0)"/>
<path d="M0 0 C2 1 2 1 2 1 Z " fill="#003F3F" transform="translate(19,119)"/>
<path d="M0 0 C2 1 2 1 2 1 Z " fill="#3FBF00" transform="translate(159,118)"/>
<path d="" fill="#003F00" transform="translate(0,0)"/>
<path d="M0 0 C2 1 2 1 2 1 Z " fill="#002A00" transform="translate(17,118)"/>
<path d="" fill="#00BF00" transform="translate(0,0)"/>
<path d="" fill="#00BF3F" transform="translate(0,0)"/>
<path d="" fill="#00FF00" transform="translate(0,0)"/>
<path d="M0 0 C2 1 2 1 2 1 Z " fill="#3F3F00" transform="translate(159,115)"/>
<path d="" fill="#007F3F" transform="translate(0,0)"/>
<path d="" fill="#007F00" transform="translate(0,0)"/>
<path d="M0 0 C2 1 2 1 2 1 Z " fill="#3F3F00" transform="translate(157,114)"/>
<path d="" fill="#D4FF00" transform="translate(0,0)"/>
<path d="M0 0 C2 1 2 1 2 1 Z " fill="#003F00" transform="translate(18,114)"/>
<path d="M0 0 C2 1 2 1 2 1 Z " fill="#00FF00" transform="translate(168,113)"/>
<path d="M0 0 C2 1 2 1 2 1 Z " fill="#7FFF00" transform="translate(155,113)"/>
<path d="" fill="#7FBF00" transform="translate(0,0)"/>
<path d="" fill="#7F7F00" transform="translate(0,0)"/>
<path d="" fill="#D4D400" transform="translate(0,0)"/>
<path d="M0 0 C2 1 2 1 2 1 Z " fill="#007F00" transform="translate(20,113)"/>
<path d="M0 0 C2 1 2 1 2 1 Z " fill="#003F00" transform="translate(3,113)"/>
<path d="M0 0 C2 1 2 1 2 1 Z " fill="#3F3F00" transform="translate(166,112)"/>
<path d="M0 0 C2 1 2 1 2 1 Z " fill="#3FDF00" transform="translate(55,112)"/>
<path d="M0 0 C2 1 2 1 2 1 Z " fill="#003F00" transform="translate(5,112)"/>
<path d="M0 0 C2 1 2 1 2 1 Z " fill="#3FFF00" transform="translate(164,111)"/>
<path d="M0 0 C2 1 2 1 2 1 Z " fill="#3FBF00" transform="translate(152,111)"/>
<path d="" fill="#BFBF00" transform="translate(0,0)"/>
<path d="" fill="#559400" transform="translate(0,0)"/>
<path d="M0 0 C2 1 2 1 2 1 Z " fill="#003F00" transform="translate(23,111)"/>
<path d="M0 0 C2 1 2 1 2 1 Z " fill="#003F00" transform="translate(7,111)"/>
<path d="M0 0 C2 1 2 1 2 1 Z " fill="#3FBF00" transform="translate(150,110)"/>
<path d="" fill="#00FF00" transform="translate(0,0)"/>
<path d="" fill="#FFFF00" transform="translate(0,0)"/>
<path d="M0 0 C2 1 2 1 2 1 Z " fill="#00BF00" transform="translate(25,110)"/>
<path d="" fill="#00FF00" transform="translate(0,0)"/>
<path d="M0 0 C2 1 2 1 2 1 Z " fill="#007F00" transform="translate(10,109)"/>
<path d="M0 0 C2 1 2 1 2 1 Z " fill="#3FBF00" transform="translate(146,108)"/>
<path d="M0 0 C2 1 2 1 2 1 Z " fill="#003F00" transform="translate(29,108)"/>
<path d="M0 0 C2 1 2 1 2 1 Z " fill="#3F3F00" transform="translate(157,107)"/>
<path d="M0 0 C2 1 2 1 2 1 Z " fill="#3F7F00" transform="translate(144,107)"/>
<path d="M0 0 C2 1 2 1 2 1 Z " fill="#003F00" transform="translate(31,107)"/>
<path d="M0 0 C2 1 2 1 2 1 Z " fill="#002A2A" transform="translate(14,107)"/>
<path d="M0 0 C2 1 2 1 2 1 Z " fill="#3F3F00" transform="translate(142,106)"/>
<path d="" fill="#007F00" transform="translate(0,0)"/>
<path d="" fill="#A1E500" transform="translate(0,0)"/>
<path d="M0 0 C2 1 2 1 2 1 Z " fill="#003F00" transform="translate(33,106)"/>
<path d="M0 0 C2 1 2 1 2 1 Z " fill="#007F00" transform="translate(16,106)"/>
<path d="M0 0 C2 1 2 1 2 1 Z " fill="#00FF00" transform="translate(140,105)"/>
<path d="M0 0 C2 1 2 1 2 1 Z " fill="#007F00" transform="translate(35,105)"/>
<path d="M0 0 C2 1 2 1 2 1 Z " fill="#007F00" transform="translate(18,105)"/>
<path d="M0 0 C2 1 2 1 2 1 Z " fill="#7F7F00" transform="translate(151,104)"/>
<path d="M0 0 C2 1 2 1 2 1 Z " fill="#003F00" transform="translate(20,104)"/>
<path d="M0 0 C2 1 2 1 2 1 Z " fill="#3F3F00" transform="translate(137,103)"/>
<path d="M0 0 C2 1 2 1 2 1 Z " fill="#7FFF00" transform="translate(148,102)"/>
<path d="M0 0 C2 1 2 1 2 1 Z " fill="#00FF00" transform="translate(135,102)"/>
<path d="M0 0 C2 1 2 1 2 1 Z " fill="#7FBF00" transform="translate(110,102)"/>
<path d="M0 0 C2 1 2 1 2 1 Z " fill="#00FF00" transform="translate(40,102)"/>
<path d="M0 0 C2 1 2 1 2 1 Z " fill="#00FF00" transform="translate(23,102)"/>
<path d="M0 0 C2 1 2 1 2 1 Z " fill="#00FF00" transform="translate(146,101)"/>
<path d="M0 0 C2 1 2 1 2 1 Z " fill="#007F00" transform="translate(133,101)"/>
<path d="M0 0 C2 1 2 1 2 1 Z " fill="#007F00" transform="translate(25,101)"/>
<path d="M0 0 C2 1 2 1 2 1 Z " fill="#00FF00" transform="translate(144,100)"/>
<path d="M0 0 C2 1 2 1 2 1 Z " fill="#3FBF00" transform="translate(131,100)"/>
<path d="M0 0 C2 1 2 1 2 1 Z " fill="#007F00" transform="translate(117,100)"/>
<path d="M0 0 C2 1 2 1 2 1 Z " fill="#00BF00" transform="translate(44,100)"/>
<path d="M0 0 C2 1 2 1 2 1 Z " fill="#003F00" transform="translate(27,100)"/>
<path d="M0 0 C2 1 2 1 2 1 Z " fill="#002A2A" transform="translate(46,99)"/>
<path d="M0 0 C2 1 2 1 2 1 Z " fill="#00FF00" transform="translate(141,98)"/>
<path d="M0 0 C2 1 2 1 2 1 Z " fill="#00FF00" transform="translate(127,98)"/>
<path d="M0 0 C2 1 2 1 2 1 Z " fill="#007F00" transform="translate(48,98)"/>
<path d="M0 0 C2 1 2 1 2 1 Z " fill="#003F00" transform="translate(30,98)"/>
<path d="M0 0 C2 1 2 1 2 1 Z " fill="#00FF00" transform="translate(139,97)"/>
<path d="M0 0 C2 1 2 1 2 1 Z " fill="#3F3F00" transform="translate(125,97)"/>
<path d="M0 0 C2 1 2 1 2 1 Z " fill="#00FF00" transform="translate(113,97)"/>
<path d="M0 0 C2 1 2 1 2 1 Z " fill="#00FF00" transform="translate(60,97)"/>
<path d="M0 0 C2 1 2 1 2 1 Z " fill="#003F00" transform="translate(50,97)"/>
<path d="M0 0 C2 1 2 1 2 1 Z " fill="#007F00" transform="translate(32,97)"/>
<path d="M0 0 C2 1 2 1 2 1 Z " fill="#3FFF00" transform="translate(137,96)"/>
<path d="M0 0 C2 1 2 1 2 1 Z " fill="#002A00" transform="translate(34,96)"/>
<path d="M0 0 C2 1 2 1 2 1 Z " fill="#00FF00" transform="translate(122,95)"/>
<path d="M0 0 C2 1 2 1 2 1 Z " fill="#00FF00" transform="translate(110,95)"/>
<path d="M0 0 C2 1 2 1 2 1 Z " fill="#3F3F00" transform="translate(63,95)"/>
<path d="M0 0 C2 1 2 1 2 1 Z " fill="#00BF00" transform="translate(53,95)"/>
<path d="M0 0 C2 1 2 1 2 1 Z " fill="#00BF00" transform="translate(36,95)"/>
<path d="M0 0 C2 1 2 1 2 1 Z " fill="#00FF00" transform="translate(120,94)"/>
<path d="M0 0 C2 1 2 1 2 1 Z " fill="#00FF00" transform="translate(55,94)"/>
<path d="M0 0 C2 1 2 1 2 1 Z " fill="#007F00" transform="translate(132,93)"/>
<path d="M0 0 C2 1 2 1 2 1 Z " fill="#00FF00" transform="translate(67,93)"/>
<path d="M0 0 C2 1 2 1 2 1 Z " fill="#00FF00" transform="translate(57,93)"/>
<path d="M0 0 C2 1 2 1 2 1 Z " fill="#3F3F00" transform="translate(130,92)"/>
<path d="M0 0 C2 1 2 1 2 1 Z " fill="#3FBF00" transform="translate(116,92)"/>
<path d="M0 0 C2 1 2 1 2 1 Z " fill="#3F7F00" transform="translate(104,92)"/>
<path d="M0 0 C2 1 2 1 2 1 Z " fill="#002A2A" transform="translate(59,92)"/>
<path d="M0 0 C2 1 2 1 2 1 Z " fill="#00FF00" transform="translate(128,91)"/>
<path d="M0 0 C2 1 2 1 2 1 Z " fill="#3F3F00" transform="translate(114,91)"/>
<path d="M0 0 C2 1 2 1 2 1 Z " fill="#7FBF00" transform="translate(101,91)"/>
<path d="M0 0 C2 1 2 1 2 1 Z " fill="#AAD400" transform="translate(72,91)"/>
<path d="M0 0 C2 1 2 1 2 1 Z " fill="#003F00" transform="translate(43,91)"/>
<path d="M0 0 C2 1 2 1 2 1 Z " fill="#007F00" transform="translate(112,90)"/>
<path d="M0 0 C2 1 2 1 2 1 Z " fill="#007F00" transform="translate(63,90)"/>
<path d="M0 0 C2 1 2 1 2 1 Z " fill="#00FF00" transform="translate(45,90)"/>
<path d="M0 0 C2 1 2 1 2 1 Z " fill="#3F3F00" transform="translate(110,89)"/>
<path d="M0 0 C2 1 2 1 2 1 Z " fill="#003F00" transform="translate(47,89)"/>
<path d="M0 0 C2 1 2 1 2 1 Z " fill="#00BF00" transform="translate(66,88)"/>
<path d="M0 0 C2 1 2 1 2 1 Z " fill="#00BF00" transform="translate(49,88)"/>
<path d="M0 0 C2 1 2 1 2 1 Z " fill="#3FBF00" transform="translate(121,87)"/>
<path d="M0 0 C2 1 2 1 2 1 Z " fill="#00BF00" transform="translate(107,87)"/>
<path d="M0 0 C2 1 2 1 2 1 Z " fill="#003F00" transform="translate(68,87)"/>
<path d="M0 0 C2 1 2 1 2 1 Z " fill="#003F00" transform="translate(119,86)"/>
<path d="M0 0 C2 1 2 1 2 1 Z " fill="#007F00" transform="translate(70,86)"/>
<path d="M0 0 C2 1 2 1 2 1 Z " fill="#003F00" transform="translate(52,86)"/>
<path d="M0 0 C2 1 2 1 2 1 Z " fill="#00FF00" transform="translate(117,85)"/>
<path d="M0 0 C2 1 2 1 2 1 Z " fill="#003F00" transform="translate(103,85)"/>
<path d="M0 0 C2 1 2 1 2 1 Z " fill="#007F00" transform="translate(54,85)"/>
<path d="M0 0 C2 1 2 1 2 1 Z " fill="#2AAA00" transform="translate(101,84)"/>
<path d="M0 0 C2 1 2 1 2 1 Z " fill="#003F00" transform="translate(73,84)"/>
<path d="M0 0 C2 1 2 1 2 1 Z " fill="#3F3F00" transform="translate(114,83)"/>
<path d="M0 0 C2 1 2 1 2 1 Z " fill="#3F3F00" transform="translate(99,83)"/>
<path d="M0 0 C2 1 2 1 2 1 Z " fill="#003F00" transform="translate(75,83)"/>
<path d="M0 0 C2 1 2 1 2 1 Z " fill="#003F00" transform="translate(58,83)"/>
<path d="M0 0 C2 1 2 1 2 1 Z " fill="#00FF00" transform="translate(112,82)"/>
<path d="M0 0 C2 1 2 1 2 1 Z " fill="#00FF00" transform="translate(97,82)"/>
<path d="M0 0 C2 1 2 1 2 1 Z " fill="#00FF00" transform="translate(77,82)"/>
<path d="M0 0 C2 1 2 1 2 1 Z " fill="#00FF00" transform="translate(60,82)"/>
<path d="M0 0 C2 1 2 1 2 1 Z " fill="#3FBF00" transform="translate(110,81)"/>
<path d="M0 0 C2 1 2 1 2 1 Z " fill="#003F00" transform="translate(95,81)"/>
<path d="M0 0 C2 1 2 1 2 1 Z " fill="#003F00" transform="translate(79,81)"/>
<path d="M0 0 C2 1 2 1 2 1 Z " fill="#003F00" transform="translate(62,81)"/>
<path d="M0 0 C2 1 2 1 2 1 Z " fill="#00BF00" transform="translate(108,80)"/>
<path d="M0 0 C2 1 2 1 2 1 Z " fill="#00BF00" transform="translate(64,80)"/>
<path d="M0 0 C2 1 2 1 2 1 Z " fill="#00FF00" transform="translate(92,79)"/>
<path d="M0 0 C2 1 2 1 2 1 Z " fill="#00BF00" transform="translate(82,79)"/>
<path d="M0 0 C2 1 2 1 2 1 Z " fill="#007F00" transform="translate(105,78)"/>
<path d="M0 0 C2 1 2 1 2 1 Z " fill="#00FF00" transform="translate(84,78)"/>
<path d="M0 0 C2 1 2 1 2 1 Z " fill="#003F00" transform="translate(67,78)"/>
<path d="M0 0 C2 1 2 1 2 1 Z " fill="#3F3F00" transform="translate(103,77)"/>
<path d="M0 0 C2 1 2 1 2 1 Z " fill="#00FF00" transform="translate(70,77)"/>
<path d="M0 0 C2 1 2 1 2 1 Z " fill="#3FBF00" transform="translate(101,76)"/>
<path d="M0 0 C2 1 2 1 2 1 Z " fill="#003F00" transform="translate(73,75)"/>
<path d="M0 0 C2 1 2 1 2 1 Z " fill="#007F00" transform="translate(98,74)"/>
<path d="M0 0 C2 1 2 1 2 1 Z " fill="#00FF00" transform="translate(75,74)"/>
<path d="M0 0 C2 1 2 1 2 1 Z " fill="#003F00" transform="translate(77,73)"/>
<path d="M0 0 C2 1 2 1 2 1 Z " fill="#2A552A" transform="translate(94,72)"/>
<path d="M0 0 C2 1 2 1 2 1 Z " fill="#003F00" transform="translate(79,72)"/>
<path d="M0 0 C2 1 2 1 2 1 Z " fill="#003F00" transform="translate(92,71)"/>
<path d="M0 0 C2 1 2 1 2 1 Z " fill="#00FF00" transform="translate(81,71)"/>
<path d="M0 0 C2 1 2 1 2 1 Z " fill="#007F00" transform="translate(90,70)"/>
<path d="M0 0 C2 1 2 1 2 1 Z " fill="#00FF00" transform="translate(83,70)"/>
<path d="M0 0 C2 1 2 1 2 1 Z " fill="#003F00" transform="translate(85,69)"/>
<path d="" fill="#7FFF00" transform="translate(0,0)"/>
<path d="" fill="#7FFF00" transform="translate(0,0)"/>
<path d="" fill="#55AA00" transform="translate(0,0)"/>
<path d="" fill="#7FFF00" transform="translate(0,0)"/>
<path d="" fill="#7F7F00" transform="translate(0,0)"/>
<path d="" fill="#55AA00" transform="translate(0,0)"/>
<path d="" fill="#00FF00" transform="translate(0,0)"/>
<path d="" fill="#7FFF00" transform="translate(0,0)"/>
<path d="" fill="#55AA00" transform="translate(0,0)"/>
<path d="" fill="#55AA00" transform="translate(0,0)"/>
<path d="" fill="#FFFF00" transform="translate(0,0)"/>
<path d="" fill="#55AA00" transform="translate(0,0)"/>
<path d="" fill="#55AA00" transform="translate(0,0)"/>
<path d="" fill="#7FBF00" transform="translate(0,0)"/>
<path d="" fill="#7FFF00" transform="translate(0,0)"/>
<path d="" fill="#55AA00" transform="translate(0,0)"/>
<path d="" fill="#55AA00" transform="translate(0,0)"/>
<path d="" fill="#AAAA00" transform="translate(0,0)"/>
<path d="" fill="#55AA00" transform="translate(0,0)"/>
<path d="" fill="#55AA00" transform="translate(0,0)"/>
<path d="" fill="#55AA00" transform="translate(0,0)"/>
<path d="" fill="#7FFF00" transform="translate(0,0)"/>
<path d="" fill="#7F7F00" transform="translate(0,0)"/>
<path d="" fill="#7FFF00" transform="translate(0,0)"/>
<path d="" fill="#7F7F00" transform="translate(0,0)"/>
<path d="" fill="#000000" transform="translate(0,0)"/>
<path d="" fill="#FFFF00" transform="translate(0,0)"/>
<path d="" fill="#7FFF00" transform="translate(0,0)"/>
<path d="" fill="#55AA00" transform="translate(0,0)"/>
<path d="" fill="#7FFF00" transform="translate(0,0)"/>
<path d="" fill="#00FF00" transform="translate(0,0)"/>
<path d="" fill="#007F00" transform="translate(0,0)"/>
<path d="" fill="#55AA00" transform="translate(0,0)"/>
<path d="" fill="#7F7F00" transform="translate(0,0)"/>
<path d="" fill="#00AA55" transform="translate(0,0)"/>
<path d="" fill="#000000" transform="translate(0,0)"/>
<path d="" fill="#FFFF00" transform="translate(0,0)"/>
<path d="" fill="#7F7F00" transform="translate(0,0)"/>
<path d="" fill="#7F7F00" transform="translate(0,0)"/>
<path d="" fill="#7FFF00" transform="translate(0,0)"/>
<path d="" fill="#7F7F00" transform="translate(0,0)"/>
<path d="" fill="#55AA00" transform="translate(0,0)"/>
<path d="" fill="#7FFF00" transform="translate(0,0)"/>
<path d="" fill="#55AA00" transform="translate(0,0)"/>
<path d="" fill="#7F7F00" transform="translate(0,0)"/>
<path d="" fill="#55AA00" transform="translate(0,0)"/>
<path d="" fill="#FFFF00" transform="translate(0,0)"/>
<path d="" fill="#7F7F00" transform="translate(0,0)"/>
<path d="" fill="#55AA00" transform="translate(0,0)"/>
<path d="" fill="#55AA00" transform="translate(0,0)"/>
<path d="" fill="#7FFF00" transform="translate(0,0)"/>
<path d="" fill="#7FFF00" transform="translate(0,0)"/>
<path d="" fill="#007F7F" transform="translate(0,0)"/>
<path d="" fill="#00FF00" transform="translate(0,0)"/>
<path d="" fill="#7FBF00" transform="translate(0,0)"/>
<path d="" fill="#55AA00" transform="translate(0,0)"/>
<path d="" fill="#55AA00" transform="translate(0,0)"/>
<path d="" fill="#7F7F00" transform="translate(0,0)"/>
<path d="" fill="#7F7F00" transform="translate(0,0)"/>
<path d="" fill="#007F00" transform="translate(0,0)"/>
<path d="" fill="#FFFF00" transform="translate(0,0)"/>
<path d="" fill="#007F00" transform="translate(0,0)"/>
<path d="" fill="#7F7F00" transform="translate(0,0)"/>
<path d="" fill="#7FFF00" transform="translate(0,0)"/>
<path d="" fill="#007F00" transform="translate(0,0)"/>
<path d="" fill="#007F00" transform="translate(0,0)"/>
<path d="" fill="#7F7F00" transform="translate(0,0)"/>
<path d="" fill="#555500" transform="translate(0,0)"/>
<path d="" fill="#7F7F00" transform="translate(0,0)"/>
<path d="" fill="#55AA00" transform="translate(0,0)"/>
<path d="" fill="#7F7F00" transform="translate(0,0)"/>
<path d="" fill="#7F7F00" transform="translate(0,0)"/>
<path d="" fill="#7F7F00" transform="translate(0,0)"/>
<path d="" fill="#00FF00" transform="translate(0,0)"/>
<path d="" fill="#007F00" transform="translate(0,0)"/>
<path d="" fill="#7F7F00" transform="translate(0,0)"/>
<path d="" fill="#FFFF00" transform="translate(0,0)"/>
<path d="" fill="#7F7F00" transform="translate(0,0)"/>
<path d="" fill="#7F7F00" transform="translate(0,0)"/>
<path d="" fill="#000000" transform="translate(0,0)"/>
<path d="" fill="#55AA00" transform="translate(0,0)"/>
<path d="" fill="#AAAA00" transform="translate(0,0)"/>
<path d="" fill="#AAAA00" transform="translate(0,0)"/>
<path d="" fill="#00FF00" transform="translate(0,0)"/>
<path d="" fill="#007F00" transform="translate(0,0)"/>
<path d="" fill="#7F7F00" transform="translate(0,0)"/>
<path d="" fill="#00FF00" transform="translate(0,0)"/>
<path d="" fill="#FFFF00" transform="translate(0,0)"/>
<path d="" fill="#007F00" transform="translate(0,0)"/>
<path d="" fill="#7F7F00" transform="translate(0,0)"/>
<path d="" fill="#007F00" transform="translate(0,0)"/>
<path d="" fill="#55AA00" transform="translate(0,0)"/>
<path d="" fill="#AAFF00" transform="translate(0,0)"/>
<path d="" fill="#7FFF00" transform="translate(0,0)"/>
<path d="" fill="#AAFF00" transform="translate(0,0)"/>
<path d="" fill="#007F00" transform="translate(0,0)"/>
<path d="" fill="#00FF7F" transform="translate(0,0)"/>
<path d="" fill="#AAAA00" transform="translate(0,0)"/>
<path d="" fill="#55AA00" transform="translate(0,0)"/>
<path d="" fill="#007F00" transform="translate(0,0)"/>
<path d="" fill="#000000" transform="translate(0,0)"/>
<path d="" fill="#7F7F00" transform="translate(0,0)"/>
<path d="" fill="#007F00" transform="translate(0,0)"/>
<path d="" fill="#007F00" transform="translate(0,0)"/>
<path d="" fill="#007F00" transform="translate(0,0)"/>
<path d="" fill="#7FFF00" transform="translate(0,0)"/>
<path d="" fill="#AAAA00" transform="translate(0,0)"/>
<path d="" fill="#007F00" transform="translate(0,0)"/>
<path d="" fill="#00FF00" transform="translate(0,0)"/>
<path d="" fill="#AAAA00" transform="translate(0,0)"/>
<path d="" fill="#7FD400" transform="translate(0,0)"/>
<path d="" fill="#00FF00" transform="translate(0,0)"/>
<path d="" fill="#7F7F00" transform="translate(0,0)"/>
<path d="" fill="#007F00" transform="translate(0,0)"/>
<path d="" fill="#007F00" transform="translate(0,0)"/>
<path d="" fill="#7F7F00" transform="translate(0,0)"/>
<path d="" fill="#FFFF00" transform="translate(0,0)"/>
<path d="" fill="#007F00" transform="translate(0,0)"/>
<path d="" fill="#7FFF00" transform="translate(0,0)"/>
<path d="" fill="#00AA00" transform="translate(0,0)"/>
<path d="" fill="#00FF00" transform="translate(0,0)"/>
<path d="" fill="#7F7F00" transform="translate(0,0)"/>
<path d="" fill="#007F00" transform="translate(0,0)"/>
<path d="" fill="#007F00" transform="translate(0,0)"/>
<path d="" fill="#7FFF00" transform="translate(0,0)"/>
<path d="" fill="#AAAA00" transform="translate(0,0)"/>
<path d="" fill="#00FF00" transform="translate(0,0)"/>
<path d="" fill="#007F00" transform="translate(0,0)"/>
<path d="" fill="#007F00" transform="translate(0,0)"/>
<path d="" fill="#007F00" transform="translate(0,0)"/>
<path d="" fill="#7FFF00" transform="translate(0,0)"/>
<path d="" fill="#00FF00" transform="translate(0,0)"/>
<path d="" fill="#7F7F00" transform="translate(0,0)"/>
<path d="" fill="#007F00" transform="translate(0,0)"/>
<path d="" fill="#00FF00" transform="translate(0,0)"/>
<path d="" fill="#007F00" transform="translate(0,0)"/>
<path d="" fill="#7F7F00" transform="translate(0,0)"/>
<path d="" fill="#00FF00" transform="translate(0,0)"/>
<path d="" fill="#007F00" transform="translate(0,0)"/>
<path d="" fill="#007F00" transform="translate(0,0)"/>
<path d="" fill="#55AA00" transform="translate(0,0)"/>
<path d="" fill="#00FF00" transform="translate(0,0)"/>
<path d="" fill="#00FF00" transform="translate(0,0)"/>
<path d="" fill="#007F00" transform="translate(0,0)"/>
<path d="" fill="#007F7F" transform="translate(0,0)"/>
<path d="" fill="#00FF00" transform="translate(0,0)"/>
<path d="" fill="#00FF00" transform="translate(0,0)"/>
<path d="" fill="#00FF00" transform="translate(0,0)"/>
<path d="" fill="#7FBF00" transform="translate(0,0)"/>
<path d="" fill="#AAAA00" transform="translate(0,0)"/>
<path d="" fill="#007F00" transform="translate(0,0)"/>
<path d="" fill="#007F00" transform="translate(0,0)"/>
<path d="" fill="#00FF00" transform="translate(0,0)"/>
<path d="" fill="#007F00" transform="translate(0,0)"/>
<path d="" fill="#7F7F00" transform="translate(0,0)"/>
<path d="" fill="#7FFF00" transform="translate(0,0)"/>
<path d="" fill="#00FF00" transform="translate(0,0)"/>
<path d="" fill="#007F00" transform="translate(0,0)"/>
<path d="" fill="#007F00" transform="translate(0,0)"/>
<path d="" fill="#007F00" transform="translate(0,0)"/>
<path d="" fill="#00FF00" transform="translate(0,0)"/>
<path d="" fill="#7F7F00" transform="translate(0,0)"/>
<path d="" fill="#7FFF00" transform="translate(0,0)"/>
<path d="" fill="#7F7F00" transform="translate(0,0)"/>
<path d="" fill="#007F00" transform="translate(0,0)"/>
<path d="" fill="#7F7F00" transform="translate(0,0)"/>
<path d="" fill="#7F7F00" transform="translate(0,0)"/>
<path d="" fill="#7F7F00" transform="translate(0,0)"/>
<path d="" fill="#7F7F00" transform="translate(0,0)"/>
<path d="" fill="#007F00" transform="translate(0,0)"/>
<path d="" fill="#007F00" transform="translate(0,0)"/>
<path d="" fill="#007F00" transform="translate(0,0)"/>
<path d="" fill="#007F00" transform="translate(0,0)"/>
<path d="" fill="#00FF00" transform="translate(0,0)"/>
<path d="" fill="#007F00" transform="translate(0,0)"/>
<path d="" fill="#55AA00" transform="translate(0,0)"/>
<path d="" fill="#7F7F00" transform="translate(0,0)"/>
<path d="" fill="#000000" transform="translate(0,0)"/>
<path d="" fill="#007F00" transform="translate(0,0)"/>
<path d="" fill="#00FF00" transform="translate(0,0)"/>
<path d="" fill="#007F00" transform="translate(0,0)"/>
<path d="" fill="#7F7F00" transform="translate(0,0)"/>
<path d="" fill="#005555" transform="translate(0,0)"/>
<path d="" fill="#007F00" transform="translate(0,0)"/>
<path d="" fill="#007F00" transform="translate(0,0)"/>
<path d="" fill="#7F7F00" transform="translate(0,0)"/>
<path d="" fill="#007F00" transform="translate(0,0)"/>
<path d="" fill="#00FF00" transform="translate(0,0)"/>
<path d="" fill="#007F00" transform="translate(0,0)"/>
<path d="" fill="#007F00" transform="translate(0,0)"/>
<path d="" fill="#007F00" transform="translate(0,0)"/>
<path d="" fill="#00FF00" transform="translate(0,0)"/>
<path d="" fill="#000000" transform="translate(0,0)"/>
</svg>
