<?xml version="1.0" encoding="UTF-8"?>
<svg version="1.1" xmlns="http://www.w3.org/2000/svg" width="225" height="225">
<path d="M0 0 C74.25 0 148.5 0 225 0 C225 74.25 225 148.5 225 225 C150.75 225 76.5 225 0 225 C0 150.75 0 76.5 0 0 Z " fill="#5A4E01" transform="translate(0,0)"/>
<path d="M0 0 C74.25 0 148.5 0 225 0 C225 35.97 225 71.94 225 109 C179.3055641 109.07603068 133.67796147 109.11888687 88 108 C87.67 107.01 87.34 106.02 87 105 C105.48 104.67 123.96 104.34 143 104 C143 103.67 143 103.34 143 103 C124.85 102.67 106.7 102.34 88 102 C87.01 99.69 86.02 97.38 85 95 C105.13 95 125.26 95 146 95 C146 94.34 146 93.68 146 93 C125.21 93 104.42 93 83 93 C82.67 92.01 82.34 91.02 82 90 C81.34 89.67 80.68 89.34 80 89 C80 89.66 80 90.32 80 91 C53.6 91 27.2 91 0 91 C0 60.97 0 30.94 0 0 Z M88 109 C106.15 109 124.3 109 143 109 C143 109.33 143 109.66 143 110 C124.85 110 106.7 110 88 110 C88 109.67 88 109.34 88 109 Z " fill="#625500" transform="translate(0,0)"/>
<path d="M0 0 C0.99 0.495 0.99 0.495 2 1 C4.54615009 1.23172827 7.07396225 1.41894529 9.625 1.5625 C10.33140625 1.60568359 11.0378125 1.64886719 11.765625 1.69335938 C13.51018537 1.79944751 15.25506697 1.90022889 17 2 C16.54625 3.051875 16.0925 4.10375 15.625 5.1875 C14.37239999 8.10825453 13.16489979 11.04294668 12 14 C13.92516455 16.36359433 13.92516455 16.36359433 17.34814453 16.22705078 C18.77640633 16.22673375 20.20469212 16.21541361 21.6328125 16.1953125 C22.38464813 16.1924826 23.13648376 16.18965271 23.91110229 16.18673706 C26.31589578 16.17552874 28.72031881 16.15042352 31.125 16.125 C32.75390088 16.11497102 34.38280758 16.10584503 36.01171875 16.09765625 C40.00795556 16.07558735 44.00391494 16.04105351 48 16 C48 15.67 48 15.34 48 15 C52.62 15 57.24 15 62 15 C61.67 15.99 61.34 16.98 61 18 C64.0050583 19.50252915 67.09256933 19.12992759 70.38720703 19.11352539 C71.52881287 19.11374443 71.52881287 19.11374443 72.69348145 19.1139679 C75.21495389 19.11326993 77.73635292 19.10548294 80.2578125 19.09765625 C82.00373291 19.09579166 83.74965384 19.09436795 85.49557495 19.09336853 C90.09545328 19.08954659 94.69530014 19.07971905 99.29516602 19.06866455 C104.81177622 19.05664709 110.32839694 19.05204665 115.84501648 19.04621124 C124.23003289 19.03650714 132.61498022 19.01734832 141 19 C141 36.49 141 53.98 141 72 C66.75 72 -7.5 72 -84 72 C-84 48.9 -84 25.8 -84 2 C-56.28 2 -28.56 2 0 2 C0 1.34 0 0.68 0 0 Z M49 20 C49 20.33 49 20.66 49 21 C53.29 21 57.58 21 62 21 C62 20.67 62 20.34 62 20 C57.71 20 53.42 20 49 20 Z " fill="#796900" transform="translate(84,153)"/>
<path d="M0 0 C74.25 0 148.5 0 225 0 C225 8.91 225 17.82 225 27 C208.5 27 192 27 175 27 C174.34 30.3 173.68 33.6 173 37 C134.39 37 95.78 37 56 37 C56 37.66 56 38.32 56 39 C37.52 39 19.04 39 0 39 C0 26.13 0 13.26 0 0 Z " fill="#544900" transform="translate(0,0)"/>
<path d="M0 0 C16.5 0 33 0 50 0 C50 18.48 50 36.96 50 56 C25.58 56 1.16 56 -24 56 C-24.33 55.34 -24.66 54.68 -25 54 C-24.22265625 52.0546875 -24.22265625 52.0546875 -23.0625 49.875 C-22.49208984 48.78832031 -22.49208984 48.78832031 -21.91015625 47.6796875 C-21.60980469 47.12539062 -21.30945313 46.57109375 -21 46 C-20.34 46 -19.68 46 -19 46 C-19 45.34 -19 44.68 -19 44 C-18.34 44 -17.68 44 -17 44 C-16.67 42.68 -16.34 41.36 -16 40 C-15.34 40 -14.68 40 -14 40 C-13.731875 39.154375 -13.46375 38.30875 -13.1875 37.4375 C-10.88783153 30.78056496 -7.85941438 24.43368235 -5 18 C-40.97 18 -76.94 18 -114 18 C-113.505 19.485 -113.505 19.485 -113 21 C-113.66 21.99 -114.32 22.98 -115 24 C-117.51834106 24.36076355 -117.51834106 24.36076355 -120.73486328 24.34057617 C-121.93595734 24.34034958 -123.13705139 24.34012299 -124.37454224 24.33988953 C-125.67664642 24.32440567 -126.97875061 24.30892181 -128.3203125 24.29296875 C-129.66266405 24.28737416 -131.00502173 24.28310341 -132.34738159 24.28010559 C-135.88210941 24.26864585 -139.41646798 24.23916959 -142.9510498 24.20599365 C-146.55715947 24.17531671 -150.16332874 24.16160538 -153.76953125 24.14648438 C-160.84651974 24.11430045 -167.92319694 24.0615237 -175 24 C-175 20.04 -175 16.08 -175 12 C-156.52 12 -138.04 12 -119 12 C-119 11.34 -119 10.68 -119 10 C-80.39 10 -41.78 10 -2 10 C-2 8.02 -2 6.04 -2 4 C-1.34 2.68 -0.68 1.36 0 0 Z " fill="#7B6B00" transform="translate(175,27)"/>
<path d="M0 0 C36.63 0 73.26 0 111 0 C108.66996366 5.82509084 106.39675261 11.47057397 103.75 17.125 C102.96882813 18.79949219 102.96882813 18.79949219 102.171875 20.5078125 C101.78515625 21.33023438 101.3984375 22.15265625 101 23 C100.34 23 99.68 23 99 23 C98.67 24.32 98.34 25.64 98 27 C97.34 27 96.68 27 96 27 C96 27.66 96 28.32 96 29 C95.34 29 94.68 29 94 29 C93.34 30.98 92.68 32.96 92 35 C67.58 35 43.16 35 18 35 C17.01 32.03 17.01 32.03 16 29 C15.34 29 14.68 29 14 29 C13.505 27.02 13.505 27.02 13 25 C12.34 25 11.68 25 11 25 C10.01 22.03 10.01 22.03 9 19 C8.34 19 7.68 19 7 19 C6.01 16.03 6.01 16.03 5 13 C4.34 13 3.68 13 3 13 C3 13.66 3 14.32 3 15 C-17.79 15 -38.58 15 -60 15 C-60 12.36 -60 9.72 -60 7 C-40.2 7 -20.4 7 0 7 C1.34513424 3.14061025 1.34513424 3.14061025 0 0 Z " fill="#040303" transform="translate(60,44)"/>
<path d="M0 0 C28.05 0 56.1 0 85 0 C85 5.61 85 11.22 85 17 C72.43769763 17.20228486 59.87525295 17.39036371 47.3125 17.5625 C45.9196516 17.5815999 45.9196516 17.5815999 44.49866486 17.60108566 C12.97400438 18.02779768 -18.48298323 17.95211703 -50 17 C-49.01 15.515 -49.01 15.515 -48 14 C-48.495 12.515 -48.495 12.515 -49 11 C-79.03 11 -109.06 11 -140 11 C-140 9.35 -140 7.7 -140 6 C-110.3 6 -80.6 6 -50 6 C-49.67 4.68 -49.34 3.36 -49 2 C-32.83 2 -16.66 2 0 2 C0 1.34 0 0.68 0 0 Z M-51 18 C-33.18 18 -15.36 18 3 18 C3 18.33 3 18.66 3 19 C-14.82 19 -32.64 19 -51 19 C-51 18.67 -51 18.34 -51 18 Z " fill="#5F5301" transform="translate(140,127)"/>
<path d="M0 0 C0 0.33 0 0.66 0 1 C-14.85 1.33 -29.7 1.66 -45 2 C-41.65359375 2.02578125 -38.3071875 2.0515625 -34.859375 2.078125 C-31.6192177 2.1165348 -28.37922011 2.16169859 -25.13916016 2.20751953 C-22.88695904 2.23574911 -20.63465848 2.2569537 -18.38232422 2.27099609 C-15.14498917 2.2923976 -11.90885226 2.33903495 -8.671875 2.390625 C-7.66445251 2.39185364 -6.65703003 2.39308228 -5.61907959 2.39434814 C-4.67840637 2.41406677 -3.73773315 2.4337854 -2.76855469 2.45410156 C-1.94248718 2.46298401 -1.11641968 2.47186646 -0.26531982 2.48101807 C2 3 2 3 3.79919434 5.0057373 C6.9501355 7.86096642 9.94154324 7.53132091 13.98144531 7.45410156 C15.18201065 7.45497772 15.18201065 7.45497772 16.40682983 7.45587158 C19.04770545 7.45308875 21.68744701 7.42198834 24.328125 7.390625 C26.16086205 7.3831633 27.99360709 7.37747003 29.82635498 7.37347412 C34.64670902 7.35821221 39.46657985 7.31892562 44.28674316 7.2746582 C49.20672061 7.23371751 54.12677625 7.21546567 59.046875 7.1953125 C68.6981288 7.15243189 78.3490242 7.08417381 88 7 C88 8.65 88 10.3 88 12 C48.4 12.495 48.4 12.495 8 13 C8 13.99 8 14.98 8 16 C-12.13 16 -32.26 16 -53 16 C-53 16.66 -53 17.32 -53 18 C-80.72 18 -108.44 18 -137 18 C-137 12.39 -137 6.78 -137 1 C-122.79171664 0.82891454 -108.58338998 0.66199832 -94.375 0.5 C-93.33354702 0.48812275 -92.29209404 0.4762455 -91.21908188 0.46400833 C-60.81185612 0.11868896 -30.40953509 -0.17367716 0 0 Z M-48 8 C-48 8.33 -48 8.66 -48 9 C-30.18 9 -12.36 9 6 9 C6 8.67 6 8.34 6 8 C-11.82 8 -29.64 8 -48 8 Z " fill="#6A5C01" transform="translate(137,137)"/>
<path d="M0 0 C27.06 0 54.12 0 82 0 C82 5.28 82 10.56 82 16 C53.95 16 25.9 16 -3 16 C-3 16.66 -3 17.32 -3 18 C-19.17 18 -35.34 18 -52 18 C-52.33 19.32 -52.66 20.64 -53 22 C-82.7 22 -112.4 22 -143 22 C-143 21.01 -143 20.02 -143 19 C-113.63 18.67 -84.26 18.34 -54 18 C-52.93462795 13.52297636 -52.93462795 13.52297636 -53 11 C-36.83 10.67 -20.66 10.34 -4 10 C-28.255 9.505 -28.255 9.505 -53 9 C-53 8.67 -53 8.34 -53 8 C-35.84 7.67 -18.68 7.34 -1 7 C-0.67 4.69 -0.34 2.38 0 0 Z " fill="#736400" transform="translate(143,111)"/>
<path d="M0 0 C74.25 0 148.5 0 225 0 C225 2.31 225 4.62 225 7 C167.91 7 110.82 7 52 7 C51.67 8.32 51.34 9.64 51 11 C50.67 11.66 50.34 12.32 50 13 C33.5 13 17 13 0 13 C0 8.71 0 4.42 0 0 Z " fill="#625500" transform="translate(0,0)"/>
<path d="M0 0 C0.66 0 1.32 0 2 0 C2.99 2.97 2.99 2.97 4 6 C4.66 6 5.32 6 6 6 C6.99 8.97 6.99 8.97 8 12 C8.66 12 9.32 12 10 12 C10.495 13.98 10.495 13.98 11 16 C11.66 16 12.32 16 13 16 C15 21.75 15 21.75 15 24 C-10.74 24 -36.48 24 -63 24 C-63 16.74 -63 9.48 -63 2 C-42.21 2 -21.42 2 0 2 C0 1.34 0 0.68 0 0 Z " fill="#7B6B00" transform="translate(63,57)"/>
<path d="M0 0 C15.45170645 -0.02377649 30.90341147 -0.04119159 46.3551321 -0.05181217 C53.53599615 -0.05688317 60.71684848 -0.06376813 67.89770508 -0.07543945 C103.27694888 -0.1318227 138.62987202 0.07110079 174 1 C174 1.66 174 2.32 174 3 C157.83 3 141.66 3 125 3 C124.67 4.98 124.34 6.96 124 9 C122.36477494 10.63522506 120.51173031 10.13852899 118.25488281 10.15148926 C116.71519836 10.16400475 116.71519836 10.16400475 115.14440918 10.17677307 C113.44097351 10.1830497 113.44097351 10.1830497 111.703125 10.18945312 C110.51464966 10.19774643 109.32617432 10.20603973 108.10168457 10.21458435 C104.83319422 10.23659868 101.56471202 10.25427851 98.29618835 10.27039146 C94.88265209 10.28850612 91.46916268 10.31297213 88.05566406 10.33703613 C78.63099986 10.4023209 69.20628214 10.45769553 59.78155518 10.51302338 C51.14615284 10.56381881 42.51077661 10.61667271 33.87543869 10.67754889 C30.47332459 10.70129297 27.07122356 10.72286756 23.66906738 10.73963928 C19.87829467 10.75892213 16.08760343 10.78409478 12.296875 10.81054688 C11.16125122 10.81473129 10.02562744 10.81891571 8.85559082 10.82322693 C7.31590637 10.83574242 7.31590637 10.83574242 5.74511719 10.84851074 C4.39894318 10.85624134 4.39894318 10.85624134 3.02557373 10.86412811 C1.00407883 10.77652244 1.00407883 10.77652244 0 12 C-1.59610982 12.09333705 -3.19633428 12.11745372 -4.79516602 12.11352539 C-5.81614883 12.11344986 -6.83713165 12.11337433 -7.88905334 12.11329651 C-8.9994548 12.10813522 -10.10985626 12.10297394 -11.25390625 12.09765625 C-12.38448959 12.0962413 -13.51507294 12.09482635 -14.67991638 12.09336853 C-18.30747065 12.08775019 -21.93496424 12.07519458 -25.5625 12.0625 C-28.01497307 12.05748736 -30.4674471 12.05292405 -32.91992188 12.04882812 C-38.94663545 12.0377748 -44.97331339 12.02101884 -51 12 C-51 10.35 -51 8.7 -51 7 C-34.5 7 -18 7 -1 7 C-0.67 4.69 -0.34 2.38 0 0 Z " fill="#1B1702" transform="translate(51,6)"/>
<path d="M0 0 C36.63 0 73.26 0 111 0 C108.525 4.95 108.525 4.95 106 10 C55.51 10.495 55.51 10.495 4 11 C3.67 12.32 3.34 13.64 3 15 C-17.79 15 -38.58 15 -60 15 C-60 12.36 -60 9.72 -60 7 C-40.2 7 -20.4 7 0 7 C1.34513424 3.14061025 1.34513424 3.14061025 0 0 Z " fill="#594D01" transform="translate(60,44)"/>
<path d="M0 0 C4.62 0 9.24 0 14 0 C13.67 0.99 13.34 1.98 13 3 C16.0050583 4.50252915 19.09256933 4.12992759 22.38720703 4.11352539 C23.14827759 4.11367142 23.90934814 4.11381744 24.69348145 4.1139679 C27.21495389 4.11326993 29.73635292 4.10548294 32.2578125 4.09765625 C34.00373291 4.09579166 35.74965384 4.09436795 37.49557495 4.09336853 C42.09545328 4.08954659 46.69530014 4.07971905 51.29516602 4.06866455 C55.9871376 4.05844349 60.67911425 4.05386942 65.37109375 4.04882812 C74.58074301 4.03809651 83.79036889 4.02102394 93 4 C93 7.63 93 11.26 93 15 C51.09 15 9.18 15 -34 15 C-34 10 -34 10 -33.375 7.9375 C-32.71127326 5.56241006 -32.71127326 5.56241006 -35 2 C-17.675 1.505 -17.675 1.505 0 1 C0 0.67 0 0.34 0 0 Z M1 5 C1 5.33 1 5.66 1 6 C5.29 6 9.58 6 14 6 C14 5.67 14 5.34 14 5 C9.71 5 5.42 5 1 5 Z " fill="#7C6C00" transform="translate(132,168)"/>
<path d="M0 0 C24.42 0 48.84 0 74 0 C74 1.98 74 3.96 74 6 C72.13069256 7.86930744 68.97126921 7.1642139 66.4765625 7.18945312 C65.79527283 7.19774643 65.11398315 7.20603973 64.41204834 7.21458435 C62.92842974 7.23201919 61.44478307 7.24717654 59.96112061 7.26036072 C57.61674666 7.2813238 55.27251398 7.30835085 52.92822266 7.33703613 C47.10545821 7.4070037 41.28259349 7.46632226 35.4597168 7.52606201 C30.54264411 7.57691111 25.62564699 7.63171414 20.7086792 7.69187927 C18.39255997 7.71854781 16.07643409 7.73930556 13.76025391 7.7598877 C12.34797833 7.77648415 10.93570595 7.7933554 9.5234375 7.81054688 C7.665979 7.82933899 7.665979 7.82933899 5.77099609 7.84851074 C3.09170185 7.68581387 3.09170185 7.68581387 2 9 C-0.46444057 9.09500548 -2.90074626 9.12557985 -5.36547852 9.11352539 C-6.13615662 9.11367142 -6.90683472 9.11381744 -7.7008667 9.1139679 C-10.26024139 9.1132686 -12.8195442 9.10547545 -15.37890625 9.09765625 C-17.14867615 9.09579213 -18.91844656 9.0943682 -20.68821716 9.09336853 C-25.35551366 9.08954288 -30.02277923 9.0797122 -34.69006348 9.06866455 C-39.44897035 9.05845144 -44.20788221 9.05387113 -48.96679688 9.04882812 C-58.31121153 9.03808997 -67.6556032 9.02101299 -77 9 C-77 6.69 -77 4.38 -77 2 C-51.59 1.67 -26.18 1.34 0 1 C0 0.67 0 0.34 0 0 Z " fill="#4B4200" transform="translate(77,79)"/>
<path d="M0 0 C28.71 0 57.42 0 87 0 C87 2.31 87 4.62 87 7 C74.43772528 7.20368851 61.87524646 7.3903638 49.3125 7.5625 C47.9196516 7.5815999 47.9196516 7.5815999 46.49866486 7.60108566 C14.97400438 8.02779768 -16.48298323 7.95211703 -48 7 C-47.34 6.01 -46.68 5.02 -46 4 C-46.33 3.34 -46.66 2.68 -47 2 C-31.49 2 -15.98 2 0 2 C0 1.34 0 0.68 0 0 Z M-49 8 C-31.18 8 -13.36 8 5 8 C5 8.33 5 8.66 5 9 C-12.82 9 -30.64 9 -49 9 C-49 8.67 -49 8.34 -49 8 Z " fill="#4F4500" transform="translate(138,137)"/>
<path d="M0 0 C1.08864349 0.00539291 1.08864349 0.00539291 2.19927979 0.01089478 C2.96020432 0.01074875 3.72112885 0.01060272 4.50511169 0.01045227 C7.03202113 0.01115155 9.55885776 0.01894462 12.08575439 0.02676392 C13.83310404 0.02862804 15.58045421 0.03005197 17.32780457 0.03105164 C21.93591749 0.03487724 26.54399909 0.04470788 31.15209961 0.05575562 C35.85068335 0.06596883 40.54927214 0.07054906 45.24786377 0.07559204 C54.47378902 0.08633011 63.69969098 0.10340704 72.92559814 0.12442017 C72.92559814 2.43442017 72.92559814 4.74442017 72.92559814 7.12442017 C62.73677887 7.27915481 52.54788641 7.42732004 42.35885429 7.56738377 C37.62632944 7.63263987 32.89385694 7.70005374 28.16143799 7.77261353 C23.58383539 7.84271661 19.00618267 7.90687142 14.42844009 7.9671154 C12.69276086 7.99096174 10.95710836 8.01685559 9.22149277 8.0449543 C-0.94745122 8.20804963 -10.93651285 8.06674338 -21.07440186 7.12442017 C-21.07440186 7.78442017 -21.07440186 8.44442017 -21.07440186 9.12442017 C-31.30440186 9.12442017 -41.53440186 9.12442017 -52.07440186 9.12442017 C-52.07440186 4.12442017 -52.07440186 4.12442017 -51.07440186 2.12442017 C-47.07671658 1.97855605 -43.07891727 1.83635578 -39.08099365 1.69717407 C-37.07287225 1.62656402 -35.06484584 1.55326849 -33.05682373 1.47988892 C-24.99031116 1.20104651 -16.96276586 1.09936168 -8.89300537 1.20449829 C-5.70082684 1.11380669 -3.44266455 0.00719578 0 0 Z " fill="#958200" transform="translate(152.07440185546875,157.87557983398438)"/>
<path d="M0 0 C38.94 0 77.88 0 118 0 C117.67 1.65 117.34 3.3 117 5 C78.39 5 39.78 5 0 5 C0 5.66 0 6.32 0 7 C-18.48 7 -36.96 7 -56 7 C-56 6.34 -56 5.68 -56 5 C-37.85 5 -19.7 5 -1 5 C-0.67 3.35 -0.34 1.7 0 0 Z " fill="#191503" transform="translate(56,32)"/>
<path d="M0 0 C37.95 0 75.9 0 115 0 C114.34 1.65 113.68 3.3 113 5 C75.71 5 38.42 5 0 5 C0 5.66 0 6.32 0 7 C-19.14 7 -38.28 7 -58 7 C-58 6.34 -58 5.68 -58 5 C-39.19 5 -20.38 5 -1 5 C-0.67 3.35 -0.34 1.7 0 0 Z " fill="#1A1603" transform="translate(58,38)"/>
<path d="M0 0 C16.17 0 32.34 0 49 0 C49 2.64 49 5.28 49 8 C12.80077667 8.97366448 -23.35745721 9.01281616 -59.56459343 8.62664449 C-66.51106483 8.55286822 -73.45761284 8.48800488 -80.40417612 8.42356598 C-94.60288161 8.29167031 -108.80147056 8.14960977 -123 8 C-123.33 9.32 -123.66 10.64 -124 12 C-141.16 12 -158.32 12 -176 12 C-176 11.01 -176 10.02 -176 9 C-175.04493309 8.9845388 -175.04493309 8.9845388 -174.0705719 8.96876526 C-167.46873202 8.86093669 -160.86703522 8.74632039 -154.26538086 8.62768555 C-151.79861431 8.58426057 -149.33181622 8.54259128 -146.86499023 8.50268555 C-143.32786534 8.44516555 -139.79090034 8.38141925 -136.25390625 8.31640625 C-135.14350479 8.29969376 -134.03310333 8.28298126 -132.88905334 8.26576233 C-131.86807053 8.24581711 -130.84708771 8.22587189 -129.79516602 8.20532227 C-128.89137711 8.18977798 -127.9875882 8.1742337 -127.05641174 8.15821838 C-125.00805899 8.22498543 -125.00805899 8.22498543 -124 7 C-122.41886387 6.89190884 -120.83293938 6.85315956 -119.24815369 6.84178162 C-117.7063015 6.82709839 -117.7063015 6.82709839 -116.13330078 6.81211853 C-114.99610596 6.80636307 -113.85891113 6.8006076 -112.68725586 6.79467773 C-111.49717422 6.78477814 -110.30709259 6.77487854 -109.08094788 6.76467896 C-105.80839691 6.73842897 -102.53585135 6.71659269 -99.26325679 6.69667697 C-95.84658439 6.67485467 -92.42995703 6.64744767 -89.01332092 6.62062073 C-82.53934001 6.57064288 -76.06533416 6.52572302 -69.59130436 6.48259836 C-62.22258881 6.43326941 -54.85391843 6.37833523 -47.48524654 6.32291877 C-32.32353977 6.20902059 -17.16179048 6.10219871 -2 6 C-1.34 4.02 -0.68 2.04 0 0 Z " fill="#675A02" transform="translate(176,9)"/>
<path d="M0 0 C26.07 0 52.14 0 79 0 C79 2.31 79 4.62 79 7 C68.90702186 7.15456621 58.81397136 7.30273605 48.72078323 7.4429636 C44.03304183 7.50828797 39.34535181 7.57573323 34.65771484 7.64819336 C30.12550773 7.71817007 25.59325076 7.78235633 21.06090546 7.84269524 C19.34032008 7.86658687 17.61976129 7.89248993 15.89923859 7.92053413 C6.53345164 8.07180748 -2.67291936 8.05249763 -12 7 C-11.67 6.01 -11.34 5.02 -11 4 C-11.33 3.34 -11.66 2.68 -12 2 C-8.04 2 -4.08 2 0 2 C0 1.34 0 0.68 0 0 Z M-13 8 C-8.71 8 -4.42 8 0 8 C0 8.33 0 8.66 0 9 C-4.29 9 -8.58 9 -13 9 C-13 8.67 -13 8.34 -13 8 Z " fill="#625500" transform="translate(146,165)"/>
<path d="M0 0 C16.17 0 32.34 0 49 0 C48.67 1.65 48.34 3.3 48 5 C47.42592911 5.01030746 46.85185822 5.02061493 46.26039124 5.03123474 C40.30734338 5.13907434 34.35445385 5.25368977 28.40161133 5.37231445 C26.17736104 5.41573588 23.95307585 5.45740545 21.72875977 5.49731445 C18.53911805 5.55484306 15.3496532 5.61858684 12.16015625 5.68359375 C10.65860741 5.70866249 10.65860741 5.70866249 9.12672424 5.73423767 C8.20584518 5.75418289 7.28496613 5.77412811 6.33618164 5.79467773 C5.52121719 5.81022202 4.70625275 5.8257663 3.86659241 5.84178162 C1.98590881 5.79913863 1.98590881 5.79913863 1 7 C-1.83040672 7.09520906 -4.63634993 7.12553631 -7.46704102 7.11352539 C-8.35476196 7.11367142 -9.24248291 7.11381744 -10.15710449 7.1139679 C-13.10606284 7.11326843 -16.05495887 7.10547448 -19.00390625 7.09765625 C-21.04271917 7.09579219 -23.08153254 7.09436823 -25.12034607 7.09336853 C-30.49784574 7.08954241 -35.87531858 7.07971132 -41.25280762 7.06866455 C-46.73559201 7.05845245 -52.21838072 7.05387134 -57.70117188 7.04882812 C-68.46745973 7.03808914 -79.23372764 7.02101159 -90 7 C-90 5.35 -90 3.7 -90 2 C-60.3 2 -30.6 2 0 2 C0 1.34 0 0.68 0 0 Z " fill="#4C4200" transform="translate(90,131)"/>
<path d="M0 0 C23.76 0 47.52 0 72 0 C71.67 1.32 71.34 2.64 71 4 C70.12525528 4.01030746 69.25051056 4.02061493 68.34925842 4.03123474 C60.12317642 4.1290351 51.89716928 4.23152413 43.6712122 4.33933926 C39.44172386 4.39460687 35.21222867 4.44803285 30.98266602 4.49731445 C26.90425337 4.54490159 22.82592738 4.59724208 18.74761772 4.65294075 C17.18824852 4.67339 15.62885554 4.69209875 14.06944466 4.70907402 C11.8926441 4.73306144 9.71600876 4.76312319 7.53930664 4.79467773 C6.29798477 4.81022202 5.0566629 4.8257663 3.77772522 4.84178162 C1.09256784 4.68551514 1.09256784 4.68551514 0 6 C-2.46444057 6.09500548 -4.90074626 6.12557985 -7.36547852 6.11352539 C-8.13615662 6.11367142 -8.90683472 6.11381744 -9.7008667 6.1139679 C-12.26024139 6.1132686 -14.8195442 6.10547545 -17.37890625 6.09765625 C-19.14867615 6.09579213 -20.91844656 6.0943682 -22.68821716 6.09336853 C-27.35551366 6.08954288 -32.02277923 6.0797122 -36.69006348 6.06866455 C-41.44897035 6.05845144 -46.20788221 6.05387113 -50.96679688 6.04882812 C-60.31121153 6.03808997 -69.6556032 6.02101299 -79 6 C-79 5.01 -79 4.02 -79 3 C-53.26 3 -27.52 3 -1 3 C-0.67 2.01 -0.34 1.02 0 0 Z " fill="#282301" transform="translate(79,82)"/>
<path d="M0 0 C1.99413949 0.0050312 3.98828022 0.00959121 5.98242188 0.01367188 C10.80081284 0.02453499 15.61914207 0.04170778 20.4375 0.0625 C20.9325 1.5475 20.9325 1.5475 21.4375 3.0625 C16.4875 3.3925 11.5375 3.7225 6.4375 4.0625 C6.1075 5.7125 5.7775 7.3625 5.4375 9.0625 C6.0975 10.0525 6.7575 11.0425 7.4375 12.0625 C7.4375 11.4025 7.4375 10.7425 7.4375 10.0625 C12.0575 10.0625 16.6775 10.0625 21.4375 10.0625 C21.9325 11.0525 21.9325 11.0525 22.4375 12.0625 C16.4975 12.5575 16.4975 12.5575 10.4375 13.0625 C10.4375 13.7225 10.4375 14.3825 10.4375 15.0625 C-1.7725 15.0625 -13.9825 15.0625 -26.5625 15.0625 C-26.8925 14.4025 -27.2225 13.7425 -27.5625 13.0625 C-30.3784849 12.59351037 -30.3784849 12.59351037 -33.625 12.4375 C-35.28208984 12.32535156 -35.28208984 12.32535156 -36.97265625 12.2109375 C-37.82730469 12.16195312 -38.68195313 12.11296875 -39.5625 12.0625 C-39.5625 8.4325 -39.5625 4.8025 -39.5625 1.0625 C-26.36320818 0.08546822 -13.23118811 -0.05886452 0 0 Z " fill="#2F2901" transform="translate(123.5625,154.9375)"/>
<path d="M0 0 C36.96 0 73.92 0 112 0 C112 0.33 112 0.66 112 1 C76.03 1.33 40.06 1.66 3 2 C3.495 3.485 3.495 3.485 4 5 C3.34 5.99 2.68 6.98 2 8 C-0.51834106 8.36076355 -0.51834106 8.36076355 -3.73486328 8.34057617 C-4.93595734 8.34034958 -6.13705139 8.34012299 -7.37454224 8.33988953 C-8.67664642 8.32440567 -9.97875061 8.30892181 -11.3203125 8.29296875 C-12.66266405 8.28737416 -14.00502173 8.28310341 -15.34738159 8.28010559 C-18.88210941 8.26864585 -22.41646798 8.23916959 -25.9510498 8.20599365 C-29.55715947 8.17531671 -33.16332874 8.16160538 -36.76953125 8.14648438 C-43.84650532 8.11430052 -50.92322857 8.06309094 -58 8 C-58 6.02 -58 4.04 -58 2 C-38.86 2 -19.72 2 0 2 C0 1.34 0 0.68 0 0 Z " fill="#5F5200" transform="translate(58,43)"/>
<path d="M0 0 C0 0.33 0 0.66 0 1 C16.83 1.33 33.66 1.66 51 2 C51 2.99 51 3.98 51 5 C9.42 5 -32.16 5 -75 5 C-75 3.68 -75 2.36 -75 1 C-68.01560919 0.85425877 -61.03114774 0.71232082 -54.04663086 0.57275391 C-51.68170513 0.52508105 -49.31679537 0.47660783 -46.9519043 0.42724609 C-31.29895014 0.10121219 -15.65641433 -0.07412468 0 0 Z " fill="#050404" transform="translate(126,0)"/>
<path d="M0 0 C36.63 0 73.26 0 111 0 C110.34 1.32 109.68 2.64 109 4 C73.69 4 38.38 4 2 4 C1.34 2.68 0.68 1.36 0 0 Z " fill="#040303" transform="translate(60,44)"/>
<path d="M0 0 C34.98 0 69.96 0 106 0 C105.67 1.32 105.34 2.64 105 4 C70.68 4 36.36 4 1 4 C0.67 2.68 0.34 1.36 0 0 Z " fill="#040303" transform="translate(62,49)"/>
<path d="M0 0 C39.93 0 79.86 0 121 0 C121 0.99 121 1.98 121 3 C80.74 3.33 40.48 3.66 -1 4 C-0.67 2.68 -0.34 1.36 0 0 Z M-53 4 C-35.84 4 -18.68 4 -1 4 C-1 4.33 -1 4.66 -1 5 C-18.16 5 -35.32 5 -53 5 C-53 4.67 -53 4.34 -53 4 Z " fill="#020202" transform="translate(53,17)"/>
<path d="M0 0 C39.6 0 79.2 0 120 0 C120 0.99 120 1.98 120 3 C60.105 3.495 60.105 3.495 -1 4 C-0.67 2.68 -0.34 1.36 0 0 Z M-54 4 C-36.51 4 -19.02 4 -1 4 C-1 4.33 -1 4.66 -1 5 C-18.49 5 -35.98 5 -54 5 C-54 4.67 -54 4.34 -54 4 Z " fill="#020202" transform="translate(54,21)"/>
<path d="M0 0 C39.27 0 78.54 0 119 0 C119 0.99 119 1.98 119 3 C79.4 3.33 39.8 3.66 -1 4 C-0.67 2.68 -0.34 1.36 0 0 Z M-55 4 C-37.18 4 -19.36 4 -1 4 C-1 4.33 -1 4.66 -1 5 C-18.82 5 -36.64 5 -55 5 C-55 4.67 -55 4.34 -55 4 Z " fill="#020202" transform="translate(55,25)"/>
<path d="M0 0 C33.99 0 67.98 0 103 0 C103 0.33 103 0.66 103 1 C85.84 1 68.68 1 51 1 C51.495 2.485 51.495 2.485 52 4 C51.34 4.99 50.68 5.98 50 7 C47.86129761 7.36076355 47.86129761 7.36076355 45.18310547 7.34057617 C44.18221893 7.34034958 43.1813324 7.34012299 42.15011597 7.33988953 C41.06674957 7.32440567 39.98338318 7.30892181 38.8671875 7.29296875 C37.20672897 7.28660149 37.20672897 7.28660149 35.51272583 7.28010559 C31.9665729 7.26327214 28.42098203 7.2256108 24.875 7.1875 C22.47526861 7.17245922 20.07552833 7.15876977 17.67578125 7.14648438 C11.78366141 7.11335338 5.89187085 7.06310777 0 7 C0 4.69 0 2.38 0 0 Z " fill="#625501" transform="translate(0,0)"/>
<path d="M0 0 C26.73 0 53.46 0 81 0 C81 0.99 81 1.98 81 3 C68.87524762 3.20473302 56.75027035 3.3911932 44.625 3.5625 C43.72446899 3.57523327 42.82393799 3.58796654 41.89611816 3.60108566 C8.90610037 4.06121299 -24.0172141 3.88610379 -57 3 C-57 2.67 -57 2.34 -57 2 C-28.785 1.505 -28.785 1.505 0 1 C0 0.67 0 0.34 0 0 Z M-58 4 C-38.53 4 -19.06 4 1 4 C1 4.33 1 4.66 1 5 C-18.47 5 -37.94 5 -58 5 C-58 4.67 -58 4.34 -58 4 Z " fill="#373000" transform="translate(144,149)"/>
<path d="M0 0 C38.28 0 76.56 0 116 0 C116 0.33 116 0.66 116 1 C60.065 1.495 60.065 1.495 3 2 C2.34 3.32 1.68 4.64 1 6 C-17.81 6 -36.62 6 -56 6 C-56 4.68 -56 3.36 -56 2 C-37.52 2 -19.04 2 0 2 C0 1.34 0 0.68 0 0 Z " fill="#524800" transform="translate(56,37)"/>
<path d="M0 0 C4.62 0 9.24 0 14 0 C13.67 0.99 13.34 1.98 13 3 C13.41621833 6.32974661 14.56057744 7.77270114 17 10 C17 10.33 17 10.66 17 11 C11.72 11 6.44 11 1 11 C1 11.66 1 12.32 1 13 C-10.55 13 -22.1 13 -34 13 C-33.67 10.69 -33.34 8.38 -33 6 C-33.66 4.68 -34.32 3.36 -35 2 C-17.675 1.505 -17.675 1.505 0 1 C0 0.67 0 0.34 0 0 Z " fill="#AC9602" transform="translate(132,168)"/>
<path d="M0 0 C16.17 0 32.34 0 49 0 C49 1.98 49 3.96 49 6 C32.5 6 16 6 -1 6 C-0.67 4.02 -0.34 2.04 0 0 Z " fill="#7A6A00" transform="translate(176,9)"/>
<path d="M0 0 C0.88399947 0.00092179 1.76799894 0.00184359 2.67878628 0.00279331 C3.68985943 0.00141865 4.70093258 0.00004398 5.74264431 -0.00137234 C7.42038433 0.00402058 7.42038433 0.00402058 9.13201809 0.00952244 C10.30259258 0.00937641 11.47316708 0.00923038 12.67921352 0.00907993 C15.89807713 0.00965887 19.11689773 0.01468791 22.33575273 0.02165389 C25.6963417 0.02788826 29.05693143 0.02849129 32.41752529 0.0296793 C38.78529112 0.03279237 45.15303986 0.04100543 51.52079815 0.05102879 C58.76856499 0.06219068 66.01633263 0.06770057 73.26410592 0.07272422 C88.17703605 0.08318806 103.08995017 0.10078703 118.0028677 0.12304783 C118.0028677 0.45304783 118.0028677 0.78304783 118.0028677 1.12304783 C78.7328677 1.12304783 39.4628677 1.12304783 -0.9971323 1.12304783 C-1.3271323 2.44304783 -1.6571323 3.76304783 -1.9971323 5.12304783 C-20.1471323 5.12304783 -38.2971323 5.12304783 -56.9971323 5.12304783 C-56.9971323 4.13304783 -56.9971323 3.14304783 -56.9971323 2.12304783 C-55.98568905 2.10758663 -55.98568905 2.10758663 -54.9538126 2.09181309 C-47.96269648 1.98399014 -40.97171563 1.8693734 -33.98077488 1.75073338 C-31.36849886 1.70730658 -28.75619302 1.66563745 -26.14386082 1.62573338 C-22.39824511 1.56821776 -18.65278061 1.50447019 -14.90728855 1.43945408 C-13.73126575 1.42274158 -12.55524296 1.40602909 -11.34358311 1.38881016 C-10.26253803 1.36886494 -9.18149296 1.34891972 -8.06768894 1.32837009 C-7.11060535 1.31282581 -6.15352177 1.29728153 -5.16743565 1.28126621 C-2.66755516 1.09902116 -2.44782177 0.15081582 0 0 Z " fill="#645702" transform="translate(56.997132301330566,27.876952171325684)"/>
<path d="M0 0 C0.89137382 0.00092179 1.78274763 0.00184359 2.70113277 0.00279331 C4.23036373 0.00073132 4.23036373 0.00073132 5.79048824 -0.00137234 C6.91833233 0.00222294 8.04617641 0.00581821 9.20819759 0.00952244 C10.38852566 0.00937641 11.56885372 0.00923038 12.7849493 0.00907993 C16.03067141 0.00965888 19.27635088 0.01468796 22.52206445 0.02165389 C25.91068065 0.02788821 29.29929761 0.02849129 32.68791866 0.0296793 C39.10880837 0.03279238 45.52968114 0.04100546 51.95056337 0.05102879 C59.25878857 0.06219063 66.56701457 0.06770055 73.87524617 0.07272422 C88.91259034 0.0831881 103.94991864 0.1007871 118.98725033 0.12304783 C118.98725033 0.45304783 118.98725033 0.78304783 118.98725033 1.12304783 C79.38725033 1.12304783 39.78725033 1.12304783 -1.01274967 1.12304783 C-1.34274967 2.44304783 -1.67274967 3.76304783 -2.01274967 5.12304783 C-19.83274967 5.12304783 -37.65274967 5.12304783 -56.01274967 5.12304783 C-56.01274967 4.13304783 -56.01274967 3.14304783 -56.01274967 2.12304783 C-55.35098225 2.11274036 -54.68921482 2.1024329 -54.00739384 2.09181309 C-47.14603654 1.98398834 -40.28481701 1.86937174 -33.42363834 1.75073338 C-30.85986546 1.70730716 -28.29606221 1.66563798 -25.73223209 1.62573338 C-22.05611339 1.56821636 -18.38014868 1.50446919 -14.70415592 1.43945408 C-13.5500069 1.42274158 -12.39585789 1.40602909 -11.20673466 1.38881016 C-10.14571033 1.36886494 -9.08468601 1.34891972 -7.99150944 1.32837009 C-6.58253139 1.30505367 -6.58253139 1.30505367 -5.14508915 1.28126621 C-2.66503722 1.09724776 -2.44534125 0.14949397 0 0 Z " fill="#635603" transform="translate(56.012749671936035,23.876952171325684)"/>
<path d="M0 0 C0.89874816 0.00092179 1.79749632 0.00184359 2.72347927 0.00279331 C3.75138073 0.00141865 4.77928219 0.00004398 5.83833218 -0.00137234 C6.975527 0.00222294 8.11272182 0.00581821 9.2843771 0.00952244 C10.47445873 0.00937641 11.66454037 0.00923038 12.89068508 0.00907993 C16.16326569 0.00965889 19.43580402 0.01468801 22.70837617 0.02165389 C26.1250196 0.02788815 29.54166379 0.02849128 32.95831203 0.0296793 C39.43232563 0.0327924 45.90632242 0.0410055 52.3803286 0.05102879 C59.74901216 0.06219058 67.11769651 0.06770054 74.48638642 0.07272422 C89.64814464 0.08318813 104.80988712 0.10078717 119.97163296 0.12304783 C119.97163296 0.45304783 119.97163296 0.78304783 119.97163296 1.12304783 C80.04163296 1.12304783 40.11163296 1.12304783 -1.02836704 1.12304783 C-1.35836704 2.44304783 -1.68836704 3.76304783 -2.02836704 5.12304783 C-19.51836704 5.12304783 -37.00836704 5.12304783 -55.02836704 5.12304783 C-55.02836704 4.13304783 -55.02836704 3.14304783 -55.02836704 2.12304783 C-54.05450802 2.10758663 -54.05450802 2.10758663 -53.06097507 2.09181309 C-46.32937653 1.98398647 -39.59791835 1.86937002 -32.86650181 1.75073338 C-30.35123208 1.70730777 -27.83593141 1.66563853 -25.32060337 1.62573338 C-21.71398161 1.56821489 -18.10751673 1.50446816 -14.50102329 1.43945408 C-13.36874805 1.42274158 -12.23647282 1.40602909 -11.06988621 1.38881016 C-10.02888264 1.36886494 -8.98787907 1.34891972 -7.91532993 1.32837009 C-6.99377613 1.31282581 -6.07222233 1.29728153 -5.12274265 1.28126621 C-2.66213539 1.09538107 -2.44321229 0.14821379 0 0 Z " fill="#625503" transform="translate(55.028367042541504,19.876952171325684)"/>
<path d="M0 0 C1.45131147 0.01495999 2.90256993 0.03563966 4.35374451 0.06056213 C5.53902237 0.07497345 5.53902237 0.07497345 6.74824524 0.0896759 C9.37261034 0.12278345 11.99681499 0.16307062 14.62107849 0.2033844 C16.43568345 0.22767405 18.25029443 0.25151817 20.06491089 0.27493286 C24.85062998 0.33788883 29.63624314 0.40692263 34.42185974 0.47718811 C39.30136779 0.54776786 44.18095118 0.61264672 49.06053162 0.67799377 C58.64199463 0.8071544 68.22335546 0.94273077 77.80467224 1.08229065 C77.80467224 1.74229065 77.80467224 2.40229065 77.80467224 3.08229065 C50.74467224 3.08229065 23.68467224 3.08229065 -4.19532776 3.08229065 C-4.19532776 3.74229065 -4.19532776 4.40229065 -4.19532776 5.08229065 C-22.34532776 5.08229065 -40.49532776 5.08229065 -59.19532776 5.08229065 C-59.19532776 4.09229065 -59.19532776 3.10229065 -59.19532776 2.08229065 C-58.50850418 2.07198318 -57.8216806 2.06167572 -57.11404419 2.05105591 C-49.99316919 1.9432347 -42.87242702 1.82861782 -35.75172424 1.7099762 C-33.09094511 1.66654885 -30.43013668 1.62487975 -27.76930237 1.5849762 C-23.9541896 1.52746193 -20.13922534 1.46371397 -16.32423401 1.3986969 C-14.52738914 1.37362816 -14.52738914 1.37362816 -12.69424438 1.34805298 C-11.04264565 1.31813515 -11.04264565 1.31813515 -9.35768127 1.28761292 C-8.38283279 1.27206863 -7.40798431 1.25652435 -6.40359497 1.24050903 C-3.34686096 1.02149953 -3.42502487 0.08820614 0 0 Z " fill="#4E4402" transform="translate(147.19532775878906,107.91770935058594)"/>
<path d="M0 0 C1.99413949 0.0050312 3.98828022 0.00959121 5.98242188 0.01367188 C10.80081284 0.02453499 15.61914207 0.04170778 20.4375 0.0625 C20.9325 1.5475 20.9325 1.5475 21.4375 3.0625 C19.83068359 3.15337891 19.83068359 3.15337891 18.19140625 3.24609375 C16.79425609 3.33048537 15.39712143 3.41513406 14 3.5 C12.93942383 3.55897461 12.93942383 3.55897461 11.85742188 3.61914062 C8.35059581 3.53874438 8.35059581 3.53874438 5.4375 5.0625 C3.40153417 5.20881501 1.36081963 5.28993946 -0.6796875 5.34375 C-1.92621094 5.38113281 -3.17273438 5.41851562 -4.45703125 5.45703125 C-5.77058594 5.49183594 -7.08414063 5.52664062 -8.4375 5.5625 C-11.0183425 5.6312885 -13.59908386 5.70401831 -16.1796875 5.78125 C-17.33065918 5.81154297 -18.48163086 5.84183594 -19.66748047 5.87304688 C-22.62969946 5.94400955 -22.62969946 5.94400955 -25.5625 7.0625 C-27.96120613 6.97593435 -30.35787281 6.82251509 -32.75 6.625 C-34.02230469 6.52316406 -35.29460937 6.42132813 -36.60546875 6.31640625 C-37.58128906 6.23261719 -38.55710937 6.14882812 -39.5625 6.0625 C-39.5625 4.4125 -39.5625 2.7625 -39.5625 1.0625 C-26.36320818 0.08546822 -13.23118811 -0.05886452 0 0 Z " fill="#060503" transform="translate(123.5625,154.9375)"/>
<path d="M0 0 C16.5 0 33 0 50 0 C49.67 0.99 49.34 1.98 49 3 C32.83 3 16.66 3 0 3 C0 2.01 0 1.02 0 0 Z " fill="#A89200" transform="translate(0,0)"/>
<path d="M0 0 C4.62 0 9.24 0 14 0 C14.495 0.99 14.495 0.99 15 2 C9.06 2.495 9.06 2.495 3 3 C3 3.66 3 4.32 3 5 C-8.88 5 -20.76 5 -33 5 C-32.34 4.01 -31.68 3.02 -31 2 C-27.92724609 1.65942383 -27.92724609 1.65942383 -24.0234375 1.70703125 C-23.33819 1.71127609 -22.6529425 1.71552094 -21.94692993 1.71989441 C-19.75588871 1.73670247 -17.56576368 1.77435595 -15.375 1.8125 C-13.89063827 1.82754421 -12.40626215 1.84123307 -10.921875 1.85351562 C-7.28095167 1.8866121 -3.64056522 1.93840793 0 2 C0 1.34 0 0.68 0 0 Z " fill="#010001" transform="translate(131,165)"/>
<path d="M0 0 C4.29 0 8.58 0 13 0 C13 0.99 13 1.98 13 3 C9.04 3 5.08 3 1 3 C0.67 2.01 0.34 1.02 0 0 Z " fill="#030202" transform="translate(132,161)"/>
<path d="M0 0 C0.66 0 1.32 0 2 0 C3.625 2.75 3.625 2.75 5 6 C4.1875 8.375 4.1875 8.375 3 10 C0 3.375 0 3.375 0 0 Z " fill="#141202" transform="translate(83,95)"/>
<path d="M0 0 C0.99 0.33 1.98 0.66 3 1 C2.34 1 1.68 1 1 1 C1 2.98 1 4.96 1 7 C0.01 6.67 -0.98 6.34 -2 6 C-1.125 1.125 -1.125 1.125 0 0 Z " fill="#1A1703" transform="translate(141,120)"/>
</svg>
