<?xml version="1.0" standalone="no"?>
<!DOCTYPE svg PUBLIC "-//W3C//DTD SVG 20010904//EN"
 "http://www.w3.org/TR/2001/REC-SVG-20010904/DTD/svg10.dtd">
<svg version="1.0" xmlns="http://www.w3.org/2000/svg"
 width="225.000000pt" height="225.000000pt" viewBox="0 0 225.000000 225.000000"
 preserveAspectRatio="xMidYMid meet">

<g transform="translate(0.000000,225.000000) scale(0.100000,-0.100000)"
fill="#000000" stroke="none">
<path d="M200 1710 l0 -300 49 0 c35 0 51 -4 55 -15 8 -21 100 -63 154 -71 38
-6 43 -9 38 -28 -24 -97 -14 -187 34 -296 44 -99 107 -179 184 -231 36 -24 66
-50 66 -57 0 -7 18 -32 40 -56 28 -31 40 -52 41 -77 1 -30 12 -63 39 -119 5
-10 -4 -25 -28 -46 -32 -27 -36 -36 -40 -92 -5 -66 -8 -72 -55 -81 -17 -4 -32
-12 -35 -19 -3 -9 26 -12 117 -12 101 0 121 2 121 15 0 8 5 15 12 15 6 0 3 9
-7 20 -10 11 -13 20 -7 20 6 0 17 12 25 28 7 15 20 25 28 23 29 -8 205 -8 226
0 19 7 26 4 40 -19 10 -15 21 -29 25 -32 4 -3 3 -12 -2 -20 -5 -8 -5 -21 1
-32 8 -16 24 -18 124 -18 72 0 115 4 115 10 0 6 -8 13 -17 16 -71 23 -74 25
-67 60 7 40 -27 120 -57 129 -24 8 -24 21 0 68 11 21 25 62 32 90 7 29 23 62
35 73 12 12 29 35 38 51 8 17 35 42 58 56 77 45 178 175 178 228 0 15 7 54 15
86 19 71 19 136 2 195 l-14 44 69 18 c44 12 82 29 103 47 25 22 43 29 74 29
l41 0 0 300 0 300 -925 0 -925 0 0 -300z m620 185 c0 -21 -5 -25 -30 -25 -39
0 -41 -27 -2 -32 24 -3 27 -8 30 -44 4 -56 -11 -66 -95 -62 -65 3 -68 4 -68
28 0 22 5 25 38 28 47 4 49 22 2 22 l-35 0 0 48 c0 27 3 52 7 55 3 4 39 7 80
7 71 0 73 -1 73 -25z m100 -35 c0 -33 4 -60 10 -60 6 0 10 27 10 60 l0 60 35
0 35 0 0 -77 c0 -95 -13 -113 -79 -113 -26 0 -56 7 -69 16 -20 13 -22 24 -22
95 l0 79 40 0 40 0 0 -60z m290 5 c0 -59 -14 -75 -64 -75 -22 0 -26 -4 -26
-30 0 -28 -2 -30 -40 -30 l-40 0 0 95 0 95 85 0 85 0 0 -55z m180 35 c0 -16
-7 -20 -30 -20 -39 0 -41 -27 -3 -32 17 -2 29 -10 31 -20 3 -14 -3 -18 -27
-18 -24 0 -31 -4 -31 -20 0 -16 7 -20 30 -20 23 0 30 -4 30 -20 0 -18 -7 -20
-80 -20 l-80 0 0 95 0 95 80 0 c73 0 80 -2 80 -20z m190 -29 c0 -28 -4 -53
-10 -56 -6 -4 -4 -19 5 -42 19 -46 21 -43 -20 -43 -24 0 -38 6 -42 16 -5 15
-7 15 -15 0 -6 -10 -22 -16 -43 -16 l-35 0 0 95 0 95 80 0 80 0 0 -49z m-840
-266 l0 -95 -30 0 -30 0 -2 68 -2 67 -3 -67 c-4 -68 -4 -68 -33 -68 l-30 0 -2
68 -1 67 -6 -65 c-6 -62 -7 -65 -33 -68 l-28 -3 0 83 c0 49 5 89 11 95 7 7 48
12 100 12 l89 0 0 -94z m200 12 c0 -51 -5 -88 -12 -95 -7 -7 -40 -12 -78 -12
-38 0 -71 5 -78 12 -16 16 -16 150 0 166 7 7 43 12 90 12 l78 0 0 -83z m104
61 l16 -22 0 22 c0 19 5 22 35 22 l35 0 0 -95 0 -95 -39 0 c-31 0 -44 6 -60
28 l-20 27 -1 -27 c0 -23 -4 -28 -25 -28 -25 0 -25 0 -25 95 l0 95 34 0 c25 0
39 -7 50 -22z m186 5 c1 -17 1 -17 11 0 6 11 22 17 44 17 19 0 35 -2 35 -5 0
-3 -10 -24 -21 -47 l-21 -42 21 -43 c11 -24 21 -46 21 -48 0 -3 -16 -5 -35 -5
-22 0 -38 6 -44 18 -10 16 -10 16 -11 0 0 -14 -9 -18 -40 -18 l-40 0 0 95 0
95 40 0 c31 0 40 -4 40 -17z m270 -3 c0 -16 -7 -20 -30 -20 -39 0 -41 -27 -3
-32 17 -2 29 -10 31 -20 3 -14 -3 -18 -27 -18 -24 0 -31 -4 -31 -20 0 -16 7
-20 30 -20 24 0 30 -4 30 -20 0 -19 -5 -21 -77 -18 l-78 3 -3 93 -3 92 81 0
c73 0 80 -2 80 -20z m113 8 c4 -10 7 -10 15 0 5 8 23 12 45 10 l36 -3 -19 -44
c-11 -24 -20 -65 -20 -92 l0 -49 -50 0 -50 0 0 50 c0 31 -8 66 -20 90 -11 22
-20 42 -20 45 0 11 79 4 83 -7z m-985 -288 c-10 -6 -25 -7 -40 -1 -20 9 -18
10 17 10 31 0 36 -2 23 -9z m925 -31 l27 -41 -35 -39 c-19 -22 -43 -57 -51
-79 -17 -42 -55 -63 -77 -41 -6 6 -32 11 -58 11 -43 0 -46 2 -42 23 3 17 -11
37 -62 86 -50 48 -63 66 -55 76 9 10 3 13 -25 12 -30 -1 -48 -12 -116 -79 -64
-62 -79 -82 -74 -98 6 -18 2 -20 -42 -20 -27 0 -54 -5 -60 -11 -6 -6 -24 -8
-42 -4 -25 5 -35 17 -56 62 -14 31 -41 70 -60 88 -34 33 -34 34 -19 64 l15 31
403 0 402 0 27 -41z m109 30 c-15 -6 -30 -5 -40 1 -13 7 -8 9 23 9 35 0 37 -1
17 -10z m-563 -235 c2 -2 1 -10 -3 -19 -10 -26 -60 -16 -64 13 -3 22 -1 23 30
17 18 -4 35 -9 37 -11z m171 -4 c0 -24 -26 -37 -48 -23 -27 16 -24 31 5 36 15
2 31 5 36 6 4 0 7 -8 7 -19z"/>
<path d="M1122 1860 c0 -14 2 -19 5 -12 2 6 2 18 0 25 -3 6 -5 1 -5 -13z"/>
<path d="M1502 1860 c0 -14 2 -19 5 -12 2 6 2 18 0 25 -3 6 -5 1 -5 -13z"/>
<path d="M840 1610 c0 -11 5 -20 10 -20 6 0 10 9 10 20 0 11 -4 20 -10 20 -5
0 -10 -9 -10 -20z"/>
</g>
</svg>
