<?xml version="1.0" encoding="UTF-8"?>
<svg version="1.1" xmlns="http://www.w3.org/2000/svg" width="1620" height="1620">
<path d="M0 0 C534.6 0 1069.2 0 1620 0 C1620 534.6 1620 1069.2 1620 1620 C1085.4 1620 550.8 1620 0 1620 C0 1085.4 0 550.8 0 0 Z " fill="#1B74CD" transform="translate(0,0)"/>
<path d="M0 0 C13.06226898 5.89050091 21.75236467 17.31490934 26.97265625 30.33203125 C29.99518211 39.03409407 30.73282932 49.19356797 27.18505859 57.86743164 C23.50858134 65.05647187 17.18766122 69.7730246 10.5625 74.0625 C8.86900152 75.19022058 7.17632932 76.31918274 5.484375 77.44921875 C4.59943359 78.03622559 3.71449219 78.62323242 2.80273438 79.22802734 C-1.9050765 82.37971042 -6.54345803 85.63041325 -11.1875 88.875 C-13.13268776 90.23064775 -15.07800139 91.58611492 -17.0234375 92.94140625 C-17.99635742 93.61961426 -18.96927734 94.29782227 -19.97167969 94.99658203 C-22.95079548 97.07176131 -25.93205813 99.14381783 -28.9140625 101.21484375 C-38.21202758 107.6734665 -47.49528733 114.15003612 -56.73022461 120.69848633 C-61.90543806 124.35824759 -67.1334554 127.93608945 -72.375 131.5 C-79.45993034 136.31959718 -86.43284439 141.27302057 -93.36108398 146.31469727 C-99.53200196 150.79601586 -105.79176926 155.13531953 -112.09375 159.4296875 C-116.73776275 162.59853606 -121.33455643 165.8344397 -125.9375 169.0625 C-133.589746 174.41672869 -141.25773748 179.74782291 -148.9375 185.0625 C-149.72576172 185.61035156 -150.51402344 186.15820312 -151.32617188 186.72265625 C-153.33626452 188.11607794 -155.35375433 189.4978266 -157.375 190.875 C-157.93405029 191.26469971 -158.49310059 191.65439941 -159.0690918 192.0559082 C-166.68406002 197.19051327 -173.81624287 199.11174265 -182.9375 198.0625 C-199.88819227 194.59390524 -212.84128098 184.136711 -222.80078125 170.3359375 C-234.06508795 153.079102 -239.88094193 134.06649329 -235.62109375 113.58984375 C-234.56842759 109.69798656 -233.12163404 106.44686105 -230.9375 103.0625 C-230.52371094 102.40636719 -230.10992187 101.75023437 -229.68359375 101.07421875 C-226.18015851 96.36333324 -221.98879386 93.82323782 -216.76953125 91.31640625 C-216.06981705 90.97372208 -215.37010284 90.6310379 -214.64918518 90.27796936 C-206.62482938 86.37438059 -198.50376463 82.67965467 -190.375 79 C-187.41483222 77.65611816 -184.45536132 76.31070658 -181.49609375 74.96484375 C-180.40814514 74.47019119 -180.40814514 74.47019119 -179.29821777 73.96554565 C-167.73625807 68.70228734 -156.25585562 63.27075601 -144.78613281 57.81005859 C-130.3045155 50.91728189 -115.78698656 44.12215593 -101.16772461 37.5262146 C-90.58123575 32.74845251 -80.05952999 27.84603146 -69.5625 22.875 C-56.06774219 16.48582181 -42.49122525 10.32345784 -28.8112793 4.33984375 C-24.96387989 2.62974319 -21.15591662 0.83726379 -17.35302734 -0.96948242 C-11.17157406 -3.44668702 -6.09536412 -2.23133865 0 0 Z " fill="#FEB718" transform="translate(667.9375,857.9375)"/>
<path d="M0 0 C0.62818634 0.28919312 1.25637268 0.57838623 1.90359497 0.87634277 C3.96618736 1.83030947 6.01793352 2.80552884 8.0703125 3.78125 C9.53454605 4.46355061 10.99940306 5.14451468 12.46484375 5.82421875 C16.29206307 7.6042629 20.11024384 9.40282163 23.92565918 11.20800781 C27.53624134 12.91532984 31.15125421 14.61321758 34.765625 16.3125 C38.99831709 18.30363495 43.22992395 20.29700371 47.45849609 22.296875 C57.16371106 26.88290296 66.91339074 31.36145474 76.6953125 35.78125 C88.582052 41.15247969 100.40447497 46.64674001 112.19580078 52.22412109 C122.991027 57.32826453 133.82643895 62.33598758 144.6953125 67.28125 C156.83697392 72.80679037 168.93961212 78.40945272 181.0078125 84.09375 C181.73645508 84.43672119 182.46509766 84.77969238 183.21582031 85.13305664 C208.16378765 96.88246951 208.16378765 96.88246951 213.26171875 110.37109375 C214.45585095 114.09338867 215.07902702 117.38568656 215.1953125 121.28125 C215.288125 122.56515625 215.288125 122.56515625 215.3828125 123.875 C216.25604847 144.17773627 206.72233058 164.59182818 193.23046875 179.34375 C181.67270966 190.34691412 169.23393523 197.19943932 153.296875 197.7421875 C144.79127546 196.47813115 137.82624064 192.06315912 130.9453125 187.15625 C130.1195874 186.57931396 129.2938623 186.00237793 128.44311523 185.40795898 C126.0192235 183.70998886 123.60560101 181.9984579 121.1953125 180.28125 C120.5657666 179.83442871 119.9362207 179.38760742 119.28759766 178.92724609 C116.47966277 176.93290657 113.67931811 174.92829371 110.8828125 172.91796875 C93.48558413 160.44005578 75.80625379 148.34563969 58.22265625 136.1328125 C48.85547931 129.62452943 39.50174344 123.09965353 30.19384766 116.50683594 C25.55406754 113.22577668 20.8842147 109.99164887 16.1953125 106.78125 C10.03866007 102.56558511 3.92820844 98.28894866 -2.16137695 93.97705078 C-6.9003092 90.62235013 -11.65110045 87.28525263 -16.41088867 83.96020508 C-18.95550588 82.18188516 -21.49750579 80.39987784 -24.0390625 78.6171875 C-27.02021875 76.52655306 -30.00928311 74.44843414 -33.0078125 72.3828125 C-34.25277066 71.51586404 -35.49757372 70.64869279 -36.7421875 69.78125 C-37.80308594 69.0490625 -38.86398437 68.316875 -39.95703125 67.5625 C-45.86914949 62.82631749 -49.35153972 57.74819395 -50.8046875 50.28125 C-52.37225339 35.37025743 -47.02226585 22.31710289 -37.7734375 10.73828125 C-27.87746002 0.03556647 -13.87278488 -6.49795915 0 0 Z " fill="#FEB718" transform="translate(974.8046875,858.71875)"/>
<path d="M0 0 C1.18991069 0.90870641 2.3787149 1.81886355 3.56640625 2.73046875 C6.5713572 4.91885694 9.68101 6.94472811 12.78515625 8.98828125 C17.9549095 12.39583747 23.00461568 15.91805 27.97265625 19.61328125 C35.21790906 24.99891917 42.64749322 30.09212477 50.1171875 35.16015625 C55.02033378 38.49126935 59.87322419 41.89212591 64.72265625 45.30078125 C78.74379562 55.1416628 78.74379562 55.1416628 92.84765625 64.86328125 C98.47749846 68.71084716 104.02081802 72.66464876 109.53515625 76.67578125 C118.80041879 83.41169913 128.24630537 89.86684844 137.72265625 96.30078125 C153.05246403 106.71592282 153.05246403 106.71592282 160.47265625 112.17578125 C161.85710937 113.19285156 161.85710937 113.19285156 163.26953125 114.23046875 C168.96735294 119.03913992 172.15854749 124.41437966 173.01171875 131.8046875 C173.47427074 146.24892469 168.73473332 158.71019812 159.41015625 169.61328125 C152.03971496 177.39113387 143.77496665 182.81616095 132.9140625 183.5625 C128.57216419 183.48409554 125.09065511 182.11241824 121.22265625 180.23828125 C120.09645874 179.71633179 120.09645874 179.71633179 118.94750977 179.18383789 C116.19852766 177.90469888 113.46114053 176.60223913 110.72265625 175.30078125 C108.34696139 174.1848784 105.97075119 173.07014253 103.59375 171.95703125 C99.56135736 170.06796543 95.52966715 168.17746815 91.50097656 166.28051758 C81.86171992 161.74562305 72.18082561 157.31091939 62.47265625 152.92578125 C50.64643911 147.58215259 38.88632626 142.11045605 27.16015625 136.55078125 C16.57215543 131.53103788 5.97457923 126.54224213 -4.68920898 121.68481445 C-11.16570203 118.73244932 -17.62910993 115.75287954 -24.0859375 112.7578125 C-24.96330566 112.35091187 -25.84067383 111.94401123 -26.74462891 111.52478027 C-31.26473007 109.42782824 -35.78367804 107.32842746 -40.30126953 105.22607422 C-47.68414835 101.79367126 -55.06447034 98.36600572 -62.5234375 95.1015625 C-63.53390137 94.6569165 -64.54436523 94.21227051 -65.58544922 93.75415039 C-67.330249 92.99186373 -69.08007315 92.24089253 -70.83642578 91.50561523 C-79.27516694 87.81197805 -86.64446501 81.87111828 -90.14453125 73.13671875 C-95.94673918 56.61424094 -93.80527837 39.56880838 -86.48999023 23.93896484 C-83.11877862 17.11304411 -79.30689735 11.0455466 -74.27734375 5.30078125 C-73.7359375 4.61757813 -73.19453125 3.934375 -72.63671875 3.23046875 C-50.39802032 -24.1002681 -24.83222675 -18.52833386 0 0 Z " fill="#FEB718" transform="translate(524.27734375,579.69921875)"/>
<path d="M0 0 C11.70645844 -0.53922765 24.80730897 2.23549824 33.69140625 10.19140625 C39.43909728 15.82688639 41.74552645 20.74631959 42.515625 28.8359375 C42.6155072 29.85819679 42.6155072 29.85819679 42.71740723 30.90110779 C42.9458964 33.2680175 43.16250962 35.63586191 43.37890625 38.00390625 C43.54762977 39.79202082 43.71667131 41.5801054 43.88598633 43.36816406 C45.95492518 65.42222366 47.84701384 87.49373379 49.75463867 109.56225586 C51.41103414 128.70596186 53.10657576 147.84541177 54.85949135 166.98054504 C55.49467857 173.92349796 56.12507443 180.86688824 56.75586605 187.8102417 C57.37328401 194.59854647 57.99895434 201.38602965 58.63030529 208.17305183 C59.02361556 212.42278272 59.40905215 216.67320183 59.79242516 220.92383957 C59.97271748 222.90439804 60.15630461 224.8846598 60.34345436 226.86458206 C60.60101374 229.59373677 60.84676049 232.32372238 61.08984375 235.05419922 C61.16661441 235.83716999 61.24338507 236.62014076 61.32248211 237.42683792 C61.96506759 244.90907089 62.0378892 252.76367451 58.37890625 259.50390625 C57.97027344 260.28378906 57.56164062 261.06367187 57.140625 261.8671875 C49.21401539 274.57967461 35.42748275 280.91133699 21.39453125 284.61328125 C0.80432401 289.01696719 -20.3261943 286.29417561 -38.30859375 275.19140625 C-46.59738448 269.32830575 -52.68789913 261.57725047 -54.98950195 251.54492188 C-55.65054812 246.66926387 -55.09564718 241.82278606 -54.68359375 236.94140625 C-54.5858667 235.67079346 -54.48813965 234.40018066 -54.38745117 233.09106445 C-53.42235269 220.71527659 -52.26839973 208.35327502 -51.12255859 195.99316406 C-49.44068753 177.83292885 -47.85333746 159.66482111 -46.27072144 141.49572754 C-41.18868245 83.15351356 -41.18868245 83.15351356 -39.58154297 66.02612305 C-39.43064813 64.41715644 -39.27976876 62.80818839 -39.12890625 61.19921875 C-39.05763519 60.44089249 -38.98636414 59.68256622 -38.91293335 58.90126038 C-38.49158487 54.35783313 -38.11845502 49.81313345 -37.78234863 45.26261902 C-37.56502755 42.34920233 -37.32913585 39.43744075 -37.09094238 36.52566528 C-36.94135875 34.60367807 -36.81904893 32.67962559 -36.69824219 30.75561523 C-35.95042102 21.79760491 -33.3128788 16.38327943 -27.140625 9.921875 C-18.86493096 3.59905267 -10.32074308 0.85569613 0 0 Z " fill="#FEB718" transform="translate(807.30859375,947.80859375)"/>
<path d="M0 0 C15.69486327 13.41441305 25.88738096 33.0821826 27.77734375 53.6328125 C28.07584464 64.49824475 26.32445241 76.15180838 19.4375 84.9375 C14.06280806 90.58661457 7.55341551 93.62715527 0.5625 96.875 C-0.61368896 97.43147217 -1.78987793 97.98794434 -3.00170898 98.5612793 C-13.54479456 103.53668852 -24.17088851 108.33515767 -34.79516602 113.1340332 C-44.86523641 117.68627881 -54.88237855 122.34282886 -64.875 127.0625 C-65.58240326 127.39650818 -66.28980652 127.73051636 -67.01864624 128.074646 C-68.43547862 128.74363533 -69.85230301 129.41264156 -71.26911926 130.08166504 C-72.30959663 130.57297913 -72.30959663 130.57297913 -73.37109375 131.07421875 C-74.05914597 131.39918335 -74.74719818 131.72414795 -75.45610046 132.05895996 C-91.0924016 139.43964292 -106.76269166 146.75464256 -122.56005859 153.78491211 C-133.09130954 158.48050398 -143.50742992 163.42680561 -153.91796875 168.3828125 C-154.72059647 168.76468719 -155.52322418 169.14656189 -156.35017395 169.54000854 C-161.29910824 171.89490078 -161.29910824 171.89490078 -166.24584961 174.25439453 C-197.07667087 188.97206296 -197.07667087 188.97206296 -208.9375 185 C-221.08777507 179.99363666 -229.37211343 170.04392851 -234.875 158.3125 C-239.25613502 147.53829241 -240.52282047 136.50258883 -236.015625 125.47265625 C-232.119828 118.67595665 -225.32926465 114.73722535 -218.95141602 110.51928711 C-207.90199059 103.20306561 -197.04810966 95.61697446 -186.33642578 87.81640625 C-180.16903044 83.33983227 -173.90009228 79.02579443 -167.59765625 74.7421875 C-162.38090709 71.19308766 -157.20698989 67.59046702 -152.0625 63.9375 C-145.23802558 59.0918097 -138.35082299 54.34458171 -131.41992188 49.65234375 C-126.33194464 46.1948421 -121.34937805 42.61153279 -116.38330078 38.98144531 C-111.78258726 35.64777961 -107.109703 32.41981899 -102.4375 29.1875 C-95.4794718 24.36185226 -88.53371322 19.52100891 -81.625 14.625 C-75.48936776 10.2790187 -69.31612044 5.99169998 -63.11010742 1.74682617 C-59.3588443 -0.81987718 -55.63859413 -3.42360329 -51.9375 -6.0625 C-34.12713685 -18.53273751 -16.17439942 -12.41556012 0 0 Z " fill="#FEB718" transform="translate(1162.5625,576.0625)"/>
<path d="M0 0 C6.97875211 7.27916197 12.09778403 14.66993326 11.93823242 24.99853516 C11.85578671 26.5541348 11.76523269 28.10931903 11.66796875 29.6640625 C11.61916061 30.50442047 11.57035248 31.34477844 11.52006531 32.21060181 C11.03818424 40.11160419 10.33099028 47.98592955 9.55834961 55.86303711 C9.10769645 60.46757568 8.67286735 65.07360872 8.23828125 69.6796875 C8.14185333 70.70088684 8.04542542 71.72208618 7.94607544 72.77423096 C6.62003809 86.92085519 5.41600441 101.07838738 4.1954422 115.23441315 C2.13541605 139.11445632 0.0386093 162.98955452 -2.23719788 186.85017395 C-2.82385846 193.03901446 -3.37838441 199.23038547 -3.92433167 205.42294312 C-4.35662804 210.31117547 -4.79783651 215.19858529 -5.23995972 220.0859375 C-5.45269569 222.46139864 -5.66154341 224.83721163 -5.86624146 227.21337891 C-6.1517941 230.52217569 -6.45137422 233.82943723 -6.75390625 237.13671875 C-6.8350769 238.11803268 -6.91624756 239.09934662 -6.99987793 240.11039734 C-7.79704182 248.55953295 -9.49913973 255.50521366 -15.93359375 261.40234375 C-26.59591037 269.64598741 -40.78315985 272.3790138 -54 271 C-65.43429966 268.81203131 -74.27498076 264.75878354 -81.80859375 255.80859375 C-84.36106158 251.9338639 -85.27283013 248.12036317 -85.68261719 243.54467773 C-85.83390579 241.91816284 -85.83390579 241.91816284 -85.98825073 240.25878906 C-86.09009674 239.07897461 -86.19194275 237.89916016 -86.296875 236.68359375 C-86.4676506 234.81054565 -86.4676506 234.81054565 -86.64187622 232.8996582 C-86.95449502 229.46817196 -87.2575179 226.03589734 -87.55886078 222.603405 C-87.88281924 218.93245125 -88.21569252 215.26230448 -88.54736328 211.59204102 C-89.30948534 203.13753941 -90.0580494 194.68186497 -90.80363464 186.22589111 C-91.05379412 183.39021911 -91.30466002 180.55460986 -91.55558586 177.71900558 C-92.51219684 166.90848652 -93.46774884 156.09787262 -94.41339684 145.2863884 C-95.95616005 127.65090143 -97.53984457 110.01952131 -99.15625 92.390625 C-99.34207506 90.36137609 -99.52787629 88.33212499 -99.71365356 86.3028717 C-100.53725226 77.31007923 -101.36242156 68.3174436 -102.1946907 59.32544899 C-102.53805587 55.6089882 -102.87886719 51.89229617 -103.21907043 48.17554474 C-103.37856513 46.43954198 -103.53919417 44.70364301 -103.70103455 42.96785736 C-103.92388046 40.57672936 -104.14280299 38.18527179 -104.36083984 35.79370117 C-104.45893102 34.75715472 -104.45893102 34.75715472 -104.55900383 33.69966793 C-105.53509916 22.85061114 -104.68328265 14.84552115 -98 6 C-97.34 5.05125 -96.68 4.1025 -96 3.125 C-88.52689612 -5.52926316 -77.69027953 -9.86028651 -67 -13 C-66.19433594 -13.24621094 -65.38867188 -13.49242187 -64.55859375 -13.74609375 C-43.09333175 -19.15907286 -17.21575851 -13.67755047 0 0 Z " fill="#FEB718" transform="translate(857,400)"/>
<path d="M0 0 C0.79148437 -0.0093457 1.58296875 -0.01869141 2.3984375 -0.02832031 C7.96822718 0.00169928 13.05399034 0.84009053 18.4375 2.25 C14.67484629 6.01265371 8.50067103 5.24302309 3.40527344 5.26025391 C-0.88486647 5.18734695 -5.1727671 5.0982215 -9.4609375 4.94726562 C-16.2995281 4.83467907 -20.83805447 5.35438564 -26.5625 9.25 C-27.3076415 11.31706722 -27.3076415 11.31706722 -27.5625 13.25 C-29.5425 13.58 -31.5225 13.91 -33.5625 14.25 C-33.5625 13.59 -33.5625 12.93 -33.5625 12.25 C-34.7071875 12.5284375 -34.7071875 12.5284375 -35.875 12.8125 C-38.5625 13.25 -38.5625 13.25 -41.5625 12.25 C-28.07833631 4.42553364 -15.5900263 0.1265033 0 0 Z " fill="#F9B619" transform="translate(809.5625,384.75)"/>
<path d="M0 0 C0.495 0.33 0.99 0.66 1.5 1 C-0.375 2.0625 -0.375 2.0625 -2.5 3 C-3.16 2.67 -3.82 2.34 -4.5 2 C-4.5 2.66 -4.5 3.32 -4.5 4 C-3.84 4.66 -3.18 5.32 -2.5 6 C-4.43681161 6.08107583 -6.3745934 6.13922475 -8.3125 6.1875 C-9.39144531 6.22230469 -10.47039063 6.25710938 -11.58203125 6.29296875 C-14.5 6 -14.5 6 -16.38671875 4.48828125 C-16.93779297 3.75158203 -16.93779297 3.75158203 -17.5 3 C-17.83 3.99 -18.16 4.98 -18.5 6 C-18.83 4.68 -19.16 3.36 -19.5 2 C-13.04219928 -0.51136695 -6.77496516 -2.70998606 0 0 Z " fill="#F8B717" transform="translate(970.5,857)"/>
<path d="M0 0 C0.33 0.99 0.66 1.98 1 3 C0.34 3 -0.32 3 -1 3 C-1.33 3.66 -1.66 4.32 -2 5 C-2.33 5.33 -2.66 5.66 -3 6 C-3.99 6 -4.98 6 -6 6 C-6.33 7.32 -6.66 8.64 -7 10 C-7.7425 9.95875 -8.485 9.9175 -9.25 9.875 C-11.93865617 9.81068025 -11.93865617 9.81068025 -13.875 10.9375 C-16.82443265 12.41221632 -19.74795773 12.58610371 -23 13 C-23.99 13.33 -24.98 13.66 -26 14 C-26 13.34 -26 12.68 -26 12 C-17.42 8.04 -8.84 4.08 0 0 Z " fill="#F3B51F" transform="translate(622,870)"/>
<path d="M0 0 C3.07318258 0.07087004 6.01067734 0.25534794 9 1 C10.6875 3.375 10.6875 3.375 12 6 C14.83440898 8.04273132 14.83440898 8.04273132 18 9 C20.35460678 8.32575833 20.35460678 8.32575833 22 7 C21.34 8.32 20.68 9.64 20 11 C20.66 11 21.32 11 22 11 C21.67 11.66 21.34 12.32 21 13 C20.34 12.67 19.68 12.34 19 12 C18.34 13.32 17.68 14.64 17 16 C16.236875 15.01 15.47375 14.02 14.6875 13 C11.08270371 8.7437345 6.76238434 5.75588678 2.1953125 2.6015625 C1.47085937 2.07304688 0.74640625 1.54453125 0 1 C0 0.67 0 0.34 0 0 Z " fill="#1F77C6" transform="translate(1154,570)"/>
<path d="M0 0 C-0.020625 1.216875 -0.04125 2.43375 -0.0625 3.6875 C-0.0625 6.94680431 0.29988105 9.81056924 1 13 C1.25077681 14.55917754 1.47813189 16.12222411 1.6875 17.6875 C1.79449219 18.45449219 1.90148437 19.22148438 2.01171875 20.01171875 C2 22 2 22 0 24 C-1.03621277 21.27581165 -2.05411937 18.54697784 -3.0625 15.8125 C-3.35705078 15.04357422 -3.65160156 14.27464844 -3.95507812 13.48242188 C-6.68245423 6.00620267 -6.68245423 6.00620267 -5 2 C-2 0 -2 0 0 0 Z " fill="#F6B61D" transform="translate(438,992)"/>
<path d="M0 0 C1.32 0 2.64 0 4 0 C4 0.66 4 1.32 4 2 C3.34 2 2.68 2 2 2 C1.14626761 9.02804699 0.87890689 15.92278069 1 23 C0.34 23 -0.32 23 -1 23 C-1.33 23.66 -1.66 24.32 -2 25 C-3.70159453 8.29157175 -3.70159453 8.29157175 0 0 Z " fill="#EBB223" transform="translate(755,412)"/>
<path d="M0 0 C0.99 0.33 1.98 0.66 3 1 C2.649375 1.66 2.29875 2.32 1.9375 3 C0.92957324 6.22536565 1.23120038 8.31270812 1.7734375 11.59765625 C2.22650061 16.40168751 1.51798343 21.21861453 1 26 C1.66 26 2.32 26 3 26 C3.05406122 27.93719378 3.09282025 29.87481921 3.125 31.8125 C3.14820313 32.89144531 3.17140625 33.97039063 3.1953125 35.08203125 C3 38 3 38 1 41 C0.56900023 36.69535155 0.14188338 32.39034024 -0.28173828 28.08496094 C-0.42619545 26.62229169 -0.57168795 25.15972429 -0.71826172 23.69726562 C-0.92952539 21.58750324 -1.13698525 19.47739498 -1.34375 17.3671875 C-1.46943359 16.09987793 -1.59511719 14.83256836 -1.72460938 13.52685547 C-2.46771915 4.01004361 -2.46771915 4.01004361 0 0 Z " fill="#2877C1" transform="translate(851,970)"/>
<path d="M0 0 C5.92141843 2.05436966 10.16635232 4.96427635 14 10 C14.6953125 12.22265625 14.6953125 12.22265625 15 14 C7.9151671 11.19280206 7.9151671 11.19280206 5 8 C3.68252676 7.30251417 2.35085807 6.63040043 1 6 C0 5 0 5 -0.0625 2.4375 C-0.041875 1.633125 -0.02125 0.82875 0 0 Z " fill="#F9B61D" transform="translate(1170,950)"/>
<path d="M0 0 C0.33 0 0.66 0 1 0 C1.05416741 2.72943537 1.09375225 5.45778564 1.125 8.1875 C1.15013672 9.34088867 1.15013672 9.34088867 1.17578125 10.51757812 C1.21266851 14.8149434 0.9958504 18.07901831 -1 22 C-1.66 22 -2.32 22 -3 22 C-3.33 25.3 -3.66 28.6 -4 32 C-4.33 32 -4.66 32 -5 32 C-4.67 25.07 -4.34 18.14 -4 11 C-2.68 11 -1.36 11 0 11 C0 7.37 0 3.74 0 0 Z " fill="#2678C2" transform="translate(870,437)"/>
<path d="M0 0 C-3.7956004 4.13118702 -8.28291607 5.78339331 -13.79296875 6.22265625 C-18.35260175 6.26572971 -22.54146843 5.99614039 -27 5 C-27 4.67 -27 4.34 -27 4 C-23.535 3.505 -23.535 3.505 -20 3 C-20 2.67 -20 2.34 -20 2 C-17.69 2 -15.38 2 -13 2 C-14.98 2.99 -14.98 2.99 -17 4 C-15.02 4 -13.04 4 -11 4 C-11 3.01 -11 2.02 -11 1 C-7.2297564 -1.56376565 -4.32597804 -0.83191885 0 0 Z " fill="#E9B227" transform="translate(507,1050)"/>
<path d="M0 0 C4.12272034 1.4187299 8.06158206 3.13408287 12 5 C9 7 9 7 6.90625 6.86328125 C5.71515625 6.59064453 5.71515625 6.59064453 4.5 6.3125 C3.62601563 6.11527344 2.75203125 5.91804687 1.8515625 5.71484375 C-2.78731116 4.55194803 -7.40099792 3.31150249 -12 2 C-7.98336906 -0.67775396 -4.64107884 -0.69279872 0 0 Z " fill="#F4B61E" transform="translate(662,856)"/>
<path d="M0 0 C0.99 0.33 1.98 0.66 3 1 C3 2.32 3 3.64 3 5 C3.66 5 4.32 5 5 5 C5.45375 5.61875 5.9075 6.2375 6.375 6.875 C7.84174937 9.11515073 7.84174937 9.11515073 10.125 10.0625 C10.74375 10.371875 11.3625 10.68125 12 11 C12.33 11.99 12.66 12.98 13 14 C9.71752569 14 9.17433033 13.66923327 6.64453125 11.8125 C5.71157227 11.13574219 5.71157227 11.13574219 4.75976562 10.4453125 C4.11716797 9.96835938 3.47457031 9.49140625 2.8125 9 C2.15830078 8.52304688 1.50410156 8.04609375 0.83007812 7.5546875 C-0.78457682 6.37610725 -2.39290497 5.18886818 -4 4 C-2.68 2.68 -1.36 1.36 0 0 Z " fill="#F4B51B" transform="translate(1075,1017)"/>
<path d="M0 0 C1.75129657 1.10210905 3.50098464 2.20677432 5.25 3.3125 C6.22453125 3.92738281 7.1990625 4.54226563 8.203125 5.17578125 C13.02259887 8.31920904 13.02259887 8.31920904 15 10 C15 10.66 15 11.32 15 12 C10.36574638 12.32332002 7.71316711 11.8644432 4 9 C3.67 8.01 3.34 7.02 3 6 C2.34 5.67 1.68 5.34 1 5 C0.375 2.4375 0.375 2.4375 0 0 Z " fill="#EFB323" transform="translate(508,569)"/>
<path d="M0 0 C0.33 0 0.66 0 1 0 C1.33719047 2.56204544 1.66987153 5.12454318 2 7.6875 C2.09539063 8.40873047 2.19078125 9.12996094 2.2890625 9.87304688 C2.76683735 13.60992871 3.11919794 17.22291531 3 21 C1.35 20.67 -0.3 20.34 -2 20 C-1.85919445 17.22882696 -1.71256882 14.45817359 -1.5625 11.6875 C-1.52318359 10.90181641 -1.48386719 10.11613281 -1.44335938 9.30664062 C-1.40146484 8.54931641 -1.35957031 7.79199219 -1.31640625 7.01171875 C-1.27974854 6.31522217 -1.24309082 5.61872559 -1.20532227 4.90112305 C-1 3 -1 3 0 0 Z " fill="#1D77C9" transform="translate(852,616)"/>
<path d="M0 0 C1.23073242 -0.00580078 1.23073242 -0.00580078 2.48632812 -0.01171875 C7.2837763 -0.00406121 11.83194388 0.32277918 16.5625 1.125 C16.2325 1.785 15.9025 2.445 15.5625 3.125 C9.2925 3.125 3.0225 3.125 -3.4375 3.125 C-3.4375 2.795 -3.4375 2.465 -3.4375 2.125 C-7.0675 2.455 -10.6975 2.785 -14.4375 3.125 C-14.7675 2.465 -15.0975 1.805 -15.4375 1.125 C-10.25050423 0.06574317 -5.26683797 -0.02470761 0 0 Z " fill="#E8B02C" transform="translate(809.4375,384.875)"/>
<path d="M0 0 C2 2 2 2 2.23046875 4.14453125 C2.11266902 11.45882374 1.64869802 18.71373114 1 26 C-2.49614359 19.94001778 -2.02967177 14.26904954 -1.0625 7.625 C-0.96259766 6.88894531 -0.86269531 6.15289063 -0.75976562 5.39453125 C-0.51441035 3.59525923 -0.25830463 1.79745869 0 0 Z " fill="#F3B61E" transform="translate(852,582)"/>
<path d="M0 0 C0.66 0.66 1.32 1.32 2 2 C1.67 2.763125 1.34 3.52625 1 4.3125 C-0.17436686 6.99069135 -0.17436686 6.99069135 0 10 C-4.875 9.125 -4.875 9.125 -6 8 C-6.33 8.66 -6.66 9.32 -7 10 C-7.99 10 -8.98 10 -10 10 C-9.65514457 7.1157546 -9.21744593 6.1792182 -6.93359375 4.296875 C-6.10988281 3.78640625 -5.28617188 3.2759375 -4.4375 2.75 C-3.61121094 2.22921875 -2.78492188 1.7084375 -1.93359375 1.171875 C-1.29550781 0.78515625 -0.65742187 0.3984375 0 0 Z " fill="#F4B41F" transform="translate(1015,637)"/>
<path d="M0 0 C0.66 0.66 1.32 1.32 2 2 C-1.91433164 7.07622259 -5.85915736 12.10627688 -10 17 C-11.32 16.34 -12.64 15.68 -14 15 C-13.01 14.34 -12.02 13.68 -11 13 C-10.27617533 10.94074861 -10.27617533 10.94074861 -10 9 C-8.02 8.67 -6.04 8.34 -4 8 C-4 6.68 -4 5.36 -4 4 C-3.34 4 -2.68 4 -2 4 C-1.34 2.68 -0.68 1.36 0 0 Z " fill="#EBB422" transform="translate(1176,1023)"/>
<path d="M0 0 C0 0.99 0 1.98 0 3 C-1.8984375 4.60546875 -1.8984375 4.60546875 -4.375 6.1875 C-5.18710937 6.71730469 -5.99921875 7.24710938 -6.8359375 7.79296875 C-9 9 -9 9 -11 9 C-10.67470941 6.07238473 -10.40430823 3.67384706 -8.875 1.125 C-5.98014 -0.611916 -3.29140103 -0.18630572 0 0 Z " fill="#F1B51E" transform="translate(667,937)"/>
<path d="M0 0 C0.66 0.66 1.32 1.32 2 2 C0.41450777 6.84455959 0.41450777 6.84455959 -1 9 C-4.1875 9.9375 -4.1875 9.9375 -7 10 C-7 9.34 -7 8.68 -7 8 C-7.66 7.67 -8.32 7.34 -9 7 C-6.03 4.69 -3.06 2.38 0 0 Z " fill="#EEB423" transform="translate(463,573)"/>
<path d="M0 0 C0.33 0 0.66 0 1 0 C1 8.58 1 17.16 1 26 C-2.37654663 21.49793783 -2.37654663 21.49793783 -2.109375 17.3046875 C-2.05910156 16.42425781 -2.00882813 15.54382812 -1.95703125 14.63671875 C-1.88871094 13.72535156 -1.82039062 12.81398438 -1.75 11.875 C-1.67072266 10.49634766 -1.67072266 10.49634766 -1.58984375 9.08984375 C-1.16272321 2.32544643 -1.16272321 2.32544643 0 0 Z " fill="#F1B321" transform="translate(764,1065)"/>
<path d="M0 0 C0.33 0 0.66 0 1 0 C1.2144997 8.27015524 1.07422976 15.96235969 -1 24 C-1.66 23.67 -2.32 23.34 -3 23 C-2.91621094 22.40832031 -2.83242187 21.81664062 -2.74609375 21.20703125 C-2.04369964 16.33039195 -2.04369964 16.33039195 -2.625 11.5 C-3.2413858 7.39076136 -1.46895805 3.80933189 0 0 Z " fill="#EFB322" transform="translate(1189,626)"/>
<path d="M0 0 C0.66 0 1.32 0 2 0 C2.33 0.99 2.66 1.98 3 3 C3.66 2.01 4.32 1.02 5 0 C5.24991456 6.65050424 4.73955334 12.56986533 3 19 C0.51955685 15.27933528 0.55618827 12.13459526 0.375 7.8125 C0.33632813 7.06291016 0.29765625 6.31332031 0.2578125 5.54101562 C0.16371784 3.69440801 0.08077681 1.8472381 0 0 Z " fill="#2278C2" transform="translate(857,1064)"/>
<path d="M0 0 C0.66 0 1.32 0 2 0 C1.67 3.63 1.34 7.26 1 11 C-0.32 11.33 -1.64 11.66 -3 12 C-3.33 12.66 -3.66 13.32 -4 14 C-4.66 13.67 -5.32 13.34 -6 13 C-5.37935063 11.39414507 -4.7533082 9.79037383 -4.125 8.1875 C-3.77695312 7.29417969 -3.42890625 6.40085937 -3.0703125 5.48046875 C-2 3 -2 3 0 0 Z " fill="#F3B520" transform="translate(932,877)"/>
<path d="M0 0 C0.33 0.99 0.66 1.98 1 3 C0.34 3 -0.32 3 -1 3 C-0.67 3.99 -0.34 4.98 0 6 C-1.98 6 -3.96 6 -6 6 C-6.33 7.65 -6.66 9.3 -7 11 C-10.4342662 11.85856655 -12.61682513 11.97591583 -16 11 C-15.18015625 10.45730469 -14.3603125 9.91460938 -13.515625 9.35546875 C-12.43796875 8.64003906 -11.3603125 7.92460938 -10.25 7.1875 C-9.18265625 6.47980469 -8.1153125 5.77210938 -7.015625 5.04296875 C-4.6207009 3.42050074 -2.29166502 1.76324711 0 0 Z " fill="#EFB226" transform="translate(963,673)"/>
<path d="M0 0 C0 0.66 0 1.32 0 2 C-1.32 2 -2.64 2 -4 2 C-4.04125 2.5775 -4.0825 3.155 -4.125 3.75 C-5.46262649 7.18961098 -7.85957625 8.2413627 -11 10 C-11.99 10 -12.98 10 -14 10 C-14.33 8.68 -14.66 7.36 -15 6 C-12.87717331 4.99539469 -10.75166979 3.99644398 -8.625 3 C-7.44164062 2.443125 -6.25828125 1.88625 -5.0390625 1.3125 C-2 0 -2 0 0 0 Z " fill="#EFB324" transform="translate(510,923)"/>
<path d="M0 0 C0.66 0.66 1.32 1.32 2 2 C-3.73443815 3.37127869 -8.14366933 4.14269867 -14 3 C-14.99 3.66 -15.98 4.32 -17 5 C-17.66 4.67 -18.32 4.34 -19 4 C-19 3.34 -19 2.68 -19 2 C-12.70160821 0.0985987 -6.58614785 -0.75396979 0 0 Z " fill="#E3AF2C" transform="translate(496,563)"/>
<path d="M0 0 C0.33 0.99 0.66 1.98 1 3 C-2 4.5 -2 4.5 -5 6 C-5.33 6.99 -5.66 7.98 -6 9 C-8.97 8.67 -11.94 8.34 -15 8 C-11.9377256 5.51372483 -8.8542946 3.90010596 -5.25 2.3125 C-4.26515625 1.87550781 -3.2803125 1.43851563 -2.265625 0.98828125 C-1.14414062 0.49908203 -1.14414062 0.49908203 0 0 Z " fill="#ECB324" transform="translate(639,862)"/>
<path d="M0 0 C2 1 2 1 3 3 C3.94875 2.814375 4.8975 2.62875 5.875 2.4375 C9 2 9 2 11 3 C11 3.66 11 4.32 11 5 C10.34 5 9.68 5 9 5 C9 5.66 9 6.32 9 7 C6.27958849 7.75566986 4.4981783 8.13838286 1.75 7.375 C0 6 0 6 -0.8125 3.4375 C-0.874375 2.633125 -0.93625 1.82875 -1 1 C-0.67 0.67 -0.34 0.34 0 0 Z " fill="#FCB41D" transform="translate(469,672)"/>
<path d="M0 0 C1.32 0 2.64 0 4 0 C4 0.66 4 1.32 4 2 C4.598125 1.649375 5.19625 1.29875 5.8125 0.9375 C8 0 8 0 11 1 C10.67 1.99 10.34 2.98 10 4 C11.32 4.66 12.64 5.32 14 6 C14 6.66 14 7.32 14 8 C9.0276578 6.50829734 4.58154261 4.39542583 0 2 C0 1.34 0 0.68 0 0 Z " fill="#1D79C7" transform="translate(1146,937)"/>
<path d="M0 0 C0.66 0.66 1.32 1.32 2 2 C3.99571323 2.67939174 5.99594773 3.34561559 8 4 C8.99 4.66 9.98 5.32 11 6 C11.33 5.34 11.66 4.68 12 4 C12 4.99 12 5.98 12 7 C10.68 7.99 9.36 8.98 8 10 C5.03 7.69 2.06 5.38 -1 3 C-0.67 2.01 -0.34 1.02 0 0 Z " fill="#F4B41F" transform="translate(932,920)"/>
<path d="M0 0 C2.97 0 5.94 0 9 0 C8.01 0.495 8.01 0.495 7 1 C7 1.66 7 2.32 7 3 C7.66 3.33 8.32 3.66 9 4 C9 4.99 9 5.98 9 7 C7.375 7.6875 7.375 7.6875 5 8 C1.75 6.5625 1.75 6.5625 -1 5 C-0.01 4.34 0.98 3.68 2 3 C2 3.66 2 4.32 2 5 C2.99 5 3.98 5 5 5 C5 4.01 5 3.02 5 2 C3.35 1.67 1.7 1.34 0 1 C0 0.67 0 0.34 0 0 Z " fill="#FDB41F" transform="translate(591,729)"/>
<path d="M0 0 C3.375 -0.1875 3.375 -0.1875 7 0 C7.66 0.99 8.32 1.98 9 3 C5.04 4.65 1.08 6.3 -3 8 C-3 6.35 -3 4.7 -3 3 C-1.02 2.67 0.96 2.34 3 2 C2.01 1.34 1.02 0.68 0 0 Z " fill="#F4B321" transform="translate(1061,713)"/>
<path d="M0 0 C0.99 0.33 1.98 0.66 3 1 C3.33 1.99 3.66 2.98 4 4 C3 5 3 5 0.4375 5.0625 C-0.7690625 5.0315625 -0.7690625 5.0315625 -2 5 C-2.33 5.99 -2.66 6.98 -3 8 C-5.31 8 -7.62 8 -10 8 C-8.33333333 6.66666667 -6.66666667 5.33333333 -5 4 C-4.13375 3.236875 -3.2675 2.47375 -2.375 1.6875 C-1.59125 1.130625 -0.8075 0.57375 0 0 Z " fill="#2278C5" transform="translate(633,962)"/>
<path d="M0 0 C-0.99 0.66 -1.98 1.32 -3 2 C-2.34 3.65 -1.68 5.3 -1 7 C-5.23429756 5.68938409 -9.07407404 4.05643741 -13 2 C-13 1.34 -13 0.68 -13 0 C-12.46375 0.20625 -11.9275 0.4125 -11.375 0.625 C-6.95326639 1.32316847 -4.41849995 -1.47283332 0 0 Z " fill="#F0B422" transform="translate(631,745)"/>
<path d="M0 0 C0.66 0.33 1.32 0.66 2 1 C1 4 1 4 -1.1796875 5.38671875 C-2.06914063 5.81597656 -2.95859375 6.24523437 -3.875 6.6875 C-4.75929688 7.12449219 -5.64359375 7.56148437 -6.5546875 8.01171875 C-9 9 -9 9 -12 9 C-12 8.34 -12 7.68 -12 7 C-10.35 6.67 -8.7 6.34 -7 6 C-7 5.34 -7 4.68 -7 4 C-7.99 3.67 -8.98 3.34 -10 3 C-6.60494113 2.02998318 -3.52935443 2 0 2 C0 1.34 0 0.68 0 0 Z " fill="#F3B71F" transform="translate(1172,664)"/>
<path d="M0 0 C1.15941038 3.47823115 0.70820884 5.45895578 0 9 C-1.65 8.67 -3.3 8.34 -5 8 C-6.485 10.475 -6.485 10.475 -8 13 C-9.32 12.34 -10.64 11.68 -12 11 C-11.46890625 10.62488281 -10.9378125 10.24976563 -10.390625 9.86328125 C-6.31226272 6.90870127 -2.93808 4.16228001 0 0 Z " fill="#2D7AC1" transform="translate(863,1211)"/>
<path d="M0 0 C0.33 0.66 0.66 1.32 1 2 C1.66 2.33 2.32 2.66 3 3 C1.02 3.66 -0.96 4.32 -3 5 C-3 5.99 -3 6.98 -3 8 C-5.31 8.33 -7.62 8.66 -10 9 C-6.93906776 5.06451569 -4.50884026 2.31883213 0 0 Z " fill="#EDB71C" transform="translate(786,954)"/>
<path d="M0 0 C3 1 3 1 5 4 C5 4.99 5 5.98 5 7 C2.36 6.34 -0.28 5.68 -3 5 C-3 5.66 -3 6.32 -3 7 C-4.32 6.34 -5.64 5.68 -7 5 C-5.90554162 4.13342884 -4.79902219 3.28207276 -3.6875 2.4375 C-3.07261719 1.96183594 -2.45773437 1.48617187 -1.82421875 0.99609375 C-1.22222656 0.66738281 -0.62023438 0.33867188 0 0 Z " fill="#EDB323" transform="translate(1090,584)"/>
<path d="M0 0 C0.99 0 1.98 0 3 0 C2.67 3.63 2.34 7.26 2 11 C0.68 10.34 -0.64 9.68 -2 9 C-1.34 6.03 -0.68 3.06 0 0 Z " fill="#F7B520" transform="translate(1187,986)"/>
<path d="M0 0 C0.53625 0.2475 1.0725 0.495 1.625 0.75 C1.295 2.73 0.965 4.71 0.625 6.75 C-0.15875 6.564375 -0.9425 6.37875 -1.75 6.1875 C-4.34589775 5.49037734 -4.34589775 5.49037734 -6.375 6.75 C-6.375 6.09 -6.375 5.43 -6.375 4.75 C-7.035 4.42 -7.695 4.09 -8.375 3.75 C-2.95961538 -0.31153846 -2.95961538 -0.31153846 0 0 Z " fill="#F3B521" transform="translate(1070.375,600.25)"/>
<path d="M0 0 C1.6490302 0.61651583 3.29415841 1.24347742 4.9375 1.875 C6.31228516 2.39707031 6.31228516 2.39707031 7.71484375 2.9296875 C10 4 10 4 11 6 C9.35 6 7.7 6 6 6 C5.67 6.66 5.34 7.32 5 8 C4.67 7.01 4.34 6.02 4 5 C0.48809191 3.77030122 0.48809191 3.77030122 -3 3 C-2.01 2.67 -1.02 2.34 0 2 C0 1.34 0 0.68 0 0 Z " fill="#F1B41B" transform="translate(1123,928)"/>
<path d="M0 0 C0.33 0 0.66 0 1 0 C1.20413361 5.73842251 1.27141454 10.60539047 -1 16 C-1.33 16 -1.66 16 -2 16 C-2.33 11.38 -2.66 6.76 -3 2 C-2.01 2.33 -1.02 2.66 0 3 C0 2.01 0 1.02 0 0 Z " fill="#F3B422" transform="translate(763,512)"/>
<path d="M0 0 C3.3 0 6.6 0 10 0 C10 0.33 10 0.66 10 1 C8.35 1 6.7 1 5 1 C5 1.66 5 2.32 5 3 C5.66 3.33 6.32 3.66 7 4 C6.67 4.66 6.34 5.32 6 6 C4.02 5.34 2.04 4.68 0 4 C0 2.68 0 1.36 0 0 Z " fill="#F2B61E" transform="translate(779,1224)"/>
<path d="M0 0 C0.66 0 1.32 0 2 0 C2.33 0.66 2.66 1.32 3 2 C3.66 2 4.32 2 5 2 C4 5 4 5 2.15234375 5.94921875 C1.42144531 6.19285156 0.69054687 6.43648437 -0.0625 6.6875 C-1.16271484 7.06455078 -1.16271484 7.06455078 -2.28515625 7.44921875 C-2.85105469 7.63097656 -3.41695312 7.81273437 -4 8 C-4.33 7.34 -4.66 6.68 -5 6 C-4.34 5.67 -3.68 5.34 -3 5 C-3.66 4.34 -4.32 3.68 -5 3 C-4.360625 2.690625 -3.72125 2.38125 -3.0625 2.0625 C-1.06389179 1.1654837 -1.06389179 1.1654837 0 0 Z " fill="#2377C3" transform="translate(638,857)"/>
<path d="M0 0 C0 1.32 0 2.64 0 4 C0.33 4.66 0.66 5.32 1 6 C0.01 6 -0.98 6 -2 6 C-2 6.66 -2 7.32 -2 8 C-4.4375 7.1875 -4.4375 7.1875 -7 6 C-7.33 5.01 -7.66 4.02 -8 3 C-2.25 0 -2.25 0 0 0 Z " fill="#2679C2" transform="translate(1063,719)"/>
<path d="M0 0 C0.78375 0.185625 1.5675 0.37125 2.375 0.5625 C4.97089775 1.25962266 4.97089775 1.25962266 7 0 C7 0.99 7 1.98 7 3 C4.03 4.65 1.06 6.3 -2 8 C-2.33 7.34 -2.66 6.68 -3 6 C-2.01 5.34 -1.02 4.68 0 4 C0 2.68 0 1.36 0 0 Z " fill="#F1B421" transform="translate(637,953)"/>
<path d="M0 0 C4.75 0.875 4.75 0.875 7 2 C7 3.32 7 4.64 7 6 C6.01 6.66 5.02 7.32 4 8 C3.01 7.67 2.02 7.34 1 7 C1.66 6.67 2.32 6.34 3 6 C2.505 5.566875 2.01 5.13375 1.5 4.6875 C0 3 0 3 0 0 Z " fill="#F4B41E" transform="translate(1104,920)"/>
<path d="M0 0 C3.53790403 3.69172595 3.59115883 7.09390595 4 12 C3.67 11.34 3.34 10.68 3 10 C1.68 10.33 0.36 10.66 -1 11 C-1.33 9.35 -1.66 7.7 -2 6 C-1.01 6.33 -0.02 6.66 1 7 C0.649375 6.401875 0.29875 5.80375 -0.0625 5.1875 C-1 3 -1 3 0 0 Z " fill="#E9B12B" transform="translate(693,701)"/>
<path d="M0 0 C1.65 0.33 3.3 0.66 5 1 C6.125 4.75 6.125 4.75 5 7 C2.69 6.34 0.38 5.68 -2 5 C-2 4.01 -2 3.02 -2 2 C-1.34 2 -0.68 2 0 2 C0 1.34 0 0.68 0 0 Z " fill="#F1B424" transform="translate(522,697)"/>
<path d="M0 0 C3.5786304 1.65167557 6.74820188 3.78286492 10 6 C7 7 7 7 3 7 C1.65835921 7.2981424 0.32148827 7.62243192 -1 8 C-1.33 7.01 -1.66 6.02 -2 5 C-1.01 4.67 -0.02 4.34 1 4 C1.33 3.34 1.66 2.68 2 2 C1.34 2 0.68 2 0 2 C0 1.34 0 0.68 0 0 Z " fill="#EBB422" transform="translate(678,688)"/>
<path d="M0 0 C2.97 0.495 2.97 0.495 6 1 C5.67 2.32 5.34 3.64 5 5 C0.71 4.01 -3.58 3.02 -8 2 C-8 1.67 -8 1.34 -8 1 C-5.36 1 -2.72 1 0 1 C0 0.67 0 0.34 0 0 Z " fill="#2979BE" transform="translate(834,385)"/>
<path d="M0 0 C1.76462683 3.08809695 2 4.23312136 2 8 C0.02 8 -1.96 8 -4 8 C-4.33 7.01 -4.66 6.02 -5 5 C-3.35 3.35 -1.7 1.7 0 0 Z " fill="#F0B51F" transform="translate(933,694)"/>
<path d="M0 0 C1.32 0 2.64 0 4 0 C4 2.64 4 5.28 4 8 C2.68 8 1.36 8 0 8 C0 5.36 0 2.72 0 0 Z " fill="#F0B323" transform="translate(763,544)"/>
<path d="M0 0 C0.66 0 1.32 0 2 0 C2.33 2.64 2.66 5.28 3 8 C2.34 8 1.68 8 1 8 C0.67 10.64 0.34 13.28 0 16 C-0.33 16 -0.66 16 -1 16 C-0.67 10.72 -0.34 5.44 0 0 Z " fill="#E9B128" transform="translate(755,1160)"/>
<path d="M0 0 C4.455 1.98 4.455 1.98 9 4 C7.3125 5.625 7.3125 5.625 5 7 C2.25 6.1875 2.25 6.1875 0 5 C0 3.35 0 1.7 0 0 Z " fill="#EFB323" transform="translate(1089,912)"/>
<path d="M0 0 C0 1.65 0 3.3 0 5 C-1.98 5.99 -1.98 5.99 -4 7 C-5.32 6.01 -6.64 5.02 -8 4 C-2.25 0 -2.25 0 0 0 Z " fill="#EEB421" transform="translate(472,568)"/>
<path d="M0 0 C0.99 1.32 1.98 2.64 3 4 C2.67 4.66 2.34 5.32 2 6 C1.01 5.67 0.02 5.34 -1 5 C-1.804375 5.495 -2.60875 5.99 -3.4375 6.5 C-6 8 -6 8 -10 7 C-6.7 4.69 -3.4 2.38 0 0 Z " fill="#2776C4" transform="translate(556,1016)"/>
<path d="M0 0 C7.48291572 6.15034169 7.48291572 6.15034169 10 10 C9.67 10.66 9.34 11.32 9 12 C8.01 11.34 7.02 10.68 6 10 C6 9.34 6 8.68 6 8 C5.34 7.67 4.68 7.34 4 7 C0 2.41176471 0 2.41176471 0 0 Z " fill="#E1AF2A" transform="translate(1175,952)"/>
<path d="M0 0 C0.99 0 1.98 0 3 0 C3 0.66 3 1.32 3 2 C3.99 2.33 4.98 2.66 6 3 C6 3.66 6 4.32 6 5 C7.65 5.33 9.3 5.66 11 6 C11 6.66 11 7.32 11 8 C6.87248551 7.39301257 3.6678852 5.96189209 0 4 C0 2.66666667 0 1.33333333 0 0 Z " fill="#2877C0" transform="translate(1133,929)"/>
<path d="M0 0 C0.33 0.66 0.66 1.32 1 2 C1.763125 1.79375 2.52625 1.5875 3.3125 1.375 C6 1 6 1 9 3 C9 3.66 9 4.32 9 5 C7.125 5.625 7.125 5.625 5 6 C4.34 5.34 3.68 4.68 3 4 C2.01 4.66 1.02 5.32 0 6 C-0.99 4.35 -1.98 2.7 -3 1 C-2.01 0.67 -1.02 0.34 0 0 Z " fill="#F3B226" transform="translate(439,655)"/>
<path d="M0 0 C2.68092691 2.68092691 2.38670257 4.39167363 2.625 8.125 C2.69976562 9.22070312 2.77453125 10.31640625 2.8515625 11.4453125 C2.92503906 12.70988281 2.92503906 12.70988281 3 14 C1 12 1 12 0 9 C-0.66 8.67 -1.32 8.34 -2 8 C-1.125 2.25 -1.125 2.25 0 0 Z " fill="#F3B61E" transform="translate(436,608)"/>
<path d="M0 0 C0 0.66 0 1.32 0 2 C-2.1875 3.5078125 -2.1875 3.5078125 -5 5.125 C-5.928125 5.66382813 -6.85625 6.20265625 -7.8125 6.7578125 C-8.8953125 7.37269531 -8.8953125 7.37269531 -10 8 C-10 6.35 -10 4.7 -10 3 C-6.25 1.875 -6.25 1.875 -4 3 C-4 2.34 -4 1.68 -4 1 C-2 0 -2 0 0 0 Z " fill="#2978C2" transform="translate(1051,611)"/>
<path d="M0 0 C0 3 0 3 -2 6 C-4.4375 6.8125 -4.4375 6.8125 -7 7 C-7.99 6.34 -8.98 5.68 -10 5 C-6.7 3.35 -3.4 1.7 0 0 Z " fill="#2878C4" transform="translate(850,1223)"/>
<path d="M0 0 C0.66 0 1.32 0 2 0 C3.17829199 2.35658397 3.04414372 3.52573236 2.87890625 6.1328125 C2.83056641 6.93847656 2.78222656 7.74414062 2.73242188 8.57421875 C2.64831055 9.83685547 2.64831055 9.83685547 2.5625 11.125 C2.51029297 11.97449219 2.45808594 12.82398438 2.40429688 13.69921875 C2.27448622 15.79979124 2.1378826 17.89994191 2 20 C1.67 20 1.34 20 1 20 C0.67 13.4 0.34 6.8 0 0 Z " fill="#357EB4" transform="translate(765,1016)"/>
<path d="M0 0 C0.33 0 0.66 0 1 0 C1 1.98 1 3.96 1 6 C1.66 6 2.32 6 3 6 C2.34 9.3 1.68 12.6 1 16 C0.34 16 -0.32 16 -1 16 C-0.67 10.72 -0.34 5.44 0 0 Z " fill="#E5AF29" transform="translate(770,988)"/>
<path d="M0 0 C0.66 0.33 1.32 0.66 2 1 C1.67 1.66 1.34 2.32 1 3 C0.77377919 4.70363822 0.59111527 6.41328701 0.4375 8.125 C0.35371094 9.03507813 0.26992188 9.94515625 0.18359375 10.8828125 C0.12300781 11.58148437 0.06242187 12.28015625 0 13 C-1.32 12.01 -2.64 11.02 -4 10 C-2.99806563 6.20696275 -2.18975773 3.28463659 0 0 Z " fill="#EFB522" transform="translate(437,961)"/>
<path d="M0 0 C-0.36793618 2.66753731 -0.81998328 3.81998328 -2.75 5.75 C-5.37943983 7.21079991 -7.0374441 7.24687966 -10 7 C-3.18421053 0 -3.18421053 0 0 0 Z " fill="#2777C1" transform="translate(661,944)"/>
<path d="M0 0 C1.60517097 0.08733576 3.20921662 0.19552224 4.8125 0.3125 C6.15248047 0.39951172 6.15248047 0.39951172 7.51953125 0.48828125 C10.30604 1.06313581 11.24135754 1.8206856 13 4 C10.44855176 4.93045933 9.25993522 5.08564091 6.640625 4.22265625 C5.85171875 3.83980469 5.0628125 3.45695313 4.25 3.0625 C3.45078125 2.68222656 2.6515625 2.30195312 1.828125 1.91015625 C1.22484375 1.60980469 0.6215625 1.30945313 0 1 C0 0.67 0 0.34 0 0 Z " fill="#2777C5" transform="translate(1109,921)"/>
<path d="M0 0 C0.78375 0.33 1.5675 0.66 2.375 1 C4.84332497 2.11866511 4.84332497 2.11866511 7 2 C7 2.66 7 3.32 7 4 C7.99 4.33 8.98 4.66 10 5 C10 5.66 10 6.32 10 7 C5.87248551 6.39301257 2.6678852 4.96189209 -1 3 C-0.67 2.01 -0.34 1.02 0 0 Z " fill="#2D77C0" transform="translate(1097,913)"/>
<path d="M0 0 C0.86625 0.5259375 0.86625 0.5259375 1.75 1.0625 C4.35801776 2.14917407 5.39417629 1.93065133 8 1 C7.01 1.495 7.01 1.495 6 2 C6.99 2.33 7.98 2.66 9 3 C9 3.99 9 4.98 9 6 C4.87248551 5.39301257 1.6678852 3.96189209 -2 2 C-1.34 1.34 -0.68 0.68 0 0 Z " fill="#2A76C6" transform="translate(999,868)"/>
<path d="M0 0 C-0.66 1.98 -1.32 3.96 -2 6 C-4.31 5.67 -6.62 5.34 -9 5 C-9 4.34 -9 3.68 -9 3 C-3.375 0 -3.375 0 0 0 Z " fill="#2578C4" transform="translate(1049,726)"/>
<path d="M0 0 C2.3828125 0.99609375 2.3828125 0.99609375 5.125 2.4375 C6.03507812 2.91058594 6.94515625 3.38367188 7.8828125 3.87109375 C8.58148437 4.24363281 9.28015625 4.61617187 10 5 C10 5.33 10 5.66 10 6 C2.61538462 5.50769231 2.61538462 5.50769231 -0.5 2.9375 C-0.995 2.298125 -1.49 1.65875 -2 1 C-1.34 0.67 -0.68 0.34 0 0 Z " fill="#F4B320" transform="translate(1147,567)"/>
<path d="M0 0 C-3.3 1.32 -6.6 2.64 -10 4 C-10.99 3.01 -11.98 2.02 -13 1 C-11.59054634 0.43983252 -10.1719969 -0.09748502 -8.75 -0.625 C-7.96109375 -0.92664063 -7.1721875 -1.22828125 -6.359375 -1.5390625 C-4 -2 -4 -2 0 0 Z " fill="#EAB326" transform="translate(794,389)"/>
<path d="M0 0 C1.9375 0.375 1.9375 0.375 4 1 C4.33 1.66 4.66 2.32 5 3 C2.69 4.32 0.38 5.64 -2 7 C-2.66 6.34 -3.32 5.68 -4 5 C-3.01 4.67 -2.02 4.34 -1 4 C-0.26676204 1.98491642 -0.26676204 1.98491642 0 0 Z " fill="#F2B324" transform="translate(533,1027)"/>
<path d="M0 0 C1.32129824 0.734389 2.63183171 1.48816894 3.9375 2.25 C4.66839844 2.66765625 5.39929688 3.0853125 6.15234375 3.515625 C8 5 8 5 9 9 C5.37 6.69 1.74 4.38 -2 2 C-1.34 1.34 -0.68 0.68 0 0 Z " fill="#EAB320" transform="translate(998,967)"/>
<path d="M0 0 C-0.66 1.65 -1.32 3.3 -2 5 C-1.34 5.33 -0.68 5.66 0 6 C-2.31 6 -4.62 6 -7 6 C-7.33 5.01 -7.66 4.02 -8 3 C-2.25 0 -2.25 0 0 0 Z " fill="#F0B520" transform="translate(518,919)"/>
<path d="M0 0 C0 0.66 0 1.32 0 2 C-3.3 3.32 -6.6 4.64 -10 6 C-10.33 5.34 -10.66 4.68 -11 4 C-9.07392696 1.53890667 -8.06050223 1.01358213 -4.9375 0.3125 C-2 0 -2 0 0 0 Z " fill="#2576C7" transform="translate(542,906)"/>
<path d="M0 0 C0.99 0.66 1.98 1.32 3 2 C-2.23471686 2.75612577 -6.77254141 3.2063366 -12 2 C-8.07178453 -0.61881031 -4.56556861 -0.28987737 0 0 Z " fill="#E1AF2F" transform="translate(968,856)"/>
<path d="M0 0 C0.99 0 1.98 0 3 0 C4.32 3.63 5.64 7.26 7 11 C6.01 11.495 6.01 11.495 5 12 C2.43015167 8.14522751 1.14185734 4.47959418 0 0 Z " fill="#ECB322" transform="translate(926,729)"/>
<path d="M0 0 C1.64826111 2.96687001 2.44271087 5.65626525 3 9 C1.02 9.99 1.02 9.99 -1 11 C-2.23076923 4.6 -2.23076923 4.6 -1.0625 1.5625 C-0.711875 1.046875 -0.36125 0.53125 0 0 Z " fill="#2577C6" transform="translate(924,722)"/>
<path d="M0 0 C1.3125 2.0625 1.3125 2.0625 2 4 C-0.31 4 -2.62 4 -5 4 C-5.66 2.68 -6.32 1.36 -7 0 C-4.25509788 -1.37245106 -2.87939419 -0.93580311 0 0 Z " fill="#EFB420" transform="translate(624,649)"/>
<path d="M0 0 C2.97 0.495 2.97 0.495 6 1 C6 1.99 6 2.98 6 4 C2.66666667 7 2.66666667 7 0 7 C0.185625 6.360625 0.37125 5.72125 0.5625 5.0625 C0.706875 4.381875 0.85125 3.70125 1 3 C0.67 2.67 0.34 2.34 0 2 C0 1.34 0 0.68 0 0 Z " fill="#2777C4" transform="translate(1066,594)"/>
<path d="M0 0 C0.33 0 0.66 0 1 0 C1 1.65 1 3.3 1 5 C0.01 5.33 -0.98 5.66 -2 6 C-2.73323796 8.01508358 -2.73323796 8.01508358 -3 10 C-4.65 10.33 -6.3 10.66 -8 11 C-5.50505292 7.16847413 -2.97337987 3.48603157 0 0 Z " fill="#E2B226" transform="translate(453,581)"/>
<path d="M0 0 C0.33 0 0.66 0 1 0 C1.06058594 0.80824219 1.12117187 1.61648438 1.18359375 2.44921875 C1.26738281 3.51785156 1.35117187 4.58648438 1.4375 5.6875 C1.55931641 7.27111328 1.55931641 7.27111328 1.68359375 8.88671875 C1.96451681 11.65086297 2.40156852 14.28945741 3 17 C1.68 17 0.36 17 -1 17 C-0.67 11.39 -0.34 5.78 0 0 Z " fill="#DEAE31" transform="translate(753,1180)"/>
<path d="M0 0 C0.66 0.99 1.32 1.98 2 3 C1.34 3 0.68 3 0 3 C-0.33 3.99 -0.66 4.98 -1 6 C-2.65 6 -4.3 6 -6 6 C-6 6.66 -6 7.32 -6 8 C-7.32 7.67 -8.64 7.34 -10 7 C-6.7 4.69 -3.4 2.38 0 0 Z " fill="#2F77C0" transform="translate(1162,1042)"/>
<path d="M0 0 C4.12751449 0.60698743 7.3321148 2.03810791 11 4 C7.98968256 4.93423645 7.13349732 5.04449911 4 4 C3.67 4.66 3.34 5.32 3 6 C2.67 5.01 2.34 4.02 2 3 C1.34 3 0.68 3 0 3 C0 2.01 0 1.02 0 0 Z " fill="#ECB422" transform="translate(1005,874)"/>
<path d="M0 0 C5.75 1.75 5.75 1.75 8 4 C1.9453125 4.9765625 1.9453125 4.9765625 0 5 C-0.66 4.34 -1.32 3.68 -2 3 C-1.34 2.01 -0.68 1.02 0 0 Z " fill="#2377C5" transform="translate(616,746)"/>
<path d="M0 0 C4.47238653 1.41807378 8.71146306 3.11304374 13 5 C12.01 5.495 12.01 5.495 11 6 C10.67 6.66 10.34 7.32 10 8 C10 7.01 10 6.02 10 5 C8.02 5 6.04 5 4 5 C4 4.34 4 3.68 4 3 C2.68 2.67 1.36 2.34 0 2 C0 1.34 0 0.68 0 0 Z " fill="#2877C5" transform="translate(592,735)"/>
<path d="M0 0 C2.375 0.25 2.375 0.25 5 1 C6.3125 3.0625 6.3125 3.0625 7 5 C5.02 5 3.04 5 1 5 C0.67 3.35 0.34 1.7 0 0 Z " fill="#F2B322" transform="translate(596,632)"/>
<path d="M0 0 C0.66 0.33 1.32 0.66 2 1 C2 2.32 2 3.64 2 5 C-0.875 5.625 -0.875 5.625 -4 6 C-4.66 5.34 -5.32 4.68 -6 4 C-4.02 2.68 -2.04 1.36 0 0 Z " fill="#EDB525" transform="translate(942,688)"/>
<path d="M0 0 C3 1 3 1 6 3 C4.02 3.99 2.04 4.98 0 6 C-0.33 5.01 -0.66 4.02 -1 3 C-1.66 3 -2.32 3 -3 3 C-2.67 2.34 -2.34 1.68 -2 1 C-1.34 1.33 -0.68 1.66 0 2 C0 1.34 0 0.68 0 0 Z " fill="#2879C0" transform="translate(939,684)"/>
<path d="M0 0 C0.33 0.99 0.66 1.98 1 3 C1.66 3 2.32 3 3 3 C3.33 2.01 3.66 1.02 4 0 C4.33 2.64 4.66 5.28 5 8 C3.35 7.67 1.7 7.34 0 7 C0 4.69 0 2.38 0 0 Z " fill="#277AC2" transform="translate(850,629)"/>
<path d="M0 0 C0.33 0 0.66 0 1 0 C1 4 1 8 1 12 C0.01 11.67 -0.98 11.34 -2 11 C-2 11.66 -2 12.32 -2 13 C-2.66 12.67 -3.32 12.34 -4 12 C-3.525625 10.948125 -3.05125 9.89625 -2.5625 8.8125 C-1.30676259 5.89824149 -0.47765619 3.15253086 0 0 Z " fill="#2D7BBA" transform="translate(868,1197)"/>
<path d="M0 0 C2.92393881 0.62655832 5.44829129 1.4161808 8 3 C8.33 3.99 8.66 4.98 9 6 C4.9666466 6 3.16482462 4.39120082 0 2 C0 1.34 0 0.68 0 0 Z " fill="#E9B127" transform="translate(1079,1025)"/>
<path d="M0 0 C2.64 0.99 5.28 1.98 8 3 C7.67 3.99 7.34 4.98 7 6 C4.36 5.67 1.72 5.34 -1 5 C-0.67 3.35 -0.34 1.7 0 0 Z " fill="#F0B521" transform="translate(1157,944)"/>
<path d="M0 0 C0.66 1.32 1.32 2.64 2 4 C-0.25 5.5625 -0.25 5.5625 -3 7 C-4.32 6.67 -5.64 6.34 -7 6 C-4.69 4.02 -2.38 2.04 0 0 Z " fill="#2678C4" transform="translate(692,920)"/>
<path d="M0 0 C1.65 0 3.3 0 5 0 C5.33 0.99 5.66 1.98 6 3 C6.99 3 7.98 3 9 3 C9.33 3.99 9.66 4.98 10 6 C6.51329166 4.8905928 3.22515763 3.73662334 0 2 C0 1.34 0 0.68 0 0 Z " fill="#E9B327" transform="translate(605,739)"/>
<path d="M0 0 C7.57142857 4.14285714 7.57142857 4.14285714 10 7 C6.44219804 6.39009109 3.3171411 5.4216319 0 4 C0 2.68 0 1.36 0 0 Z " fill="#ECB421" transform="translate(658,674)"/>
<path d="M0 0 C0.33 0 0.66 0 1 0 C1.1958009 1.91583647 1.38132214 3.83272539 1.5625 5.75 C1.66691406 6.81734375 1.77132812 7.8846875 1.87890625 8.984375 C1.98560074 11.64141204 1.81930395 13.49960572 1 16 C0.34 16 -0.32 16 -1 16 C-0.67 10.72 -0.34 5.44 0 0 Z " fill="#3579BB" transform="translate(859,528)"/>
<path d="M0 0 C4.455 1.98 4.455 1.98 9 4 C5 6 5 6 2.75 5.625 C2.1725 5.41875 1.595 5.2125 1 5 C1 4.01 1 3.02 1 2 C0.34 1.67 -0.32 1.34 -1 1 C-0.67 0.67 -0.34 0.34 0 0 Z " fill="#2B77C5" transform="translate(466,1048)"/>
<path d="M0 0 C0.66 0 1.32 0 2 0 C1.67 1.98 1.34 3.96 1 6 C-1.31 5.67 -3.62 5.34 -6 5 C-5.195625 4.360625 -4.39125 3.72125 -3.5625 3.0625 C-1.7249496 1.59396498 -1.7249496 1.59396498 0 0 Z " fill="#2777C3" transform="translate(579,1000)"/>
<path d="M0 0 C-1.28788008 0.53012738 -2.58046678 1.0488329 -3.875 1.5625 C-4.95394531 1.99755859 -4.95394531 1.99755859 -6.0546875 2.44140625 C-8 3 -8 3 -10 2 C-9.67 1.01 -9.34 0.02 -9 -1 C-5.22102349 -2.0497157 -3.35080929 -2.10976881 0 0 Z " fill="#F1B521" transform="translate(1021,739)"/>
<path d="M0 0 C0.66 0 1.32 0 2 0 C2 0.99 2 1.98 2 3 C4.31 3.66 6.62 4.32 9 5 C8.67 5.66 8.34 6.32 8 7 C4.08788267 5.84414715 1.1254959 4.64465038 -2 2 C-1.34 2 -0.68 2 0 2 C0 1.34 0 0.68 0 0 Z " fill="#E9B22B" transform="translate(581,726)"/>
<path d="M0 0 C0.66 0.66 1.32 1.32 2 2 C1.01 4.97 0.02 7.94 -1 11 C-1.33 11 -1.66 11 -2 11 C-2 9.02 -2 7.04 -2 5 C-2.99 4.67 -3.98 4.34 -5 4 C-3.35 3.34 -1.7 2.68 0 2 C0 1.34 0 0.68 0 0 Z " fill="#2B77BE" transform="translate(926,699)"/>
<path d="M0 0 C3.465 1.98 3.465 1.98 7 4 C6.01 4.99 5.02 5.98 4 7 C1.525 6.01 1.525 6.01 -1 5 C-0.34 4.34 0.32 3.68 1 3 C0.67 2.01 0.34 1.02 0 0 Z " fill="#F0B41F" transform="translate(668,681)"/>
<path d="M0 0 C0.66 0.66 1.32 1.32 2 2 C-0.68841859 4.25245881 -2.64641875 5.88213958 -6 7 C-5.67 5.68 -5.34 4.36 -5 3 C-4.34 3 -3.68 3 -3 3 C-3 2.34 -3 1.68 -3 1 C-2.01 0.67 -1.02 0.34 0 0 Z " fill="#EBB322" transform="translate(840,658)"/>
<path d="M0 0 C2.31 0.66 4.62 1.32 7 2 C5.515 4.475 5.515 4.475 4 7 C2 5.1875 2 5.1875 0 3 C0 2.01 0 1.02 0 0 Z " fill="#EDB424" transform="translate(840,651)"/>
<path d="M0 0 C1.98 0.495 1.98 0.495 4 1 C2.515 4.96 2.515 4.96 1 9 C-1 6 -1 6 -0.625 2.8125 C-0.41875 1.884375 -0.2125 0.95625 0 0 Z " fill="#2377C6" transform="translate(435,601)"/>
<path d="M0 0 C0 1.32 0 2.64 0 4 C-5.75 2.25 -5.75 2.25 -8 0 C-4.71023192 -1.09658936 -3.28696233 -0.79953138 0 0 Z " fill="#2A75C5" transform="translate(1152,565)"/>
<path d="M0 0 C-0.66 0 -1.32 0 -2 0 C-0.0745356 2.2236068 -0.0745356 2.2236068 3 3 C2.34 3 1.68 3 1 3 C1 3.66 1 4.32 1 5 C-1.4375 4.625 -1.4375 4.625 -4 4 C-4.33 3.34 -4.66 2.68 -5 2 C-5.66 1.34 -6.32 0.68 -7 0 C-3.98968256 -0.93423645 -3.13349732 -1.04449911 0 0 Z " fill="#F2B424" transform="translate(1123,1050)"/>
<path d="M0 0 C0.33 0.66 0.66 1.32 1 2 C3.02463255 2.65213292 3.02463255 2.65213292 5 3 C5 4.65 5 6.3 5 8 C2 7 2 7 0.3125 3.9375 C-0.120625 2.968125 -0.55375 1.99875 -1 1 C-0.67 0.67 -0.34 0.34 0 0 Z " fill="#EDB324" transform="translate(441,1018)"/>
<path d="M0 0 C1.89986412 3.79972824 2.30809157 4.99480955 2 9 C1.67 9.99 1.34 10.98 1 12 C0.01 12 -0.98 12 -2 12 C-1.34 8.04 -0.68 4.08 0 0 Z " fill="#327DB4" transform="translate(1189,992)"/>
<path d="M0 0 C1.32 0.33 2.64 0.66 4 1 C3 4 3 4 -0.0625 5.6875 C-1.031875 6.120625 -2.00125 6.55375 -3 7 C-3.66 6.34 -4.32 5.68 -5 5 C-4.01 4.67 -3.02 4.34 -2 4 C-0.79117904 1.99983534 -0.79117904 1.99983534 0 0 Z " fill="#F2B422" transform="translate(605,977)"/>
<path d="M0 0 C0 2.33333333 0 4.66666667 0 7 C-2.97 6.505 -2.97 6.505 -6 6 C-6 5.34 -6 4.68 -6 4 C-4.03852126 2.61061923 -2.03833424 1.2739589 0 0 Z " fill="#2676C2" transform="translate(671,936)"/>
<path d="M0 0 C1.5778125 0.2475 1.5778125 0.2475 3.1875 0.5 C6.20468796 0.89569678 8.97093972 1.09178971 12 1 C9.33440687 2.77706209 6.9719385 3.87548273 4 5 C4 4.34 4 3.68 4 3 C2.68 2.34 1.36 1.68 0 1 C0 0.67 0 0.34 0 0 Z " fill="#2674C3" transform="translate(481,929)"/>
<path d="M0 0 C2.15377564 2.62198774 3.40072174 4.64404172 4 8 C3.34 8 2.68 8 2 8 C1.67 8.66 1.34 9.32 1 10 C-1.42857143 3.71428571 -1.42857143 3.71428571 0 0 Z " fill="#EEB424" transform="translate(690,880)"/>
<path d="M0 0 C0.99 0.33 1.98 0.66 3 1 C3 1.99 3 2.98 3 4 C3.66 4 4.32 4 5 4 C5 6.64 5 9.28 5 12 C3.20931427 9.3139714 2.33944209 7.3373411 1.375 4.3125 C1.11460938 3.50425781 0.85421875 2.69601562 0.5859375 1.86328125 C0.39257812 1.24839844 0.19921875 0.63351562 0 0 Z " fill="#2676C1" transform="translate(1183,604)"/>
<path d="M0 0 C0.33 0 0.66 0 1 0 C1.125 7.625 1.125 7.625 0 11 C-0.66 11 -1.32 11 -2 11 C-3.14947895 7.44706507 -3.0868937 6.20023331 -1.5625 2.6875 C-1.046875 1.800625 -0.53125 0.91375 0 0 Z " fill="#DDAD35" transform="translate(868,421)"/>
<path d="M0 0 C0.66 0.33 1.32 0.66 2 1 C1.01 2.485 1.01 2.485 0 4 C0.66 4 1.32 4 2 4 C2.33 2.68 2.66 1.36 3 0 C3.66 0 4.32 0 5 0 C4.75 1.875 4.75 1.875 4 4 C2.0625 5.3125 2.0625 5.3125 0 6 C-0.66 5.67 -1.32 5.34 -2 5 C-1.34 3.35 -0.68 1.7 0 0 Z " fill="#2678BE" transform="translate(756,402)"/>
<path d="M0 0 C0.99 0 1.98 0 3 0 C3.33 0.99 3.66 1.98 4 3 C4.66 3 5.32 3 6 3 C6.66 2.34 7.32 1.68 8 1 C7.67 2.98 7.34 4.96 7 7 C1.125 3.375 1.125 3.375 0 0 Z " fill="#E8B02D" transform="translate(760,1213)"/>
<path d="M0 0 C2.25245881 2.68841859 3.88213958 4.64641875 5 8 C3.35 7.67 1.7 7.34 0 7 C0 4.69 0 2.38 0 0 Z " fill="#2477C7" transform="translate(755,1207)"/>
<path d="M0 0 C4.23169259 0.37615045 6.8083482 1.17661571 10 4 C8.54077307 3.88590407 7.08259402 3.75834456 5.625 3.625 C4.40683594 3.52058594 4.40683594 3.52058594 3.1640625 3.4140625 C1 3 1 3 -1 1 C-0.67 0.67 -0.34 0.34 0 0 Z " fill="#EAB323" transform="translate(1138,936)"/>
<path d="M0 0 C0.33 1.65 0.66 3.3 1 5 C0.01 5.495 0.01 5.495 -1 6 C-2.65 4.68 -4.3 3.36 -6 2 C-2.25 0 -2.25 0 0 0 Z " fill="#EDB325" transform="translate(950,930)"/>
<path d="M0 0 C2.97 0.99 5.94 1.98 9 3 C8.01 4.485 8.01 4.485 7 6 C4.04590299 4.62845496 1.55991624 3.01136276 -1 1 C-0.67 0.67 -0.34 0.34 0 0 Z " fill="#2079C0" transform="translate(786,665)"/>
<path d="M0 0 C4.875 4.625 4.875 4.625 6 8 C5.01 8.33 4.02 8.66 3 9 C0.70620251 5.55930376 0 4.27709699 0 0 Z " fill="#2577C6" transform="translate(438,659)"/>
<path d="M0 0 C0.66 0.66 1.32 1.32 2 2 C0.35 3.98 -1.3 5.96 -3 8 C-3.75 6.25 -3.75 6.25 -4 4 C-2.0625 1.75 -2.0625 1.75 0 0 Z " fill="#EBB428" transform="translate(1182,656)"/>
<path d="M0 0 C2.14699969 3.44175522 2.09856795 5.7720292 1.625 9.75 C1.51414062 10.73484375 1.40328125 11.7196875 1.2890625 12.734375 C1.19367187 13.48203125 1.09828125 14.2296875 1 15 C0.67 15 0.34 15 0 15 C-0.19448477 12.87562788 -0.38038289 10.75046809 -0.5625 8.625 C-0.66691406 7.44164062 -0.77132812 6.25828125 -0.87890625 5.0390625 C-1 2 -1 2 0 0 Z " fill="#F0B224" transform="translate(854,569)"/>
<path d="M0 0 C2.97 0.495 2.97 0.495 6 1 C4.35 2.65 2.7 4.3 1 6 C0.34 5.67 -0.32 5.34 -1 5 C-0.67 3.35 -0.34 1.7 0 0 Z " fill="#EDB521" transform="translate(849,1218)"/>
<path d="M0 0 C-2.3125 2.0625 -2.3125 2.0625 -5 4 C-5.99 3.67 -6.98 3.34 -8 3 C-7.67 2.01 -7.34 1.02 -7 0 C-3.86650268 -1.04449911 -3.01031744 -0.93423645 0 0 Z " fill="#ECB325" transform="translate(528,1036)"/>
<path d="M0 0 C0.66 0.33 1.32 0.66 2 1 C2 2.98 2 4.96 2 7 C-1.465 5.02 -1.465 5.02 -5 3 C-4.360625 2.690625 -3.72125 2.38125 -3.0625 2.0625 C-1.06389179 1.1654837 -1.06389179 1.1654837 0 0 Z " fill="#EEB222" transform="translate(1061,1008)"/>
<path d="M0 0 C2.31 0 4.62 0 7 0 C2.375 4.875 2.375 4.875 -1 6 C-0.67 4.02 -0.34 2.04 0 0 Z " fill="#EBB525" transform="translate(569,1002)"/>
<path d="M0 0 C0 0.66 0 1.32 0 2 C-0.66 2 -1.32 2 -2 2 C-2 2.99 -2 3.98 -2 5 C-4.64 5 -7.28 5 -10 5 C-7.30495181 2.30495181 -3.91639523 0 0 0 Z " fill="#3179BA" transform="translate(1026,736)"/>
<path d="M0 0 C0.33 0.66 0.66 1.32 1 2 C1.8971875 1.7215625 1.8971875 1.7215625 2.8125 1.4375 C5 1 5 1 8 2 C8 2.66 8 3.32 8 4 C6.375 4.6875 6.375 4.6875 4 5 C0.75 3.5625 0.75 3.5625 -2 2 C-1.34 1.34 -0.68 0.68 0 0 Z " fill="#EEB423" transform="translate(592,732)"/>
<path d="M0 0 C1.2065625 0.0309375 1.2065625 0.0309375 2.4375 0.0625 C2.4375 1.0525 2.4375 2.0425 2.4375 3.0625 C3.0975 3.0625 3.7575 3.0625 4.4375 3.0625 C4.4375 3.7225 4.4375 4.3825 4.4375 5.0625 C-1.3125 3.3125 -1.3125 3.3125 -3.5625 1.0625 C-2.5625 0.0625 -2.5625 0.0625 0 0 Z " fill="#E4B02E" transform="translate(573.5625,722.9375)"/>
<path d="M0 0 C-0.33 0.66 -0.66 1.32 -1 2 C-3.06640625 2.4140625 -3.06640625 2.4140625 -5.5625 2.625 C-6.38878906 2.69976563 -7.21507812 2.77453125 -8.06640625 2.8515625 C-9.02353516 2.92503906 -9.02353516 2.92503906 -10 3 C-4.375 -1.3125 -4.375 -1.3125 0 0 Z " fill="#2B79C2" transform="translate(1149,681)"/>
<path d="M0 0 C0.66 0.33 1.32 0.66 2 1 C2.33 1.99 2.66 2.98 3 4 C3.99 4.66 4.98 5.32 6 6 C6 6.66 6 7.32 6 8 C4.02 7.34 2.04 6.68 0 6 C-0.38218767 4.34385343 -0.71395102 2.67542976 -1 1 C-0.67 0.67 -0.34 0.34 0 0 Z " fill="#EEB526" transform="translate(469,672)"/>
<path d="M0 0 C2.625 0.9375 2.625 0.9375 5 2 C4.01 2.495 4.01 2.495 3 3 C3 3.99 3 4.98 3 6 C1.0625 5.1875 1.0625 5.1875 -1 4 C-1.33 3.01 -1.66 2.02 -2 1 C-1.34 0.67 -0.68 0.34 0 0 Z " fill="#F6B420" transform="translate(843,392)"/>
<path d="M0 0 C2.31 0.33 4.62 0.66 7 1 C7.33 2.65 7.66 4.3 8 6 C6.66402348 5.19185349 5.331275 4.37836819 4 3.5625 C3.2575 3.11003906 2.515 2.65757813 1.75 2.19140625 C1.1725 1.79824219 0.595 1.40507813 0 1 C0 0.67 0 0.34 0 0 Z " fill="#DDB031" transform="translate(1093,1036)"/>
<path d="M0 0 C1.20628008 2.33214148 2.1654738 4.49642139 3 7 C1.68 6.67 0.36 6.34 -1 6 C-1 5.34 -1 4.68 -1 4 C-1.99 3.67 -2.98 3.34 -4 3 C-2.68 2.01 -1.36 1.02 0 0 Z " fill="#1E79C3" transform="translate(532,1033)"/>
<path d="M0 0 C1.65 0 3.3 0 5 0 C3.70700306 2.88437779 2.34058637 4.87219421 0 7 C0 4.69 0 2.38 0 0 Z " fill="#2D7AB9" transform="translate(438,953)"/>
<path d="M0 0 C0 0.99 0 1.98 0 3 C-0.66 3 -1.32 3 -2 3 C-2 3.66 -2 4.32 -2 5 C-3.32 5.33 -4.64 5.66 -6 6 C-6.33 5.01 -6.66 4.02 -7 3 C-4.69 2.01 -2.38 1.02 0 0 Z " fill="#E1B030" transform="translate(551,903)"/>
<path d="M0 0 C0.66 1.32 1.32 2.64 2 4 C-2.75 5.125 -2.75 5.125 -5 4 C-5 3.34 -5 2.68 -5 2 C-3.35 1.34 -1.7 0.68 0 0 Z " fill="#ECB422" transform="translate(562,898)"/>
<path d="M0 0 C3.37503669 1.1858237 5.64722731 2.27573689 8 5 C6.02 5 4.04 5 2 5 C1.34 3.35 0.68 1.7 0 0 Z " fill="#EFB123" transform="translate(610,641)"/>
<path d="M0 0 C0.99 0.33 1.98 0.66 3 1 C3 2.32 3 3.64 3 5 C2.34 5.66 1.68 6.32 1 7 C0.01 6.01 -0.98 5.02 -2 4 C-1.34 2.68 -0.68 1.36 0 0 Z " fill="#2C78BA" transform="translate(585,617)"/>
<path d="M0 0 C2.31 0.33 4.62 0.66 7 1 C7.33 2.65 7.66 4.3 8 6 C6.66402348 5.19185349 5.331275 4.37836819 4 3.5625 C3.2575 3.11003906 2.515 2.65757812 1.75 2.19140625 C1.1725 1.79824219 0.595 1.40507813 0 1 C0 0.67 0 0.34 0 0 Z " fill="#2C7ABE" transform="translate(1154,570)"/>
<path d="M0 0 C0.66 0.33 1.32 0.66 2 1 C1.01 2.485 1.01 2.485 0 4 C1.65 3.67 3.3 3.34 5 3 C4.67 3.66 4.34 4.32 4 5 C-0.47540984 6.26229508 -0.47540984 6.26229508 -3 5 C-1.125 1.125 -1.125 1.125 0 0 Z " fill="#2779C0" transform="translate(544,1024)"/>
<path d="M0 0 C0.99 0.33 1.98 0.66 3 1 C3.33 1.99 3.66 2.98 4 4 C3.01 4.66 2.02 5.32 1 6 C0.67 5.01 0.34 4.02 0 3 C-0.99 3.66 -1.98 4.32 -3 5 C-1.125 1.125 -1.125 1.125 0 0 Z " fill="#F2B525" transform="translate(556,1010)"/>
<path d="M0 0 C3.63 0.33 7.26 0.66 11 1 C9.68 1.99 8.36 2.98 7 4 C6.01 3.67 5.02 3.34 4 3 C4 2.34 4 1.68 4 1 C2.68 0.67 1.36 0.34 0 0 Z " fill="#2679BD" transform="translate(445,946)"/>
<path d="M0 0 C0.66 0 1.32 0 2 0 C2 0.66 2 1.32 2 2 C3.32 2.66 4.64 3.32 6 4 C6 4.66 6 5.32 6 6 C4.02 5.34 2.04 4.68 0 4 C0 2.68 0 1.36 0 0 Z " fill="#2E77BE" transform="translate(1154,939)"/>
<path d="M0 0 C0.33 1.65 0.66 3.3 1 5 C-1.31 4.67 -3.62 4.34 -6 4 C-6 3.34 -6 2.68 -6 2 C-2.25 0 -2.25 0 0 0 Z " fill="#EDB326" transform="translate(531,913)"/>
<path d="M0 0 C4.95 1.98 4.95 1.98 10 4 C10 4.33 10 4.66 10 5 C7.69 5 5.38 5 3 5 C2.67 4.01 2.34 3.02 2 2 C1.34 2 0.68 2 0 2 C0 1.34 0 0.68 0 0 Z " fill="#EBB32A" transform="translate(1054,896)"/>
<path d="M0 0 C0.33 0.99 0.66 1.98 1 3 C0.34 3 -0.32 3 -1 3 C-1.33 3.66 -1.66 4.32 -2 5 C-5 5 -5 5 -9 4 C-6.03 2.68 -3.06 1.36 0 0 Z " fill="#E4B02C" transform="translate(622,870)"/>
<path d="M0 0 C1.21236328 0.02707031 1.21236328 0.02707031 2.44921875 0.0546875 C3.37154297 0.08949219 3.37154297 0.08949219 4.3125 0.125 C2.8125 1.6875 2.8125 1.6875 0.3125 3.125 C-2.46187543 3.09323234 -4.94036467 2.62864148 -7.6875 2.125 C-4.48369983 -0.01086678 -3.66810033 -0.10632175 0 0 Z " fill="#D0AA3D" transform="translate(657.6875,855.875)"/>
<path d="M0 0 C1.32 0 2.64 0 4 0 C4.66 1.98 5.32 3.96 6 6 C5.34 6 4.68 6 4 6 C3.67 5.34 3.34 4.68 3 4 C2.01 4.495 2.01 4.495 1 5 C0.67 3.35 0.34 1.7 0 0 Z " fill="#EDB52B" transform="translate(1178,601)"/>
<path d="M0 0 C0.33 0.99 0.66 1.98 1 3 C-5.625 3.25 -5.625 3.25 -9 1 C-2.25 0 -2.25 0 0 0 Z " fill="#2D7ABA" transform="translate(828,1232)"/>
<path d="M0 0 C2.88437779 1.29299694 4.87219421 2.65941363 7 5 C6.01 5.495 6.01 5.495 5 6 C3.02 4.68 1.04 3.36 -1 2 C-0.67 1.34 -0.34 0.68 0 0 Z " fill="#E5B228" transform="translate(768,1219)"/>
<path d="M0 0 C0.33 0 0.66 0 1 0 C1.36923077 5.53846154 1.36923077 5.53846154 -0.5 7.875 C-1.2425 8.431875 -1.2425 8.431875 -2 9 C-2.25 3.375 -2.25 3.375 0 0 Z " fill="#E9AF2B" transform="translate(762,1098)"/>
<path d="M0 0 C1.32 0 2.64 0 4 0 C3.1875 1.9375 3.1875 1.9375 2 4 C1.01 4.33 0.02 4.66 -1 5 C-1.33 4.34 -1.66 3.68 -2 3 C-1.34 2.01 -0.68 1.02 0 0 Z " fill="#ECB524" transform="translate(579,996)"/>
<path d="M0 0 C0.66 0 1.32 0 2 0 C2 2.31 2 4.62 2 7 C1.01 7.495 1.01 7.495 0 8 C-1.125 2.25 -1.125 2.25 0 0 Z " fill="#EDB227" transform="translate(433,994)"/>
<path d="M0 0 C0.598125 0.350625 1.19625 0.70125 1.8125 1.0625 C1.4825 2.0525 1.1525 3.0425 0.8125 4.0625 C-1.65550047 2.91076645 -3.23533565 2.01466435 -5.1875 0.0625 C-2.1875 -0.9375 -2.1875 -0.9375 0 0 Z " fill="#EBB32A" transform="translate(1018.1875,979.9375)"/>
<path d="M0 0 C0.99 0.33 1.98 0.66 3 1 C2.67 1.99 2.34 2.98 2 4 C-0.31 4 -2.62 4 -5 4 C-2.6875 1.9375 -2.6875 1.9375 0 0 Z " fill="#3078BE" transform="translate(628,966)"/>
<path d="M0 0 C7.75 0.75 7.75 0.75 10 3 C8.375 3.6875 8.375 3.6875 6 4 C2.75 2.5625 2.75 2.5625 0 1 C0 0.67 0 0.34 0 0 Z " fill="#2477C1" transform="translate(1120,926)"/>
<path d="M0 0 C2.475 0.99 2.475 0.99 5 2 C5 2.66 5 3.32 5 4 C2.69 4 0.38 4 -2 4 C-1.34 2.68 -0.68 1.36 0 0 Z " fill="#F3B61D" transform="translate(1026,883)"/>
<path d="M0 0 C1.4606285 2.64738916 2 3.89448334 2 7 C0.35 5.35 -1.3 3.7 -3 2 C-2.01 1.34 -1.02 0.68 0 0 Z " fill="#F0B323" transform="translate(939,745)"/>
<path d="M0 0 C1.5625 1.75 1.5625 1.75 3 4 C2.6875 6.25 2.6875 6.25 2 8 C1.34 8 0.68 8 0 8 C-1.125 6.25 -1.125 6.25 -2 4 C-1.125 1.75 -1.125 1.75 0 0 Z " fill="#2578C2" transform="translate(692,735)"/>
<path d="M0 0 C2.31 0.33 4.62 0.66 7 1 C4.61426621 2.89213369 2.92824652 4.02391783 0 5 C0 3.35 0 1.7 0 0 Z " fill="#EBB225" transform="translate(1048,721)"/>
<path d="M0 0 C1.32 0.66 2.64 1.32 4 2 C1.63707344 4.52588702 0.33537489 5.88820837 -3 7 C-2.690625 6.401875 -2.38125 5.80375 -2.0625 5.1875 C-0.89790296 2.91043228 -0.89790296 2.91043228 0 0 Z " fill="#297AC0" transform="translate(958,672)"/>
<path d="M0 0 C0.66 0.99 1.32 1.98 2 3 C0.6875 4.5 0.6875 4.5 -1 6 C-1.99 6 -2.98 6 -4 6 C-3.6875 4.125 -3.6875 4.125 -3 2 C-2.01 1.34 -1.02 0.68 0 0 Z " fill="#F0B421" transform="translate(1009,641)"/>
<path d="M0 0 C1.32 0.66 2.64 1.32 4 2 C4 2.66 4 3.32 4 4 C2.02 4.33 0.04 4.66 -2 5 C-1.125 1.125 -1.125 1.125 0 0 Z " fill="#F1B323" transform="translate(555,602)"/>
<path d="M0 0 C0.33 1.32 0.66 2.64 1 4 C-1.6666419 5.33332095 -3.16680303 4.67102033 -6 4 C-2.25 0 -2.25 0 0 0 Z " fill="#EDB421" transform="translate(1078,594)"/>
<path d="M0 0 C-1 3 -1 3 -3.0625 4.1875 C-3.701875 4.455625 -4.34125 4.72375 -5 5 C-5.66 4.01 -6.32 3.02 -7 2 C-4.35261084 0.5393715 -3.10551666 0 0 0 Z " fill="#2375C5" transform="translate(1096,579)"/>
<path d="M0 0 C1.65 0 3.3 0 5 0 C3.25 2.0625 3.25 2.0625 1 4 C-1.25 3.75 -1.25 3.75 -3 3 C-2.34 3 -1.68 3 -1 3 C-0.67 2.01 -0.34 1.02 0 0 Z " fill="#EEB420" transform="translate(1156,1043)"/>
<path d="M0 0 C0.33 0.66 0.66 1.32 1 2 C0.0625 4.625 0.0625 4.625 -1 7 C-1.99 6.67 -2.98 6.34 -4 6 C-2.84826645 3.53199953 -1.95216435 1.95216435 0 0 Z " fill="#3177C3" transform="translate(1172,1032)"/>
<path d="M0 0 C2 3 2 3 2 6 C1.34 6 0.68 6 0 6 C0 6.66 0 7.32 0 8 C-0.66 8 -1.32 8 -2 8 C-1.34 5.36 -0.68 2.72 0 0 Z " fill="#2077C2" transform="translate(923,906)"/>
<path d="M0 0 C3.465 1.485 3.465 1.485 7 3 C3.25 5 3.25 5 1 5 C1 4.01 1 3.02 1 2 C0.34 1.67 -0.32 1.34 -1 1 C-0.67 0.67 -0.34 0.34 0 0 Z " fill="#F2B321" transform="translate(985,864)"/>
<path d="M0 0 C2.64 0.99 5.28 1.98 8 3 C7.67 3.99 7.34 4.98 7 6 C6.01 5.67 5.02 5.34 4 5 C4 4.34 4 3.68 4 3 C2.68 2.67 1.36 2.34 0 2 C0 1.34 0 0.68 0 0 Z " fill="#2F7ABB" transform="translate(489,687)"/>
<path d="M0 0 C2.475 0.495 2.475 0.495 5 1 C5 1.99 5 2.98 5 4 C4.01 4.495 4.01 4.495 3 5 C1.5 3.625 1.5 3.625 0 2 C0 1.34 0 0.68 0 0 Z " fill="#2A76C2" transform="translate(642,660)"/>
<path d="M0 0 C0.66 0.33 1.32 0.66 2 1 C1.34 2.98 0.68 4.96 0 7 C-0.99 6.67 -1.98 6.34 -3 6 C-2.01 4.02 -1.02 2.04 0 0 Z " fill="#367BB4" transform="translate(1186,652)"/>
<path d="M0 0 C0.66 0 1.32 0 2 0 C2.33 0.99 2.66 1.98 3 3 C4.49985609 4.66710346 4.49985609 4.66710346 6 6 C3.03824877 5.38722388 1.61941217 4.74627478 -1 3 C-0.67 2.01 -0.34 1.02 0 0 Z " fill="#2F77C7" transform="translate(570,609)"/>
<path d="M0 0 C0.33 1.32 0.66 2.64 1 4 C-1.31 4 -3.62 4 -6 4 C-2.25 0 -2.25 0 0 0 Z " fill="#EAB32B" transform="translate(1115,568)"/>
<path d="M0 0 C-0.99 0.495 -0.99 0.495 -2 1 C-2.33 1.99 -2.66 2.98 -3 4 C-4.65 2.68 -6.3 1.36 -8 0 C-4.71023192 -1.09658936 -3.28696233 -0.79953138 0 0 Z " fill="#2F79BF" transform="translate(512,566)"/>
<path d="M0 0 C0.763125 0.556875 1.52625 1.11375 2.3125 1.6875 C2.3125 2.3475 2.3125 3.0075 2.3125 3.6875 C-3.4375 1.9375 -3.4375 1.9375 -5.6875 -0.3125 C-2.6875 -1.3125 -2.6875 -1.3125 0 0 Z " fill="#2E7AC0" transform="translate(845.6875,390.3125)"/>
</svg>
