<?xml version="1.0" standalone="no"?>
<!DOCTYPE svg PUBLIC "-//W3C//DTD SVG 20010904//EN"
 "http://www.w3.org/TR/2001/REC-SVG-20010904/DTD/svg10.dtd">
<svg version="1.0" xmlns="http://www.w3.org/2000/svg"
 width="300.000000pt" height="300.000000pt" viewBox="0 0 300.000000 300.000000"
 preserveAspectRatio="xMidYMid meet">

<g transform="translate(0.000000,300.000000) scale(0.100000,-0.100000)"
fill="#000000" stroke="none">
<path d="M150 698 c5 -46 123 -475 134 -486 8 -8 34 -16 58 -16 l43 -1 31 120
c18 66 38 150 45 188 11 63 29 91 29 47 0 -45 64 -313 79 -331 17 -21 79 -35
97 -22 6 4 39 113 73 242 35 129 65 240 68 248 4 10 -8 13 -49 13 l-54 0 -38
-190 c-22 -105 -41 -188 -44 -185 -3 3 -20 78 -38 167 -18 90 -36 173 -39 186
-5 19 -12 22 -59 22 l-54 0 -36 -150 c-20 -83 -39 -171 -43 -196 -3 -25 -9
-41 -13 -37 -5 4 -20 71 -35 148 -14 77 -31 161 -37 188 l-10 47 -54 0 c-30 0
-54 -1 -54 -2z"/>
<path d="M1200 450 l0 -250 50 0 50 0 0 250 0 250 -50 0 -50 0 0 -250z"/>
<path d="M2672 474 l3 -226 33 -29 c25 -23 42 -29 76 -29 65 0 76 7 76 46 0
31 -3 34 -29 34 -51 0 -61 20 -61 126 l0 94 45 0 45 0 0 45 0 45 -45 0 -45 0
0 60 0 60 -51 0 -50 0 3 -226z"/>
<path d="M865 566 c-34 -10 -40 -16 -37 -36 4 -35 15 -42 46 -30 44 17 111 12
129 -8 32 -35 22 -49 -41 -55 -134 -12 -204 -96 -157 -187 30 -59 120 -78 183
-40 l33 20 28 -21 c16 -11 39 -19 51 -17 23 3 23 4 21 143 -2 161 -14 199 -71
227 -41 21 -125 23 -185 4z m155 -226 c0 -69 -72 -107 -115 -60 -37 41 10 99
83 100 31 0 32 -2 32 -40z"/>
<path d="M1518 564 c-16 -8 -28 -19 -28 -24 0 -6 -4 -10 -10 -10 -5 0 -10 9
-10 20 0 17 -7 20 -47 20 l-48 0 0 -185 0 -185 50 0 50 0 0 124 c0 118 1 126
24 150 29 31 64 33 91 6 18 -18 20 -33 20 -150 l0 -130 50 0 50 0 0 124 c0
110 2 126 21 150 25 32 68 35 95 5 16 -18 19 -40 22 -150 l4 -129 50 0 50 0
-4 143 c-3 111 -7 149 -21 174 -39 73 -145 85 -207 23 l-21 -21 -35 30 c-40
35 -99 41 -146 15z"/>
<path d="M2085 573 c-61 -17 -65 -20 -53 -53 8 -23 15 -29 27 -24 9 3 40 9 69
12 57 5 92 -13 92 -50 0 -14 -8 -18 -37 -18 -61 0 -115 -20 -150 -55 -28 -28
-33 -40 -33 -81 0 -52 18 -83 57 -103 34 -17 94 -13 136 9 l37 20 20 -20 c11
-11 33 -20 49 -20 l30 0 -6 148 c-3 81 -10 158 -17 171 -21 45 -61 65 -134 68
-37 1 -76 -1 -87 -4z m145 -228 c0 -45 -37 -85 -78 -85 -35 0 -52 16 -52 50 0
42 37 68 98 69 30 1 32 -1 32 -34z"/>
<path d="M2543 560 c-18 -11 -33 -27 -33 -35 0 -8 -4 -15 -10 -15 -5 0 -10 14
-10 30 0 29 -2 30 -45 30 l-45 0 0 -185 0 -185 50 0 50 0 0 105 c0 59 5 115
12 130 13 29 55 55 88 55 17 0 20 6 20 45 0 40 -2 45 -22 45 -13 0 -38 -9 -55
-20z"/>
</g>
</svg>
